<?xml version="1.0" encoding="utf-8" standalone="no"?>
<!DOCTYPE svg PUBLIC "-//W3C//DTD SVG 1.1//EN"
  "http://www.w3.org/Graphics/SVG/1.1/DTD/svg11.dtd">
<svg xmlns:xlink="http://www.w3.org/1999/xlink" width="294.64625pt" height="282.00125pt" viewBox="0 0 294.64625 282.00125" xmlns="http://www.w3.org/2000/svg" version="1.1">
 <metadata>
  <rdf:RDF xmlns:dc="http://purl.org/dc/elements/1.1/" xmlns:cc="http://creativecommons.org/ns#" xmlns:rdf="http://www.w3.org/1999/02/22-rdf-syntax-ns#">
   <cc:Work>
    <dc:type rdf:resource="http://purl.org/dc/dcmitype/StillImage"/>
    <dc:date>2025-08-04T11:23:53.943995</dc:date>
    <dc:format>image/svg+xml</dc:format>
    <dc:creator>
     <cc:Agent>
      <dc:title>Matplotlib v3.8.2, https://matplotlib.org/</dc:title>
     </cc:Agent>
    </dc:creator>
   </cc:Work>
  </rdf:RDF>
 </metadata>
 <defs>
  <style type="text/css">*{stroke-linejoin: round; stroke-linecap: butt}</style>
 </defs>
 <g id="figure_1">
  <g id="patch_1">
   <path d="M 0 282.00125 
L 294.64625 282.00125 
L 294.64625 0 
L 0 0 
z
" style="fill: #ffffff"/>
  </g>
  <g id="axes_1">
   <g id="patch_2">
    <path d="M 64.24625 228.96 
L 287.44625 228.96 
L 287.44625 7.2 
L 64.24625 7.2 
z
" style="fill: #ffffff"/>
   </g>
   <g id="PathCollection_1">
    <defs>
     <path id="md584bac308" d="M 0 3 
C 0.795609 3 1.55874 2.683901 2.12132 2.12132 
C 2.683901 1.55874 3 0.795609 3 0 
C 3 -0.795609 2.683901 -1.55874 2.12132 -2.12132 
C 1.55874 -2.683901 0.795609 -3 0 -3 
C -0.795609 -3 -1.55874 -2.683901 -2.12132 -2.12132 
C -2.683901 -1.55874 -3 -0.795609 -3 0 
C -3 0.795609 -2.683901 1.55874 -2.12132 2.12132 
C -1.55874 2.683901 -0.795609 3 0 3 
z
" style="stroke: #000000; stroke-opacity: 0.8"/>
    </defs>
    <g clip-path="url(#p58f5b35bc3)">
     <use xlink:href="#md584bac308" x="279.09117" y="164.636514" style="fill-opacity: 0.8; stroke: #000000; stroke-opacity: 0.8"/>
     <use xlink:href="#md584bac308" x="111.989566" y="191.428608" style="fill-opacity: 0.8; stroke: #000000; stroke-opacity: 0.8"/>
     <use xlink:href="#md584bac308" x="183.604539" y="171.334538" style="fill-opacity: 0.8; stroke: #000000; stroke-opacity: 0.8"/>
     <use xlink:href="#md584bac308" x="135.861223" y="191.428608" style="fill-opacity: 0.8; stroke: #000000; stroke-opacity: 0.8"/>
     <use xlink:href="#md584bac308" x="111.989566" y="144.542444" style="fill-opacity: 0.8; stroke: #000000; stroke-opacity: 0.8"/>
     <use xlink:href="#md584bac308" x="111.989566" y="144.542444" style="fill-opacity: 0.8; stroke: #000000; stroke-opacity: 0.8"/>
     <use xlink:href="#md584bac308" x="255.219512" y="137.844421" style="fill-opacity: 0.8; stroke: #000000; stroke-opacity: 0.8"/>
     <use xlink:href="#md584bac308" x="159.732881" y="171.334538" style="fill-opacity: 0.8; stroke: #000000; stroke-opacity: 0.8"/>
     <use xlink:href="#md584bac308" x="279.09117" y="124.448374" style="fill-opacity: 0.8; stroke: #000000; stroke-opacity: 0.8"/>
     <use xlink:href="#md584bac308" x="159.732881" y="211.522678" style="fill-opacity: 0.8; stroke: #000000; stroke-opacity: 0.8"/>
     <use xlink:href="#md584bac308" x="279.09117" y="131.146397" style="fill-opacity: 0.8; stroke: #000000; stroke-opacity: 0.8"/>
     <use xlink:href="#md584bac308" x="279.09117" y="17.28" style="fill-opacity: 0.8; stroke: #000000; stroke-opacity: 0.8"/>
     <use xlink:href="#md584bac308" x="279.09117" y="77.56221" style="fill-opacity: 0.8; stroke: #000000; stroke-opacity: 0.8"/>
     <use xlink:href="#md584bac308" x="279.09117" y="164.636514" style="fill-opacity: 0.8; stroke: #000000; stroke-opacity: 0.8"/>
     <use xlink:href="#md584bac308" x="279.09117" y="151.240468" style="fill-opacity: 0.8; stroke: #000000; stroke-opacity: 0.8"/>
     <use xlink:href="#md584bac308" x="279.09117" y="37.37407" style="fill-opacity: 0.8; stroke: #000000; stroke-opacity: 0.8"/>
    </g>
   </g>
   <g id="PolyCollection_1">
    <path d="M 279.09117 78.195533 
L 279.09117 148.778742 
L 277.403275 148.923199 
L 275.71538 149.067656 
L 274.027485 149.212113 
L 272.33959 149.420144 
L 270.651695 149.7115 
L 268.9638 149.849713 
L 267.275905 149.987926 
L 265.58801 150.132762 
L 263.900115 150.378263 
L 262.21222 150.623764 
L 260.524325 150.869266 
L 258.83643 151.114767 
L 257.148535 151.455882 
L 255.46064 151.688902 
L 253.772745 152.043638 
L 252.08485 152.493728 
L 250.396955 152.946549 
L 248.70906 153.401885 
L 247.021165 153.770928 
L 245.33327 153.968809 
L 243.645375 154.171502 
L 241.95748 154.606056 
L 240.269585 155.051284 
L 238.58169 155.317558 
L 236.893795 155.725055 
L 235.2059 156.1303 
L 233.518005 156.545887 
L 231.83011 156.960636 
L 230.142215 157.529024 
L 228.45432 157.979009 
L 226.766425 158.241036 
L 225.07853 158.71893 
L 223.390635 158.993761 
L 221.70274 159.403393 
L 220.014845 159.945132 
L 218.32695 160.449083 
L 216.639055 160.953034 
L 214.95116 161.44615 
L 213.263265 161.944428 
L 211.57537 162.436721 
L 209.887475 162.683613 
L 208.19958 163.434308 
L 206.511685 163.878447 
L 204.82379 164.111588 
L 203.135895 164.925179 
L 201.448 165.761047 
L 199.760105 166.373579 
L 198.07221 166.856124 
L 196.384315 167.497968 
L 194.69642 168.382689 
L 193.008525 169.340716 
L 191.32063 170.061462 
L 189.632735 171.227471 
L 187.94484 172.403952 
L 186.256945 172.876798 
L 184.56905 173.479397 
L 182.881155 173.725641 
L 181.19326 174.395183 
L 179.505365 175.364763 
L 177.81747 175.84219 
L 176.129575 176.590401 
L 174.44168 177.359256 
L 172.753785 178.307213 
L 171.06589 179.579425 
L 169.377995 180.676335 
L 167.6901 181.873351 
L 166.002205 182.728287 
L 164.31431 183.900793 
L 162.626415 184.635801 
L 160.93852 185.939267 
L 159.250625 186.676442 
L 157.56273 187.387801 
L 155.874835 188.629756 
L 154.18694 189.871711 
L 152.499045 191.100818 
L 150.81115 192.260351 
L 149.123255 193.594064 
L 147.43536 194.883078 
L 145.747465 196.139201 
L 144.05957 197.293274 
L 142.371675 198.527835 
L 140.68378 199.676656 
L 138.995885 200.564343 
L 137.30799 201.523323 
L 135.620095 202.782073 
L 133.9322 204.000294 
L 132.244305 205.042101 
L 130.55641 206.127486 
L 128.868515 206.889175 
L 127.18062 208.162706 
L 125.492725 209.502822 
L 123.80483 210.839672 
L 122.116935 212.171442 
L 120.42904 213.391963 
L 118.741145 214.739579 
L 117.05325 215.775395 
L 115.365355 216.810263 
L 113.677461 217.845132 
L 111.989566 218.88 
L 111.989566 156.48938 
L 111.989566 156.48938 
L 113.677461 155.940207 
L 115.365355 155.635572 
L 117.05325 155.291912 
L 118.741145 154.866354 
L 120.42904 154.503624 
L 122.116935 153.946604 
L 123.80483 153.48723 
L 125.492725 153.027855 
L 127.18062 152.725559 
L 128.868515 152.529227 
L 130.55641 151.835319 
L 132.244305 151.191506 
L 133.9322 150.730983 
L 135.620095 150.342867 
L 137.30799 149.921671 
L 138.995885 149.400159 
L 140.68378 148.896856 
L 142.371675 148.436099 
L 144.05957 147.975341 
L 145.747465 147.33918 
L 147.43536 146.830542 
L 149.123255 146.400831 
L 150.81115 145.737366 
L 152.499045 145.213295 
L 154.18694 144.693027 
L 155.874835 144.154805 
L 157.56273 143.439021 
L 159.250625 142.732019 
L 160.93852 142.014331 
L 162.626415 141.296644 
L 164.31431 140.587185 
L 166.002205 139.881799 
L 167.6901 139.373759 
L 169.377995 138.647418 
L 171.06589 138.243199 
L 172.753785 137.258227 
L 174.44168 136.765383 
L 176.129575 136.073941 
L 177.81747 135.273255 
L 179.505365 134.475102 
L 181.19326 133.679013 
L 182.881155 132.884447 
L 184.56905 132.255927 
L 186.256945 131.43215 
L 187.94484 130.622366 
L 189.632735 129.859628 
L 191.32063 129.152743 
L 193.008525 128.484727 
L 194.69642 127.938993 
L 196.384315 127.124955 
L 198.07221 126.245639 
L 199.760105 125.197105 
L 201.448 124.23872 
L 203.135895 123.363009 
L 204.82379 122.869617 
L 206.511685 121.882475 
L 208.19958 120.912107 
L 209.887475 120.02604 
L 211.57537 119.11177 
L 213.263265 118.254105 
L 214.95116 117.292666 
L 216.639055 116.283294 
L 218.32695 115.338987 
L 220.014845 114.365844 
L 221.70274 113.479827 
L 223.390635 112.710319 
L 225.07853 111.785088 
L 226.766425 110.819713 
L 228.45432 109.854339 
L 230.142215 108.895324 
L 231.83011 108.020396 
L 233.518005 106.968905 
L 235.2059 105.968122 
L 236.893795 104.777668 
L 238.58169 103.629404 
L 240.269585 102.647751 
L 241.95748 101.666097 
L 243.645375 100.686401 
L 245.33327 99.681966 
L 247.021165 98.449262 
L 248.70906 97.346358 
L 250.396955 96.496354 
L 252.08485 95.542577 
L 253.772745 94.581853 
L 255.46064 93.277234 
L 257.148535 92.125908 
L 258.83643 91.091032 
L 260.524325 90.064056 
L 262.21222 89.056898 
L 263.900115 88.049739 
L 265.58801 87.043973 
L 267.275905 86.044578 
L 268.9638 85.045183 
L 270.651695 84.045788 
L 272.33959 83.046393 
L 274.027485 82.046999 
L 275.71538 80.986476 
L 277.403275 79.719142 
L 279.09117 78.195533 
z
" clip-path="url(#p58f5b35bc3)" style="fill-opacity: 0.15"/>
   </g>
   <g id="matplotlib.axis_1">
    <g id="xtick_1">
     <g id="line2d_1">
      <defs>
       <path id="md00df348d7" d="M 0 0 
L 0 3.5 
" style="stroke: #000000; stroke-width: 0.8"/>
      </defs>
      <g>
       <use xlink:href="#md00df348d7" x="222.846111" y="228.96" style="stroke: #000000; stroke-width: 0.8"/>
      </g>
     </g>
     <g id="text_1">
      <text style="font: 18px 'DejaVu Sans', 'Bitstream Vera Sans', 'Computer Modern Sans Serif', 'Lucida Grande', 'Verdana', 'Geneva', 'Lucid', 'Arial', 'Helvetica', 'Avant Garde', sans-serif; text-anchor: middle" x="222.846111" y="249.637187" transform="rotate(-0 222.846111 249.637187)">0.99</text>
     </g>
    </g>
    <g id="xtick_2">
     <g id="line2d_2">
      <g>
       <use xlink:href="#md00df348d7" x="143.546181" y="228.96" style="stroke: #000000; stroke-width: 0.8"/>
      </g>
     </g>
     <g id="text_2">
      <text style="font: 18px 'DejaVu Sans', 'Bitstream Vera Sans', 'Computer Modern Sans Serif', 'Lucida Grande', 'Verdana', 'Geneva', 'Lucid', 'Arial', 'Helvetica', 'Avant Garde', sans-serif; text-anchor: middle" x="143.546181" y="249.637187" transform="rotate(-0 143.546181 249.637187)">0.9</text>
     </g>
    </g>
    <g id="xtick_3">
     <g id="line2d_3">
      <g>
       <use xlink:href="#md00df348d7" x="64.24625" y="228.96" style="stroke: #000000; stroke-width: 0.8"/>
      </g>
     </g>
     <g id="text_3">
      <text style="font: 18px 'DejaVu Sans', 'Bitstream Vera Sans', 'Computer Modern Sans Serif', 'Lucida Grande', 'Verdana', 'Geneva', 'Lucid', 'Arial', 'Helvetica', 'Avant Garde', sans-serif; text-anchor: middle" x="64.24625" y="249.637187" transform="rotate(-0 64.24625 249.637187)">0</text>
     </g>
    </g>
    <g id="text_4">
     <!-- double-Wilson $r$ -->
     <g transform="translate(105.55625 271.057812)">
      <text>
       <tspan style="font: 18px 'DejaVu Sans'" x="0 11.425781 22.438477 33.84668 45.272461 50.273438 61.347656 67.842773 85.640625 90.641602 95.642578 105.020508 116.033203 127.441406" y="-0.328125">double-Wilson </tspan>
       <tspan style="font: oblique 18px 'DejaVu Sans'" x="133.163086" y="-0.328125">r</tspan>
      </text>
     </g>
    </g>
   </g>
   <g id="matplotlib.axis_2">
    <g id="ytick_1">
     <g id="line2d_4">
      <defs>
       <path id="m7933cb65c7" d="M 0 0 
L -3.5 0 
" style="stroke: #000000; stroke-width: 0.8"/>
      </defs>
      <g>
       <use xlink:href="#m7933cb65c7" x="64.24625" y="191.428608" style="stroke: #000000; stroke-width: 0.8"/>
      </g>
     </g>
     <g id="text_5">
      <text style="font: 18px 'DejaVu Sans', 'Bitstream Vera Sans', 'Computer Modern Sans Serif', 'Lucida Grande', 'Verdana', 'Geneva', 'Lucid', 'Arial', 'Helvetica', 'Avant Garde', sans-serif; text-anchor: end" x="57.24625" y="198.267202" transform="rotate(-0 57.24625 198.267202)">0.1</text>
     </g>
    </g>
    <g id="ytick_2">
     <g id="line2d_5">
      <g>
       <use xlink:href="#m7933cb65c7" x="64.24625" y="124.448374" style="stroke: #000000; stroke-width: 0.8"/>
      </g>
     </g>
     <g id="text_6">
      <text style="font: 18px 'DejaVu Sans', 'Bitstream Vera Sans', 'Computer Modern Sans Serif', 'Lucida Grande', 'Verdana', 'Geneva', 'Lucid', 'Arial', 'Helvetica', 'Avant Garde', sans-serif; text-anchor: end" x="57.24625" y="131.286968" transform="rotate(-0 57.24625 131.286968)">0.2</text>
     </g>
    </g>
    <g id="ytick_3">
     <g id="line2d_6">
      <g>
       <use xlink:href="#m7933cb65c7" x="64.24625" y="57.46814" style="stroke: #000000; stroke-width: 0.8"/>
      </g>
     </g>
     <g id="text_7">
      <text style="font: 18px 'DejaVu Sans', 'Bitstream Vera Sans', 'Computer Modern Sans Serif', 'Lucida Grande', 'Verdana', 'Geneva', 'Lucid', 'Arial', 'Helvetica', 'Avant Garde', sans-serif; text-anchor: end" x="57.24625" y="64.306734" transform="rotate(-0 57.24625 64.306734)">0.3</text>
     </g>
    </g>
    <g id="text_8">
     <text style="font: 18px 'DejaVu Sans', 'Bitstream Vera Sans', 'Computer Modern Sans Serif', 'Lucida Grande', 'Verdana', 'Geneva', 'Lucid', 'Arial', 'Helvetica', 'Avant Garde', sans-serif; text-anchor: middle" x="20.877188" y="118.08" transform="rotate(-90 20.877188 118.08)">1-BDC</text>
    </g>
   </g>
   <g id="line2d_7">
    <path d="M 279.09117 113.412811 
L 277.403275 114.116006 
L 275.71538 114.819201 
L 274.027485 115.522396 
L 272.33959 116.225591 
L 270.651695 116.928787 
L 268.9638 117.631982 
L 267.275905 118.335177 
L 265.58801 119.038372 
L 263.900115 119.741567 
L 262.21222 120.444762 
L 260.524325 121.147957 
L 258.83643 121.851152 
L 257.148535 122.554347 
L 255.46064 123.257542 
L 253.772745 123.960737 
L 252.08485 124.663932 
L 250.396955 125.367127 
L 248.70906 126.070322 
L 247.021165 126.773517 
L 245.33327 127.476712 
L 243.645375 128.179907 
L 241.95748 128.883102 
L 240.269585 129.586297 
L 238.58169 130.289492 
L 236.893795 130.992687 
L 235.2059 131.695882 
L 233.518005 132.399077 
L 231.83011 133.102272 
L 230.142215 133.805467 
L 228.45432 134.508662 
L 226.766425 135.211857 
L 225.07853 135.915052 
L 223.390635 136.618247 
L 221.70274 137.321442 
L 220.014845 138.024637 
L 218.32695 138.727832 
L 216.639055 139.431027 
L 214.95116 140.134222 
L 213.263265 140.837417 
L 211.57537 141.540612 
L 209.887475 142.243807 
L 208.19958 142.947002 
L 206.511685 143.650197 
L 204.82379 144.353392 
L 203.135895 145.056587 
L 201.448 145.759783 
L 199.760105 146.462978 
L 198.07221 147.166173 
L 196.384315 147.869368 
L 194.69642 148.572563 
L 193.008525 149.275758 
L 191.32063 149.978953 
L 189.632735 150.682148 
L 187.94484 151.385343 
L 186.256945 152.088538 
L 184.56905 152.791733 
L 182.881155 153.494928 
L 181.19326 154.198123 
L 179.505365 154.901318 
L 177.81747 155.604513 
L 176.129575 156.307708 
L 174.44168 157.010903 
L 172.753785 157.714098 
L 171.06589 158.417293 
L 169.377995 159.120488 
L 167.6901 159.823683 
L 166.002205 160.526878 
L 164.31431 161.230073 
L 162.626415 161.933268 
L 160.93852 162.636463 
L 159.250625 163.339658 
L 157.56273 164.042853 
L 155.874835 164.746048 
L 154.18694 165.449243 
L 152.499045 166.152438 
L 150.81115 166.855633 
L 149.123255 167.558828 
L 147.43536 168.262023 
L 145.747465 168.965218 
L 144.05957 169.668413 
L 142.371675 170.371608 
L 140.68378 171.074803 
L 138.995885 171.777998 
L 137.30799 172.481193 
L 135.620095 173.184388 
L 133.9322 173.887583 
L 132.244305 174.590778 
L 130.55641 175.293974 
L 128.868515 175.997169 
L 127.18062 176.700364 
L 125.492725 177.403559 
L 123.80483 178.106754 
L 122.116935 178.809949 
L 120.42904 179.513144 
L 118.741145 180.216339 
L 117.05325 180.919534 
L 115.365355 181.622729 
L 113.677461 182.325924 
L 111.989566 183.029119 
" clip-path="url(#p58f5b35bc3)" style="fill: none; stroke: #000000; stroke-width: 2.25; stroke-linecap: square"/>
   </g>
   <g id="patch_3">
    <path d="M 64.24625 228.96 
L 64.24625 7.2 
" style="fill: none; stroke: #000000; stroke-width: 0.8; stroke-linejoin: miter; stroke-linecap: square"/>
   </g>
   <g id="patch_4">
    <path d="M 287.44625 228.96 
L 287.44625 7.2 
" style="fill: none; stroke: #000000; stroke-width: 0.8; stroke-linejoin: miter; stroke-linecap: square"/>
   </g>
   <g id="patch_5">
    <path d="M 64.24625 228.96 
L 287.44625 228.96 
" style="fill: none; stroke: #000000; stroke-width: 0.8; stroke-linejoin: miter; stroke-linecap: square"/>
   </g>
   <g id="patch_6">
    <path d="M 64.24625 7.2 
L 287.44625 7.2 
" style="fill: none; stroke: #000000; stroke-width: 0.8; stroke-linejoin: miter; stroke-linecap: square"/>
   </g>
  </g>
 </g>
 <defs>
  <clipPath id="p58f5b35bc3">
   <rect x="64.24625" y="7.2" width="223.2" height="221.76"/>
  </clipPath>
 </defs>
</svg>
