<?xml version="1.0" encoding="utf-8" standalone="no"?>
<!DOCTYPE svg PUBLIC "-//W3C//DTD SVG 1.1//EN"
  "http://www.w3.org/Graphics/SVG/1.1/DTD/svg11.dtd">
<svg xmlns:xlink="http://www.w3.org/1999/xlink" width="289.53pt" height="278.13pt" viewBox="0 0 289.53 278.13" xmlns="http://www.w3.org/2000/svg" version="1.1">
 <metadata>
  <rdf:RDF xmlns:dc="http://purl.org/dc/elements/1.1/" xmlns:cc="http://creativecommons.org/ns#" xmlns:rdf="http://www.w3.org/1999/02/22-rdf-syntax-ns#">
   <cc:Work>
    <dc:type rdf:resource="http://purl.org/dc/dcmitype/StillImage"/>
    <dc:date>2024-03-22T13:37:52.522279</dc:date>
    <dc:format>image/svg+xml</dc:format>
    <dc:creator>
     <cc:Agent>
      <dc:title>Matplotlib v3.8.2, https://matplotlib.org/</dc:title>
     </cc:Agent>
    </dc:creator>
   </cc:Work>
  </rdf:RDF>
 </metadata>
 <defs>
  <style type="text/css">*{stroke-linejoin: round; stroke-linecap: butt}</style>
 </defs>
 <g id="figure_1">
  <g id="patch_1">
   <path d="M 0 278.13 
L 289.53 278.13 
L 289.53 0 
L 0 0 
z
" style="fill: #ffffff"/>
  </g>
  <g id="axes_1">
   <g id="patch_2">
    <path d="M 59.13 228.96 
L 282.33 228.96 
L 282.33 7.2 
L 59.13 7.2 
z
" style="fill: #ffffff"/>
   </g>
   <g id="PathCollection_1">
    <defs>
     <path id="m29e4f5f569" d="M 0 3 
C 0.795609 3 1.55874 2.683901 2.12132 2.12132 
C 2.683901 1.55874 3 0.795609 3 0 
C 3 -0.795609 2.683901 -1.55874 2.12132 -2.12132 
C 1.55874 -2.683901 0.795609 -3 0 -3 
C -0.795609 -3 -1.55874 -2.683901 -2.12132 -2.12132 
C -2.683901 -1.55874 -3 -0.795609 -3 0 
C -3 0.795609 -2.683901 1.55874 -2.12132 2.12132 
C -1.55874 2.683901 -0.795609 3 0 3 
z
" style="stroke: #000000; stroke-opacity: 0.8"/>
    </defs>
    <g clip-path="url(#pa6c10e20d4)">
     <use xlink:href="#m29e4f5f569" x="219.478995" y="166.133104" style="fill-opacity: 0.8; stroke: #000000; stroke-opacity: 0.8"/>
     <use xlink:href="#m29e4f5f569" x="246.152439" y="193.197305" style="fill-opacity: 0.8; stroke: #000000; stroke-opacity: 0.8"/>
     <use xlink:href="#m29e4f5f569" x="246.152439" y="172.899155" style="fill-opacity: 0.8; stroke: #000000; stroke-opacity: 0.8"/>
     <use xlink:href="#m29e4f5f569" x="246.152439" y="193.197305" style="fill-opacity: 0.8; stroke: #000000; stroke-opacity: 0.8"/>
     <use xlink:href="#m29e4f5f569" x="139.298328" y="145.834954" style="fill-opacity: 0.8; stroke: #000000; stroke-opacity: 0.8"/>
     <use xlink:href="#m29e4f5f569" x="192.74388" y="145.834954" style="fill-opacity: 0.8; stroke: #000000; stroke-opacity: 0.8"/>
     <use xlink:href="#m29e4f5f569" x="192.74388" y="139.068904" style="fill-opacity: 0.8; stroke: #000000; stroke-opacity: 0.8"/>
     <use xlink:href="#m29e4f5f569" x="139.298328" y="172.899155" style="fill-opacity: 0.8; stroke: #000000; stroke-opacity: 0.8"/>
     <use xlink:href="#m29e4f5f569" x="246.152439" y="125.536803" style="fill-opacity: 0.8; stroke: #000000; stroke-opacity: 0.8"/>
     <use xlink:href="#m29e4f5f569" x="192.74388" y="213.495456" style="fill-opacity: 0.8; stroke: #000000; stroke-opacity: 0.8"/>
     <use xlink:href="#m29e4f5f569" x="166.021104" y="132.302853" style="fill-opacity: 0.8; stroke: #000000; stroke-opacity: 0.8"/>
     <use xlink:href="#m29e4f5f569" x="85.852776" y="17.28" style="fill-opacity: 0.8; stroke: #000000; stroke-opacity: 0.8"/>
     <use xlink:href="#m29e4f5f569" x="139.298328" y="78.174452" style="fill-opacity: 0.8; stroke: #000000; stroke-opacity: 0.8"/>
     <use xlink:href="#m29e4f5f569" x="272.973942" y="166.133104" style="fill-opacity: 0.8; stroke: #000000; stroke-opacity: 0.8"/>
     <use xlink:href="#m29e4f5f569" x="192.74388" y="152.601004" style="fill-opacity: 0.8; stroke: #000000; stroke-opacity: 0.8"/>
     <use xlink:href="#m29e4f5f569" x="219.478995" y="37.578151" style="fill-opacity: 0.8; stroke: #000000; stroke-opacity: 0.8"/>
    </g>
   </g>
   <g id="PolyCollection_1">
    <path d="M 272.973942 133.014714 
L 272.973942 218.88 
L 271.083829 217.088767 
L 269.193716 215.60239 
L 267.303603 213.75452 
L 265.413491 211.90665 
L 263.523378 210.052322 
L 261.633265 208.196853 
L 259.743152 206.391166 
L 257.853039 204.706092 
L 255.962927 203.326607 
L 254.072814 201.947122 
L 252.182701 200.567637 
L 250.292588 199.037805 
L 248.402476 197.447812 
L 246.512363 196.103708 
L 244.62225 194.759604 
L 242.732137 193.4155 
L 240.842024 192.064211 
L 238.951912 190.281458 
L 237.061799 188.645871 
L 235.171686 187.458714 
L 233.281573 186.278863 
L 231.39146 184.911437 
L 229.501348 183.817271 
L 227.611235 182.492687 
L 225.721122 181.165768 
L 223.831009 179.854793 
L 221.940897 178.511931 
L 220.050784 177.185013 
L 218.160671 175.857874 
L 216.270558 174.530672 
L 214.380445 173.06346 
L 212.490333 171.877338 
L 210.60022 170.676855 
L 208.710107 169.718127 
L 206.819994 168.414615 
L 204.929881 167.610355 
L 203.039769 167.005478 
L 201.149656 166.244003 
L 199.259543 165.006841 
L 197.36943 163.966581 
L 195.479318 163.402865 
L 193.589205 162.827895 
L 191.699092 162.001108 
L 189.808979 161.562051 
L 187.918866 161.235134 
L 186.028754 160.695131 
L 184.138641 160.072808 
L 182.248528 159.66364 
L 180.358415 159.050451 
L 178.468302 158.568079 
L 176.57819 158.076846 
L 174.688077 157.910833 
L 172.797964 157.57763 
L 170.907851 157.257557 
L 169.017739 157.035795 
L 167.127626 156.910103 
L 165.237513 156.706896 
L 163.3474 156.661628 
L 161.457287 156.555939 
L 159.567175 156.441167 
L 157.677062 156.326396 
L 155.786949 156.573075 
L 153.896836 157.071491 
L 152.006723 156.561775 
L 150.116611 156.579464 
L 148.226498 156.854007 
L 146.336385 157.128549 
L 144.446272 157.369307 
L 142.55616 157.435111 
L 140.666047 157.500915 
L 138.775934 157.552008 
L 136.885821 157.548605 
L 134.995708 157.671544 
L 133.105596 157.919286 
L 131.215483 158.060849 
L 129.32537 157.861884 
L 127.435257 157.925331 
L 125.545144 157.979956 
L 123.655032 158.032279 
L 121.764919 157.817054 
L 119.874806 158.117221 
L 117.984693 158.296901 
L 116.094581 158.284483 
L 114.204468 158.339515 
L 112.314355 158.393999 
L 110.424242 158.458583 
L 108.534129 158.524832 
L 106.644017 158.58558 
L 104.753904 158.63908 
L 102.863791 158.590568 
L 100.973678 158.385265 
L 99.083565 158.789086 
L 97.193453 159.210798 
L 95.30334 159.633571 
L 93.413227 160.056343 
L 91.523114 160.469973 
L 89.633002 160.575767 
L 87.742889 160.652183 
L 85.852776 160.721656 
L 85.852776 36.669734 
L 85.852776 36.669734 
L 87.742889 38.226704 
L 89.633002 39.789858 
L 91.523114 41.608262 
L 93.413227 43.505399 
L 95.30334 45.163528 
L 97.193453 46.568139 
L 99.083565 48.049438 
L 100.973678 49.906999 
L 102.863791 51.642379 
L 104.753904 53.104148 
L 106.644017 54.81575 
L 108.534129 56.53577 
L 110.424242 57.937098 
L 112.314355 59.285823 
L 114.204468 60.966482 
L 116.094581 62.696749 
L 117.984693 64.150972 
L 119.874806 65.646458 
L 121.764919 67.235935 
L 123.655032 68.76179 
L 125.545144 70.375763 
L 127.435257 72.001794 
L 129.32537 73.502445 
L 131.215483 74.866654 
L 133.105596 76.498118 
L 134.995708 77.724286 
L 136.885821 78.950599 
L 138.775934 80.205379 
L 140.666047 81.754855 
L 142.55616 83.428061 
L 144.446272 85.288156 
L 146.336385 86.592839 
L 148.226498 87.883944 
L 150.116611 89.432027 
L 152.006723 90.688144 
L 153.896836 91.864888 
L 155.786949 93.052158 
L 157.677062 94.249014 
L 159.567175 95.455381 
L 161.457287 96.803807 
L 163.3474 98.214782 
L 165.237513 99.502089 
L 167.127626 100.795962 
L 169.017739 102.088979 
L 170.907851 103.37817 
L 172.797964 104.667108 
L 174.688077 105.956269 
L 176.57819 107.385592 
L 178.468302 109.125456 
L 180.358415 110.528271 
L 182.248528 111.931086 
L 184.138641 113.097844 
L 186.028754 113.928257 
L 187.918866 115.337347 
L 189.808979 116.475952 
L 191.699092 117.600869 
L 193.589205 118.697308 
L 195.479318 119.725694 
L 197.36943 120.593293 
L 199.259543 121.482853 
L 201.149656 122.374279 
L 203.039769 123.614299 
L 204.929881 124.667686 
L 206.819994 125.535128 
L 208.710107 125.976518 
L 210.60022 126.987642 
L 212.490333 127.884301 
L 214.380445 128.682947 
L 216.270558 129.413878 
L 218.160671 129.638285 
L 220.050784 129.939777 
L 221.940897 130.022363 
L 223.831009 130.45875 
L 225.721122 130.621696 
L 227.611235 130.358369 
L 229.501348 130.905054 
L 231.39146 131.410274 
L 233.281573 131.403013 
L 235.171686 131.931251 
L 237.061799 132.803739 
L 238.951912 133.670341 
L 240.842024 133.843023 
L 242.732137 133.770502 
L 244.62225 133.616793 
L 246.512363 133.883837 
L 248.402476 133.83183 
L 250.292588 133.629862 
L 252.182701 133.71159 
L 254.072814 133.934283 
L 255.962927 133.765144 
L 257.853039 133.613596 
L 259.743152 133.453732 
L 261.633265 133.79358 
L 263.523378 133.443207 
L 265.413491 133.092833 
L 267.303603 132.773896 
L 269.193716 132.75814 
L 271.083829 132.894896 
L 272.973942 133.014714 
z
" clip-path="url(#pa6c10e20d4)" style="fill-opacity: 0.15"/>
   </g>
   <g id="matplotlib.axis_1">
    <g id="xtick_1">
     <g id="line2d_1">
      <defs>
       <path id="m74f17f9b72" d="M 0 0 
L 0 3.5 
" style="stroke: #000000; stroke-width: 0.8"/>
      </defs>
      <g>
       <use xlink:href="#m74f17f9b72" x="236.672281" y="228.96" style="stroke: #000000; stroke-width: 0.8"/>
      </g>
     </g>
     <g id="text_1">
      <text style="font: 16px 'DejaVu Sans', 'Bitstream Vera Sans', 'Computer Modern Sans Serif', 'Lucida Grande', 'Verdana', 'Geneva', 'Lucid', 'Arial', 'Helvetica', 'Avant Garde', sans-serif; text-anchor: middle" x="236.672281" y="248.1175" transform="rotate(-0 236.672281 248.1175)">0.99</text>
     </g>
    </g>
    <g id="xtick_2">
     <g id="line2d_2">
      <g>
       <use xlink:href="#m74f17f9b72" x="147.90114" y="228.96" style="stroke: #000000; stroke-width: 0.8"/>
      </g>
     </g>
     <g id="text_2">
      <text style="font: 16px 'DejaVu Sans', 'Bitstream Vera Sans', 'Computer Modern Sans Serif', 'Lucida Grande', 'Verdana', 'Geneva', 'Lucid', 'Arial', 'Helvetica', 'Avant Garde', sans-serif; text-anchor: middle" x="147.90114" y="248.1175" transform="rotate(-0 147.90114 248.1175)">0.9</text>
     </g>
    </g>
    <g id="xtick_3">
     <g id="line2d_3">
      <g>
       <use xlink:href="#m74f17f9b72" x="59.13" y="228.96" style="stroke: #000000; stroke-width: 0.8"/>
      </g>
     </g>
     <g id="text_3">
      <text style="font: 16px 'DejaVu Sans', 'Bitstream Vera Sans', 'Computer Modern Sans Serif', 'Lucida Grande', 'Verdana', 'Geneva', 'Lucid', 'Arial', 'Helvetica', 'Avant Garde', sans-serif; text-anchor: middle" x="59.13" y="248.1175" transform="rotate(-0 59.13 248.1175)">0</text>
     </g>
    </g>
    <g id="text_4">
     <!-- double-Wilson $r$ -->
     <g transform="translate(108.25 267.6025)">
      <text>
       <tspan style="font: 16px 'DejaVu Sans'" x="0 10.15625 19.945312 30.085938 40.242188 44.6875 54.53125 60.304688 76.125 80.570312 85.015625 93.351562 103.140625 113.28125" y="-0.84375">double-Wilson </tspan>
       <tspan style="font: oblique 16px 'DejaVu Sans'" x="118.367188" y="-0.84375">r</tspan>
      </text>
     </g>
    </g>
   </g>
   <g id="matplotlib.axis_2">
    <g id="ytick_1">
     <g id="line2d_4">
      <defs>
       <path id="mef7df1483b" d="M 0 0 
L -3.5 0 
" style="stroke: #000000; stroke-width: 0.8"/>
      </defs>
      <g>
       <use xlink:href="#mef7df1483b" x="59.13" y="193.197305" style="stroke: #000000; stroke-width: 0.8"/>
      </g>
     </g>
     <g id="text_5">
      <text style="font: 16px 'DejaVu Sans', 'Bitstream Vera Sans', 'Computer Modern Sans Serif', 'Lucida Grande', 'Verdana', 'Geneva', 'Lucid', 'Arial', 'Helvetica', 'Avant Garde', sans-serif; text-anchor: end" x="52.13" y="199.276055" transform="rotate(-0 52.13 199.276055)">0.1</text>
     </g>
    </g>
    <g id="ytick_2">
     <g id="line2d_5">
      <g>
       <use xlink:href="#mef7df1483b" x="59.13" y="125.536803" style="stroke: #000000; stroke-width: 0.8"/>
      </g>
     </g>
     <g id="text_6">
      <text style="font: 16px 'DejaVu Sans', 'Bitstream Vera Sans', 'Computer Modern Sans Serif', 'Lucida Grande', 'Verdana', 'Geneva', 'Lucid', 'Arial', 'Helvetica', 'Avant Garde', sans-serif; text-anchor: end" x="52.13" y="131.615553" transform="rotate(-0 52.13 131.615553)">0.2</text>
     </g>
    </g>
    <g id="ytick_3">
     <g id="line2d_6">
      <g>
       <use xlink:href="#mef7df1483b" x="59.13" y="57.876301" style="stroke: #000000; stroke-width: 0.8"/>
      </g>
     </g>
     <g id="text_7">
      <text style="font: 16px 'DejaVu Sans', 'Bitstream Vera Sans', 'Computer Modern Sans Serif', 'Lucida Grande', 'Verdana', 'Geneva', 'Lucid', 'Arial', 'Helvetica', 'Avant Garde', sans-serif; text-anchor: end" x="52.13" y="63.955051" transform="rotate(-0 52.13 63.955051)">0.3</text>
     </g>
    </g>
    <g id="text_8">
     <text style="font: 16px 'DejaVu Sans', 'Bitstream Vera Sans', 'Computer Modern Sans Serif', 'Lucida Grande', 'Verdana', 'Geneva', 'Lucid', 'Arial', 'Helvetica', 'Avant Garde', sans-serif; text-anchor: middle" x="19.3575" y="118.08" transform="rotate(-90 19.3575 118.08)">1-BDC</text>
    </g>
   </g>
   <g id="line2d_7">
    <path d="M 272.973942 181.790509 
L 271.083829 180.781952 
L 269.193716 179.773396 
L 267.303603 178.764839 
L 265.413491 177.756283 
L 263.523378 176.747726 
L 261.633265 175.73917 
L 259.743152 174.730613 
L 257.853039 173.722057 
L 255.962927 172.7135 
L 254.072814 171.704944 
L 252.182701 170.696387 
L 250.292588 169.687831 
L 248.402476 168.679274 
L 246.512363 167.670718 
L 244.62225 166.662161 
L 242.732137 165.653605 
L 240.842024 164.645048 
L 238.951912 163.636492 
L 237.061799 162.627935 
L 235.171686 161.619379 
L 233.281573 160.610822 
L 231.39146 159.602266 
L 229.501348 158.593709 
L 227.611235 157.585153 
L 225.721122 156.576596 
L 223.831009 155.56804 
L 221.940897 154.559483 
L 220.050784 153.550927 
L 218.160671 152.54237 
L 216.270558 151.533814 
L 214.380445 150.525257 
L 212.490333 149.516701 
L 210.60022 148.508144 
L 208.710107 147.499587 
L 206.819994 146.491031 
L 204.929881 145.482474 
L 203.039769 144.473918 
L 201.149656 143.465361 
L 199.259543 142.456805 
L 197.36943 141.448248 
L 195.479318 140.439692 
L 193.589205 139.431135 
L 191.699092 138.422579 
L 189.808979 137.414022 
L 187.918866 136.405466 
L 186.028754 135.396909 
L 184.138641 134.388353 
L 182.248528 133.379796 
L 180.358415 132.37124 
L 178.468302 131.362683 
L 176.57819 130.354127 
L 174.688077 129.34557 
L 172.797964 128.337014 
L 170.907851 127.328457 
L 169.017739 126.319901 
L 167.127626 125.311344 
L 165.237513 124.302788 
L 163.3474 123.294231 
L 161.457287 122.285675 
L 159.567175 121.277118 
L 157.677062 120.268562 
L 155.786949 119.260005 
L 153.896836 118.251449 
L 152.006723 117.242892 
L 150.116611 116.234336 
L 148.226498 115.225779 
L 146.336385 114.217223 
L 144.446272 113.208666 
L 142.55616 112.20011 
L 140.666047 111.191553 
L 138.775934 110.182997 
L 136.885821 109.17444 
L 134.995708 108.165884 
L 133.105596 107.157327 
L 131.215483 106.148771 
L 129.32537 105.140214 
L 127.435257 104.131657 
L 125.545144 103.123101 
L 123.655032 102.114544 
L 121.764919 101.105988 
L 119.874806 100.097431 
L 117.984693 99.088875 
L 116.094581 98.080318 
L 114.204468 97.071762 
L 112.314355 96.063205 
L 110.424242 95.054649 
L 108.534129 94.046092 
L 106.644017 93.037536 
L 104.753904 92.028979 
L 102.863791 91.020423 
L 100.973678 90.011866 
L 99.083565 89.00331 
L 97.193453 87.994753 
L 95.30334 86.986197 
L 93.413227 85.97764 
L 91.523114 84.969084 
L 89.633002 83.960527 
L 87.742889 82.951971 
L 85.852776 81.943414 
" clip-path="url(#pa6c10e20d4)" style="fill: none; stroke: #000000; stroke-width: 2.25; stroke-linecap: square"/>
   </g>
   <g id="patch_3">
    <path d="M 59.13 228.96 
L 59.13 7.2 
" style="fill: none; stroke: #000000; stroke-width: 0.8; stroke-linejoin: miter; stroke-linecap: square"/>
   </g>
   <g id="patch_4">
    <path d="M 282.33 228.96 
L 282.33 7.2 
" style="fill: none; stroke: #000000; stroke-width: 0.8; stroke-linejoin: miter; stroke-linecap: square"/>
   </g>
   <g id="patch_5">
    <path d="M 59.13 228.96 
L 282.33 228.96 
" style="fill: none; stroke: #000000; stroke-width: 0.8; stroke-linejoin: miter; stroke-linecap: square"/>
   </g>
   <g id="patch_6">
    <path d="M 59.13 7.2 
L 282.33 7.2 
" style="fill: none; stroke: #000000; stroke-width: 0.8; stroke-linejoin: miter; stroke-linecap: square"/>
   </g>
  </g>
 </g>
 <defs>
  <clipPath id="pa6c10e20d4">
   <rect x="59.13" y="7.2" width="223.2" height="221.76"/>
  </clipPath>
 </defs>
</svg>
