<?xml version="1.0" encoding="utf-8" standalone="no"?>
<!DOCTYPE svg PUBLIC "-//W3C//DTD SVG 1.1//EN"
  "http://www.w3.org/Graphics/SVG/1.1/DTD/svg11.dtd">
<svg xmlns:xlink="http://www.w3.org/1999/xlink" width="294.64625pt" height="282.00125pt" viewBox="0 0 294.64625 282.00125" xmlns="http://www.w3.org/2000/svg" version="1.1">
 <metadata>
  <rdf:RDF xmlns:dc="http://purl.org/dc/elements/1.1/" xmlns:cc="http://creativecommons.org/ns#" xmlns:rdf="http://www.w3.org/1999/02/22-rdf-syntax-ns#">
   <cc:Work>
    <dc:type rdf:resource="http://purl.org/dc/dcmitype/StillImage"/>
    <dc:date>2025-08-04T11:23:03.729083</dc:date>
    <dc:format>image/svg+xml</dc:format>
    <dc:creator>
     <cc:Agent>
      <dc:title>Matplotlib v3.8.2, https://matplotlib.org/</dc:title>
     </cc:Agent>
    </dc:creator>
   </cc:Work>
  </rdf:RDF>
 </metadata>
 <defs>
  <style type="text/css">*{stroke-linejoin: round; stroke-linecap: butt}</style>
 </defs>
 <g id="figure_1">
  <g id="patch_1">
   <path d="M 0 282.00125 
L 294.64625 282.00125 
L 294.64625 0 
L 0 0 
z
" style="fill: #ffffff"/>
  </g>
  <g id="axes_1">
   <g id="patch_2">
    <path d="M 64.24625 228.96 
L 287.44625 228.96 
L 287.44625 7.2 
L 64.24625 7.2 
z
" style="fill: #ffffff"/>
   </g>
   <g id="PathCollection_1">
    <defs>
     <path id="m093d53f043" d="M 0 3 
C 0.795609 3 1.55874 2.683901 2.12132 2.12132 
C 2.683901 1.55874 3 0.795609 3 0 
C 3 -0.795609 2.683901 -1.55874 2.12132 -2.12132 
C 1.55874 -2.683901 0.795609 -3 0 -3 
C -0.795609 -3 -1.55874 -2.683901 -2.12132 -2.12132 
C -2.683901 -1.55874 -3 -0.795609 -3 0 
C -3 0.795609 -2.683901 1.55874 -2.12132 2.12132 
C -1.55874 2.683901 -0.795609 3 0 3 
z
" style="stroke: #000000; stroke-opacity: 0.8"/>
    </defs>
    <g clip-path="url(#pafc45ba8c0)">
     <use xlink:href="#m093d53f043" x="279.09117" y="158.676902" style="fill-opacity: 0.8; stroke: #000000; stroke-opacity: 0.8"/>
     <use xlink:href="#m093d53f043" x="279.09117" y="184.38543" style="fill-opacity: 0.8; stroke: #000000; stroke-opacity: 0.8"/>
     <use xlink:href="#m093d53f043" x="279.09117" y="165.104034" style="fill-opacity: 0.8; stroke: #000000; stroke-opacity: 0.8"/>
     <use xlink:href="#m093d53f043" x="111.989566" y="184.38543" style="fill-opacity: 0.8; stroke: #000000; stroke-opacity: 0.8"/>
     <use xlink:href="#m093d53f043" x="279.09117" y="139.395507" style="fill-opacity: 0.8; stroke: #000000; stroke-opacity: 0.8"/>
     <use xlink:href="#m093d53f043" x="279.09117" y="139.395507" style="fill-opacity: 0.8; stroke: #000000; stroke-opacity: 0.8"/>
     <use xlink:href="#m093d53f043" x="279.09117" y="132.968375" style="fill-opacity: 0.8; stroke: #000000; stroke-opacity: 0.8"/>
     <use xlink:href="#m093d53f043" x="279.09117" y="165.104034" style="fill-opacity: 0.8; stroke: #000000; stroke-opacity: 0.8"/>
     <use xlink:href="#m093d53f043" x="279.09117" y="120.114111" style="fill-opacity: 0.8; stroke: #000000; stroke-opacity: 0.8"/>
     <use xlink:href="#m093d53f043" x="135.861223" y="203.666826" style="fill-opacity: 0.8; stroke: #000000; stroke-opacity: 0.8"/>
     <use xlink:href="#m093d53f043" x="279.09117" y="126.541243" style="fill-opacity: 0.8; stroke: #000000; stroke-opacity: 0.8"/>
     <use xlink:href="#m093d53f043" x="279.09117" y="17.28" style="fill-opacity: 0.8; stroke: #000000; stroke-opacity: 0.8"/>
     <use xlink:href="#m093d53f043" x="279.09117" y="75.124187" style="fill-opacity: 0.8; stroke: #000000; stroke-opacity: 0.8"/>
     <use xlink:href="#m093d53f043" x="279.09117" y="158.676902" style="fill-opacity: 0.8; stroke: #000000; stroke-opacity: 0.8"/>
     <use xlink:href="#m093d53f043" x="279.09117" y="145.822638" style="fill-opacity: 0.8; stroke: #000000; stroke-opacity: 0.8"/>
     <use xlink:href="#m093d53f043" x="279.09117" y="36.561396" style="fill-opacity: 0.8; stroke: #000000; stroke-opacity: 0.8"/>
    </g>
   </g>
   <g id="PolyCollection_1">
    <path d="M 279.09117 100.82668 
L 279.09117 148.583245 
L 277.403275 149.182322 
L 275.71538 149.548257 
L 274.027485 149.931698 
L 272.33959 150.622279 
L 270.651695 151.316836 
L 268.9638 152.013979 
L 267.275905 152.395206 
L 265.58801 152.744436 
L 263.900115 153.287733 
L 262.21222 153.860321 
L 260.524325 154.271793 
L 258.83643 154.797879 
L 257.148535 155.463825 
L 255.46064 155.947067 
L 253.772745 156.285165 
L 252.08485 156.735251 
L 250.396955 157.411748 
L 248.70906 157.919116 
L 247.021165 158.63438 
L 245.33327 159.134023 
L 243.645375 159.821485 
L 241.95748 160.507367 
L 240.269585 161.183159 
L 238.58169 161.882274 
L 236.893795 162.562055 
L 235.2059 162.993865 
L 233.518005 163.644261 
L 231.83011 164.178144 
L 230.142215 164.75059 
L 228.45432 165.422582 
L 226.766425 166.071197 
L 225.07853 166.713715 
L 223.390635 167.411348 
L 221.70274 168.110354 
L 220.014845 168.696762 
L 218.32695 169.312828 
L 216.639055 170.042518 
L 214.95116 170.772208 
L 213.263265 171.501898 
L 211.57537 172.231588 
L 209.887475 172.961278 
L 208.19958 173.690968 
L 206.511685 174.403113 
L 204.82379 175.10304 
L 203.135895 175.802183 
L 201.448 176.501296 
L 199.760105 177.200409 
L 198.07221 177.899522 
L 196.384315 178.597516 
L 194.69642 179.29666 
L 193.008525 180.004861 
L 191.32063 180.736023 
L 189.632735 181.434726 
L 187.94484 182.132595 
L 186.256945 182.830464 
L 184.56905 183.528332 
L 182.881155 184.226201 
L 181.19326 184.924069 
L 179.505365 185.633446 
L 177.81747 186.346606 
L 176.129575 187.0444 
L 174.44168 187.74213 
L 172.753785 188.438836 
L 171.06589 189.135541 
L 169.377995 189.832246 
L 167.6901 190.567898 
L 166.002205 191.301128 
L 164.31431 191.993801 
L 162.626415 192.686269 
L 160.93852 193.378736 
L 159.250625 194.071204 
L 157.56273 194.763671 
L 155.874835 195.456139 
L 154.18694 196.148606 
L 152.499045 196.841074 
L 150.81115 197.573697 
L 149.123255 198.311062 
L 147.43536 198.994295 
L 145.747465 199.675798 
L 144.05957 200.372561 
L 142.371675 201.105307 
L 140.68378 201.770219 
L 138.995885 202.442371 
L 137.30799 203.110542 
L 135.620095 203.84496 
L 133.9322 205.017303 
L 132.244305 206.090042 
L 130.55641 207.170227 
L 128.868515 208.26897 
L 127.18062 209.354024 
L 125.492725 210.335883 
L 123.80483 211.421544 
L 122.116935 212.507204 
L 120.42904 213.559858 
L 118.741145 214.641908 
L 117.05325 215.723495 
L 115.365355 216.77759 
L 113.677461 217.804321 
L 111.989566 218.88 
L 111.989566 184.38543 
L 111.989566 184.38543 
L 113.677461 183.640954 
L 115.365355 182.896478 
L 117.05325 182.152002 
L 118.741145 181.407525 
L 120.42904 180.663049 
L 122.116935 179.918573 
L 123.80483 179.174097 
L 125.492725 178.429621 
L 127.18062 177.685145 
L 128.868515 176.940669 
L 130.55641 176.196193 
L 132.244305 175.451717 
L 133.9322 174.70724 
L 135.620095 173.962764 
L 137.30799 173.218288 
L 138.995885 172.473812 
L 140.68378 171.729336 
L 142.371675 170.98486 
L 144.05957 170.240384 
L 145.747465 169.495908 
L 147.43536 168.751432 
L 149.123255 168.006955 
L 150.81115 167.262479 
L 152.499045 166.518003 
L 154.18694 165.773527 
L 155.874835 165.029051 
L 157.56273 164.284575 
L 159.250625 163.540099 
L 160.93852 162.795623 
L 162.626415 162.051147 
L 164.31431 161.30667 
L 166.002205 160.562194 
L 167.6901 159.817718 
L 169.377995 159.073242 
L 171.06589 158.328766 
L 172.753785 157.508115 
L 174.44168 156.681678 
L 176.129575 155.932928 
L 177.81747 155.184178 
L 179.505365 154.435428 
L 181.19326 153.686678 
L 182.881155 152.901284 
L 184.56905 152.078617 
L 186.256945 151.130293 
L 187.94484 150.300282 
L 189.632735 149.542834 
L 191.32063 148.785386 
L 193.008525 147.993819 
L 194.69642 147.183762 
L 196.384315 146.127057 
L 198.07221 145.054457 
L 199.760105 143.988063 
L 201.448 143.093771 
L 203.135895 142.118529 
L 204.82379 141.048892 
L 206.511685 140.031728 
L 208.19958 139.239697 
L 209.887475 138.447667 
L 211.57537 137.655636 
L 213.263265 136.863606 
L 214.95116 136.071576 
L 216.639055 135.279545 
L 218.32695 134.487515 
L 220.014845 133.695484 
L 221.70274 132.901343 
L 223.390635 132.106068 
L 225.07853 131.313956 
L 226.766425 130.521845 
L 228.45432 129.50949 
L 230.142215 128.689289 
L 231.83011 127.756169 
L 233.518005 126.82004 
L 235.2059 125.934078 
L 236.893795 124.956777 
L 238.58169 124.015657 
L 240.269585 123.201241 
L 241.95748 122.392979 
L 243.645375 121.585859 
L 245.33327 120.650386 
L 247.021165 119.637223 
L 248.70906 118.824302 
L 250.396955 117.853753 
L 252.08485 117.025355 
L 253.772745 116.175141 
L 255.46064 115.011291 
L 257.148535 114.042372 
L 258.83643 112.968147 
L 260.524325 111.899998 
L 262.21222 110.920895 
L 263.900115 109.985842 
L 265.58801 108.859921 
L 267.275905 107.6305 
L 268.9638 106.579499 
L 270.651695 105.553467 
L 272.33959 104.527436 
L 274.027485 103.502147 
L 275.71538 102.519652 
L 277.403275 101.672137 
L 279.09117 100.82668 
z
" clip-path="url(#pafc45ba8c0)" style="fill-opacity: 0.15"/>
   </g>
   <g id="matplotlib.axis_1">
    <g id="xtick_1">
     <g id="line2d_1">
      <defs>
       <path id="m16e35c400c" d="M 0 0 
L 0 3.5 
" style="stroke: #000000; stroke-width: 0.8"/>
      </defs>
      <g>
       <use xlink:href="#m16e35c400c" x="222.846111" y="228.96" style="stroke: #000000; stroke-width: 0.8"/>
      </g>
     </g>
     <g id="text_1">
      <text style="font: 18px 'DejaVu Sans', 'Bitstream Vera Sans', 'Computer Modern Sans Serif', 'Lucida Grande', 'Verdana', 'Geneva', 'Lucid', 'Arial', 'Helvetica', 'Avant Garde', sans-serif; text-anchor: middle" x="222.846111" y="249.637187" transform="rotate(-0 222.846111 249.637187)">0.99</text>
     </g>
    </g>
    <g id="xtick_2">
     <g id="line2d_2">
      <g>
       <use xlink:href="#m16e35c400c" x="143.546181" y="228.96" style="stroke: #000000; stroke-width: 0.8"/>
      </g>
     </g>
     <g id="text_2">
      <text style="font: 18px 'DejaVu Sans', 'Bitstream Vera Sans', 'Computer Modern Sans Serif', 'Lucida Grande', 'Verdana', 'Geneva', 'Lucid', 'Arial', 'Helvetica', 'Avant Garde', sans-serif; text-anchor: middle" x="143.546181" y="249.637187" transform="rotate(-0 143.546181 249.637187)">0.9</text>
     </g>
    </g>
    <g id="xtick_3">
     <g id="line2d_3">
      <g>
       <use xlink:href="#m16e35c400c" x="64.24625" y="228.96" style="stroke: #000000; stroke-width: 0.8"/>
      </g>
     </g>
     <g id="text_3">
      <text style="font: 18px 'DejaVu Sans', 'Bitstream Vera Sans', 'Computer Modern Sans Serif', 'Lucida Grande', 'Verdana', 'Geneva', 'Lucid', 'Arial', 'Helvetica', 'Avant Garde', sans-serif; text-anchor: middle" x="64.24625" y="249.637187" transform="rotate(-0 64.24625 249.637187)">0</text>
     </g>
    </g>
    <g id="text_4">
     <!-- double-Wilson $r$ -->
     <g transform="translate(105.55625 271.057812)">
      <text>
       <tspan style="font: 18px 'DejaVu Sans'" x="0 11.425781 22.438477 33.84668 45.272461 50.273438 61.347656 67.842773 85.640625 90.641602 95.642578 105.020508 116.033203 127.441406" y="-0.328125">double-Wilson </tspan>
       <tspan style="font: oblique 18px 'DejaVu Sans'" x="133.163086" y="-0.328125">r</tspan>
      </text>
     </g>
    </g>
   </g>
   <g id="matplotlib.axis_2">
    <g id="ytick_1">
     <g id="line2d_4">
      <defs>
       <path id="mfeac562f5f" d="M 0 0 
L -3.5 0 
" style="stroke: #000000; stroke-width: 0.8"/>
      </defs>
      <g>
       <use xlink:href="#mfeac562f5f" x="64.24625" y="184.38543" style="stroke: #000000; stroke-width: 0.8"/>
      </g>
     </g>
     <g id="text_5">
      <text style="font: 18px 'DejaVu Sans', 'Bitstream Vera Sans', 'Computer Modern Sans Serif', 'Lucida Grande', 'Verdana', 'Geneva', 'Lucid', 'Arial', 'Helvetica', 'Avant Garde', sans-serif; text-anchor: end" x="57.24625" y="191.224024" transform="rotate(-0 57.24625 191.224024)">0.1</text>
     </g>
    </g>
    <g id="ytick_2">
     <g id="line2d_5">
      <g>
       <use xlink:href="#mfeac562f5f" x="64.24625" y="120.114111" style="stroke: #000000; stroke-width: 0.8"/>
      </g>
     </g>
     <g id="text_6">
      <text style="font: 18px 'DejaVu Sans', 'Bitstream Vera Sans', 'Computer Modern Sans Serif', 'Lucida Grande', 'Verdana', 'Geneva', 'Lucid', 'Arial', 'Helvetica', 'Avant Garde', sans-serif; text-anchor: end" x="57.24625" y="126.952704" transform="rotate(-0 57.24625 126.952704)">0.2</text>
     </g>
    </g>
    <g id="ytick_3">
     <g id="line2d_6">
      <g>
       <use xlink:href="#mfeac562f5f" x="64.24625" y="55.842792" style="stroke: #000000; stroke-width: 0.8"/>
      </g>
     </g>
     <g id="text_7">
      <text style="font: 18px 'DejaVu Sans', 'Bitstream Vera Sans', 'Computer Modern Sans Serif', 'Lucida Grande', 'Verdana', 'Geneva', 'Lucid', 'Arial', 'Helvetica', 'Avant Garde', sans-serif; text-anchor: end" x="57.24625" y="62.681385" transform="rotate(-0 57.24625 62.681385)">0.3</text>
     </g>
    </g>
    <g id="text_8">
     <text style="font: 18px 'DejaVu Sans', 'Bitstream Vera Sans', 'Computer Modern Sans Serif', 'Lucida Grande', 'Verdana', 'Geneva', 'Lucid', 'Arial', 'Helvetica', 'Avant Garde', sans-serif; text-anchor: middle" x="20.877188" y="118.08" transform="rotate(-90 20.877188 118.08)">1-BDC</text>
    </g>
   </g>
   <g id="line2d_7">
    <path d="M 279.09117 126.24444 
L 277.403275 126.969413 
L 275.71538 127.694386 
L 274.027485 128.419359 
L 272.33959 129.144332 
L 270.651695 129.869305 
L 268.9638 130.594278 
L 267.275905 131.319252 
L 265.58801 132.044225 
L 263.900115 132.769198 
L 262.21222 133.494171 
L 260.524325 134.219144 
L 258.83643 134.944117 
L 257.148535 135.66909 
L 255.46064 136.394063 
L 253.772745 137.119036 
L 252.08485 137.84401 
L 250.396955 138.568983 
L 248.70906 139.293956 
L 247.021165 140.018929 
L 245.33327 140.743902 
L 243.645375 141.468875 
L 241.95748 142.193848 
L 240.269585 142.918821 
L 238.58169 143.643794 
L 236.893795 144.368768 
L 235.2059 145.093741 
L 233.518005 145.818714 
L 231.83011 146.543687 
L 230.142215 147.26866 
L 228.45432 147.993633 
L 226.766425 148.718606 
L 225.07853 149.443579 
L 223.390635 150.168552 
L 221.70274 150.893526 
L 220.014845 151.618499 
L 218.32695 152.343472 
L 216.639055 153.068445 
L 214.95116 153.793418 
L 213.263265 154.518391 
L 211.57537 155.243364 
L 209.887475 155.968337 
L 208.19958 156.69331 
L 206.511685 157.418284 
L 204.82379 158.143257 
L 203.135895 158.86823 
L 201.448 159.593203 
L 199.760105 160.318176 
L 198.07221 161.043149 
L 196.384315 161.768122 
L 194.69642 162.493095 
L 193.008525 163.218068 
L 191.32063 163.943042 
L 189.632735 164.668015 
L 187.94484 165.392988 
L 186.256945 166.117961 
L 184.56905 166.842934 
L 182.881155 167.567907 
L 181.19326 168.29288 
L 179.505365 169.017853 
L 177.81747 169.742826 
L 176.129575 170.4678 
L 174.44168 171.192773 
L 172.753785 171.917746 
L 171.06589 172.642719 
L 169.377995 173.367692 
L 167.6901 174.092665 
L 166.002205 174.817638 
L 164.31431 175.542611 
L 162.626415 176.267584 
L 160.93852 176.992558 
L 159.250625 177.717531 
L 157.56273 178.442504 
L 155.874835 179.167477 
L 154.18694 179.89245 
L 152.499045 180.617423 
L 150.81115 181.342396 
L 149.123255 182.067369 
L 147.43536 182.792342 
L 145.747465 183.517316 
L 144.05957 184.242289 
L 142.371675 184.967262 
L 140.68378 185.692235 
L 138.995885 186.417208 
L 137.30799 187.142181 
L 135.620095 187.867154 
L 133.9322 188.592127 
L 132.244305 189.3171 
L 130.55641 190.042074 
L 128.868515 190.767047 
L 127.18062 191.49202 
L 125.492725 192.216993 
L 123.80483 192.941966 
L 122.116935 193.666939 
L 120.42904 194.391912 
L 118.741145 195.116885 
L 117.05325 195.841858 
L 115.365355 196.566832 
L 113.677461 197.291805 
L 111.989566 198.016778 
" clip-path="url(#pafc45ba8c0)" style="fill: none; stroke: #000000; stroke-width: 2.25; stroke-linecap: square"/>
   </g>
   <g id="patch_3">
    <path d="M 64.24625 228.96 
L 64.24625 7.2 
" style="fill: none; stroke: #000000; stroke-width: 0.8; stroke-linejoin: miter; stroke-linecap: square"/>
   </g>
   <g id="patch_4">
    <path d="M 287.44625 228.96 
L 287.44625 7.2 
" style="fill: none; stroke: #000000; stroke-width: 0.8; stroke-linejoin: miter; stroke-linecap: square"/>
   </g>
   <g id="patch_5">
    <path d="M 64.24625 228.96 
L 287.44625 228.96 
" style="fill: none; stroke: #000000; stroke-width: 0.8; stroke-linejoin: miter; stroke-linecap: square"/>
   </g>
   <g id="patch_6">
    <path d="M 64.24625 7.2 
L 287.44625 7.2 
" style="fill: none; stroke: #000000; stroke-width: 0.8; stroke-linejoin: miter; stroke-linecap: square"/>
   </g>
  </g>
 </g>
 <defs>
  <clipPath id="pafc45ba8c0">
   <rect x="64.24625" y="7.2" width="223.2" height="221.76"/>
  </clipPath>
 </defs>
</svg>
