<?xml version="1.0" encoding="utf-8" standalone="no"?>
<!DOCTYPE svg PUBLIC "-//W3C//DTD SVG 1.1//EN"
  "http://www.w3.org/Graphics/SVG/1.1/DTD/svg11.dtd">
<svg xmlns:xlink="http://www.w3.org/1999/xlink" width="294.64625pt" height="282.00125pt" viewBox="0 0 294.64625 282.00125" xmlns="http://www.w3.org/2000/svg" version="1.1">
 <metadata>
  <rdf:RDF xmlns:dc="http://purl.org/dc/elements/1.1/" xmlns:cc="http://creativecommons.org/ns#" xmlns:rdf="http://www.w3.org/1999/02/22-rdf-syntax-ns#">
   <cc:Work>
    <dc:type rdf:resource="http://purl.org/dc/dcmitype/StillImage"/>
    <dc:date>2025-08-04T11:23:42.944650</dc:date>
    <dc:format>image/svg+xml</dc:format>
    <dc:creator>
     <cc:Agent>
      <dc:title>Matplotlib v3.8.2, https://matplotlib.org/</dc:title>
     </cc:Agent>
    </dc:creator>
   </cc:Work>
  </rdf:RDF>
 </metadata>
 <defs>
  <style type="text/css">*{stroke-linejoin: round; stroke-linecap: butt}</style>
 </defs>
 <g id="figure_1">
  <g id="patch_1">
   <path d="M 0 282.00125 
L 294.64625 282.00125 
L 294.64625 0 
L 0 0 
z
" style="fill: #ffffff"/>
  </g>
  <g id="axes_1">
   <g id="patch_2">
    <path d="M 64.24625 228.96 
L 287.44625 228.96 
L 287.44625 7.2 
L 64.24625 7.2 
z
" style="fill: #ffffff"/>
   </g>
   <g id="PathCollection_1">
    <defs>
     <path id="me19135b4e2" d="M 0 3 
C 0.795609 3 1.55874 2.683901 2.12132 2.12132 
C 2.683901 1.55874 3 0.795609 3 0 
C 3 -0.795609 2.683901 -1.55874 2.12132 -2.12132 
C 1.55874 -2.683901 0.795609 -3 0 -3 
C -0.795609 -3 -1.55874 -2.683901 -2.12132 -2.12132 
C -2.683901 -1.55874 -3 -0.795609 -3 0 
C -3 0.795609 -2.683901 1.55874 -2.12132 2.12132 
C -1.55874 2.683901 -0.795609 3 0 3 
z
" style="stroke: #000000; stroke-opacity: 0.8"/>
    </defs>
    <g clip-path="url(#p55bc839019)">
     <use xlink:href="#me19135b4e2" x="279.09117" y="163.282092" style="fill-opacity: 0.8; stroke: #000000; stroke-opacity: 0.8"/>
     <use xlink:href="#me19135b4e2" x="111.989566" y="189.827927" style="fill-opacity: 0.8; stroke: #000000; stroke-opacity: 0.8"/>
     <use xlink:href="#me19135b4e2" x="231.347854" y="169.918551" style="fill-opacity: 0.8; stroke: #000000; stroke-opacity: 0.8"/>
     <use xlink:href="#me19135b4e2" x="135.861223" y="189.827927" style="fill-opacity: 0.8; stroke: #000000; stroke-opacity: 0.8"/>
     <use xlink:href="#me19135b4e2" x="111.989566" y="143.372716" style="fill-opacity: 0.8; stroke: #000000; stroke-opacity: 0.8"/>
     <use xlink:href="#me19135b4e2" x="111.989566" y="143.372716" style="fill-opacity: 0.8; stroke: #000000; stroke-opacity: 0.8"/>
     <use xlink:href="#me19135b4e2" x="279.09117" y="136.736257" style="fill-opacity: 0.8; stroke: #000000; stroke-opacity: 0.8"/>
     <use xlink:href="#me19135b4e2" x="183.604539" y="169.918551" style="fill-opacity: 0.8; stroke: #000000; stroke-opacity: 0.8"/>
     <use xlink:href="#me19135b4e2" x="279.09117" y="123.46334" style="fill-opacity: 0.8; stroke: #000000; stroke-opacity: 0.8"/>
     <use xlink:href="#me19135b4e2" x="159.732881" y="209.737303" style="fill-opacity: 0.8; stroke: #000000; stroke-opacity: 0.8"/>
     <use xlink:href="#me19135b4e2" x="279.09117" y="130.099799" style="fill-opacity: 0.8; stroke: #000000; stroke-opacity: 0.8"/>
     <use xlink:href="#me19135b4e2" x="279.09117" y="17.28" style="fill-opacity: 0.8; stroke: #000000; stroke-opacity: 0.8"/>
     <use xlink:href="#me19135b4e2" x="279.09117" y="77.008129" style="fill-opacity: 0.8; stroke: #000000; stroke-opacity: 0.8"/>
     <use xlink:href="#me19135b4e2" x="279.09117" y="163.282092" style="fill-opacity: 0.8; stroke: #000000; stroke-opacity: 0.8"/>
     <use xlink:href="#me19135b4e2" x="279.09117" y="150.009175" style="fill-opacity: 0.8; stroke: #000000; stroke-opacity: 0.8"/>
     <use xlink:href="#me19135b4e2" x="279.09117" y="37.189376" style="fill-opacity: 0.8; stroke: #000000; stroke-opacity: 0.8"/>
    </g>
   </g>
   <g id="PolyCollection_1">
    <path d="M 279.09117 83.632897 
L 279.09117 146.745331 
L 277.403275 147.119254 
L 275.71538 147.459884 
L 274.027485 147.643461 
L 272.33959 147.913876 
L 270.651695 148.208388 
L 268.9638 148.727617 
L 267.275905 149.246845 
L 265.58801 149.764862 
L 263.900115 150.281712 
L 262.21222 150.793412 
L 260.524325 151.13801 
L 258.83643 151.482608 
L 257.148535 151.826577 
L 255.46064 152.168757 
L 253.772745 152.505501 
L 252.08485 152.842245 
L 250.396955 153.178989 
L 248.70906 153.55716 
L 247.021165 153.859936 
L 245.33327 154.280681 
L 243.645375 155.178184 
L 241.95748 155.621485 
L 240.269585 156.126512 
L 238.58169 156.574558 
L 236.893795 156.934034 
L 235.2059 157.378161 
L 233.518005 158.155848 
L 231.83011 158.866346 
L 230.142215 159.306166 
L 228.45432 159.741511 
L 226.766425 160.171906 
L 225.07853 160.609205 
L 223.390635 161.090024 
L 221.70274 161.508221 
L 220.014845 161.913018 
L 218.32695 162.624298 
L 216.639055 163.329513 
L 214.95116 164.019438 
L 213.263265 164.714164 
L 211.57537 165.397811 
L 209.887475 165.66685 
L 208.19958 166.061828 
L 206.511685 166.648525 
L 204.82379 167.152088 
L 203.135895 167.820327 
L 201.448 168.514291 
L 199.760105 169.238581 
L 198.07221 169.823795 
L 196.384315 170.415168 
L 194.69642 171.020669 
L 193.008525 171.907041 
L 191.32063 172.741239 
L 189.632735 173.697595 
L 187.94484 174.334685 
L 186.256945 174.848523 
L 184.56905 175.733252 
L 182.881155 176.737658 
L 181.19326 177.731354 
L 179.505365 178.573611 
L 177.81747 179.422347 
L 176.129575 180.47694 
L 174.44168 181.608073 
L 172.753785 182.622435 
L 171.06589 183.517595 
L 169.377995 184.412754 
L 167.6901 185.70105 
L 166.002205 186.559946 
L 164.31431 187.188694 
L 162.626415 188.20275 
L 160.93852 189.161301 
L 159.250625 190.136686 
L 157.56273 191.224428 
L 155.874835 192.297783 
L 154.18694 193.030362 
L 152.499045 193.755271 
L 150.81115 194.656409 
L 149.123255 195.667089 
L 147.43536 196.64129 
L 145.747465 197.699939 
L 144.05957 198.718678 
L 142.371675 199.737418 
L 140.68378 200.756157 
L 138.995885 201.772586 
L 137.30799 202.80434 
L 135.620095 203.807167 
L 133.9322 204.831115 
L 132.244305 205.849854 
L 130.55641 206.868593 
L 128.868515 208.01681 
L 127.18062 209.169279 
L 125.492725 210.321748 
L 123.80483 211.474217 
L 122.116935 212.626686 
L 120.42904 213.63899 
L 118.741145 214.640401 
L 117.05325 215.641812 
L 115.365355 216.643223 
L 113.677461 217.707305 
L 111.989566 218.88 
L 111.989566 156.908376 
L 111.989566 156.908376 
L 113.677461 156.542776 
L 115.365355 156.208314 
L 117.05325 156.015222 
L 118.741145 155.629553 
L 120.42904 155.189263 
L 122.116935 154.853003 
L 123.80483 154.518121 
L 125.492725 154.080281 
L 127.18062 153.608501 
L 128.868515 153.136876 
L 130.55641 152.642912 
L 132.244305 152.205476 
L 133.9322 151.742869 
L 135.620095 151.144798 
L 137.30799 150.53929 
L 138.995885 150.067228 
L 140.68378 149.368272 
L 142.371675 149.005723 
L 144.05957 148.880174 
L 145.747465 148.396462 
L 147.43536 147.824629 
L 149.123255 147.255756 
L 150.81115 146.687623 
L 152.499045 146.028748 
L 154.18694 145.421966 
L 155.874835 144.742291 
L 157.56273 144.103122 
L 159.250625 143.392645 
L 160.93852 142.861771 
L 162.626415 142.05411 
L 164.31431 141.36938 
L 166.002205 140.800791 
L 167.6901 140.070079 
L 169.377995 139.63346 
L 171.06589 138.944553 
L 172.753785 138.272865 
L 174.44168 137.750859 
L 176.129575 136.992253 
L 177.81747 136.219633 
L 179.505365 135.692342 
L 181.19326 134.888452 
L 182.881155 134.186429 
L 184.56905 133.578652 
L 186.256945 132.970875 
L 187.94484 132.253332 
L 189.632735 131.573346 
L 191.32063 130.695484 
L 193.008525 130.022737 
L 194.69642 129.590494 
L 196.384315 129.158252 
L 198.07221 128.041771 
L 199.760105 127.248628 
L 201.448 126.598749 
L 203.135895 125.80636 
L 204.82379 125.11572 
L 206.511685 124.425783 
L 208.19958 123.781428 
L 209.887475 123.152359 
L 211.57537 122.410564 
L 213.263265 121.301172 
L 214.95116 120.297095 
L 216.639055 119.390914 
L 218.32695 118.610773 
L 220.014845 117.792678 
L 221.70274 116.81897 
L 223.390635 115.849057 
L 225.07853 114.998408 
L 226.766425 113.985436 
L 228.45432 112.920332 
L 230.142215 112.10404 
L 231.83011 111.219142 
L 233.518005 109.995376 
L 235.2059 109.028309 
L 236.893795 108.040589 
L 238.58169 107.060243 
L 240.269585 106.09108 
L 241.95748 105.236693 
L 243.645375 104.140242 
L 245.33327 103.21201 
L 247.021165 102.187791 
L 248.70906 101.203327 
L 250.396955 100.229713 
L 252.08485 99.101698 
L 253.772745 98.283872 
L 255.46064 97.476775 
L 257.148535 96.565523 
L 258.83643 95.503528 
L 260.524325 94.506762 
L 262.21222 93.620332 
L 263.900115 92.738392 
L 265.58801 91.769779 
L 267.275905 90.779621 
L 268.9638 89.726115 
L 270.651695 88.622582 
L 272.33959 87.55039 
L 274.027485 86.571017 
L 275.71538 85.591643 
L 277.403275 84.61227 
L 279.09117 83.632897 
z
" clip-path="url(#p55bc839019)" style="fill-opacity: 0.15"/>
   </g>
   <g id="matplotlib.axis_1">
    <g id="xtick_1">
     <g id="line2d_1">
      <defs>
       <path id="m6a9e01ce30" d="M 0 0 
L 0 3.5 
" style="stroke: #000000; stroke-width: 0.8"/>
      </defs>
      <g>
       <use xlink:href="#m6a9e01ce30" x="222.846111" y="228.96" style="stroke: #000000; stroke-width: 0.8"/>
      </g>
     </g>
     <g id="text_1">
      <text style="font: 18px 'DejaVu Sans', 'Bitstream Vera Sans', 'Computer Modern Sans Serif', 'Lucida Grande', 'Verdana', 'Geneva', 'Lucid', 'Arial', 'Helvetica', 'Avant Garde', sans-serif; text-anchor: middle" x="222.846111" y="249.637187" transform="rotate(-0 222.846111 249.637187)">0.99</text>
     </g>
    </g>
    <g id="xtick_2">
     <g id="line2d_2">
      <g>
       <use xlink:href="#m6a9e01ce30" x="143.546181" y="228.96" style="stroke: #000000; stroke-width: 0.8"/>
      </g>
     </g>
     <g id="text_2">
      <text style="font: 18px 'DejaVu Sans', 'Bitstream Vera Sans', 'Computer Modern Sans Serif', 'Lucida Grande', 'Verdana', 'Geneva', 'Lucid', 'Arial', 'Helvetica', 'Avant Garde', sans-serif; text-anchor: middle" x="143.546181" y="249.637187" transform="rotate(-0 143.546181 249.637187)">0.9</text>
     </g>
    </g>
    <g id="xtick_3">
     <g id="line2d_3">
      <g>
       <use xlink:href="#m6a9e01ce30" x="64.24625" y="228.96" style="stroke: #000000; stroke-width: 0.8"/>
      </g>
     </g>
     <g id="text_3">
      <text style="font: 18px 'DejaVu Sans', 'Bitstream Vera Sans', 'Computer Modern Sans Serif', 'Lucida Grande', 'Verdana', 'Geneva', 'Lucid', 'Arial', 'Helvetica', 'Avant Garde', sans-serif; text-anchor: middle" x="64.24625" y="249.637187" transform="rotate(-0 64.24625 249.637187)">0</text>
     </g>
    </g>
    <g id="text_4">
     <!-- double-Wilson $r$ -->
     <g transform="translate(105.55625 271.057812)">
      <text>
       <tspan style="font: 18px 'DejaVu Sans'" x="0 11.425781 22.438477 33.84668 45.272461 50.273438 61.347656 67.842773 85.640625 90.641602 95.642578 105.020508 116.033203 127.441406" y="-0.328125">double-Wilson </tspan>
       <tspan style="font: oblique 18px 'DejaVu Sans'" x="133.163086" y="-0.328125">r</tspan>
      </text>
     </g>
    </g>
   </g>
   <g id="matplotlib.axis_2">
    <g id="ytick_1">
     <g id="line2d_4">
      <defs>
       <path id="mf2ee33f797" d="M 0 0 
L -3.5 0 
" style="stroke: #000000; stroke-width: 0.8"/>
      </defs>
      <g>
       <use xlink:href="#mf2ee33f797" x="64.24625" y="189.827927" style="stroke: #000000; stroke-width: 0.8"/>
      </g>
     </g>
     <g id="text_5">
      <text style="font: 18px 'DejaVu Sans', 'Bitstream Vera Sans', 'Computer Modern Sans Serif', 'Lucida Grande', 'Verdana', 'Geneva', 'Lucid', 'Arial', 'Helvetica', 'Avant Garde', sans-serif; text-anchor: end" x="57.24625" y="196.666521" transform="rotate(-0 57.24625 196.666521)">0.1</text>
     </g>
    </g>
    <g id="ytick_2">
     <g id="line2d_5">
      <g>
       <use xlink:href="#mf2ee33f797" x="64.24625" y="123.46334" style="stroke: #000000; stroke-width: 0.8"/>
      </g>
     </g>
     <g id="text_6">
      <text style="font: 18px 'DejaVu Sans', 'Bitstream Vera Sans', 'Computer Modern Sans Serif', 'Lucida Grande', 'Verdana', 'Geneva', 'Lucid', 'Arial', 'Helvetica', 'Avant Garde', sans-serif; text-anchor: end" x="57.24625" y="130.301934" transform="rotate(-0 57.24625 130.301934)">0.2</text>
     </g>
    </g>
    <g id="ytick_3">
     <g id="line2d_6">
      <g>
       <use xlink:href="#mf2ee33f797" x="64.24625" y="57.098752" style="stroke: #000000; stroke-width: 0.8"/>
      </g>
     </g>
     <g id="text_7">
      <text style="font: 18px 'DejaVu Sans', 'Bitstream Vera Sans', 'Computer Modern Sans Serif', 'Lucida Grande', 'Verdana', 'Geneva', 'Lucid', 'Arial', 'Helvetica', 'Avant Garde', sans-serif; text-anchor: end" x="57.24625" y="63.937346" transform="rotate(-0 57.24625 63.937346)">0.3</text>
     </g>
    </g>
    <g id="text_8">
     <text style="font: 18px 'DejaVu Sans', 'Bitstream Vera Sans', 'Computer Modern Sans Serif', 'Lucida Grande', 'Verdana', 'Geneva', 'Lucid', 'Arial', 'Helvetica', 'Avant Garde', sans-serif; text-anchor: middle" x="20.877188" y="118.08" transform="rotate(-90 20.877188 118.08)">1-BDC</text>
    </g>
   </g>
   <g id="line2d_7">
    <path d="M 279.09117 116.254773 
L 277.403275 116.913929 
L 275.71538 117.573086 
L 274.027485 118.232242 
L 272.33959 118.891399 
L 270.651695 119.550556 
L 268.9638 120.209712 
L 267.275905 120.868869 
L 265.58801 121.528025 
L 263.900115 122.187182 
L 262.21222 122.846339 
L 260.524325 123.505495 
L 258.83643 124.164652 
L 257.148535 124.823808 
L 255.46064 125.482965 
L 253.772745 126.142122 
L 252.08485 126.801278 
L 250.396955 127.460435 
L 248.70906 128.119591 
L 247.021165 128.778748 
L 245.33327 129.437905 
L 243.645375 130.097061 
L 241.95748 130.756218 
L 240.269585 131.415374 
L 238.58169 132.074531 
L 236.893795 132.733688 
L 235.2059 133.392844 
L 233.518005 134.052001 
L 231.83011 134.711157 
L 230.142215 135.370314 
L 228.45432 136.029471 
L 226.766425 136.688627 
L 225.07853 137.347784 
L 223.390635 138.00694 
L 221.70274 138.666097 
L 220.014845 139.325254 
L 218.32695 139.98441 
L 216.639055 140.643567 
L 214.95116 141.302723 
L 213.263265 141.96188 
L 211.57537 142.621037 
L 209.887475 143.280193 
L 208.19958 143.93935 
L 206.511685 144.598506 
L 204.82379 145.257663 
L 203.135895 145.91682 
L 201.448 146.575976 
L 199.760105 147.235133 
L 198.07221 147.894289 
L 196.384315 148.553446 
L 194.69642 149.212603 
L 193.008525 149.871759 
L 191.32063 150.530916 
L 189.632735 151.190072 
L 187.94484 151.849229 
L 186.256945 152.508386 
L 184.56905 153.167542 
L 182.881155 153.826699 
L 181.19326 154.485855 
L 179.505365 155.145012 
L 177.81747 155.804169 
L 176.129575 156.463325 
L 174.44168 157.122482 
L 172.753785 157.781638 
L 171.06589 158.440795 
L 169.377995 159.099952 
L 167.6901 159.759108 
L 166.002205 160.418265 
L 164.31431 161.077421 
L 162.626415 161.736578 
L 160.93852 162.395735 
L 159.250625 163.054891 
L 157.56273 163.714048 
L 155.874835 164.373205 
L 154.18694 165.032361 
L 152.499045 165.691518 
L 150.81115 166.350674 
L 149.123255 167.009831 
L 147.43536 167.668988 
L 145.747465 168.328144 
L 144.05957 168.987301 
L 142.371675 169.646457 
L 140.68378 170.305614 
L 138.995885 170.964771 
L 137.30799 171.623927 
L 135.620095 172.283084 
L 133.9322 172.94224 
L 132.244305 173.601397 
L 130.55641 174.260554 
L 128.868515 174.91971 
L 127.18062 175.578867 
L 125.492725 176.238023 
L 123.80483 176.89718 
L 122.116935 177.556337 
L 120.42904 178.215493 
L 118.741145 178.87465 
L 117.05325 179.533806 
L 115.365355 180.192963 
L 113.677461 180.85212 
L 111.989566 181.511276 
" clip-path="url(#p55bc839019)" style="fill: none; stroke: #000000; stroke-width: 2.25; stroke-linecap: square"/>
   </g>
   <g id="patch_3">
    <path d="M 64.24625 228.96 
L 64.24625 7.2 
" style="fill: none; stroke: #000000; stroke-width: 0.8; stroke-linejoin: miter; stroke-linecap: square"/>
   </g>
   <g id="patch_4">
    <path d="M 287.44625 228.96 
L 287.44625 7.2 
" style="fill: none; stroke: #000000; stroke-width: 0.8; stroke-linejoin: miter; stroke-linecap: square"/>
   </g>
   <g id="patch_5">
    <path d="M 64.24625 228.96 
L 287.44625 228.96 
" style="fill: none; stroke: #000000; stroke-width: 0.8; stroke-linejoin: miter; stroke-linecap: square"/>
   </g>
   <g id="patch_6">
    <path d="M 64.24625 7.2 
L 287.44625 7.2 
" style="fill: none; stroke: #000000; stroke-width: 0.8; stroke-linejoin: miter; stroke-linecap: square"/>
   </g>
  </g>
 </g>
 <defs>
  <clipPath id="p55bc839019">
   <rect x="64.24625" y="7.2" width="223.2" height="221.76"/>
  </clipPath>
 </defs>
</svg>
