<?xml version="1.0" encoding="utf-8" standalone="no"?>
<!DOCTYPE svg PUBLIC "-//W3C//DTD SVG 1.1//EN"
  "http://www.w3.org/Graphics/SVG/1.1/DTD/svg11.dtd">
<svg xmlns:xlink="http://www.w3.org/1999/xlink" width="289.53pt" height="278.13pt" viewBox="0 0 289.53 278.13" xmlns="http://www.w3.org/2000/svg" version="1.1">
 <metadata>
  <rdf:RDF xmlns:dc="http://purl.org/dc/elements/1.1/" xmlns:cc="http://creativecommons.org/ns#" xmlns:rdf="http://www.w3.org/1999/02/22-rdf-syntax-ns#">
   <cc:Work>
    <dc:type rdf:resource="http://purl.org/dc/dcmitype/StillImage"/>
    <dc:date>2024-05-02T14:21:36.301057</dc:date>
    <dc:format>image/svg+xml</dc:format>
    <dc:creator>
     <cc:Agent>
      <dc:title>Matplotlib v3.8.2, https://matplotlib.org/</dc:title>
     </cc:Agent>
    </dc:creator>
   </cc:Work>
  </rdf:RDF>
 </metadata>
 <defs>
  <style type="text/css">*{stroke-linejoin: round; stroke-linecap: butt}</style>
 </defs>
 <g id="figure_1">
  <g id="patch_1">
   <path d="M 0 278.13 
L 289.53 278.13 
L 289.53 0 
L 0 0 
z
" style="fill: #ffffff"/>
  </g>
  <g id="axes_1">
   <g id="patch_2">
    <path d="M 59.13 228.96 
L 282.33 228.96 
L 282.33 7.2 
L 59.13 7.2 
z
" style="fill: #ffffff"/>
   </g>
   <g id="PathCollection_1">
    <defs>
     <path id="m7b30e3aeb5" d="M 0 3 
C 0.795609 3 1.55874 2.683901 2.12132 2.12132 
C 2.683901 1.55874 3 0.795609 3 0 
C 3 -0.795609 2.683901 -1.55874 2.12132 -2.12132 
C 1.55874 -2.683901 0.795609 -3 0 -3 
C -0.795609 -3 -1.55874 -2.683901 -2.12132 -2.12132 
C -2.683901 -1.55874 -3 -0.795609 -3 0 
C -3 0.795609 -2.683901 1.55874 -2.12132 2.12132 
C -1.55874 2.683901 -0.795609 3 0 3 
z
" style="stroke: #000000; stroke-opacity: 0.8"/>
    </defs>
    <g clip-path="url(#p7dff7cee32)">
     <use xlink:href="#m7b30e3aeb5" x="219.478995" y="165.499465" style="fill-opacity: 0.8; stroke: #000000; stroke-opacity: 0.8"/>
     <use xlink:href="#m7b30e3aeb5" x="246.152439" y="192.448459" style="fill-opacity: 0.8; stroke: #000000; stroke-opacity: 0.8"/>
     <use xlink:href="#m7b30e3aeb5" x="246.152439" y="172.236714" style="fill-opacity: 0.8; stroke: #000000; stroke-opacity: 0.8"/>
     <use xlink:href="#m7b30e3aeb5" x="246.152439" y="192.448459" style="fill-opacity: 0.8; stroke: #000000; stroke-opacity: 0.8"/>
     <use xlink:href="#m7b30e3aeb5" x="139.298328" y="145.28772" style="fill-opacity: 0.8; stroke: #000000; stroke-opacity: 0.8"/>
     <use xlink:href="#m7b30e3aeb5" x="192.74388" y="145.28772" style="fill-opacity: 0.8; stroke: #000000; stroke-opacity: 0.8"/>
     <use xlink:href="#m7b30e3aeb5" x="192.74388" y="138.550472" style="fill-opacity: 0.8; stroke: #000000; stroke-opacity: 0.8"/>
     <use xlink:href="#m7b30e3aeb5" x="139.298328" y="172.236714" style="fill-opacity: 0.8; stroke: #000000; stroke-opacity: 0.8"/>
     <use xlink:href="#m7b30e3aeb5" x="246.152439" y="125.075975" style="fill-opacity: 0.8; stroke: #000000; stroke-opacity: 0.8"/>
     <use xlink:href="#m7b30e3aeb5" x="192.74388" y="212.660204" style="fill-opacity: 0.8; stroke: #000000; stroke-opacity: 0.8"/>
     <use xlink:href="#m7b30e3aeb5" x="166.021104" y="131.813223" style="fill-opacity: 0.8; stroke: #000000; stroke-opacity: 0.8"/>
     <use xlink:href="#m7b30e3aeb5" x="85.852776" y="17.28" style="fill-opacity: 0.8; stroke: #000000; stroke-opacity: 0.8"/>
     <use xlink:href="#m7b30e3aeb5" x="139.298328" y="77.915236" style="fill-opacity: 0.8; stroke: #000000; stroke-opacity: 0.8"/>
     <use xlink:href="#m7b30e3aeb5" x="272.973942" y="165.499465" style="fill-opacity: 0.8; stroke: #000000; stroke-opacity: 0.8"/>
     <use xlink:href="#m7b30e3aeb5" x="192.74388" y="152.024969" style="fill-opacity: 0.8; stroke: #000000; stroke-opacity: 0.8"/>
     <use xlink:href="#m7b30e3aeb5" x="219.478995" y="37.491745" style="fill-opacity: 0.8; stroke: #000000; stroke-opacity: 0.8"/>
    </g>
   </g>
   <g id="PolyCollection_1">
    <path d="M 272.973942 139.437667 
L 272.973942 218.88 
L 271.083829 216.920526 
L 269.193716 215.512248 
L 267.303603 214.076019 
L 265.413491 212.521929 
L 263.523378 210.923795 
L 261.633265 209.324478 
L 259.743152 207.724238 
L 257.853039 206.129396 
L 255.962927 204.531263 
L 254.072814 202.950303 
L 252.182701 201.485342 
L 250.292588 200.097106 
L 248.402476 198.725404 
L 246.512363 197.323882 
L 244.62225 195.909773 
L 242.732137 194.495665 
L 240.842024 193.081557 
L 238.951912 191.667448 
L 237.061799 190.25334 
L 235.171686 188.649549 
L 233.281573 187.064596 
L 231.39146 185.623882 
L 229.501348 184.07227 
L 227.611235 182.516681 
L 225.721122 180.886243 
L 223.831009 179.006796 
L 221.940897 177.336265 
L 220.050784 176.252371 
L 218.160671 175.096513 
L 216.270558 173.6172 
L 214.380445 172.962705 
L 212.490333 171.850847 
L 210.60022 170.377512 
L 208.710107 169.271331 
L 206.819994 168.236466 
L 204.929881 167.380832 
L 203.039769 166.668337 
L 201.149656 165.608037 
L 199.259543 164.474614 
L 197.36943 163.49133 
L 195.479318 162.751531 
L 193.589205 162.191472 
L 191.699092 161.66739 
L 189.808979 160.987169 
L 187.918866 160.630806 
L 186.028754 160.255437 
L 184.138641 159.708135 
L 182.248528 159.457362 
L 180.358415 158.657814 
L 178.468302 158.3412 
L 176.57819 157.608574 
L 174.688077 157.587848 
L 172.797964 157.301493 
L 170.907851 157.195907 
L 169.017739 156.778701 
L 167.127626 156.29831 
L 165.237513 155.782725 
L 163.3474 155.6405 
L 161.457287 155.416717 
L 159.567175 155.184372 
L 157.677062 155.236431 
L 155.786949 155.012611 
L 153.896836 154.735136 
L 152.006723 154.458783 
L 150.116611 154.186921 
L 148.226498 154.319254 
L 146.336385 154.231047 
L 144.446272 154.104541 
L 142.55616 153.692134 
L 140.666047 153.79554 
L 138.775934 153.771949 
L 136.885821 153.671221 
L 134.995708 153.714599 
L 133.105596 153.632784 
L 131.215483 153.67269 
L 129.32537 153.726098 
L 127.435257 153.779506 
L 125.545144 153.832914 
L 123.655032 153.883685 
L 121.764919 153.736646 
L 119.874806 153.679761 
L 117.984693 153.418322 
L 116.094581 153.153378 
L 114.204468 153.246206 
L 112.314355 153.339035 
L 110.424242 153.431864 
L 108.534129 153.524693 
L 106.644017 153.546669 
L 104.753904 153.464386 
L 102.863791 153.376682 
L 100.973678 153.378572 
L 99.083565 153.258264 
L 97.193453 153.123121 
L 95.30334 153.042774 
L 93.413227 152.962427 
L 91.523114 153.503513 
L 89.633002 154.021149 
L 87.742889 154.162039 
L 85.852776 153.953256 
L 85.852776 34.825773 
L 85.852776 34.825773 
L 87.742889 36.405941 
L 89.633002 37.99425 
L 91.523114 39.922079 
L 93.413227 41.866858 
L 95.30334 43.309318 
L 97.193453 44.724288 
L 99.083565 46.515988 
L 100.973678 47.974635 
L 102.863791 49.294801 
L 104.753904 50.625473 
L 106.644017 52.541871 
L 108.534129 54.348974 
L 110.424242 56.035739 
L 112.314355 57.722505 
L 114.204468 59.26547 
L 116.094581 60.722045 
L 117.984693 62.138427 
L 119.874806 63.553209 
L 121.764919 65.073985 
L 123.655032 66.628756 
L 125.545144 68.098982 
L 127.435257 69.573177 
L 129.32537 71.111384 
L 131.215483 72.477074 
L 133.105596 73.974627 
L 134.995708 75.441459 
L 136.885821 76.909701 
L 138.775934 78.146852 
L 140.666047 79.841958 
L 142.55616 81.313294 
L 144.446272 82.745604 
L 146.336385 84.25637 
L 148.226498 85.72749 
L 150.116611 87.16205 
L 152.006723 88.497728 
L 153.896836 89.833406 
L 155.786949 91.169084 
L 157.677062 92.714954 
L 159.567175 94.144113 
L 161.457287 95.3687 
L 163.3474 96.686631 
L 165.237513 97.891178 
L 167.127626 99.006313 
L 169.017739 100.27631 
L 170.907851 101.677462 
L 172.797964 102.877761 
L 174.688077 103.988719 
L 176.57819 105.338817 
L 178.468302 106.61423 
L 180.358415 107.80744 
L 182.248528 108.868 
L 184.138641 109.941062 
L 186.028754 111.044089 
L 187.918866 112.157334 
L 189.808979 113.518455 
L 191.699092 114.923776 
L 193.589205 116.174926 
L 195.479318 117.053295 
L 197.36943 118.119665 
L 199.259543 119.068019 
L 201.149656 120.001281 
L 203.039769 120.947507 
L 204.929881 121.884108 
L 206.819994 122.626741 
L 208.710107 123.517909 
L 210.60022 124.469443 
L 212.490333 125.340892 
L 214.380445 125.930331 
L 216.270558 126.83915 
L 218.160671 127.815744 
L 220.050784 128.741963 
L 221.940897 129.572306 
L 223.831009 130.400133 
L 225.721122 130.638872 
L 227.611235 131.573646 
L 229.501348 132.516197 
L 231.39146 132.840212 
L 233.281573 133.523647 
L 235.171686 134.732907 
L 237.061799 134.784786 
L 238.951912 135.241966 
L 240.842024 135.043431 
L 242.732137 135.334954 
L 244.62225 135.705971 
L 246.512363 135.965043 
L 248.402476 136.507513 
L 250.292588 136.265146 
L 252.182701 136.501516 
L 254.072814 137.264945 
L 255.962927 137.797269 
L 257.853039 137.647439 
L 259.743152 138.165614 
L 261.633265 138.283822 
L 263.523378 138.782316 
L 265.413491 138.930726 
L 267.303603 139.055875 
L 269.193716 139.181023 
L 271.083829 139.306172 
L 272.973942 139.437667 
z
" clip-path="url(#p7dff7cee32)" style="fill-opacity: 0.15"/>
   </g>
   <g id="matplotlib.axis_1">
    <g id="xtick_1">
     <g id="line2d_1">
      <defs>
       <path id="m0740081d7d" d="M 0 0 
L 0 3.5 
" style="stroke: #000000; stroke-width: 0.8"/>
      </defs>
      <g>
       <use xlink:href="#m0740081d7d" x="236.672281" y="228.96" style="stroke: #000000; stroke-width: 0.8"/>
      </g>
     </g>
     <g id="text_1">
      <text style="font: 16px 'DejaVu Sans', 'Bitstream Vera Sans', 'Computer Modern Sans Serif', 'Lucida Grande', 'Verdana', 'Geneva', 'Lucid', 'Arial', 'Helvetica', 'Avant Garde', sans-serif; text-anchor: middle" x="236.672281" y="248.1175" transform="rotate(-0 236.672281 248.1175)">0.99</text>
     </g>
    </g>
    <g id="xtick_2">
     <g id="line2d_2">
      <g>
       <use xlink:href="#m0740081d7d" x="147.90114" y="228.96" style="stroke: #000000; stroke-width: 0.8"/>
      </g>
     </g>
     <g id="text_2">
      <text style="font: 16px 'DejaVu Sans', 'Bitstream Vera Sans', 'Computer Modern Sans Serif', 'Lucida Grande', 'Verdana', 'Geneva', 'Lucid', 'Arial', 'Helvetica', 'Avant Garde', sans-serif; text-anchor: middle" x="147.90114" y="248.1175" transform="rotate(-0 147.90114 248.1175)">0.9</text>
     </g>
    </g>
    <g id="xtick_3">
     <g id="line2d_3">
      <g>
       <use xlink:href="#m0740081d7d" x="59.13" y="228.96" style="stroke: #000000; stroke-width: 0.8"/>
      </g>
     </g>
     <g id="text_3">
      <text style="font: 16px 'DejaVu Sans', 'Bitstream Vera Sans', 'Computer Modern Sans Serif', 'Lucida Grande', 'Verdana', 'Geneva', 'Lucid', 'Arial', 'Helvetica', 'Avant Garde', sans-serif; text-anchor: middle" x="59.13" y="248.1175" transform="rotate(-0 59.13 248.1175)">0</text>
     </g>
    </g>
    <g id="text_4">
     <!-- double-Wilson $r$ -->
     <g transform="translate(108.25 267.6025)">
      <text>
       <tspan style="font: 16px 'DejaVu Sans'" x="0 10.15625 19.945312 30.085938 40.242188 44.6875 54.53125 60.304688 76.125 80.570312 85.015625 93.351562 103.140625 113.28125" y="-0.84375">double-Wilson </tspan>
       <tspan style="font: oblique 16px 'DejaVu Sans'" x="118.367188" y="-0.84375">r</tspan>
      </text>
     </g>
    </g>
   </g>
   <g id="matplotlib.axis_2">
    <g id="ytick_1">
     <g id="line2d_4">
      <defs>
       <path id="m1d2c6fceee" d="M 0 0 
L -3.5 0 
" style="stroke: #000000; stroke-width: 0.8"/>
      </defs>
      <g>
       <use xlink:href="#m1d2c6fceee" x="59.13" y="192.448459" style="stroke: #000000; stroke-width: 0.8"/>
      </g>
     </g>
     <g id="text_5">
      <text style="font: 16px 'DejaVu Sans', 'Bitstream Vera Sans', 'Computer Modern Sans Serif', 'Lucida Grande', 'Verdana', 'Geneva', 'Lucid', 'Arial', 'Helvetica', 'Avant Garde', sans-serif; text-anchor: end" x="52.13" y="198.527209" transform="rotate(-0 52.13 198.527209)">0.1</text>
     </g>
    </g>
    <g id="ytick_2">
     <g id="line2d_5">
      <g>
       <use xlink:href="#m1d2c6fceee" x="59.13" y="125.075975" style="stroke: #000000; stroke-width: 0.8"/>
      </g>
     </g>
     <g id="text_6">
      <text style="font: 16px 'DejaVu Sans', 'Bitstream Vera Sans', 'Computer Modern Sans Serif', 'Lucida Grande', 'Verdana', 'Geneva', 'Lucid', 'Arial', 'Helvetica', 'Avant Garde', sans-serif; text-anchor: end" x="52.13" y="131.154725" transform="rotate(-0 52.13 131.154725)">0.2</text>
     </g>
    </g>
    <g id="ytick_3">
     <g id="line2d_6">
      <g>
       <use xlink:href="#m1d2c6fceee" x="59.13" y="57.703491" style="stroke: #000000; stroke-width: 0.8"/>
      </g>
     </g>
     <g id="text_7">
      <text style="font: 16px 'DejaVu Sans', 'Bitstream Vera Sans', 'Computer Modern Sans Serif', 'Lucida Grande', 'Verdana', 'Geneva', 'Lucid', 'Arial', 'Helvetica', 'Avant Garde', sans-serif; text-anchor: end" x="52.13" y="63.782241" transform="rotate(-0 52.13 63.782241)">0.3</text>
     </g>
    </g>
    <g id="text_8">
     <text style="font: 16px 'DejaVu Sans', 'Bitstream Vera Sans', 'Computer Modern Sans Serif', 'Lucida Grande', 'Verdana', 'Geneva', 'Lucid', 'Arial', 'Helvetica', 'Avant Garde', sans-serif; text-anchor: middle" x="19.3575" y="118.08" transform="rotate(-90 19.3575 118.08)">1-BDC</text>
    </g>
   </g>
   <g id="line2d_7">
    <path d="M 272.973942 181.090219 
L 271.083829 180.085956 
L 269.193716 179.081693 
L 267.303603 178.07743 
L 265.413491 177.073166 
L 263.523378 176.068903 
L 261.633265 175.06464 
L 259.743152 174.060376 
L 257.853039 173.056113 
L 255.962927 172.05185 
L 254.072814 171.047587 
L 252.182701 170.043323 
L 250.292588 169.03906 
L 248.402476 168.034797 
L 246.512363 167.030533 
L 244.62225 166.02627 
L 242.732137 165.022007 
L 240.842024 164.017744 
L 238.951912 163.01348 
L 237.061799 162.009217 
L 235.171686 161.004954 
L 233.281573 160.000691 
L 231.39146 158.996427 
L 229.501348 157.992164 
L 227.611235 156.987901 
L 225.721122 155.983637 
L 223.831009 154.979374 
L 221.940897 153.975111 
L 220.050784 152.970848 
L 218.160671 151.966584 
L 216.270558 150.962321 
L 214.380445 149.958058 
L 212.490333 148.953794 
L 210.60022 147.949531 
L 208.710107 146.945268 
L 206.819994 145.941005 
L 204.929881 144.936741 
L 203.039769 143.932478 
L 201.149656 142.928215 
L 199.259543 141.923951 
L 197.36943 140.919688 
L 195.479318 139.915425 
L 193.589205 138.911162 
L 191.699092 137.906898 
L 189.808979 136.902635 
L 187.918866 135.898372 
L 186.028754 134.894108 
L 184.138641 133.889845 
L 182.248528 132.885582 
L 180.358415 131.881319 
L 178.468302 130.877055 
L 176.57819 129.872792 
L 174.688077 128.868529 
L 172.797964 127.864265 
L 170.907851 126.860002 
L 169.017739 125.855739 
L 167.127626 124.851476 
L 165.237513 123.847212 
L 163.3474 122.842949 
L 161.457287 121.838686 
L 159.567175 120.834423 
L 157.677062 119.830159 
L 155.786949 118.825896 
L 153.896836 117.821633 
L 152.006723 116.817369 
L 150.116611 115.813106 
L 148.226498 114.808843 
L 146.336385 113.80458 
L 144.446272 112.800316 
L 142.55616 111.796053 
L 140.666047 110.79179 
L 138.775934 109.787526 
L 136.885821 108.783263 
L 134.995708 107.779 
L 133.105596 106.774737 
L 131.215483 105.770473 
L 129.32537 104.76621 
L 127.435257 103.761947 
L 125.545144 102.757683 
L 123.655032 101.75342 
L 121.764919 100.749157 
L 119.874806 99.744894 
L 117.984693 98.74063 
L 116.094581 97.736367 
L 114.204468 96.732104 
L 112.314355 95.72784 
L 110.424242 94.723577 
L 108.534129 93.719314 
L 106.644017 92.715051 
L 104.753904 91.710787 
L 102.863791 90.706524 
L 100.973678 89.702261 
L 99.083565 88.697998 
L 97.193453 87.693734 
L 95.30334 86.689471 
L 93.413227 85.685208 
L 91.523114 84.680944 
L 89.633002 83.676681 
L 87.742889 82.672418 
L 85.852776 81.668155 
" clip-path="url(#p7dff7cee32)" style="fill: none; stroke: #000000; stroke-width: 2.25; stroke-linecap: square"/>
   </g>
   <g id="patch_3">
    <path d="M 59.13 228.96 
L 59.13 7.2 
" style="fill: none; stroke: #000000; stroke-width: 0.8; stroke-linejoin: miter; stroke-linecap: square"/>
   </g>
   <g id="patch_4">
    <path d="M 282.33 228.96 
L 282.33 7.2 
" style="fill: none; stroke: #000000; stroke-width: 0.8; stroke-linejoin: miter; stroke-linecap: square"/>
   </g>
   <g id="patch_5">
    <path d="M 59.13 228.96 
L 282.33 228.96 
" style="fill: none; stroke: #000000; stroke-width: 0.8; stroke-linejoin: miter; stroke-linecap: square"/>
   </g>
   <g id="patch_6">
    <path d="M 59.13 7.2 
L 282.33 7.2 
" style="fill: none; stroke: #000000; stroke-width: 0.8; stroke-linejoin: miter; stroke-linecap: square"/>
   </g>
  </g>
 </g>
 <defs>
  <clipPath id="p7dff7cee32">
   <rect x="59.13" y="7.2" width="223.2" height="221.76"/>
  </clipPath>
 </defs>
</svg>
