<?xml version="1.0" encoding="utf-8" standalone="no"?>
<!DOCTYPE svg PUBLIC "-//W3C//DTD SVG 1.1//EN"
  "http://www.w3.org/Graphics/SVG/1.1/DTD/svg11.dtd">
<svg xmlns:xlink="http://www.w3.org/1999/xlink" width="294.64625pt" height="282.00125pt" viewBox="0 0 294.64625 282.00125" xmlns="http://www.w3.org/2000/svg" version="1.1">
 <metadata>
  <rdf:RDF xmlns:dc="http://purl.org/dc/elements/1.1/" xmlns:cc="http://creativecommons.org/ns#" xmlns:rdf="http://www.w3.org/1999/02/22-rdf-syntax-ns#">
   <cc:Work>
    <dc:type rdf:resource="http://purl.org/dc/dcmitype/StillImage"/>
    <dc:date>2025-08-04T11:23:31.435808</dc:date>
    <dc:format>image/svg+xml</dc:format>
    <dc:creator>
     <cc:Agent>
      <dc:title>Matplotlib v3.8.2, https://matplotlib.org/</dc:title>
     </cc:Agent>
    </dc:creator>
   </cc:Work>
  </rdf:RDF>
 </metadata>
 <defs>
  <style type="text/css">*{stroke-linejoin: round; stroke-linecap: butt}</style>
 </defs>
 <g id="figure_1">
  <g id="patch_1">
   <path d="M 0 282.00125 
L 294.64625 282.00125 
L 294.64625 0 
L 0 0 
z
" style="fill: #ffffff"/>
  </g>
  <g id="axes_1">
   <g id="patch_2">
    <path d="M 64.24625 228.96 
L 287.44625 228.96 
L 287.44625 7.2 
L 64.24625 7.2 
z
" style="fill: #ffffff"/>
   </g>
   <g id="PathCollection_1">
    <defs>
     <path id="m366504040c" d="M 0 3 
C 0.795609 3 1.55874 2.683901 2.12132 2.12132 
C 2.683901 1.55874 3 0.795609 3 0 
C 3 -0.795609 2.683901 -1.55874 2.12132 -2.12132 
C 1.55874 -2.683901 0.795609 -3 0 -3 
C -0.795609 -3 -1.55874 -2.683901 -2.12132 -2.12132 
C -2.683901 -1.55874 -3 -0.795609 -3 0 
C -3 0.795609 -2.683901 1.55874 -2.12132 2.12132 
C -1.55874 2.683901 -0.795609 3 0 3 
z
" style="stroke: #000000; stroke-opacity: 0.8"/>
    </defs>
    <g clip-path="url(#pca5109fd2b)">
     <use xlink:href="#m366504040c" x="277.948378" y="136.538594" style="fill-opacity: 0.8; stroke: #000000; stroke-opacity: 0.8"/>
     <use xlink:href="#m366504040c" x="277.948378" y="158.221974" style="fill-opacity: 0.8; stroke: #000000; stroke-opacity: 0.8"/>
     <use xlink:href="#m366504040c" x="277.948378" y="141.959439" style="fill-opacity: 0.8; stroke: #000000; stroke-opacity: 0.8"/>
     <use xlink:href="#m366504040c" x="111.735612" y="158.221974" style="fill-opacity: 0.8; stroke: #000000; stroke-opacity: 0.8"/>
     <use xlink:href="#m366504040c" x="277.948378" y="120.276058" style="fill-opacity: 0.8; stroke: #000000; stroke-opacity: 0.8"/>
     <use xlink:href="#m366504040c" x="87.990931" y="120.276058" style="fill-opacity: 0.8; stroke: #000000; stroke-opacity: 0.8"/>
     <use xlink:href="#m366504040c" x="277.948378" y="114.855213" style="fill-opacity: 0.8; stroke: #000000; stroke-opacity: 0.8"/>
     <use xlink:href="#m366504040c" x="277.948378" y="141.959439" style="fill-opacity: 0.8; stroke: #000000; stroke-opacity: 0.8"/>
     <use xlink:href="#m366504040c" x="277.948378" y="104.013523" style="fill-opacity: 0.8; stroke: #000000; stroke-opacity: 0.8"/>
     <use xlink:href="#m366504040c" x="159.224973" y="174.48451" style="fill-opacity: 0.8; stroke: #000000; stroke-opacity: 0.8"/>
     <use xlink:href="#m366504040c" x="254.203697" y="109.434368" style="fill-opacity: 0.8; stroke: #000000; stroke-opacity: 0.8"/>
     <use xlink:href="#m366504040c" x="277.948378" y="17.28" style="fill-opacity: 0.8; stroke: #000000; stroke-opacity: 0.8"/>
     <use xlink:href="#m366504040c" x="277.948378" y="66.067606" style="fill-opacity: 0.8; stroke: #000000; stroke-opacity: 0.8"/>
     <use xlink:href="#m366504040c" x="277.948378" y="136.538594" style="fill-opacity: 0.8; stroke: #000000; stroke-opacity: 0.8"/>
     <use xlink:href="#m366504040c" x="277.948378" y="125.696903" style="fill-opacity: 0.8; stroke: #000000; stroke-opacity: 0.8"/>
     <use xlink:href="#m366504040c" x="277.948378" y="33.542535" style="fill-opacity: 0.8; stroke: #000000; stroke-opacity: 0.8"/>
    </g>
   </g>
   <g id="PolyCollection_1">
    <path d="M 277.948378 82.816533 
L 277.948378 131.122396 
L 276.029616 131.477143 
L 274.110853 131.681996 
L 272.192091 131.862164 
L 270.273329 132.045615 
L 268.354567 132.360804 
L 266.435805 132.707804 
L 264.517043 133.018911 
L 262.598281 133.328546 
L 260.679519 133.446042 
L 258.760757 133.604294 
L 256.841995 133.745699 
L 254.923233 134.1442 
L 253.004471 134.598835 
L 251.085708 135.023226 
L 249.166946 135.328392 
L 247.248184 136.01661 
L 245.329422 136.702939 
L 243.41066 137.212439 
L 241.491898 137.798878 
L 239.573136 138.209304 
L 237.654374 138.468258 
L 235.735612 138.994835 
L 233.81685 139.520491 
L 231.898088 140.225539 
L 229.979325 140.793825 
L 228.060563 141.311042 
L 226.141801 141.815384 
L 224.223039 142.236787 
L 222.304277 142.803535 
L 220.385515 143.767076 
L 218.466753 144.332675 
L 216.547991 145.395447 
L 214.629229 146.06988 
L 212.710467 146.90166 
L 210.791705 147.582645 
L 208.872942 148.553756 
L 206.95418 149.426575 
L 205.035418 150.582492 
L 203.116656 151.441283 
L 201.197894 152.448637 
L 199.279132 153.454973 
L 197.36037 154.461023 
L 195.441608 155.441498 
L 193.522846 156.477327 
L 191.604084 157.434055 
L 189.685322 158.356574 
L 187.766559 159.253421 
L 185.847797 160.186804 
L 183.929035 161.050969 
L 182.010273 161.950399 
L 180.091511 162.849828 
L 178.172749 163.985238 
L 176.253987 164.932189 
L 174.335225 165.783335 
L 172.416463 166.831456 
L 170.497701 167.780195 
L 168.578939 168.848958 
L 166.660176 170.027154 
L 164.741414 171.177439 
L 162.822652 172.557787 
L 160.90389 173.600446 
L 158.985128 174.60509 
L 157.066366 175.618041 
L 155.147604 176.672223 
L 153.228842 177.807801 
L 151.31008 179.043726 
L 149.391318 180.220425 
L 147.472556 181.431385 
L 145.553794 182.640065 
L 143.635031 183.848969 
L 141.716269 185.037639 
L 139.797507 186.195428 
L 137.878745 187.353218 
L 135.959983 188.511007 
L 134.041221 189.668797 
L 132.122459 190.88593 
L 130.203697 192.103064 
L 128.284935 193.320197 
L 126.366173 194.56173 
L 124.447411 195.837683 
L 122.528648 197.113635 
L 120.609886 198.370736 
L 118.691124 199.580884 
L 116.772362 200.790866 
L 114.8536 201.980383 
L 112.934838 203.1699 
L 111.016076 204.359416 
L 109.097314 205.548933 
L 107.178552 206.73845 
L 105.25979 207.927966 
L 103.341028 209.142932 
L 101.422265 210.360066 
L 99.503503 211.577199 
L 97.584741 212.794333 
L 95.665979 214.011466 
L 93.747217 215.2286 
L 91.828455 216.445733 
L 89.909693 217.662867 
L 87.990931 218.88 
L 87.990931 118.255511 
L 87.990931 118.255511 
L 89.909693 118.337833 
L 91.828455 118.420155 
L 93.747217 118.502478 
L 95.665979 118.5848 
L 97.584741 118.336352 
L 99.503503 118.137558 
L 101.422265 118.134923 
L 103.341028 118.084668 
L 105.25979 117.842878 
L 107.178552 117.618399 
L 109.097314 117.305008 
L 111.016076 117.031594 
L 112.934838 116.758181 
L 114.8536 116.486303 
L 116.772362 116.215606 
L 118.691124 115.94491 
L 120.609886 115.674213 
L 122.528648 115.403516 
L 124.447411 115.132819 
L 126.366173 114.862123 
L 128.284935 114.591426 
L 130.203697 114.325208 
L 132.122459 114.060401 
L 134.041221 113.795594 
L 135.959983 113.585949 
L 137.878745 113.513495 
L 139.797507 113.279145 
L 141.716269 112.989672 
L 143.635031 112.700199 
L 145.553794 112.410726 
L 147.472556 112.121253 
L 149.391318 111.83178 
L 151.31008 111.542308 
L 153.228842 111.252835 
L 155.147604 110.963362 
L 157.066366 110.671504 
L 158.985128 110.354344 
L 160.90389 110.037183 
L 162.822652 109.750372 
L 164.741414 109.480128 
L 166.660176 109.208209 
L 168.578939 108.80429 
L 170.497701 108.441106 
L 172.416463 108.117075 
L 174.335225 107.793045 
L 176.253987 107.469139 
L 178.172749 107.146784 
L 180.091511 106.833784 
L 182.010273 106.525561 
L 183.929035 106.216446 
L 185.847797 106.08555 
L 187.766559 106.025761 
L 189.685322 105.741189 
L 191.604084 105.455427 
L 193.522846 105.153705 
L 195.441608 104.831905 
L 197.36037 103.995669 
L 199.279132 103.502677 
L 201.197894 103.039372 
L 203.116656 102.540151 
L 205.035418 102.694595 
L 206.95418 102.386629 
L 208.872942 101.908217 
L 210.791705 101.257575 
L 212.710467 100.941832 
L 214.629229 100.991383 
L 216.547991 100.261831 
L 218.466753 100.466083 
L 220.385515 99.887166 
L 222.304277 99.152972 
L 224.223039 98.758405 
L 226.141801 98.539811 
L 228.060563 98.156438 
L 229.979325 97.945918 
L 231.898088 97.540673 
L 233.81685 97.23577 
L 235.735612 96.991908 
L 237.654374 97.087486 
L 239.573136 97.027122 
L 241.491898 96.661192 
L 243.41066 96.335088 
L 245.329422 95.625309 
L 247.248184 95.119488 
L 249.166946 94.544231 
L 251.085708 93.831524 
L 253.004471 93.085457 
L 254.923233 92.689513 
L 256.841995 92.035345 
L 258.760757 91.562241 
L 260.679519 90.71518 
L 262.598281 89.832704 
L 264.517043 89.021024 
L 266.435805 88.310849 
L 268.354567 87.168703 
L 270.273329 86.280366 
L 272.192091 85.426698 
L 274.110853 84.066535 
L 276.029616 83.552306 
L 277.948378 82.816533 
z
" clip-path="url(#pca5109fd2b)" style="fill-opacity: 0.15"/>
   </g>
   <g id="matplotlib.axis_1">
    <g id="xtick_1">
     <g id="line2d_1">
      <defs>
       <path id="mb5d0bce51a" d="M 0 0 
L 0 3.5 
" style="stroke: #000000; stroke-width: 0.8"/>
      </defs>
      <g>
       <use xlink:href="#mb5d0bce51a" x="222.002495" y="228.96" style="stroke: #000000; stroke-width: 0.8"/>
      </g>
     </g>
     <g id="text_1">
      <text style="font: 18px 'DejaVu Sans', 'Bitstream Vera Sans', 'Computer Modern Sans Serif', 'Lucida Grande', 'Verdana', 'Geneva', 'Lucid', 'Arial', 'Helvetica', 'Avant Garde', sans-serif; text-anchor: middle" x="222.002495" y="249.637187" transform="rotate(-0 222.002495 249.637187)">0.99</text>
     </g>
    </g>
    <g id="xtick_2">
     <g id="line2d_2">
      <g>
       <use xlink:href="#mb5d0bce51a" x="143.124372" y="228.96" style="stroke: #000000; stroke-width: 0.8"/>
      </g>
     </g>
     <g id="text_2">
      <text style="font: 18px 'DejaVu Sans', 'Bitstream Vera Sans', 'Computer Modern Sans Serif', 'Lucida Grande', 'Verdana', 'Geneva', 'Lucid', 'Arial', 'Helvetica', 'Avant Garde', sans-serif; text-anchor: middle" x="143.124372" y="249.637187" transform="rotate(-0 143.124372 249.637187)">0.9</text>
     </g>
    </g>
    <g id="xtick_3">
     <g id="line2d_3">
      <g>
       <use xlink:href="#mb5d0bce51a" x="64.24625" y="228.96" style="stroke: #000000; stroke-width: 0.8"/>
      </g>
     </g>
     <g id="text_3">
      <text style="font: 18px 'DejaVu Sans', 'Bitstream Vera Sans', 'Computer Modern Sans Serif', 'Lucida Grande', 'Verdana', 'Geneva', 'Lucid', 'Arial', 'Helvetica', 'Avant Garde', sans-serif; text-anchor: middle" x="64.24625" y="249.637187" transform="rotate(-0 64.24625 249.637187)">0</text>
     </g>
    </g>
    <g id="text_4">
     <!-- double-Wilson $r$ -->
     <g transform="translate(105.55625 271.057812)">
      <text>
       <tspan style="font: 18px 'DejaVu Sans'" x="0 11.425781 22.438477 33.84668 45.272461 50.273438 61.347656 67.842773 85.640625 90.641602 95.642578 105.020508 116.033203 127.441406" y="-0.328125">double-Wilson </tspan>
       <tspan style="font: oblique 18px 'DejaVu Sans'" x="133.163086" y="-0.328125">r</tspan>
      </text>
     </g>
    </g>
   </g>
   <g id="matplotlib.axis_2">
    <g id="ytick_1">
     <g id="line2d_4">
      <defs>
       <path id="m29def7fbff" d="M 0 0 
L -3.5 0 
" style="stroke: #000000; stroke-width: 0.8"/>
      </defs>
      <g>
       <use xlink:href="#m29def7fbff" x="64.24625" y="212.430426" style="stroke: #000000; stroke-width: 0.8"/>
      </g>
     </g>
     <g id="text_5">
      <text style="font: 18px 'DejaVu Sans', 'Bitstream Vera Sans', 'Computer Modern Sans Serif', 'Lucida Grande', 'Verdana', 'Geneva', 'Lucid', 'Arial', 'Helvetica', 'Avant Garde', sans-serif; text-anchor: end" x="57.24625" y="219.26902" transform="rotate(-0 57.24625 219.26902)">0.0</text>
     </g>
    </g>
    <g id="ytick_2">
     <g id="line2d_5">
      <g>
       <use xlink:href="#m29def7fbff" x="64.24625" y="158.221974" style="stroke: #000000; stroke-width: 0.8"/>
      </g>
     </g>
     <g id="text_6">
      <text style="font: 18px 'DejaVu Sans', 'Bitstream Vera Sans', 'Computer Modern Sans Serif', 'Lucida Grande', 'Verdana', 'Geneva', 'Lucid', 'Arial', 'Helvetica', 'Avant Garde', sans-serif; text-anchor: end" x="57.24625" y="165.060568" transform="rotate(-0 57.24625 165.060568)">0.1</text>
     </g>
    </g>
    <g id="ytick_3">
     <g id="line2d_6">
      <g>
       <use xlink:href="#m29def7fbff" x="64.24625" y="104.013523" style="stroke: #000000; stroke-width: 0.8"/>
      </g>
     </g>
     <g id="text_7">
      <text style="font: 18px 'DejaVu Sans', 'Bitstream Vera Sans', 'Computer Modern Sans Serif', 'Lucida Grande', 'Verdana', 'Geneva', 'Lucid', 'Arial', 'Helvetica', 'Avant Garde', sans-serif; text-anchor: end" x="57.24625" y="110.852116" transform="rotate(-0 57.24625 110.852116)">0.2</text>
     </g>
    </g>
    <g id="ytick_4">
     <g id="line2d_7">
      <g>
       <use xlink:href="#m29def7fbff" x="64.24625" y="49.805071" style="stroke: #000000; stroke-width: 0.8"/>
      </g>
     </g>
     <g id="text_8">
      <text style="font: 18px 'DejaVu Sans', 'Bitstream Vera Sans', 'Computer Modern Sans Serif', 'Lucida Grande', 'Verdana', 'Geneva', 'Lucid', 'Arial', 'Helvetica', 'Avant Garde', sans-serif; text-anchor: end" x="57.24625" y="56.643665" transform="rotate(-0 57.24625 56.643665)">0.3</text>
     </g>
    </g>
    <g id="text_9">
     <text style="font: 18px 'DejaVu Sans', 'Bitstream Vera Sans', 'Computer Modern Sans Serif', 'Lucida Grande', 'Verdana', 'Geneva', 'Lucid', 'Arial', 'Helvetica', 'Avant Garde', sans-serif; text-anchor: middle" x="20.877188" y="118.08" transform="rotate(-90 20.877188 118.08)">1-BDC</text>
    </g>
   </g>
   <g id="line2d_8">
    <path d="M 277.948378 109.011767 
L 276.029616 109.454974 
L 274.110853 109.898182 
L 272.192091 110.341389 
L 270.273329 110.784596 
L 268.354567 111.227804 
L 266.435805 111.671011 
L 264.517043 112.114218 
L 262.598281 112.557426 
L 260.679519 113.000633 
L 258.760757 113.443841 
L 256.841995 113.887048 
L 254.923233 114.330255 
L 253.004471 114.773463 
L 251.085708 115.21667 
L 249.166946 115.659878 
L 247.248184 116.103085 
L 245.329422 116.546292 
L 243.41066 116.9895 
L 241.491898 117.432707 
L 239.573136 117.875914 
L 237.654374 118.319122 
L 235.735612 118.762329 
L 233.81685 119.205537 
L 231.898088 119.648744 
L 229.979325 120.091951 
L 228.060563 120.535159 
L 226.141801 120.978366 
L 224.223039 121.421573 
L 222.304277 121.864781 
L 220.385515 122.307988 
L 218.466753 122.751196 
L 216.547991 123.194403 
L 214.629229 123.63761 
L 212.710467 124.080818 
L 210.791705 124.524025 
L 208.872942 124.967233 
L 206.95418 125.41044 
L 205.035418 125.853647 
L 203.116656 126.296855 
L 201.197894 126.740062 
L 199.279132 127.183269 
L 197.36037 127.626477 
L 195.441608 128.069684 
L 193.522846 128.512892 
L 191.604084 128.956099 
L 189.685322 129.399306 
L 187.766559 129.842514 
L 185.847797 130.285721 
L 183.929035 130.728928 
L 182.010273 131.172136 
L 180.091511 131.615343 
L 178.172749 132.058551 
L 176.253987 132.501758 
L 174.335225 132.944965 
L 172.416463 133.388173 
L 170.497701 133.83138 
L 168.578939 134.274588 
L 166.660176 134.717795 
L 164.741414 135.161002 
L 162.822652 135.60421 
L 160.90389 136.047417 
L 158.985128 136.490624 
L 157.066366 136.933832 
L 155.147604 137.377039 
L 153.228842 137.820247 
L 151.31008 138.263454 
L 149.391318 138.706661 
L 147.472556 139.149869 
L 145.553794 139.593076 
L 143.635031 140.036284 
L 141.716269 140.479491 
L 139.797507 140.922698 
L 137.878745 141.365906 
L 135.959983 141.809113 
L 134.041221 142.25232 
L 132.122459 142.695528 
L 130.203697 143.138735 
L 128.284935 143.581943 
L 126.366173 144.02515 
L 124.447411 144.468357 
L 122.528648 144.911565 
L 120.609886 145.354772 
L 118.691124 145.797979 
L 116.772362 146.241187 
L 114.8536 146.684394 
L 112.934838 147.127602 
L 111.016076 147.570809 
L 109.097314 148.014016 
L 107.178552 148.457224 
L 105.25979 148.900431 
L 103.341028 149.343639 
L 101.422265 149.786846 
L 99.503503 150.230053 
L 97.584741 150.673261 
L 95.665979 151.116468 
L 93.747217 151.559675 
L 91.828455 152.002883 
L 89.909693 152.44609 
L 87.990931 152.889298 
" clip-path="url(#pca5109fd2b)" style="fill: none; stroke: #000000; stroke-width: 2.25; stroke-linecap: square"/>
   </g>
   <g id="patch_3">
    <path d="M 64.24625 228.96 
L 64.24625 7.2 
" style="fill: none; stroke: #000000; stroke-width: 0.8; stroke-linejoin: miter; stroke-linecap: square"/>
   </g>
   <g id="patch_4">
    <path d="M 287.44625 228.96 
L 287.44625 7.2 
" style="fill: none; stroke: #000000; stroke-width: 0.8; stroke-linejoin: miter; stroke-linecap: square"/>
   </g>
   <g id="patch_5">
    <path d="M 64.24625 228.96 
L 287.44625 228.96 
" style="fill: none; stroke: #000000; stroke-width: 0.8; stroke-linejoin: miter; stroke-linecap: square"/>
   </g>
   <g id="patch_6">
    <path d="M 64.24625 7.2 
L 287.44625 7.2 
" style="fill: none; stroke: #000000; stroke-width: 0.8; stroke-linejoin: miter; stroke-linecap: square"/>
   </g>
  </g>
 </g>
 <defs>
  <clipPath id="pca5109fd2b">
   <rect x="64.24625" y="7.2" width="223.2" height="221.76"/>
  </clipPath>
 </defs>
</svg>
