<?xml version="1.0" encoding="utf-8" standalone="no"?>
<!DOCTYPE svg PUBLIC "-//W3C//DTD SVG 1.1//EN"
  "http://www.w3.org/Graphics/SVG/1.1/DTD/svg11.dtd">
<svg xmlns:xlink="http://www.w3.org/1999/xlink" width="411.755857pt" height="437.951307pt" viewBox="0 0 411.755857 437.951307" xmlns="http://www.w3.org/2000/svg" version="1.1">
 <metadata>
  <rdf:RDF xmlns:dc="http://purl.org/dc/elements/1.1/" xmlns:cc="http://creativecommons.org/ns#" xmlns:rdf="http://www.w3.org/1999/02/22-rdf-syntax-ns#">
   <cc:Work>
    <dc:type rdf:resource="http://purl.org/dc/dcmitype/StillImage"/>
    <dc:date>2024-02-23T16:53:56.854726</dc:date>
    <dc:format>image/svg+xml</dc:format>
    <dc:creator>
     <cc:Agent>
      <dc:title>Matplotlib v3.8.2, https://matplotlib.org/</dc:title>
     </cc:Agent>
    </dc:creator>
   </cc:Work>
  </rdf:RDF>
 </metadata>
 <defs>
  <style type="text/css">*{stroke-linejoin: round; stroke-linecap: butt}</style>
 </defs>
 <g id="figure_1">
  <g id="patch_1">
   <path d="M 0 437.951307 
L 411.755857 437.951307 
L 411.755857 0 
L 0 0 
z
" style="fill: #ffffff"/>
  </g>
  <g id="axes_1">
   <g id="patch_2">
    <path d="M 65.388357 336.08 
L 288.588357 336.08 
L 288.588357 58.88 
L 65.388357 58.88 
z
" style="fill: #ffffff"/>
   </g>
   <g id="matplotlib.axis_1">
    <g id="xtick_1">
     <g id="line2d_1">
      <defs>
       <path id="m30ea672122" d="M 0 0 
L 0 3.5 
" style="stroke: #000000; stroke-width: 0.8"/>
      </defs>
      <g>
       <use xlink:href="#m30ea672122" x="247.823799" y="336.08" style="stroke: #000000; stroke-width: 0.8"/>
      </g>
     </g>
     <g id="text_1">
      <text style="font: 16px 'DejaVu Sans', 'Bitstream Vera Sans', 'Computer Modern Sans Serif', 'Lucida Grande', 'Verdana', 'Geneva', 'Lucid', 'Arial', 'Helvetica', 'Avant Garde', sans-serif; text-anchor: middle" x="247.823799" y="355.2375" transform="rotate(-0 247.823799 355.2375)">0.99</text>
     </g>
    </g>
    <g id="xtick_2">
     <g id="line2d_2">
      <g>
       <use xlink:href="#m30ea672122" x="172.94864" y="336.08" style="stroke: #000000; stroke-width: 0.8"/>
      </g>
     </g>
     <g id="text_2">
      <text style="font: 16px 'DejaVu Sans', 'Bitstream Vera Sans', 'Computer Modern Sans Serif', 'Lucida Grande', 'Verdana', 'Geneva', 'Lucid', 'Arial', 'Helvetica', 'Avant Garde', sans-serif; text-anchor: middle" x="172.94864" y="355.2375" transform="rotate(-0 172.94864 355.2375)">0.9</text>
     </g>
    </g>
    <g id="xtick_3">
     <g id="line2d_3">
      <g>
       <use xlink:href="#m30ea672122" x="98.07348" y="336.08" style="stroke: #000000; stroke-width: 0.8"/>
      </g>
     </g>
     <g id="text_3">
      <text style="font: 16px 'DejaVu Sans', 'Bitstream Vera Sans', 'Computer Modern Sans Serif', 'Lucida Grande', 'Verdana', 'Geneva', 'Lucid', 'Arial', 'Helvetica', 'Avant Garde', sans-serif; text-anchor: middle" x="98.07348" y="355.2375" transform="rotate(-0 98.07348 355.2375)">0</text>
     </g>
    </g>
    <g id="xtick_4">
     <g id="line2d_4">
      <g>
       <use xlink:href="#m30ea672122" x="75.386307" y="336.08" style="stroke: #000000; stroke-width: 0.8"/>
      </g>
     </g>
     <g id="text_4">
      <text style="font: 16px 'DejaVu Sans', 'Bitstream Vera Sans', 'Computer Modern Sans Serif', 'Lucida Grande', 'Verdana', 'Geneva', 'Lucid', 'Arial', 'Helvetica', 'Avant Garde', sans-serif" transform="translate(15.796651 408.913409) rotate(-45)">univariate</text>
     </g>
    </g>
    <g id="text_5">
     <!-- double-Wilson $r$ -->
     <g transform="translate(114.508357 427.423807)">
      <text>
       <tspan style="font: 16px 'DejaVu Sans'" x="0 10.15625 19.945312 30.085938 40.242188 44.6875 54.53125 60.304688 76.125 80.570312 85.015625 93.351562 103.140625 113.28125" y="-0.84375">double-Wilson </tspan>
       <tspan style="font: oblique 16px 'DejaVu Sans'" x="118.367188" y="-0.84375">r</tspan>
      </text>
     </g>
    </g>
   </g>
   <g id="matplotlib.axis_2">
    <g id="ytick_1">
     <g id="line2d_5">
      <defs>
       <path id="m5711cd2c10" d="M 0 0 
L -3.5 0 
" style="stroke: #000000; stroke-width: 0.8"/>
      </defs>
      <g>
       <use xlink:href="#m5711cd2c10" x="65.388357" y="298.582329" style="stroke: #000000; stroke-width: 0.8"/>
      </g>
     </g>
     <g id="text_6">
      <text style="font: 16px 'DejaVu Sans', 'Bitstream Vera Sans', 'Computer Modern Sans Serif', 'Lucida Grande', 'Verdana', 'Geneva', 'Lucid', 'Arial', 'Helvetica', 'Avant Garde', sans-serif; text-anchor: end" x="58.388357" y="304.661079" transform="rotate(-0 58.388357 304.661079)">10</text>
     </g>
    </g>
    <g id="ytick_2">
     <g id="line2d_6">
      <g>
       <use xlink:href="#m5711cd2c10" x="65.388357" y="239.302159" style="stroke: #000000; stroke-width: 0.8"/>
      </g>
     </g>
     <g id="text_7">
      <text style="font: 16px 'DejaVu Sans', 'Bitstream Vera Sans', 'Computer Modern Sans Serif', 'Lucida Grande', 'Verdana', 'Geneva', 'Lucid', 'Arial', 'Helvetica', 'Avant Garde', sans-serif; text-anchor: end" x="58.388357" y="245.380909" transform="rotate(-0 58.388357 245.380909)">20</text>
     </g>
    </g>
    <g id="ytick_3">
     <g id="line2d_7">
      <g>
       <use xlink:href="#m5711cd2c10" x="65.388357" y="180.02199" style="stroke: #000000; stroke-width: 0.8"/>
      </g>
     </g>
     <g id="text_8">
      <text style="font: 16px 'DejaVu Sans', 'Bitstream Vera Sans', 'Computer Modern Sans Serif', 'Lucida Grande', 'Verdana', 'Geneva', 'Lucid', 'Arial', 'Helvetica', 'Avant Garde', sans-serif; text-anchor: end" x="58.388357" y="186.10074" transform="rotate(-0 58.388357 186.10074)">30</text>
     </g>
    </g>
    <g id="ytick_4">
     <g id="line2d_8">
      <g>
       <use xlink:href="#m5711cd2c10" x="65.388357" y="120.741821" style="stroke: #000000; stroke-width: 0.8"/>
      </g>
     </g>
     <g id="text_9">
      <text style="font: 16px 'DejaVu Sans', 'Bitstream Vera Sans', 'Computer Modern Sans Serif', 'Lucida Grande', 'Verdana', 'Geneva', 'Lucid', 'Arial', 'Helvetica', 'Avant Garde', sans-serif; text-anchor: end" x="58.388357" y="126.820571" transform="rotate(-0 58.388357 126.820571)">40</text>
     </g>
    </g>
    <g id="ytick_5">
     <g id="line2d_9">
      <g>
       <use xlink:href="#m5711cd2c10" x="65.388357" y="61.461651" style="stroke: #000000; stroke-width: 0.8"/>
      </g>
     </g>
     <g id="text_10">
      <text style="font: 16px 'DejaVu Sans', 'Bitstream Vera Sans', 'Computer Modern Sans Serif', 'Lucida Grande', 'Verdana', 'Geneva', 'Lucid', 'Arial', 'Helvetica', 'Avant Garde', sans-serif; text-anchor: end" x="58.388357" y="67.540401" transform="rotate(-0 58.388357 67.540401)">50</text>
     </g>
    </g>
    <g id="text_11">
     <text style="font: 16px 'DejaVu Sans', 'Bitstream Vera Sans', 'Computer Modern Sans Serif', 'Lucida Grande', 'Verdana', 'Geneva', 'Lucid', 'Arial', 'Helvetica', 'Avant Garde', sans-serif; text-anchor: middle" x="30.700857" y="197.48" transform="rotate(-90 30.700857 197.48)">tallest peak height (σ)</text>
    </g>
   </g>
   <g id="line2d_10">
    <path d="M 75.533811 191.285222 
L 98.07348 190.158899 
L 120.613149 170.892844 
L 143.152818 149.196302 
L 165.692487 144.038927 
L 188.232156 138.170191 
L 210.771825 136.391785 
L 233.321901 136.095385 
L 255.819961 140.185716 
L 278.442902 145.817332 
" clip-path="url(#pcd11718037)" style="fill: none; stroke: #1f77b4; stroke-width: 1.5; stroke-linecap: square"/>
    <defs>
     <path id="m6809b4f6b5" d="M 0 3 
C 0.795609 3 1.55874 2.683901 2.12132 2.12132 
C 2.683901 1.55874 3 0.795609 3 0 
C 3 -0.795609 2.683901 -1.55874 2.12132 -2.12132 
C 1.55874 -2.683901 0.795609 -3 0 -3 
C -0.795609 -3 -1.55874 -2.683901 -2.12132 -2.12132 
C -2.683901 -1.55874 -3 -0.795609 -3 0 
C -3 0.795609 -2.683901 1.55874 -2.12132 2.12132 
C -1.55874 2.683901 -0.795609 3 0 3 
z
" style="stroke: #1f77b4"/>
    </defs>
    <g clip-path="url(#pcd11718037)">
     <use xlink:href="#m6809b4f6b5" x="75.533811" y="191.285222" style="fill: #1f77b4; stroke: #1f77b4"/>
     <use xlink:href="#m6809b4f6b5" x="98.07348" y="190.158899" style="fill: #1f77b4; stroke: #1f77b4"/>
     <use xlink:href="#m6809b4f6b5" x="120.613149" y="170.892844" style="fill: #1f77b4; stroke: #1f77b4"/>
     <use xlink:href="#m6809b4f6b5" x="143.152818" y="149.196302" style="fill: #1f77b4; stroke: #1f77b4"/>
     <use xlink:href="#m6809b4f6b5" x="165.692487" y="144.038927" style="fill: #1f77b4; stroke: #1f77b4"/>
     <use xlink:href="#m6809b4f6b5" x="188.232156" y="138.170191" style="fill: #1f77b4; stroke: #1f77b4"/>
     <use xlink:href="#m6809b4f6b5" x="210.771825" y="136.391785" style="fill: #1f77b4; stroke: #1f77b4"/>
     <use xlink:href="#m6809b4f6b5" x="233.321901" y="136.095385" style="fill: #1f77b4; stroke: #1f77b4"/>
     <use xlink:href="#m6809b4f6b5" x="255.819961" y="140.185716" style="fill: #1f77b4; stroke: #1f77b4"/>
     <use xlink:href="#m6809b4f6b5" x="278.442902" y="145.817332" style="fill: #1f77b4; stroke: #1f77b4"/>
    </g>
   </g>
   <g id="line2d_11">
    <path d="M 75.533811 319.626789 
L 98.07348 320.278871 
L 120.613149 315.714298 
L 143.152818 313.698772 
L 165.692487 310.675483 
L 188.232156 310.201242 
L 210.771825 310.379083 
L 233.321901 308.304277 
L 255.819961 306.170191 
L 278.442902 309.904841 
" clip-path="url(#pcd11718037)" style="fill: none; stroke: #ff7f0e; stroke-width: 1.5; stroke-linecap: square"/>
    <defs>
     <path id="m8053bb0caa" d="M 0 3 
C 0.795609 3 1.55874 2.683901 2.12132 2.12132 
C 2.683901 1.55874 3 0.795609 3 0 
C 3 -0.795609 2.683901 -1.55874 2.12132 -2.12132 
C 1.55874 -2.683901 0.795609 -3 0 -3 
C -0.795609 -3 -1.55874 -2.683901 -2.12132 -2.12132 
C -2.683901 -1.55874 -3 -0.795609 -3 0 
C -3 0.795609 -2.683901 1.55874 -2.12132 2.12132 
C -1.55874 2.683901 -0.795609 3 0 3 
z
" style="stroke: #ff7f0e"/>
    </defs>
    <g clip-path="url(#pcd11718037)">
     <use xlink:href="#m8053bb0caa" x="75.533811" y="319.626789" style="fill: #ff7f0e; stroke: #ff7f0e"/>
     <use xlink:href="#m8053bb0caa" x="98.07348" y="320.278871" style="fill: #ff7f0e; stroke: #ff7f0e"/>
     <use xlink:href="#m8053bb0caa" x="120.613149" y="315.714298" style="fill: #ff7f0e; stroke: #ff7f0e"/>
     <use xlink:href="#m8053bb0caa" x="143.152818" y="313.698772" style="fill: #ff7f0e; stroke: #ff7f0e"/>
     <use xlink:href="#m8053bb0caa" x="165.692487" y="310.675483" style="fill: #ff7f0e; stroke: #ff7f0e"/>
     <use xlink:href="#m8053bb0caa" x="188.232156" y="310.201242" style="fill: #ff7f0e; stroke: #ff7f0e"/>
     <use xlink:href="#m8053bb0caa" x="210.771825" y="310.379083" style="fill: #ff7f0e; stroke: #ff7f0e"/>
     <use xlink:href="#m8053bb0caa" x="233.321901" y="308.304277" style="fill: #ff7f0e; stroke: #ff7f0e"/>
     <use xlink:href="#m8053bb0caa" x="255.819961" y="306.170191" style="fill: #ff7f0e; stroke: #ff7f0e"/>
     <use xlink:href="#m8053bb0caa" x="278.442902" y="309.904841" style="fill: #ff7f0e; stroke: #ff7f0e"/>
    </g>
   </g>
   <g id="line2d_12">
    <path d="M 75.533811 321.168073 
L 98.07348 321.345914 
L 120.613149 317.374143 
L 143.152818 313.995173 
L 165.692487 313.520932 
L 188.232156 313.520932 
L 210.771825 313.876613 
L 233.321901 312.750289 
L 255.819961 312.394608 
L 278.442902 312.691009 
" clip-path="url(#pcd11718037)" style="fill: none; stroke: #2ca02c; stroke-width: 1.5; stroke-linecap: square"/>
    <defs>
     <path id="m4fbc88b969" d="M 0 3 
C 0.795609 3 1.55874 2.683901 2.12132 2.12132 
C 2.683901 1.55874 3 0.795609 3 0 
C 3 -0.795609 2.683901 -1.55874 2.12132 -2.12132 
C 1.55874 -2.683901 0.795609 -3 0 -3 
C -0.795609 -3 -1.55874 -2.683901 -2.12132 -2.12132 
C -2.683901 -1.55874 -3 -0.795609 -3 0 
C -3 0.795609 -2.683901 1.55874 -2.12132 2.12132 
C -1.55874 2.683901 -0.795609 3 0 3 
z
" style="stroke: #2ca02c"/>
    </defs>
    <g clip-path="url(#pcd11718037)">
     <use xlink:href="#m4fbc88b969" x="75.533811" y="321.168073" style="fill: #2ca02c; stroke: #2ca02c"/>
     <use xlink:href="#m4fbc88b969" x="98.07348" y="321.345914" style="fill: #2ca02c; stroke: #2ca02c"/>
     <use xlink:href="#m4fbc88b969" x="120.613149" y="317.374143" style="fill: #2ca02c; stroke: #2ca02c"/>
     <use xlink:href="#m4fbc88b969" x="143.152818" y="313.995173" style="fill: #2ca02c; stroke: #2ca02c"/>
     <use xlink:href="#m4fbc88b969" x="165.692487" y="313.520932" style="fill: #2ca02c; stroke: #2ca02c"/>
     <use xlink:href="#m4fbc88b969" x="188.232156" y="313.520932" style="fill: #2ca02c; stroke: #2ca02c"/>
     <use xlink:href="#m4fbc88b969" x="210.771825" y="313.876613" style="fill: #2ca02c; stroke: #2ca02c"/>
     <use xlink:href="#m4fbc88b969" x="233.321901" y="312.750289" style="fill: #2ca02c; stroke: #2ca02c"/>
     <use xlink:href="#m4fbc88b969" x="255.819961" y="312.394608" style="fill: #2ca02c; stroke: #2ca02c"/>
     <use xlink:href="#m4fbc88b969" x="278.442902" y="312.691009" style="fill: #2ca02c; stroke: #2ca02c"/>
    </g>
   </g>
   <g id="line2d_13">
    <path d="M 75.533811 299.412251 
L 98.07348 295.144079 
L 120.613149 288.801101 
L 143.152818 279.909076 
L 165.692487 272.499054 
L 188.232156 268.764404 
L 210.771825 263.429188 
L 233.321901 261.057982 
L 255.819961 259.220296 
L 278.442902 260.050219 
" clip-path="url(#pcd11718037)" style="fill: none; stroke: #d62728; stroke-width: 1.5; stroke-linecap: square"/>
    <defs>
     <path id="md1f8960eb0" d="M 0 3 
C 0.795609 3 1.55874 2.683901 2.12132 2.12132 
C 2.683901 1.55874 3 0.795609 3 0 
C 3 -0.795609 2.683901 -1.55874 2.12132 -2.12132 
C 1.55874 -2.683901 0.795609 -3 0 -3 
C -0.795609 -3 -1.55874 -2.683901 -2.12132 -2.12132 
C -2.683901 -1.55874 -3 -0.795609 -3 0 
C -3 0.795609 -2.683901 1.55874 -2.12132 2.12132 
C -1.55874 2.683901 -0.795609 3 0 3 
z
" style="stroke: #d62728"/>
    </defs>
    <g clip-path="url(#pcd11718037)">
     <use xlink:href="#md1f8960eb0" x="75.533811" y="299.412251" style="fill: #d62728; stroke: #d62728"/>
     <use xlink:href="#md1f8960eb0" x="98.07348" y="295.144079" style="fill: #d62728; stroke: #d62728"/>
     <use xlink:href="#md1f8960eb0" x="120.613149" y="288.801101" style="fill: #d62728; stroke: #d62728"/>
     <use xlink:href="#md1f8960eb0" x="143.152818" y="279.909076" style="fill: #d62728; stroke: #d62728"/>
     <use xlink:href="#md1f8960eb0" x="165.692487" y="272.499054" style="fill: #d62728; stroke: #d62728"/>
     <use xlink:href="#md1f8960eb0" x="188.232156" y="268.764404" style="fill: #d62728; stroke: #d62728"/>
     <use xlink:href="#md1f8960eb0" x="210.771825" y="263.429188" style="fill: #d62728; stroke: #d62728"/>
     <use xlink:href="#md1f8960eb0" x="233.321901" y="261.057982" style="fill: #d62728; stroke: #d62728"/>
     <use xlink:href="#md1f8960eb0" x="255.819961" y="259.220296" style="fill: #d62728; stroke: #d62728"/>
     <use xlink:href="#md1f8960eb0" x="278.442902" y="260.050219" style="fill: #d62728; stroke: #d62728"/>
    </g>
   </g>
   <g id="line2d_14">
    <path d="M 75.533811 279.197713 
L 98.07348 279.849795 
L 120.613149 271.609852 
L 143.152818 267.223119 
L 165.692487 262.658546 
L 188.232156 264.970473 
L 210.771825 267.5788 
L 233.321901 273.032576 
L 255.819961 274.4553 
L 278.442902 279.434834 
" clip-path="url(#pcd11718037)" style="fill: none; stroke: #9467bd; stroke-width: 1.5; stroke-linecap: square"/>
    <defs>
     <path id="m0db4a440f1" d="M 0 3 
C 0.795609 3 1.55874 2.683901 2.12132 2.12132 
C 2.683901 1.55874 3 0.795609 3 0 
C 3 -0.795609 2.683901 -1.55874 2.12132 -2.12132 
C 1.55874 -2.683901 0.795609 -3 0 -3 
C -0.795609 -3 -1.55874 -2.683901 -2.12132 -2.12132 
C -2.683901 -1.55874 -3 -0.795609 -3 0 
C -3 0.795609 -2.683901 1.55874 -2.12132 2.12132 
C -1.55874 2.683901 -0.795609 3 0 3 
z
" style="stroke: #9467bd"/>
    </defs>
    <g clip-path="url(#pcd11718037)">
     <use xlink:href="#m0db4a440f1" x="75.533811" y="279.197713" style="fill: #9467bd; stroke: #9467bd"/>
     <use xlink:href="#m0db4a440f1" x="98.07348" y="279.849795" style="fill: #9467bd; stroke: #9467bd"/>
     <use xlink:href="#m0db4a440f1" x="120.613149" y="271.609852" style="fill: #9467bd; stroke: #9467bd"/>
     <use xlink:href="#m0db4a440f1" x="143.152818" y="267.223119" style="fill: #9467bd; stroke: #9467bd"/>
     <use xlink:href="#m0db4a440f1" x="165.692487" y="262.658546" style="fill: #9467bd; stroke: #9467bd"/>
     <use xlink:href="#m0db4a440f1" x="188.232156" y="264.970473" style="fill: #9467bd; stroke: #9467bd"/>
     <use xlink:href="#m0db4a440f1" x="210.771825" y="267.5788" style="fill: #9467bd; stroke: #9467bd"/>
     <use xlink:href="#m0db4a440f1" x="233.321901" y="273.032576" style="fill: #9467bd; stroke: #9467bd"/>
     <use xlink:href="#m0db4a440f1" x="255.819961" y="274.4553" style="fill: #9467bd; stroke: #9467bd"/>
     <use xlink:href="#m0db4a440f1" x="278.442902" y="279.434834" style="fill: #9467bd; stroke: #9467bd"/>
    </g>
   </g>
   <g id="line2d_15">
    <path d="M 75.533811 272.380494 
L 98.07348 273.981059 
L 120.613149 268.527283 
L 143.152818 268.705124 
L 165.692487 269.001524 
L 188.232156 265.266874 
L 210.771825 263.488469 
L 233.321901 267.63808 
L 255.819961 268.823684 
L 278.442902 273.091856 
" clip-path="url(#pcd11718037)" style="fill: none; stroke: #8c564b; stroke-width: 1.5; stroke-linecap: square"/>
    <defs>
     <path id="m2e030bf140" d="M 0 3 
C 0.795609 3 1.55874 2.683901 2.12132 2.12132 
C 2.683901 1.55874 3 0.795609 3 0 
C 3 -0.795609 2.683901 -1.55874 2.12132 -2.12132 
C 1.55874 -2.683901 0.795609 -3 0 -3 
C -0.795609 -3 -1.55874 -2.683901 -2.12132 -2.12132 
C -2.683901 -1.55874 -3 -0.795609 -3 0 
C -3 0.795609 -2.683901 1.55874 -2.12132 2.12132 
C -1.55874 2.683901 -0.795609 3 0 3 
z
" style="stroke: #8c564b"/>
    </defs>
    <g clip-path="url(#pcd11718037)">
     <use xlink:href="#m2e030bf140" x="75.533811" y="272.380494" style="fill: #8c564b; stroke: #8c564b"/>
     <use xlink:href="#m2e030bf140" x="98.07348" y="273.981059" style="fill: #8c564b; stroke: #8c564b"/>
     <use xlink:href="#m2e030bf140" x="120.613149" y="268.527283" style="fill: #8c564b; stroke: #8c564b"/>
     <use xlink:href="#m2e030bf140" x="143.152818" y="268.705124" style="fill: #8c564b; stroke: #8c564b"/>
     <use xlink:href="#m2e030bf140" x="165.692487" y="269.001524" style="fill: #8c564b; stroke: #8c564b"/>
     <use xlink:href="#m2e030bf140" x="188.232156" y="265.266874" style="fill: #8c564b; stroke: #8c564b"/>
     <use xlink:href="#m2e030bf140" x="210.771825" y="263.488469" style="fill: #8c564b; stroke: #8c564b"/>
     <use xlink:href="#m2e030bf140" x="233.321901" y="267.63808" style="fill: #8c564b; stroke: #8c564b"/>
     <use xlink:href="#m2e030bf140" x="255.819961" y="268.823684" style="fill: #8c564b; stroke: #8c564b"/>
     <use xlink:href="#m2e030bf140" x="278.442902" y="273.091856" style="fill: #8c564b; stroke: #8c564b"/>
    </g>
   </g>
   <g id="line2d_16">
    <path d="M 75.533811 269.950007 
L 98.07348 269.416486 
L 120.613149 264.555512 
L 143.152818 261.591503 
L 165.692487 261.057982 
L 188.232156 260.702301 
L 210.771825 259.161016 
L 233.321901 261.591503 
L 255.819961 261.710064 
L 278.442902 263.014227 
" clip-path="url(#pcd11718037)" style="fill: none; stroke: #e377c2; stroke-width: 1.5; stroke-linecap: square"/>
    <defs>
     <path id="m9482609fc2" d="M 0 3 
C 0.795609 3 1.55874 2.683901 2.12132 2.12132 
C 2.683901 1.55874 3 0.795609 3 0 
C 3 -0.795609 2.683901 -1.55874 2.12132 -2.12132 
C 1.55874 -2.683901 0.795609 -3 0 -3 
C -0.795609 -3 -1.55874 -2.683901 -2.12132 -2.12132 
C -2.683901 -1.55874 -3 -0.795609 -3 0 
C -3 0.795609 -2.683901 1.55874 -2.12132 2.12132 
C -1.55874 2.683901 -0.795609 3 0 3 
z
" style="stroke: #e377c2"/>
    </defs>
    <g clip-path="url(#pcd11718037)">
     <use xlink:href="#m9482609fc2" x="75.533811" y="269.950007" style="fill: #e377c2; stroke: #e377c2"/>
     <use xlink:href="#m9482609fc2" x="98.07348" y="269.416486" style="fill: #e377c2; stroke: #e377c2"/>
     <use xlink:href="#m9482609fc2" x="120.613149" y="264.555512" style="fill: #e377c2; stroke: #e377c2"/>
     <use xlink:href="#m9482609fc2" x="143.152818" y="261.591503" style="fill: #e377c2; stroke: #e377c2"/>
     <use xlink:href="#m9482609fc2" x="165.692487" y="261.057982" style="fill: #e377c2; stroke: #e377c2"/>
     <use xlink:href="#m9482609fc2" x="188.232156" y="260.702301" style="fill: #e377c2; stroke: #e377c2"/>
     <use xlink:href="#m9482609fc2" x="210.771825" y="259.161016" style="fill: #e377c2; stroke: #e377c2"/>
     <use xlink:href="#m9482609fc2" x="233.321901" y="261.591503" style="fill: #e377c2; stroke: #e377c2"/>
     <use xlink:href="#m9482609fc2" x="255.819961" y="261.710064" style="fill: #e377c2; stroke: #e377c2"/>
     <use xlink:href="#m9482609fc2" x="278.442902" y="263.014227" style="fill: #e377c2; stroke: #e377c2"/>
    </g>
   </g>
   <g id="line2d_17">
    <path d="M 75.533811 246.949301 
L 98.07348 251.098913 
L 120.613149 230.291574 
L 143.152818 219.206182 
L 165.692487 211.32192 
L 188.232156 212.033282 
L 210.771825 214.167368 
L 233.321901 217.605618 
L 255.819961 220.569626 
L 278.442902 229.639492 
" clip-path="url(#pcd11718037)" style="fill: none; stroke: #7f7f7f; stroke-width: 1.5; stroke-linecap: square"/>
    <defs>
     <path id="m339cbcec45" d="M 0 3 
C 0.795609 3 1.55874 2.683901 2.12132 2.12132 
C 2.683901 1.55874 3 0.795609 3 0 
C 3 -0.795609 2.683901 -1.55874 2.12132 -2.12132 
C 1.55874 -2.683901 0.795609 -3 0 -3 
C -0.795609 -3 -1.55874 -2.683901 -2.12132 -2.12132 
C -2.683901 -1.55874 -3 -0.795609 -3 0 
C -3 0.795609 -2.683901 1.55874 -2.12132 2.12132 
C -1.55874 2.683901 -0.795609 3 0 3 
z
" style="stroke: #7f7f7f"/>
    </defs>
    <g clip-path="url(#pcd11718037)">
     <use xlink:href="#m339cbcec45" x="75.533811" y="246.949301" style="fill: #7f7f7f; stroke: #7f7f7f"/>
     <use xlink:href="#m339cbcec45" x="98.07348" y="251.098913" style="fill: #7f7f7f; stroke: #7f7f7f"/>
     <use xlink:href="#m339cbcec45" x="120.613149" y="230.291574" style="fill: #7f7f7f; stroke: #7f7f7f"/>
     <use xlink:href="#m339cbcec45" x="143.152818" y="219.206182" style="fill: #7f7f7f; stroke: #7f7f7f"/>
     <use xlink:href="#m339cbcec45" x="165.692487" y="211.32192" style="fill: #7f7f7f; stroke: #7f7f7f"/>
     <use xlink:href="#m339cbcec45" x="188.232156" y="212.033282" style="fill: #7f7f7f; stroke: #7f7f7f"/>
     <use xlink:href="#m339cbcec45" x="210.771825" y="214.167368" style="fill: #7f7f7f; stroke: #7f7f7f"/>
     <use xlink:href="#m339cbcec45" x="233.321901" y="217.605618" style="fill: #7f7f7f; stroke: #7f7f7f"/>
     <use xlink:href="#m339cbcec45" x="255.819961" y="220.569626" style="fill: #7f7f7f; stroke: #7f7f7f"/>
     <use xlink:href="#m339cbcec45" x="278.442902" y="229.639492" style="fill: #7f7f7f; stroke: #7f7f7f"/>
    </g>
   </g>
   <g id="line2d_18">
    <path d="M 75.533811 285.896373 
L 98.07348 285.244291 
L 120.613149 284.651489 
L 143.152818 281.272519 
L 165.692487 278.427071 
L 188.232156 275.107382 
L 210.771825 274.988821 
L 233.321901 275.225942 
L 255.819961 273.447537 
L 278.442902 274.33674 
" clip-path="url(#pcd11718037)" style="fill: none; stroke: #bcbd22; stroke-width: 1.5; stroke-linecap: square"/>
    <defs>
     <path id="m00d53324f2" d="M 0 3 
C 0.795609 3 1.55874 2.683901 2.12132 2.12132 
C 2.683901 1.55874 3 0.795609 3 0 
C 3 -0.795609 2.683901 -1.55874 2.12132 -2.12132 
C 1.55874 -2.683901 0.795609 -3 0 -3 
C -0.795609 -3 -1.55874 -2.683901 -2.12132 -2.12132 
C -2.683901 -1.55874 -3 -0.795609 -3 0 
C -3 0.795609 -2.683901 1.55874 -2.12132 2.12132 
C -1.55874 2.683901 -0.795609 3 0 3 
z
" style="stroke: #bcbd22"/>
    </defs>
    <g clip-path="url(#pcd11718037)">
     <use xlink:href="#m00d53324f2" x="75.533811" y="285.896373" style="fill: #bcbd22; stroke: #bcbd22"/>
     <use xlink:href="#m00d53324f2" x="98.07348" y="285.244291" style="fill: #bcbd22; stroke: #bcbd22"/>
     <use xlink:href="#m00d53324f2" x="120.613149" y="284.651489" style="fill: #bcbd22; stroke: #bcbd22"/>
     <use xlink:href="#m00d53324f2" x="143.152818" y="281.272519" style="fill: #bcbd22; stroke: #bcbd22"/>
     <use xlink:href="#m00d53324f2" x="165.692487" y="278.427071" style="fill: #bcbd22; stroke: #bcbd22"/>
     <use xlink:href="#m00d53324f2" x="188.232156" y="275.107382" style="fill: #bcbd22; stroke: #bcbd22"/>
     <use xlink:href="#m00d53324f2" x="210.771825" y="274.988821" style="fill: #bcbd22; stroke: #bcbd22"/>
     <use xlink:href="#m00d53324f2" x="233.321901" y="275.225942" style="fill: #bcbd22; stroke: #bcbd22"/>
     <use xlink:href="#m00d53324f2" x="255.819961" y="273.447537" style="fill: #bcbd22; stroke: #bcbd22"/>
     <use xlink:href="#m00d53324f2" x="278.442902" y="274.33674" style="fill: #bcbd22; stroke: #bcbd22"/>
    </g>
   </g>
   <g id="line2d_19">
    <path d="M 188.232156 323.48 
L 210.771825 320.397431 
L 233.321901 321.642315 
L 255.819961 321.583035 
L 278.442902 322.175836 
" clip-path="url(#pcd11718037)" style="fill: none; stroke: #17becf; stroke-width: 1.5; stroke-linecap: square"/>
    <defs>
     <path id="m90a084955f" d="M 0 3 
C 0.795609 3 1.55874 2.683901 2.12132 2.12132 
C 2.683901 1.55874 3 0.795609 3 0 
C 3 -0.795609 2.683901 -1.55874 2.12132 -2.12132 
C 1.55874 -2.683901 0.795609 -3 0 -3 
C -0.795609 -3 -1.55874 -2.683901 -2.12132 -2.12132 
C -2.683901 -1.55874 -3 -0.795609 -3 0 
C -3 0.795609 -2.683901 1.55874 -2.12132 2.12132 
C -1.55874 2.683901 -0.795609 3 0 3 
z
" style="stroke: #17becf"/>
    </defs>
    <g clip-path="url(#pcd11718037)">
     <use xlink:href="#m90a084955f" x="188.232156" y="323.48" style="fill: #17becf; stroke: #17becf"/>
     <use xlink:href="#m90a084955f" x="210.771825" y="320.397431" style="fill: #17becf; stroke: #17becf"/>
     <use xlink:href="#m90a084955f" x="233.321901" y="321.642315" style="fill: #17becf; stroke: #17becf"/>
     <use xlink:href="#m90a084955f" x="255.819961" y="321.583035" style="fill: #17becf; stroke: #17becf"/>
     <use xlink:href="#m90a084955f" x="278.442902" y="322.175836" style="fill: #17becf; stroke: #17becf"/>
    </g>
   </g>
   <g id="line2d_20">
    <path d="M 75.533811 295.44048 
L 98.07348 296.270402 
L 120.613149 288.919661 
L 143.152818 285.12573 
L 165.692487 283.169485 
L 188.232156 279.849795 
L 210.771825 281.746761 
L 233.321901 281.272519 
L 255.819961 281.094679 
L 278.442902 284.770049 
" clip-path="url(#pcd11718037)" style="fill: none; stroke: #1f77b4; stroke-width: 1.5; stroke-linecap: square"/>
    <g clip-path="url(#pcd11718037)">
     <use xlink:href="#m6809b4f6b5" x="75.533811" y="295.44048" style="fill: #1f77b4; stroke: #1f77b4"/>
     <use xlink:href="#m6809b4f6b5" x="98.07348" y="296.270402" style="fill: #1f77b4; stroke: #1f77b4"/>
     <use xlink:href="#m6809b4f6b5" x="120.613149" y="288.919661" style="fill: #1f77b4; stroke: #1f77b4"/>
     <use xlink:href="#m6809b4f6b5" x="143.152818" y="285.12573" style="fill: #1f77b4; stroke: #1f77b4"/>
     <use xlink:href="#m6809b4f6b5" x="165.692487" y="283.169485" style="fill: #1f77b4; stroke: #1f77b4"/>
     <use xlink:href="#m6809b4f6b5" x="188.232156" y="279.849795" style="fill: #1f77b4; stroke: #1f77b4"/>
     <use xlink:href="#m6809b4f6b5" x="210.771825" y="281.746761" style="fill: #1f77b4; stroke: #1f77b4"/>
     <use xlink:href="#m6809b4f6b5" x="233.321901" y="281.272519" style="fill: #1f77b4; stroke: #1f77b4"/>
     <use xlink:href="#m6809b4f6b5" x="255.819961" y="281.094679" style="fill: #1f77b4; stroke: #1f77b4"/>
     <use xlink:href="#m6809b4f6b5" x="278.442902" y="284.770049" style="fill: #1f77b4; stroke: #1f77b4"/>
    </g>
   </g>
   <g id="line2d_21">
    <path d="M 75.533811 134.791221 
L 98.07348 136.273225 
L 120.613149 130.167368 
L 143.152818 131.11585 
L 165.692487 133.072096 
L 188.232156 138.762992 
L 210.771825 144.216768 
L 233.321901 152.693832 
L 255.819961 158.503289 
L 278.442902 166.446831 
" clip-path="url(#pcd11718037)" style="fill: none; stroke: #ff7f0e; stroke-width: 1.5; stroke-linecap: square"/>
    <g clip-path="url(#pcd11718037)">
     <use xlink:href="#m8053bb0caa" x="75.533811" y="134.791221" style="fill: #ff7f0e; stroke: #ff7f0e"/>
     <use xlink:href="#m8053bb0caa" x="98.07348" y="136.273225" style="fill: #ff7f0e; stroke: #ff7f0e"/>
     <use xlink:href="#m8053bb0caa" x="120.613149" y="130.167368" style="fill: #ff7f0e; stroke: #ff7f0e"/>
     <use xlink:href="#m8053bb0caa" x="143.152818" y="131.11585" style="fill: #ff7f0e; stroke: #ff7f0e"/>
     <use xlink:href="#m8053bb0caa" x="165.692487" y="133.072096" style="fill: #ff7f0e; stroke: #ff7f0e"/>
     <use xlink:href="#m8053bb0caa" x="188.232156" y="138.762992" style="fill: #ff7f0e; stroke: #ff7f0e"/>
     <use xlink:href="#m8053bb0caa" x="210.771825" y="144.216768" style="fill: #ff7f0e; stroke: #ff7f0e"/>
     <use xlink:href="#m8053bb0caa" x="233.321901" y="152.693832" style="fill: #ff7f0e; stroke: #ff7f0e"/>
     <use xlink:href="#m8053bb0caa" x="255.819961" y="158.503289" style="fill: #ff7f0e; stroke: #ff7f0e"/>
     <use xlink:href="#m8053bb0caa" x="278.442902" y="166.446831" style="fill: #ff7f0e; stroke: #ff7f0e"/>
    </g>
   </g>
   <g id="line2d_22">
    <path d="M 75.533811 128.329682 
L 98.07348 131.708652 
L 120.613149 104.795455 
L 143.152818 92.998701 
L 165.692487 85.944361 
L 188.232156 87.841327 
L 210.771825 90.449654 
L 233.321901 95.547749 
L 255.819961 100.527283 
L 278.442902 111.019873 
" clip-path="url(#pcd11718037)" style="fill: none; stroke: #2ca02c; stroke-width: 1.5; stroke-linecap: square"/>
    <g clip-path="url(#pcd11718037)">
     <use xlink:href="#m4fbc88b969" x="75.533811" y="128.329682" style="fill: #2ca02c; stroke: #2ca02c"/>
     <use xlink:href="#m4fbc88b969" x="98.07348" y="131.708652" style="fill: #2ca02c; stroke: #2ca02c"/>
     <use xlink:href="#m4fbc88b969" x="120.613149" y="104.795455" style="fill: #2ca02c; stroke: #2ca02c"/>
     <use xlink:href="#m4fbc88b969" x="143.152818" y="92.998701" style="fill: #2ca02c; stroke: #2ca02c"/>
     <use xlink:href="#m4fbc88b969" x="165.692487" y="85.944361" style="fill: #2ca02c; stroke: #2ca02c"/>
     <use xlink:href="#m4fbc88b969" x="188.232156" y="87.841327" style="fill: #2ca02c; stroke: #2ca02c"/>
     <use xlink:href="#m4fbc88b969" x="210.771825" y="90.449654" style="fill: #2ca02c; stroke: #2ca02c"/>
     <use xlink:href="#m4fbc88b969" x="233.321901" y="95.547749" style="fill: #2ca02c; stroke: #2ca02c"/>
     <use xlink:href="#m4fbc88b969" x="255.819961" y="100.527283" style="fill: #2ca02c; stroke: #2ca02c"/>
     <use xlink:href="#m4fbc88b969" x="278.442902" y="111.019873" style="fill: #2ca02c; stroke: #2ca02c"/>
    </g>
   </g>
   <g id="line2d_23">
    <path d="M 75.533811 296.507523 
L 98.07348 299.05657 
L 120.613149 291.053747 
L 143.152818 281.865321 
L 165.692487 281.035399 
L 188.232156 278.664192 
L 210.771825 275.522343 
L 233.321901 273.684658 
L 255.819961 273.091856 
L 278.442902 272.024813 
" clip-path="url(#pcd11718037)" style="fill: none; stroke: #d62728; stroke-width: 1.5; stroke-linecap: square"/>
    <g clip-path="url(#pcd11718037)">
     <use xlink:href="#md1f8960eb0" x="75.533811" y="296.507523" style="fill: #d62728; stroke: #d62728"/>
     <use xlink:href="#md1f8960eb0" x="98.07348" y="299.05657" style="fill: #d62728; stroke: #d62728"/>
     <use xlink:href="#md1f8960eb0" x="120.613149" y="291.053747" style="fill: #d62728; stroke: #d62728"/>
     <use xlink:href="#md1f8960eb0" x="143.152818" y="281.865321" style="fill: #d62728; stroke: #d62728"/>
     <use xlink:href="#md1f8960eb0" x="165.692487" y="281.035399" style="fill: #d62728; stroke: #d62728"/>
     <use xlink:href="#md1f8960eb0" x="188.232156" y="278.664192" style="fill: #d62728; stroke: #d62728"/>
     <use xlink:href="#md1f8960eb0" x="210.771825" y="275.522343" style="fill: #d62728; stroke: #d62728"/>
     <use xlink:href="#md1f8960eb0" x="233.321901" y="273.684658" style="fill: #d62728; stroke: #d62728"/>
     <use xlink:href="#md1f8960eb0" x="255.819961" y="273.091856" style="fill: #d62728; stroke: #d62728"/>
     <use xlink:href="#md1f8960eb0" x="278.442902" y="272.024813" style="fill: #d62728; stroke: #d62728"/>
    </g>
   </g>
   <g id="line2d_24">
    <path d="M 75.533811 133.902018 
L 98.07348 136.806747 
L 120.613149 101.772167 
L 143.152818 87.782047 
L 165.692487 79.897784 
L 188.232156 75.985293 
L 210.771825 71.48 
L 233.321901 76.755935 
L 255.819961 80.431306 
L 278.442902 86.833564 
" clip-path="url(#pcd11718037)" style="fill: none; stroke: #9467bd; stroke-width: 1.5; stroke-linecap: square"/>
    <g clip-path="url(#pcd11718037)">
     <use xlink:href="#m0db4a440f1" x="75.533811" y="133.902018" style="fill: #9467bd; stroke: #9467bd"/>
     <use xlink:href="#m0db4a440f1" x="98.07348" y="136.806747" style="fill: #9467bd; stroke: #9467bd"/>
     <use xlink:href="#m0db4a440f1" x="120.613149" y="101.772167" style="fill: #9467bd; stroke: #9467bd"/>
     <use xlink:href="#m0db4a440f1" x="143.152818" y="87.782047" style="fill: #9467bd; stroke: #9467bd"/>
     <use xlink:href="#m0db4a440f1" x="165.692487" y="79.897784" style="fill: #9467bd; stroke: #9467bd"/>
     <use xlink:href="#m0db4a440f1" x="188.232156" y="75.985293" style="fill: #9467bd; stroke: #9467bd"/>
     <use xlink:href="#m0db4a440f1" x="210.771825" y="71.48" style="fill: #9467bd; stroke: #9467bd"/>
     <use xlink:href="#m0db4a440f1" x="233.321901" y="76.755935" style="fill: #9467bd; stroke: #9467bd"/>
     <use xlink:href="#m0db4a440f1" x="255.819961" y="80.431306" style="fill: #9467bd; stroke: #9467bd"/>
     <use xlink:href="#m0db4a440f1" x="278.442902" y="86.833564" style="fill: #9467bd; stroke: #9467bd"/>
    </g>
   </g>
   <g id="line2d_25">
    <path d="M 75.533811 232.722061 
L 98.07348 232.959181 
L 120.613149 233.255582 
L 143.152818 231.240056 
L 165.692487 231.121496 
L 188.232156 230.113733 
L 210.771825 230.765815 
L 233.321901 228.98741 
L 255.819961 233.137022 
L 278.442902 234.263345 
" clip-path="url(#pcd11718037)" style="fill: none; stroke: #8c564b; stroke-width: 1.5; stroke-linecap: square"/>
    <g clip-path="url(#pcd11718037)">
     <use xlink:href="#m2e030bf140" x="75.533811" y="232.722061" style="fill: #8c564b; stroke: #8c564b"/>
     <use xlink:href="#m2e030bf140" x="98.07348" y="232.959181" style="fill: #8c564b; stroke: #8c564b"/>
     <use xlink:href="#m2e030bf140" x="120.613149" y="233.255582" style="fill: #8c564b; stroke: #8c564b"/>
     <use xlink:href="#m2e030bf140" x="143.152818" y="231.240056" style="fill: #8c564b; stroke: #8c564b"/>
     <use xlink:href="#m2e030bf140" x="165.692487" y="231.121496" style="fill: #8c564b; stroke: #8c564b"/>
     <use xlink:href="#m2e030bf140" x="188.232156" y="230.113733" style="fill: #8c564b; stroke: #8c564b"/>
     <use xlink:href="#m2e030bf140" x="210.771825" y="230.765815" style="fill: #8c564b; stroke: #8c564b"/>
     <use xlink:href="#m2e030bf140" x="233.321901" y="228.98741" style="fill: #8c564b; stroke: #8c564b"/>
     <use xlink:href="#m2e030bf140" x="255.819961" y="233.137022" style="fill: #8c564b; stroke: #8c564b"/>
     <use xlink:href="#m2e030bf140" x="278.442902" y="234.263345" style="fill: #8c564b; stroke: #8c564b"/>
    </g>
   </g>
   <g id="patch_3">
    <path d="M 65.388357 336.08 
L 65.388357 58.88 
" style="fill: none; stroke: #000000; stroke-width: 0.8; stroke-linejoin: miter; stroke-linecap: square"/>
   </g>
   <g id="patch_4">
    <path d="M 288.588357 336.08 
L 288.588357 58.88 
" style="fill: none; stroke: #000000; stroke-width: 0.8; stroke-linejoin: miter; stroke-linecap: square"/>
   </g>
   <g id="patch_5">
    <path d="M 65.388357 336.08 
L 288.588357 336.08 
" style="fill: none; stroke: #000000; stroke-width: 0.8; stroke-linejoin: miter; stroke-linecap: square"/>
   </g>
   <g id="patch_6">
    <path d="M 65.388357 58.88 
L 288.588357 58.88 
" style="fill: none; stroke: #000000; stroke-width: 0.8; stroke-linejoin: miter; stroke-linecap: square"/>
   </g>
   <g id="legend_1">
    <g id="patch_7">
     <path d="M 299.788357 387.76 
L 401.355857 387.76 
Q 404.555857 387.76 404.555857 384.56 
L 404.555857 10.4 
Q 404.555857 7.2 401.355857 7.2 
L 299.788357 7.2 
Q 296.588357 7.2 296.588357 10.4 
L 296.588357 384.56 
Q 296.588357 387.76 299.788357 387.76 
z
" style="fill: #ffffff; opacity: 0.8; stroke: #cccccc; stroke-linejoin: miter"/>
    </g>
    <g id="line2d_26">
     <path d="M 302.988357 20.1575 
L 318.988357 20.1575 
L 334.988357 20.1575 
" style="fill: none; stroke: #1f77b4; stroke-width: 1.5; stroke-linecap: square"/>
     <g>
      <use xlink:href="#m6809b4f6b5" x="318.988357" y="20.1575" style="fill: #1f77b4; stroke: #1f77b4"/>
     </g>
    </g>
    <g id="text_12">
     <text style="font: 16px 'DejaVu Sans', 'Bitstream Vera Sans', 'Computer Modern Sans Serif', 'Lucida Grande', 'Verdana', 'Geneva', 'Lucid', 'Arial', 'Helvetica', 'Avant Garde', sans-serif; text-anchor: start" x="347.788357" y="25.7575" transform="rotate(-0 347.788357 25.7575)">P0115</text>
    </g>
    <g id="line2d_27">
     <path d="M 302.988357 43.6425 
L 318.988357 43.6425 
L 334.988357 43.6425 
" style="fill: none; stroke: #ff7f0e; stroke-width: 1.5; stroke-linecap: square"/>
     <g>
      <use xlink:href="#m8053bb0caa" x="318.988357" y="43.6425" style="fill: #ff7f0e; stroke: #ff7f0e"/>
     </g>
    </g>
    <g id="text_13">
     <text style="font: 16px 'DejaVu Sans', 'Bitstream Vera Sans', 'Computer Modern Sans Serif', 'Lucida Grande', 'Verdana', 'Geneva', 'Lucid', 'Arial', 'Helvetica', 'Avant Garde', sans-serif; text-anchor: start" x="347.788357" y="49.2425" transform="rotate(-0 347.788357 49.2425)">P0116</text>
    </g>
    <g id="line2d_28">
     <path d="M 302.988357 67.1275 
L 318.988357 67.1275 
L 334.988357 67.1275 
" style="fill: none; stroke: #2ca02c; stroke-width: 1.5; stroke-linecap: square"/>
     <g>
      <use xlink:href="#m4fbc88b969" x="318.988357" y="67.1275" style="fill: #2ca02c; stroke: #2ca02c"/>
     </g>
    </g>
    <g id="text_14">
     <text style="font: 16px 'DejaVu Sans', 'Bitstream Vera Sans', 'Computer Modern Sans Serif', 'Lucida Grande', 'Verdana', 'Geneva', 'Lucid', 'Arial', 'Helvetica', 'Avant Garde', sans-serif; text-anchor: start" x="347.788357" y="72.7275" transform="rotate(-0 347.788357 72.7275)">P0123</text>
    </g>
    <g id="line2d_29">
     <path d="M 302.988357 90.6125 
L 318.988357 90.6125 
L 334.988357 90.6125 
" style="fill: none; stroke: #d62728; stroke-width: 1.5; stroke-linecap: square"/>
     <g>
      <use xlink:href="#md1f8960eb0" x="318.988357" y="90.6125" style="fill: #d62728; stroke: #d62728"/>
     </g>
    </g>
    <g id="text_15">
     <text style="font: 16px 'DejaVu Sans', 'Bitstream Vera Sans', 'Computer Modern Sans Serif', 'Lucida Grande', 'Verdana', 'Geneva', 'Lucid', 'Arial', 'Helvetica', 'Avant Garde', sans-serif; text-anchor: start" x="347.788357" y="96.2125" transform="rotate(-0 347.788357 96.2125)">P0124</text>
    </g>
    <g id="line2d_30">
     <path d="M 302.988357 114.0975 
L 318.988357 114.0975 
L 334.988357 114.0975 
" style="fill: none; stroke: #9467bd; stroke-width: 1.5; stroke-linecap: square"/>
     <g>
      <use xlink:href="#m0db4a440f1" x="318.988357" y="114.0975" style="fill: #9467bd; stroke: #9467bd"/>
     </g>
    </g>
    <g id="text_16">
     <text style="font: 16px 'DejaVu Sans', 'Bitstream Vera Sans', 'Computer Modern Sans Serif', 'Lucida Grande', 'Verdana', 'Geneva', 'Lucid', 'Arial', 'Helvetica', 'Avant Garde', sans-serif; text-anchor: start" x="347.788357" y="119.6975" transform="rotate(-0 347.788357 119.6975)">P0131</text>
    </g>
    <g id="line2d_31">
     <path d="M 302.988357 137.5825 
L 318.988357 137.5825 
L 334.988357 137.5825 
" style="fill: none; stroke: #8c564b; stroke-width: 1.5; stroke-linecap: square"/>
     <g>
      <use xlink:href="#m2e030bf140" x="318.988357" y="137.5825" style="fill: #8c564b; stroke: #8c564b"/>
     </g>
    </g>
    <g id="text_17">
     <text style="font: 16px 'DejaVu Sans', 'Bitstream Vera Sans', 'Computer Modern Sans Serif', 'Lucida Grande', 'Verdana', 'Geneva', 'Lucid', 'Arial', 'Helvetica', 'Avant Garde', sans-serif; text-anchor: start" x="347.788357" y="143.1825" transform="rotate(-0 347.788357 143.1825)">P0132</text>
    </g>
    <g id="line2d_32">
     <path d="M 302.988357 161.0675 
L 318.988357 161.0675 
L 334.988357 161.0675 
" style="fill: none; stroke: #e377c2; stroke-width: 1.5; stroke-linecap: square"/>
     <g>
      <use xlink:href="#m9482609fc2" x="318.988357" y="161.0675" style="fill: #e377c2; stroke: #e377c2"/>
     </g>
    </g>
    <g id="text_18">
     <text style="font: 16px 'DejaVu Sans', 'Bitstream Vera Sans', 'Computer Modern Sans Serif', 'Lucida Grande', 'Verdana', 'Geneva', 'Lucid', 'Arial', 'Helvetica', 'Avant Garde', sans-serif; text-anchor: start" x="347.788357" y="166.6675" transform="rotate(-0 347.788357 166.6675)">P0137</text>
    </g>
    <g id="line2d_33">
     <path d="M 302.988357 184.5525 
L 318.988357 184.5525 
L 334.988357 184.5525 
" style="fill: none; stroke: #7f7f7f; stroke-width: 1.5; stroke-linecap: square"/>
     <g>
      <use xlink:href="#m339cbcec45" x="318.988357" y="184.5525" style="fill: #7f7f7f; stroke: #7f7f7f"/>
     </g>
    </g>
    <g id="text_19">
     <text style="font: 16px 'DejaVu Sans', 'Bitstream Vera Sans', 'Computer Modern Sans Serif', 'Lucida Grande', 'Verdana', 'Geneva', 'Lucid', 'Arial', 'Helvetica', 'Avant Garde', sans-serif; text-anchor: start" x="347.788357" y="190.1525" transform="rotate(-0 347.788357 190.1525)">P0138</text>
    </g>
    <g id="line2d_34">
     <path d="M 302.988357 208.0375 
L 318.988357 208.0375 
L 334.988357 208.0375 
" style="fill: none; stroke: #bcbd22; stroke-width: 1.5; stroke-linecap: square"/>
     <g>
      <use xlink:href="#m00d53324f2" x="318.988357" y="208.0375" style="fill: #bcbd22; stroke: #bcbd22"/>
     </g>
    </g>
    <g id="text_20">
     <text style="font: 16px 'DejaVu Sans', 'Bitstream Vera Sans', 'Computer Modern Sans Serif', 'Lucida Grande', 'Verdana', 'Geneva', 'Lucid', 'Arial', 'Helvetica', 'Avant Garde', sans-serif; text-anchor: start" x="347.788357" y="213.6375" transform="rotate(-0 347.788357 213.6375)">P0139</text>
    </g>
    <g id="line2d_35">
     <path d="M 302.988357 231.5225 
L 318.988357 231.5225 
L 334.988357 231.5225 
" style="fill: none; stroke: #17becf; stroke-width: 1.5; stroke-linecap: square"/>
     <g>
      <use xlink:href="#m90a084955f" x="318.988357" y="231.5225" style="fill: #17becf; stroke: #17becf"/>
     </g>
    </g>
    <g id="text_21">
     <text style="font: 16px 'DejaVu Sans', 'Bitstream Vera Sans', 'Computer Modern Sans Serif', 'Lucida Grande', 'Verdana', 'Geneva', 'Lucid', 'Arial', 'Helvetica', 'Avant Garde', sans-serif; text-anchor: start" x="347.788357" y="237.1225" transform="rotate(-0 347.788357 237.1225)">P0142</text>
    </g>
    <g id="line2d_36">
     <path d="M 302.988357 255.0075 
L 318.988357 255.0075 
L 334.988357 255.0075 
" style="fill: none; stroke: #1f77b4; stroke-width: 1.5; stroke-linecap: square"/>
     <g>
      <use xlink:href="#m6809b4f6b5" x="318.988357" y="255.0075" style="fill: #1f77b4; stroke: #1f77b4"/>
     </g>
    </g>
    <g id="text_22">
     <text style="font: 16px 'DejaVu Sans', 'Bitstream Vera Sans', 'Computer Modern Sans Serif', 'Lucida Grande', 'Verdana', 'Geneva', 'Lucid', 'Arial', 'Helvetica', 'Avant Garde', sans-serif; text-anchor: start" x="347.788357" y="260.6075" transform="rotate(-0 347.788357 260.6075)">P0148</text>
    </g>
    <g id="line2d_37">
     <path d="M 302.988357 278.4925 
L 318.988357 278.4925 
L 334.988357 278.4925 
" style="fill: none; stroke: #ff7f0e; stroke-width: 1.5; stroke-linecap: square"/>
     <g>
      <use xlink:href="#m8053bb0caa" x="318.988357" y="278.4925" style="fill: #ff7f0e; stroke: #ff7f0e"/>
     </g>
    </g>
    <g id="text_23">
     <text style="font: 16px 'DejaVu Sans', 'Bitstream Vera Sans', 'Computer Modern Sans Serif', 'Lucida Grande', 'Verdana', 'Geneva', 'Lucid', 'Arial', 'Helvetica', 'Avant Garde', sans-serif; text-anchor: start" x="347.788357" y="284.0925" transform="rotate(-0 347.788357 284.0925)">P0159</text>
    </g>
    <g id="line2d_38">
     <path d="M 302.988357 301.9775 
L 318.988357 301.9775 
L 334.988357 301.9775 
" style="fill: none; stroke: #2ca02c; stroke-width: 1.5; stroke-linecap: square"/>
     <g>
      <use xlink:href="#m4fbc88b969" x="318.988357" y="301.9775" style="fill: #2ca02c; stroke: #2ca02c"/>
     </g>
    </g>
    <g id="text_24">
     <text style="font: 16px 'DejaVu Sans', 'Bitstream Vera Sans', 'Computer Modern Sans Serif', 'Lucida Grande', 'Verdana', 'Geneva', 'Lucid', 'Arial', 'Helvetica', 'Avant Garde', sans-serif; text-anchor: start" x="347.788357" y="307.5775" transform="rotate(-0 347.788357 307.5775)">P0161</text>
    </g>
    <g id="line2d_39">
     <path d="M 302.988357 325.4625 
L 318.988357 325.4625 
L 334.988357 325.4625 
" style="fill: none; stroke: #d62728; stroke-width: 1.5; stroke-linecap: square"/>
     <g>
      <use xlink:href="#md1f8960eb0" x="318.988357" y="325.4625" style="fill: #d62728; stroke: #d62728"/>
     </g>
    </g>
    <g id="text_25">
     <text style="font: 16px 'DejaVu Sans', 'Bitstream Vera Sans', 'Computer Modern Sans Serif', 'Lucida Grande', 'Verdana', 'Geneva', 'Lucid', 'Arial', 'Helvetica', 'Avant Garde', sans-serif; text-anchor: start" x="347.788357" y="331.0625" transform="rotate(-0 347.788357 331.0625)">P0163</text>
    </g>
    <g id="line2d_40">
     <path d="M 302.988357 348.9475 
L 318.988357 348.9475 
L 334.988357 348.9475 
" style="fill: none; stroke: #9467bd; stroke-width: 1.5; stroke-linecap: square"/>
     <g>
      <use xlink:href="#m0db4a440f1" x="318.988357" y="348.9475" style="fill: #9467bd; stroke: #9467bd"/>
     </g>
    </g>
    <g id="text_26">
     <text style="font: 16px 'DejaVu Sans', 'Bitstream Vera Sans', 'Computer Modern Sans Serif', 'Lucida Grande', 'Verdana', 'Geneva', 'Lucid', 'Arial', 'Helvetica', 'Avant Garde', sans-serif; text-anchor: start" x="347.788357" y="354.5475" transform="rotate(-0 347.788357 354.5475)">P0178</text>
    </g>
    <g id="line2d_41">
     <path d="M 302.988357 372.4325 
L 318.988357 372.4325 
L 334.988357 372.4325 
" style="fill: none; stroke: #8c564b; stroke-width: 1.5; stroke-linecap: square"/>
     <g>
      <use xlink:href="#m2e030bf140" x="318.988357" y="372.4325" style="fill: #8c564b; stroke: #8c564b"/>
     </g>
    </g>
    <g id="text_27">
     <text style="font: 16px 'DejaVu Sans', 'Bitstream Vera Sans', 'Computer Modern Sans Serif', 'Lucida Grande', 'Verdana', 'Geneva', 'Lucid', 'Arial', 'Helvetica', 'Avant Garde', sans-serif; text-anchor: start" x="347.788357" y="378.0325" transform="rotate(-0 347.788357 378.0325)">P0179</text>
    </g>
   </g>
  </g>
 </g>
 <defs>
  <clipPath id="pcd11718037">
   <rect x="65.388357" y="58.88" width="223.2" height="277.2"/>
  </clipPath>
 </defs>
</svg>
