<?xml version="1.0" encoding="utf-8" standalone="no"?>
<!DOCTYPE svg PUBLIC "-//W3C//DTD SVG 1.1//EN"
  "http://www.w3.org/Graphics/SVG/1.1/DTD/svg11.dtd">
<svg xmlns:xlink="http://www.w3.org/1999/xlink" width="479.424262pt" height="407.537115pt" viewBox="0 0 479.424262 407.537115" xmlns="http://www.w3.org/2000/svg" version="1.1">
 <metadata>
  <rdf:RDF xmlns:dc="http://purl.org/dc/elements/1.1/" xmlns:cc="http://creativecommons.org/ns#" xmlns:rdf="http://www.w3.org/1999/02/22-rdf-syntax-ns#">
   <cc:Work>
    <dc:type rdf:resource="http://purl.org/dc/dcmitype/StillImage"/>
    <dc:date>2025-07-18T16:46:44.762315</dc:date>
    <dc:format>image/svg+xml</dc:format>
    <dc:creator>
     <cc:Agent>
      <dc:title>Matplotlib v3.8.2, https://matplotlib.org/</dc:title>
     </cc:Agent>
    </dc:creator>
   </cc:Work>
  </rdf:RDF>
 </metadata>
 <defs>
  <style type="text/css">*{stroke-linejoin: round; stroke-linecap: butt}</style>
 </defs>
 <g id="figure_1">
  <g id="patch_1">
   <path d="M 0 407.537115 
L 479.424262 407.537115 
L 479.424262 0 
L 0 0 
z
" style="fill: #ffffff"/>
  </g>
  <g id="axes_1">
   <g id="patch_2">
    <path d="M 66.239969 295.206895 
L 458.565687 295.206895 
L 458.565687 29.612625 
L 66.239969 29.612625 
z
" style="fill: #ffffff"/>
   </g>
   <g id="matplotlib.axis_1">
    <g id="xtick_1">
     <g id="line2d_1">
      <path d="M 440.7327 295.206895 
L 440.7327 29.612625 
" clip-path="url(#pca3fa62d40)" style="fill: none; stroke-dasharray: 2.96,1.28; stroke-dashoffset: 0; stroke: #b0b0b0; stroke-width: 0.8"/>
     </g>
     <g id="line2d_2">
      <defs>
       <path id="m0b6f0e2bf2" d="M 0 0 
L 0 3.5 
" style="stroke: #000000; stroke-width: 0.8"/>
      </defs>
      <g>
       <use xlink:href="#m0b6f0e2bf2" x="440.7327" y="295.206895" style="stroke: #000000; stroke-width: 0.8"/>
      </g>
     </g>
     <g id="text_1">
      <text style="font: 18px 'DejaVu Sans', 'Bitstream Vera Sans', 'Computer Modern Sans Serif', 'Lucida Grande', 'Verdana', 'Geneva', 'Lucid', 'Arial', 'Helvetica', 'Avant Garde', sans-serif; text-anchor: middle" x="440.7327" y="315.884082" transform="rotate(-0 440.7327 315.884082)">0.9999</text>
     </g>
    </g>
    <g id="xtick_2">
     <g id="line2d_3">
      <path d="M 357.808437 295.206895 
L 357.808437 29.612625 
" clip-path="url(#pca3fa62d40)" style="fill: none; stroke-dasharray: 2.96,1.28; stroke-dashoffset: 0; stroke: #b0b0b0; stroke-width: 0.8"/>
     </g>
     <g id="line2d_4">
      <g>
       <use xlink:href="#m0b6f0e2bf2" x="357.808437" y="295.206895" style="stroke: #000000; stroke-width: 0.8"/>
      </g>
     </g>
     <g id="text_2">
      <text style="font: 18px 'DejaVu Sans', 'Bitstream Vera Sans', 'Computer Modern Sans Serif', 'Lucida Grande', 'Verdana', 'Geneva', 'Lucid', 'Arial', 'Helvetica', 'Avant Garde', sans-serif; text-anchor: middle" x="357.808437" y="315.884082" transform="rotate(-0 357.808437 315.884082)">0.999</text>
     </g>
    </g>
    <g id="xtick_3">
     <g id="line2d_5">
      <path d="M 274.884174 295.206895 
L 274.884174 29.612625 
" clip-path="url(#pca3fa62d40)" style="fill: none; stroke-dasharray: 2.96,1.28; stroke-dashoffset: 0; stroke: #b0b0b0; stroke-width: 0.8"/>
     </g>
     <g id="line2d_6">
      <g>
       <use xlink:href="#m0b6f0e2bf2" x="274.884174" y="295.206895" style="stroke: #000000; stroke-width: 0.8"/>
      </g>
     </g>
     <g id="text_3">
      <text style="font: 18px 'DejaVu Sans', 'Bitstream Vera Sans', 'Computer Modern Sans Serif', 'Lucida Grande', 'Verdana', 'Geneva', 'Lucid', 'Arial', 'Helvetica', 'Avant Garde', sans-serif; text-anchor: middle" x="274.884174" y="315.884082" transform="rotate(-0 274.884174 315.884082)">0.99</text>
     </g>
    </g>
    <g id="xtick_4">
     <g id="line2d_7">
      <path d="M 191.95991 295.206895 
L 191.95991 29.612625 
" clip-path="url(#pca3fa62d40)" style="fill: none; stroke-dasharray: 2.96,1.28; stroke-dashoffset: 0; stroke: #b0b0b0; stroke-width: 0.8"/>
     </g>
     <g id="line2d_8">
      <g>
       <use xlink:href="#m0b6f0e2bf2" x="191.95991" y="295.206895" style="stroke: #000000; stroke-width: 0.8"/>
      </g>
     </g>
     <g id="text_4">
      <text style="font: 18px 'DejaVu Sans', 'Bitstream Vera Sans', 'Computer Modern Sans Serif', 'Lucida Grande', 'Verdana', 'Geneva', 'Lucid', 'Arial', 'Helvetica', 'Avant Garde', sans-serif; text-anchor: middle" x="191.95991" y="315.884082" transform="rotate(-0 191.95991 315.884082)">0.9</text>
     </g>
    </g>
    <g id="xtick_5">
     <g id="line2d_9">
      <path d="M 109.035647 295.206895 
L 109.035647 29.612625 
" clip-path="url(#pca3fa62d40)" style="fill: none; stroke-dasharray: 2.96,1.28; stroke-dashoffset: 0; stroke: #b0b0b0; stroke-width: 0.8"/>
     </g>
     <g id="line2d_10">
      <g>
       <use xlink:href="#m0b6f0e2bf2" x="109.035647" y="295.206895" style="stroke: #000000; stroke-width: 0.8"/>
      </g>
     </g>
     <g id="text_5">
      <text style="font: 18px 'DejaVu Sans', 'Bitstream Vera Sans', 'Computer Modern Sans Serif', 'Lucida Grande', 'Verdana', 'Geneva', 'Lucid', 'Arial', 'Helvetica', 'Avant Garde', sans-serif; text-anchor: middle" x="109.035647" y="315.884082" transform="rotate(-0 109.035647 315.884082)">0</text>
     </g>
    </g>
    <g id="xtick_6">
     <g id="line2d_11">
      <path d="M 83.909595 295.206895 
L 83.909595 29.612625 
" clip-path="url(#pca3fa62d40)" style="fill: none; stroke-dasharray: 2.96,1.28; stroke-dashoffset: 0; stroke: #b0b0b0; stroke-width: 0.8"/>
     </g>
     <g id="line2d_12">
      <g>
       <use xlink:href="#m0b6f0e2bf2" x="83.909595" y="295.206895" style="stroke: #000000; stroke-width: 0.8"/>
      </g>
     </g>
     <g id="text_6">
      <text style="font: 18px 'DejaVu Sans', 'Bitstream Vera Sans', 'Computer Modern Sans Serif', 'Lucida Grande', 'Verdana', 'Geneva', 'Lucid', 'Arial', 'Helvetica', 'Avant Garde', sans-serif" transform="translate(16.871232 376.26948) rotate(-45)">univariate</text>
     </g>
    </g>
    <g id="text_7">
     <!-- double-Wilson $r$ -->
     <g transform="translate(192.112828 396.593677)">
      <text>
       <tspan style="font: 18px 'DejaVu Sans'" x="0 11.425781 22.438477 33.84668 45.272461 50.273438 61.347656 67.842773 85.640625 90.641602 95.642578 105.020508 116.033203 127.441406" y="-0.328125">double-Wilson </tspan>
       <tspan style="font: oblique 18px 'DejaVu Sans'" x="133.163086" y="-0.328125">r</tspan>
      </text>
     </g>
    </g>
   </g>
   <g id="matplotlib.axis_2">
    <g id="ytick_1">
     <g id="line2d_13">
      <path d="M 66.239969 247.007099 
L 458.565687 247.007099 
" clip-path="url(#pca3fa62d40)" style="fill: none; stroke-dasharray: 2.96,1.28; stroke-dashoffset: 0; stroke: #b0b0b0; stroke-width: 0.8"/>
     </g>
     <g id="line2d_14">
      <defs>
       <path id="mb60b4f3558" d="M 0 0 
L -3.5 0 
" style="stroke: #000000; stroke-width: 0.8"/>
      </defs>
      <g>
       <use xlink:href="#mb60b4f3558" x="66.239969" y="247.007099" style="stroke: #000000; stroke-width: 0.8"/>
      </g>
     </g>
     <g id="text_8">
      <text style="font: 18px 'DejaVu Sans', 'Bitstream Vera Sans', 'Computer Modern Sans Serif', 'Lucida Grande', 'Verdana', 'Geneva', 'Lucid', 'Arial', 'Helvetica', 'Avant Garde', sans-serif; text-anchor: end" x="59.239969" y="253.845693" transform="rotate(-0 59.239969 253.845693)">−2.0</text>
     </g>
    </g>
    <g id="ytick_2">
     <g id="line2d_15">
      <path d="M 66.239969 195.676598 
L 458.565687 195.676598 
" clip-path="url(#pca3fa62d40)" style="fill: none; stroke-dasharray: 2.96,1.28; stroke-dashoffset: 0; stroke: #b0b0b0; stroke-width: 0.8"/>
     </g>
     <g id="line2d_16">
      <g>
       <use xlink:href="#mb60b4f3558" x="66.239969" y="195.676598" style="stroke: #000000; stroke-width: 0.8"/>
      </g>
     </g>
     <g id="text_9">
      <text style="font: 18px 'DejaVu Sans', 'Bitstream Vera Sans', 'Computer Modern Sans Serif', 'Lucida Grande', 'Verdana', 'Geneva', 'Lucid', 'Arial', 'Helvetica', 'Avant Garde', sans-serif; text-anchor: end" x="59.239969" y="202.515191" transform="rotate(-0 59.239969 202.515191)">−1.5</text>
     </g>
    </g>
    <g id="ytick_3">
     <g id="line2d_17">
      <path d="M 66.239969 144.346096 
L 458.565687 144.346096 
" clip-path="url(#pca3fa62d40)" style="fill: none; stroke-dasharray: 2.96,1.28; stroke-dashoffset: 0; stroke: #b0b0b0; stroke-width: 0.8"/>
     </g>
     <g id="line2d_18">
      <g>
       <use xlink:href="#mb60b4f3558" x="66.239969" y="144.346096" style="stroke: #000000; stroke-width: 0.8"/>
      </g>
     </g>
     <g id="text_10">
      <text style="font: 18px 'DejaVu Sans', 'Bitstream Vera Sans', 'Computer Modern Sans Serif', 'Lucida Grande', 'Verdana', 'Geneva', 'Lucid', 'Arial', 'Helvetica', 'Avant Garde', sans-serif; text-anchor: end" x="59.239969" y="151.184689" transform="rotate(-0 59.239969 151.184689)">−1.0</text>
     </g>
    </g>
    <g id="ytick_4">
     <g id="line2d_19">
      <path d="M 66.239969 93.015594 
L 458.565687 93.015594 
" clip-path="url(#pca3fa62d40)" style="fill: none; stroke-dasharray: 2.96,1.28; stroke-dashoffset: 0; stroke: #b0b0b0; stroke-width: 0.8"/>
     </g>
     <g id="line2d_20">
      <g>
       <use xlink:href="#mb60b4f3558" x="66.239969" y="93.015594" style="stroke: #000000; stroke-width: 0.8"/>
      </g>
     </g>
     <g id="text_11">
      <text style="font: 18px 'DejaVu Sans', 'Bitstream Vera Sans', 'Computer Modern Sans Serif', 'Lucida Grande', 'Verdana', 'Geneva', 'Lucid', 'Arial', 'Helvetica', 'Avant Garde', sans-serif; text-anchor: end" x="59.239969" y="99.854187" transform="rotate(-0 59.239969 99.854187)">−0.5</text>
     </g>
    </g>
    <g id="ytick_5">
     <g id="line2d_21">
      <path d="M 66.239969 41.685092 
L 458.565687 41.685092 
" clip-path="url(#pca3fa62d40)" style="fill: none; stroke-dasharray: 2.96,1.28; stroke-dashoffset: 0; stroke: #b0b0b0; stroke-width: 0.8"/>
     </g>
     <g id="line2d_22">
      <g>
       <use xlink:href="#mb60b4f3558" x="66.239969" y="41.685092" style="stroke: #000000; stroke-width: 0.8"/>
      </g>
     </g>
     <g id="text_12">
      <text style="font: 18px 'DejaVu Sans', 'Bitstream Vera Sans', 'Computer Modern Sans Serif', 'Lucida Grande', 'Verdana', 'Geneva', 'Lucid', 'Arial', 'Helvetica', 'Avant Garde', sans-serif; text-anchor: end" x="59.239969" y="48.523686" transform="rotate(-0 59.239969 48.523686)">0.0</text>
     </g>
    </g>
    <g id="text_13">
     <text style="font: 18px 'DejaVu Sans', 'Bitstream Vera Sans', 'Computer Modern Sans Serif', 'Lucida Grande', 'Verdana', 'Geneva', 'Lucid', 'Arial', 'Helvetica', 'Avant Garde', sans-serif; text-anchor: start" x="66.239969" y="26.612625" transform="rotate(-0 66.239969 26.612625)">1e6</text>
    </g>
   </g>
   <g id="line2d_23">
    <path d="M 84.072956 63.074032 
L 109.035647 62.151074 
L 133.998338 62.937851 
L 158.961028 63.030585 
L 183.923719 60.526506 
L 209.175676 63.879424 
L 234.138367 63.755231 
L 258.869458 63.415947 
L 283.832149 64.225096 
L 308.79484 65.642868 
L 332.845746 62.215294 
L 357.808437 56.014053 
L 382.771127 59.440385 
L 409.203963 41.685092 
L 440.7327 53.393158 
" clip-path="url(#pca3fa62d40)" style="fill: none; stroke: #1f77b4; stroke-width: 1.5; stroke-linecap: square"/>
    <defs>
     <path id="m6d168eb142" d="M 0 3 
C 0.795609 3 1.55874 2.683901 2.12132 2.12132 
C 2.683901 1.55874 3 0.795609 3 0 
C 3 -0.795609 2.683901 -1.55874 2.12132 -2.12132 
C 1.55874 -2.683901 0.795609 -3 0 -3 
C -0.795609 -3 -1.55874 -2.683901 -2.12132 -2.12132 
C -2.683901 -1.55874 -3 -0.795609 -3 0 
C -3 0.795609 -2.683901 1.55874 -2.12132 2.12132 
C -1.55874 2.683901 -0.795609 3 0 3 
z
" style="stroke: #1f77b4"/>
    </defs>
    <g clip-path="url(#pca3fa62d40)">
     <use xlink:href="#m6d168eb142" x="84.072956" y="63.074032" style="fill: #1f77b4; stroke: #1f77b4"/>
     <use xlink:href="#m6d168eb142" x="109.035647" y="62.151074" style="fill: #1f77b4; stroke: #1f77b4"/>
     <use xlink:href="#m6d168eb142" x="133.998338" y="62.937851" style="fill: #1f77b4; stroke: #1f77b4"/>
     <use xlink:href="#m6d168eb142" x="158.961028" y="63.030585" style="fill: #1f77b4; stroke: #1f77b4"/>
     <use xlink:href="#m6d168eb142" x="183.923719" y="60.526506" style="fill: #1f77b4; stroke: #1f77b4"/>
     <use xlink:href="#m6d168eb142" x="209.175676" y="63.879424" style="fill: #1f77b4; stroke: #1f77b4"/>
     <use xlink:href="#m6d168eb142" x="234.138367" y="63.755231" style="fill: #1f77b4; stroke: #1f77b4"/>
     <use xlink:href="#m6d168eb142" x="258.869458" y="63.415947" style="fill: #1f77b4; stroke: #1f77b4"/>
     <use xlink:href="#m6d168eb142" x="283.832149" y="64.225096" style="fill: #1f77b4; stroke: #1f77b4"/>
     <use xlink:href="#m6d168eb142" x="308.79484" y="65.642868" style="fill: #1f77b4; stroke: #1f77b4"/>
     <use xlink:href="#m6d168eb142" x="332.845746" y="62.215294" style="fill: #1f77b4; stroke: #1f77b4"/>
     <use xlink:href="#m6d168eb142" x="357.808437" y="56.014053" style="fill: #1f77b4; stroke: #1f77b4"/>
     <use xlink:href="#m6d168eb142" x="382.771127" y="59.440385" style="fill: #1f77b4; stroke: #1f77b4"/>
     <use xlink:href="#m6d168eb142" x="409.203963" y="41.685092" style="fill: #1f77b4; stroke: #1f77b4"/>
     <use xlink:href="#m6d168eb142" x="440.7327" y="53.393158" style="fill: #1f77b4; stroke: #1f77b4"/>
    </g>
   </g>
   <g id="line2d_24">
    <path d="M 84.072956 63.871706 
L 109.035647 61.457328 
L 133.998338 64.352785 
M 183.923719 63.511195 
M 258.869458 64.066091 
M 308.79484 71.183913 
L 332.845746 62.817652 
L 357.808437 58.821708 
L 382.771127 59.351138 
L 409.203963 41.685092 
L 440.7327 55.770534 
" clip-path="url(#pca3fa62d40)" style="fill: none; stroke: #ff7f0e; stroke-width: 1.5; stroke-linecap: square"/>
    <defs>
     <path id="m38258c6f85" d="M 0 3 
C 0.795609 3 1.55874 2.683901 2.12132 2.12132 
C 2.683901 1.55874 3 0.795609 3 0 
C 3 -0.795609 2.683901 -1.55874 2.12132 -2.12132 
C 1.55874 -2.683901 0.795609 -3 0 -3 
C -0.795609 -3 -1.55874 -2.683901 -2.12132 -2.12132 
C -2.683901 -1.55874 -3 -0.795609 -3 0 
C -3 0.795609 -2.683901 1.55874 -2.12132 2.12132 
C -1.55874 2.683901 -0.795609 3 0 3 
z
" style="stroke: #ff7f0e"/>
    </defs>
    <g clip-path="url(#pca3fa62d40)">
     <use xlink:href="#m38258c6f85" x="84.072956" y="63.871706" style="fill: #ff7f0e; stroke: #ff7f0e"/>
     <use xlink:href="#m38258c6f85" x="109.035647" y="61.457328" style="fill: #ff7f0e; stroke: #ff7f0e"/>
     <use xlink:href="#m38258c6f85" x="133.998338" y="64.352785" style="fill: #ff7f0e; stroke: #ff7f0e"/>
     <use xlink:href="#m38258c6f85" x="183.923719" y="63.511195" style="fill: #ff7f0e; stroke: #ff7f0e"/>
     <use xlink:href="#m38258c6f85" x="258.869458" y="64.066091" style="fill: #ff7f0e; stroke: #ff7f0e"/>
     <use xlink:href="#m38258c6f85" x="308.79484" y="71.183913" style="fill: #ff7f0e; stroke: #ff7f0e"/>
     <use xlink:href="#m38258c6f85" x="332.845746" y="62.817652" style="fill: #ff7f0e; stroke: #ff7f0e"/>
     <use xlink:href="#m38258c6f85" x="357.808437" y="58.821708" style="fill: #ff7f0e; stroke: #ff7f0e"/>
     <use xlink:href="#m38258c6f85" x="382.771127" y="59.351138" style="fill: #ff7f0e; stroke: #ff7f0e"/>
     <use xlink:href="#m38258c6f85" x="409.203963" y="41.685092" style="fill: #ff7f0e; stroke: #ff7f0e"/>
     <use xlink:href="#m38258c6f85" x="440.7327" y="55.770534" style="fill: #ff7f0e; stroke: #ff7f0e"/>
    </g>
   </g>
   <g id="line2d_25">
    <path d="M 84.072956 271.270596 
L 109.035647 271.380208 
L 133.998338 271.683932 
L 158.961028 272.200101 
L 183.923719 272.651086 
L 209.175676 272.648162 
L 234.138367 272.440578 
L 258.869458 271.593127 
L 283.832149 269.82254 
L 308.79484 266.526217 
L 332.845746 260.424991 
L 357.808437 248.657205 
L 382.771127 225.319822 
L 409.203963 175.521954 
L 440.7327 41.685092 
" clip-path="url(#pca3fa62d40)" style="fill: none; stroke: #2ca02c; stroke-width: 1.5; stroke-linecap: square"/>
    <defs>
     <path id="m6b51af1dd0" d="M 0 3 
C 0.795609 3 1.55874 2.683901 2.12132 2.12132 
C 2.683901 1.55874 3 0.795609 3 0 
C 3 -0.795609 2.683901 -1.55874 2.12132 -2.12132 
C 1.55874 -2.683901 0.795609 -3 0 -3 
C -0.795609 -3 -1.55874 -2.683901 -2.12132 -2.12132 
C -2.683901 -1.55874 -3 -0.795609 -3 0 
C -3 0.795609 -2.683901 1.55874 -2.12132 2.12132 
C -1.55874 2.683901 -0.795609 3 0 3 
z
" style="stroke: #2ca02c"/>
    </defs>
    <g clip-path="url(#pca3fa62d40)">
     <use xlink:href="#m6b51af1dd0" x="84.072956" y="271.270596" style="fill: #2ca02c; stroke: #2ca02c"/>
     <use xlink:href="#m6b51af1dd0" x="109.035647" y="271.380208" style="fill: #2ca02c; stroke: #2ca02c"/>
     <use xlink:href="#m6b51af1dd0" x="133.998338" y="271.683932" style="fill: #2ca02c; stroke: #2ca02c"/>
     <use xlink:href="#m6b51af1dd0" x="158.961028" y="272.200101" style="fill: #2ca02c; stroke: #2ca02c"/>
     <use xlink:href="#m6b51af1dd0" x="183.923719" y="272.651086" style="fill: #2ca02c; stroke: #2ca02c"/>
     <use xlink:href="#m6b51af1dd0" x="209.175676" y="272.648162" style="fill: #2ca02c; stroke: #2ca02c"/>
     <use xlink:href="#m6b51af1dd0" x="234.138367" y="272.440578" style="fill: #2ca02c; stroke: #2ca02c"/>
     <use xlink:href="#m6b51af1dd0" x="258.869458" y="271.593127" style="fill: #2ca02c; stroke: #2ca02c"/>
     <use xlink:href="#m6b51af1dd0" x="283.832149" y="269.82254" style="fill: #2ca02c; stroke: #2ca02c"/>
     <use xlink:href="#m6b51af1dd0" x="308.79484" y="266.526217" style="fill: #2ca02c; stroke: #2ca02c"/>
     <use xlink:href="#m6b51af1dd0" x="332.845746" y="260.424991" style="fill: #2ca02c; stroke: #2ca02c"/>
     <use xlink:href="#m6b51af1dd0" x="357.808437" y="248.657205" style="fill: #2ca02c; stroke: #2ca02c"/>
     <use xlink:href="#m6b51af1dd0" x="382.771127" y="225.319822" style="fill: #2ca02c; stroke: #2ca02c"/>
     <use xlink:href="#m6b51af1dd0" x="409.203963" y="175.521954" style="fill: #2ca02c; stroke: #2ca02c"/>
     <use xlink:href="#m6b51af1dd0" x="440.7327" y="41.685092" style="fill: #2ca02c; stroke: #2ca02c"/>
    </g>
   </g>
   <g id="line2d_26">
    <path d="M 84.072956 280.95147 
L 109.035647 280.138124 
L 133.998338 281.228625 
L 158.961028 281.837527 
L 183.923719 279.784434 
L 209.175676 283.134428 
L 234.138367 282.802651 
L 258.869458 281.615916 
L 283.832149 280.654478 
L 308.79484 278.775926 
L 332.845746 269.247126 
L 357.808437 251.2781 
L 382.771127 231.367049 
L 409.203963 163.813888 
L 440.7327 41.685092 
" clip-path="url(#pca3fa62d40)" style="fill: none; stroke: #d62728; stroke-width: 1.5; stroke-linecap: square"/>
    <defs>
     <path id="m0c7d9a2f84" d="M 0 3 
C 0.795609 3 1.55874 2.683901 2.12132 2.12132 
C 2.683901 1.55874 3 0.795609 3 0 
C 3 -0.795609 2.683901 -1.55874 2.12132 -2.12132 
C 1.55874 -2.683901 0.795609 -3 0 -3 
C -0.795609 -3 -1.55874 -2.683901 -2.12132 -2.12132 
C -2.683901 -1.55874 -3 -0.795609 -3 0 
C -3 0.795609 -2.683901 1.55874 -2.12132 2.12132 
C -1.55874 2.683901 -0.795609 3 0 3 
z
" style="stroke: #d62728"/>
    </defs>
    <g clip-path="url(#pca3fa62d40)">
     <use xlink:href="#m0c7d9a2f84" x="84.072956" y="280.95147" style="fill: #d62728; stroke: #d62728"/>
     <use xlink:href="#m0c7d9a2f84" x="109.035647" y="280.138124" style="fill: #d62728; stroke: #d62728"/>
     <use xlink:href="#m0c7d9a2f84" x="133.998338" y="281.228625" style="fill: #d62728; stroke: #d62728"/>
     <use xlink:href="#m0c7d9a2f84" x="158.961028" y="281.837527" style="fill: #d62728; stroke: #d62728"/>
     <use xlink:href="#m0c7d9a2f84" x="183.923719" y="279.784434" style="fill: #d62728; stroke: #d62728"/>
     <use xlink:href="#m0c7d9a2f84" x="209.175676" y="283.134428" style="fill: #d62728; stroke: #d62728"/>
     <use xlink:href="#m0c7d9a2f84" x="234.138367" y="282.802651" style="fill: #d62728; stroke: #d62728"/>
     <use xlink:href="#m0c7d9a2f84" x="258.869458" y="281.615916" style="fill: #d62728; stroke: #d62728"/>
     <use xlink:href="#m0c7d9a2f84" x="283.832149" y="280.654478" style="fill: #d62728; stroke: #d62728"/>
     <use xlink:href="#m0c7d9a2f84" x="308.79484" y="278.775926" style="fill: #d62728; stroke: #d62728"/>
     <use xlink:href="#m0c7d9a2f84" x="332.845746" y="269.247126" style="fill: #d62728; stroke: #d62728"/>
     <use xlink:href="#m0c7d9a2f84" x="357.808437" y="251.2781" style="fill: #d62728; stroke: #d62728"/>
     <use xlink:href="#m0c7d9a2f84" x="382.771127" y="231.367049" style="fill: #d62728; stroke: #d62728"/>
     <use xlink:href="#m0c7d9a2f84" x="409.203963" y="163.813888" style="fill: #d62728; stroke: #d62728"/>
     <use xlink:href="#m0c7d9a2f84" x="440.7327" y="41.685092" style="fill: #d62728; stroke: #d62728"/>
    </g>
   </g>
   <g id="patch_3">
    <path d="M 66.239969 295.206895 
L 66.239969 29.612625 
" style="fill: none; stroke: #000000; stroke-width: 0.8; stroke-linejoin: miter; stroke-linecap: square"/>
   </g>
   <g id="patch_4">
    <path d="M 458.565687 295.206895 
L 458.565687 29.612625 
" style="fill: none; stroke: #000000; stroke-width: 0.8; stroke-linejoin: miter; stroke-linecap: square"/>
   </g>
   <g id="patch_5">
    <path d="M 66.239969 295.206895 
L 458.565687 295.206895 
" style="fill: none; stroke: #000000; stroke-width: 0.8; stroke-linejoin: miter; stroke-linecap: square"/>
   </g>
   <g id="patch_6">
    <path d="M 66.239969 29.612625 
L 458.565687 29.612625 
" style="fill: none; stroke: #000000; stroke-width: 0.8; stroke-linejoin: miter; stroke-linecap: square"/>
   </g>
   <g id="text_14">
    <text style="font: 21.6px 'DejaVu Sans', 'Bitstream Vera Sans', 'Computer Modern Sans Serif', 'Lucida Grande', 'Verdana', 'Geneva', 'Lucid', 'Arial', 'Helvetica', 'Avant Garde', sans-serif; text-anchor: middle" x="262.402828" y="23.612625" transform="rotate(-0 262.402828 23.612625)">training values, thermolysin</text>
   </g>
   <g id="legend_1">
    <g id="patch_7">
     <path d="M 319.155687 286.206895 
L 445.965687 286.206895 
Q 449.565687 286.206895 449.565687 282.606895 
L 449.565687 178.22377 
Q 449.565687 174.62377 445.965687 174.62377 
L 319.155687 174.62377 
Q 315.555687 174.62377 315.555687 178.22377 
L 315.555687 282.606895 
Q 315.555687 286.206895 319.155687 286.206895 
z
" style="fill: #ffffff; opacity: 0.8; stroke: #cccccc; stroke-linejoin: miter"/>
    </g>
    <g id="line2d_27">
     <path d="M 322.755687 189.200957 
L 340.755687 189.200957 
L 358.755687 189.200957 
" style="fill: none; stroke: #1f77b4; stroke-width: 1.5; stroke-linecap: square"/>
     <g>
      <use xlink:href="#m6d168eb142" x="340.755687" y="189.200957" style="fill: #1f77b4; stroke: #1f77b4"/>
     </g>
    </g>
    <g id="text_15">
     <text style="font: 18px 'DejaVu Sans', 'Bitstream Vera Sans', 'Computer Modern Sans Serif', 'Lucida Grande', 'Verdana', 'Geneva', 'Lucid', 'Arial', 'Helvetica', 'Avant Garde', sans-serif; text-anchor: start" x="373.155687" y="195.500957" transform="rotate(-0 373.155687 195.500957)">NLL</text>
    </g>
    <g id="line2d_28">
     <path d="M 322.755687 215.621582 
L 340.755687 215.621582 
L 358.755687 215.621582 
" style="fill: none; stroke: #ff7f0e; stroke-width: 1.5; stroke-linecap: square"/>
     <g>
      <use xlink:href="#m38258c6f85" x="340.755687" y="215.621582" style="fill: #ff7f0e; stroke: #ff7f0e"/>
     </g>
    </g>
    <g id="text_16">
     <text style="font: 18px 'DejaVu Sans', 'Bitstream Vera Sans', 'Computer Modern Sans Serif', 'Lucida Grande', 'Verdana', 'Geneva', 'Lucid', 'Arial', 'Helvetica', 'Avant Garde', sans-serif; text-anchor: start" x="373.155687" y="221.921582" transform="rotate(-0 373.155687 221.921582)">NLL_val</text>
    </g>
    <g id="line2d_29">
     <path d="M 322.755687 242.542832 
L 340.755687 242.542832 
L 358.755687 242.542832 
" style="fill: none; stroke: #2ca02c; stroke-width: 1.5; stroke-linecap: square"/>
     <g>
      <use xlink:href="#m6b51af1dd0" x="340.755687" y="242.542832" style="fill: #2ca02c; stroke: #2ca02c"/>
     </g>
    </g>
    <g id="text_17">
     <text style="font: 18px 'DejaVu Sans', 'Bitstream Vera Sans', 'Computer Modern Sans Serif', 'Lucida Grande', 'Verdana', 'Geneva', 'Lucid', 'Arial', 'Helvetica', 'Avant Garde', sans-serif; text-anchor: start" x="373.155687" y="248.842832" transform="rotate(-0 373.155687 248.842832)">F KLDiv</text>
    </g>
    <g id="line2d_30">
     <path d="M 322.755687 268.963457 
L 340.755687 268.963457 
L 358.755687 268.963457 
" style="fill: none; stroke: #d62728; stroke-width: 1.5; stroke-linecap: square"/>
     <g>
      <use xlink:href="#m0c7d9a2f84" x="340.755687" y="268.963457" style="fill: #d62728; stroke: #d62728"/>
     </g>
    </g>
    <g id="text_18">
     <text style="font: 18px 'DejaVu Sans', 'Bitstream Vera Sans', 'Computer Modern Sans Serif', 'Lucida Grande', 'Verdana', 'Geneva', 'Lucid', 'Arial', 'Helvetica', 'Avant Garde', sans-serif; text-anchor: start" x="373.155687" y="275.263457" transform="rotate(-0 373.155687 275.263457)">loss</text>
    </g>
   </g>
  </g>
 </g>
 <defs>
  <clipPath id="pca3fa62d40">
   <rect x="66.239969" y="29.612625" width="392.325718" height="265.59427"/>
  </clipPath>
 </defs>
</svg>
