<?xml version="1.0" encoding="utf-8" standalone="no"?>
<!DOCTYPE svg PUBLIC "-//W3C//DTD SVG 1.1//EN"
  "http://www.w3.org/Graphics/SVG/1.1/DTD/svg11.dtd">
<svg xmlns:xlink="http://www.w3.org/1999/xlink" width="501.272722pt" height="407.537115pt" viewBox="0 0 501.272722 407.537115" xmlns="http://www.w3.org/2000/svg" version="1.1">
 <metadata>
  <rdf:RDF xmlns:dc="http://purl.org/dc/elements/1.1/" xmlns:cc="http://creativecommons.org/ns#" xmlns:rdf="http://www.w3.org/1999/02/22-rdf-syntax-ns#">
   <cc:Work>
    <dc:type rdf:resource="http://purl.org/dc/dcmitype/StillImage"/>
    <dc:date>2025-07-18T16:23:17.760164</dc:date>
    <dc:format>image/svg+xml</dc:format>
    <dc:creator>
     <cc:Agent>
      <dc:title>Matplotlib v3.8.2, https://matplotlib.org/</dc:title>
     </cc:Agent>
    </dc:creator>
   </cc:Work>
  </rdf:RDF>
 </metadata>
 <defs>
  <style type="text/css">*{stroke-linejoin: round; stroke-linecap: butt}</style>
 </defs>
 <g id="figure_1">
  <g id="patch_1">
   <path d="M 0 407.537115 
L 501.272722 407.537115 
L 501.272722 0 
L 0 0 
z
" style="fill: #ffffff"/>
  </g>
  <g id="axes_1">
   <g id="patch_2">
    <path d="M 66.655949 295.206895 
L 449.745495 295.206895 
L 449.745495 29.612625 
L 66.655949 29.612625 
z
" style="fill: #ffffff"/>
   </g>
   <g id="matplotlib.axis_1">
    <g id="xtick_1">
     <g id="line2d_1">
      <path d="M 432.332334 295.206895 
L 432.332334 29.612625 
" clip-path="url(#pc3a286c9ad)" style="fill: none; stroke-dasharray: 2.96,1.28; stroke-dashoffset: 0; stroke: #b0b0b0; stroke-width: 0.8"/>
     </g>
     <g id="line2d_2">
      <defs>
       <path id="mf266b3d549" d="M 0 0 
L 0 3.5 
" style="stroke: #000000; stroke-width: 0.8"/>
      </defs>
      <g>
       <use xlink:href="#mf266b3d549" x="432.332334" y="295.206895" style="stroke: #000000; stroke-width: 0.8"/>
      </g>
     </g>
     <g id="text_1">
      <text style="font: 18px 'DejaVu Sans', 'Bitstream Vera Sans', 'Computer Modern Sans Serif', 'Lucida Grande', 'Verdana', 'Geneva', 'Lucid', 'Arial', 'Helvetica', 'Avant Garde', sans-serif; text-anchor: middle" x="432.332334" y="315.884082" transform="rotate(-0 432.332334 315.884082)">0.9999</text>
     </g>
    </g>
    <g id="xtick_2">
     <g id="line2d_3">
      <path d="M 351.360282 295.206895 
L 351.360282 29.612625 
" clip-path="url(#pc3a286c9ad)" style="fill: none; stroke-dasharray: 2.96,1.28; stroke-dashoffset: 0; stroke: #b0b0b0; stroke-width: 0.8"/>
     </g>
     <g id="line2d_4">
      <g>
       <use xlink:href="#mf266b3d549" x="351.360282" y="295.206895" style="stroke: #000000; stroke-width: 0.8"/>
      </g>
     </g>
     <g id="text_2">
      <text style="font: 18px 'DejaVu Sans', 'Bitstream Vera Sans', 'Computer Modern Sans Serif', 'Lucida Grande', 'Verdana', 'Geneva', 'Lucid', 'Arial', 'Helvetica', 'Avant Garde', sans-serif; text-anchor: middle" x="351.360282" y="315.884082" transform="rotate(-0 351.360282 315.884082)">0.999</text>
     </g>
    </g>
    <g id="xtick_3">
     <g id="line2d_5">
      <path d="M 270.38823 295.206895 
L 270.38823 29.612625 
" clip-path="url(#pc3a286c9ad)" style="fill: none; stroke-dasharray: 2.96,1.28; stroke-dashoffset: 0; stroke: #b0b0b0; stroke-width: 0.8"/>
     </g>
     <g id="line2d_6">
      <g>
       <use xlink:href="#mf266b3d549" x="270.38823" y="295.206895" style="stroke: #000000; stroke-width: 0.8"/>
      </g>
     </g>
     <g id="text_3">
      <text style="font: 18px 'DejaVu Sans', 'Bitstream Vera Sans', 'Computer Modern Sans Serif', 'Lucida Grande', 'Verdana', 'Geneva', 'Lucid', 'Arial', 'Helvetica', 'Avant Garde', sans-serif; text-anchor: middle" x="270.38823" y="315.884082" transform="rotate(-0 270.38823 315.884082)">0.99</text>
     </g>
    </g>
    <g id="xtick_4">
     <g id="line2d_7">
      <path d="M 189.416179 295.206895 
L 189.416179 29.612625 
" clip-path="url(#pc3a286c9ad)" style="fill: none; stroke-dasharray: 2.96,1.28; stroke-dashoffset: 0; stroke: #b0b0b0; stroke-width: 0.8"/>
     </g>
     <g id="line2d_8">
      <g>
       <use xlink:href="#mf266b3d549" x="189.416179" y="295.206895" style="stroke: #000000; stroke-width: 0.8"/>
      </g>
     </g>
     <g id="text_4">
      <text style="font: 18px 'DejaVu Sans', 'Bitstream Vera Sans', 'Computer Modern Sans Serif', 'Lucida Grande', 'Verdana', 'Geneva', 'Lucid', 'Arial', 'Helvetica', 'Avant Garde', sans-serif; text-anchor: middle" x="189.416179" y="315.884082" transform="rotate(-0 189.416179 315.884082)">0.9</text>
     </g>
    </g>
    <g id="xtick_5">
     <g id="line2d_9">
      <path d="M 108.444127 295.206895 
L 108.444127 29.612625 
" clip-path="url(#pc3a286c9ad)" style="fill: none; stroke-dasharray: 2.96,1.28; stroke-dashoffset: 0; stroke: #b0b0b0; stroke-width: 0.8"/>
     </g>
     <g id="line2d_10">
      <g>
       <use xlink:href="#mf266b3d549" x="108.444127" y="295.206895" style="stroke: #000000; stroke-width: 0.8"/>
      </g>
     </g>
     <g id="text_5">
      <text style="font: 18px 'DejaVu Sans', 'Bitstream Vera Sans', 'Computer Modern Sans Serif', 'Lucida Grande', 'Verdana', 'Geneva', 'Lucid', 'Arial', 'Helvetica', 'Avant Garde', sans-serif; text-anchor: middle" x="108.444127" y="315.884082" transform="rotate(-0 108.444127 315.884082)">0</text>
     </g>
    </g>
    <g id="xtick_6">
     <g id="line2d_11">
      <path d="M 83.909595 295.206895 
L 83.909595 29.612625 
" clip-path="url(#pc3a286c9ad)" style="fill: none; stroke-dasharray: 2.96,1.28; stroke-dashoffset: 0; stroke: #b0b0b0; stroke-width: 0.8"/>
     </g>
     <g id="line2d_12">
      <g>
       <use xlink:href="#mf266b3d549" x="83.909595" y="295.206895" style="stroke: #000000; stroke-width: 0.8"/>
      </g>
     </g>
     <g id="text_6">
      <text style="font: 18px 'DejaVu Sans', 'Bitstream Vera Sans', 'Computer Modern Sans Serif', 'Lucida Grande', 'Verdana', 'Geneva', 'Lucid', 'Arial', 'Helvetica', 'Avant Garde', sans-serif" transform="translate(16.871232 376.26948) rotate(-45)">univariate</text>
     </g>
    </g>
    <g id="text_7">
     <!-- double-Wilson $r$ -->
     <g transform="translate(187.910722 396.593677)">
      <text>
       <tspan style="font: 18px 'DejaVu Sans'" x="0 11.425781 22.438477 33.84668 45.272461 50.273438 61.347656 67.842773 85.640625 90.641602 95.642578 105.020508 116.033203 127.441406" y="-0.328125">double-Wilson </tspan>
       <tspan style="font: oblique 18px 'DejaVu Sans'" x="133.163086" y="-0.328125">r</tspan>
      </text>
     </g>
    </g>
   </g>
   <g id="matplotlib.axis_2">
    <g id="ytick_1">
     <g id="line2d_13">
      <path d="M 66.655949 295.206895 
L 449.745495 295.206895 
" clip-path="url(#pc3a286c9ad)" style="fill: none; stroke-dasharray: 2.96,1.28; stroke-dashoffset: 0; stroke: #b0b0b0; stroke-width: 0.8"/>
     </g>
     <g id="line2d_14">
      <defs>
       <path id="m25aaa52e9e" d="M 0 0 
L -3.5 0 
" style="stroke: #000000; stroke-width: 0.8"/>
      </defs>
      <g>
       <use xlink:href="#m25aaa52e9e" x="66.655949" y="295.206895" style="stroke: #000000; stroke-width: 0.8"/>
      </g>
     </g>
     <g id="text_8">
      <text style="font: 18px 'DejaVu Sans', 'Bitstream Vera Sans', 'Computer Modern Sans Serif', 'Lucida Grande', 'Verdana', 'Geneva', 'Lucid', 'Arial', 'Helvetica', 'Avant Garde', sans-serif; text-anchor: end" x="59.655949" y="302.045488" transform="rotate(-0 59.655949 302.045488)">0.5</text>
     </g>
    </g>
    <g id="ytick_2">
     <g id="line2d_15">
      <path d="M 66.655949 236.185946 
L 449.745495 236.185946 
" clip-path="url(#pc3a286c9ad)" style="fill: none; stroke-dasharray: 2.96,1.28; stroke-dashoffset: 0; stroke: #b0b0b0; stroke-width: 0.8"/>
     </g>
     <g id="line2d_16">
      <g>
       <use xlink:href="#m25aaa52e9e" x="66.655949" y="236.185946" style="stroke: #000000; stroke-width: 0.8"/>
      </g>
     </g>
     <g id="text_9">
      <text style="font: 18px 'DejaVu Sans', 'Bitstream Vera Sans', 'Computer Modern Sans Serif', 'Lucida Grande', 'Verdana', 'Geneva', 'Lucid', 'Arial', 'Helvetica', 'Avant Garde', sans-serif; text-anchor: end" x="59.655949" y="243.02454" transform="rotate(-0 59.655949 243.02454)">0.6</text>
     </g>
    </g>
    <g id="ytick_3">
     <g id="line2d_17">
      <path d="M 66.655949 177.164997 
L 449.745495 177.164997 
" clip-path="url(#pc3a286c9ad)" style="fill: none; stroke-dasharray: 2.96,1.28; stroke-dashoffset: 0; stroke: #b0b0b0; stroke-width: 0.8"/>
     </g>
     <g id="line2d_18">
      <g>
       <use xlink:href="#m25aaa52e9e" x="66.655949" y="177.164997" style="stroke: #000000; stroke-width: 0.8"/>
      </g>
     </g>
     <g id="text_10">
      <text style="font: 18px 'DejaVu Sans', 'Bitstream Vera Sans', 'Computer Modern Sans Serif', 'Lucida Grande', 'Verdana', 'Geneva', 'Lucid', 'Arial', 'Helvetica', 'Avant Garde', sans-serif; text-anchor: end" x="59.655949" y="184.003591" transform="rotate(-0 59.655949 184.003591)">0.7</text>
     </g>
    </g>
    <g id="ytick_4">
     <g id="line2d_19">
      <path d="M 66.655949 118.144048 
L 449.745495 118.144048 
" clip-path="url(#pc3a286c9ad)" style="fill: none; stroke-dasharray: 2.96,1.28; stroke-dashoffset: 0; stroke: #b0b0b0; stroke-width: 0.8"/>
     </g>
     <g id="line2d_20">
      <g>
       <use xlink:href="#m25aaa52e9e" x="66.655949" y="118.144048" style="stroke: #000000; stroke-width: 0.8"/>
      </g>
     </g>
     <g id="text_11">
      <text style="font: 18px 'DejaVu Sans', 'Bitstream Vera Sans', 'Computer Modern Sans Serif', 'Lucida Grande', 'Verdana', 'Geneva', 'Lucid', 'Arial', 'Helvetica', 'Avant Garde', sans-serif; text-anchor: end" x="59.655949" y="124.982642" transform="rotate(-0 59.655949 124.982642)">0.8</text>
     </g>
    </g>
    <g id="ytick_5">
     <g id="line2d_21">
      <path d="M 66.655949 59.123099 
L 449.745495 59.123099 
" clip-path="url(#pc3a286c9ad)" style="fill: none; stroke-dasharray: 2.96,1.28; stroke-dashoffset: 0; stroke: #b0b0b0; stroke-width: 0.8"/>
     </g>
     <g id="line2d_22">
      <g>
       <use xlink:href="#m25aaa52e9e" x="66.655949" y="59.123099" style="stroke: #000000; stroke-width: 0.8"/>
      </g>
     </g>
     <g id="text_12">
      <text style="font: 18px 'DejaVu Sans', 'Bitstream Vera Sans', 'Computer Modern Sans Serif', 'Lucida Grande', 'Verdana', 'Geneva', 'Lucid', 'Arial', 'Helvetica', 'Avant Garde', sans-serif; text-anchor: end" x="59.655949" y="65.961693" transform="rotate(-0 59.655949 65.961693)">0.9</text>
     </g>
    </g>
    <g id="text_13">
     <text style="font: 18px 'DejaVu Sans', 'Bitstream Vera Sans', 'Computer Modern Sans Serif', 'Lucida Grande', 'Verdana', 'Geneva', 'Lucid', 'Arial', 'Helvetica', 'Avant Garde', sans-serif; text-anchor: middle" x="23.286887" y="162.40976" transform="rotate(-90 23.286887 162.40976)">Correlation coefficient</text>
    </g>
   </g>
   <g id="line2d_23">
    <path d="M 84.069111 76.247642 
L 108.444127 77.078384 
L 132.819143 68.936916 
L 157.19416 63.369551 
L 181.569176 58.092331 
L 206.226649 53.481287 
L 230.601666 48.146578 
L 254.750535 45.931609 
L 279.125552 48.063041 
L 303.500568 45.7278 
L 326.985266 45.963161 
L 351.360282 44.081558 
L 375.735298 45.795683 
L 401.545849 43.233202 
L 432.332334 40.603738 
" clip-path="url(#pc3a286c9ad)" style="fill: none; stroke: #000000; stroke-width: 1.5; stroke-linecap: square"/>
    <defs>
     <path id="m4bb4b03a05" d="M 0 3 
C 0.795609 3 1.55874 2.683901 2.12132 2.12132 
C 2.683901 1.55874 3 0.795609 3 0 
C 3 -0.795609 2.683901 -1.55874 2.12132 -2.12132 
C 1.55874 -2.683901 0.795609 -3 0 -3 
C -0.795609 -3 -1.55874 -2.683901 -2.12132 -2.12132 
C -2.683901 -1.55874 -3 -0.795609 -3 0 
C -3 0.795609 -2.683901 1.55874 -2.12132 2.12132 
C -1.55874 2.683901 -0.795609 3 0 3 
z
" style="stroke: #000000"/>
    </defs>
    <g clip-path="url(#pc3a286c9ad)">
     <use xlink:href="#m4bb4b03a05" x="84.069111" y="76.247642" style="stroke: #000000"/>
     <use xlink:href="#m4bb4b03a05" x="108.444127" y="77.078384" style="stroke: #000000"/>
     <use xlink:href="#m4bb4b03a05" x="132.819143" y="68.936916" style="stroke: #000000"/>
     <use xlink:href="#m4bb4b03a05" x="157.19416" y="63.369551" style="stroke: #000000"/>
     <use xlink:href="#m4bb4b03a05" x="181.569176" y="58.092331" style="stroke: #000000"/>
     <use xlink:href="#m4bb4b03a05" x="206.226649" y="53.481287" style="stroke: #000000"/>
     <use xlink:href="#m4bb4b03a05" x="230.601666" y="48.146578" style="stroke: #000000"/>
     <use xlink:href="#m4bb4b03a05" x="254.750535" y="45.931609" style="stroke: #000000"/>
     <use xlink:href="#m4bb4b03a05" x="279.125552" y="48.063041" style="stroke: #000000"/>
     <use xlink:href="#m4bb4b03a05" x="303.500568" y="45.7278" style="stroke: #000000"/>
     <use xlink:href="#m4bb4b03a05" x="326.985266" y="45.963161" style="stroke: #000000"/>
     <use xlink:href="#m4bb4b03a05" x="351.360282" y="44.081558" style="stroke: #000000"/>
     <use xlink:href="#m4bb4b03a05" x="375.735298" y="45.795683" style="stroke: #000000"/>
     <use xlink:href="#m4bb4b03a05" x="401.545849" y="43.233202" style="stroke: #000000"/>
     <use xlink:href="#m4bb4b03a05" x="432.332334" y="40.603738" style="stroke: #000000"/>
    </g>
   </g>
   <g id="line2d_24">
    <path d="M 84.069111 72.108723 
L 108.444127 93.038508 
L 132.819143 72.515986 
L 157.19416 73.641722 
L 181.569176 77.635374 
L 206.226649 71.709435 
L 230.601666 75.229701 
L 254.750535 86.518284 
L 279.125552 72.728299 
L 303.500568 72.540054 
L 326.985266 82.182997 
L 351.360282 83.187091 
L 375.735298 118.143151 
L 401.545849 254.274568 
L 432.332334 128.856926 
" clip-path="url(#pc3a286c9ad)" style="fill: none; stroke-dasharray: 5.55,2.4; stroke-dashoffset: 0; stroke: #808080; stroke-width: 1.5"/>
    <defs>
     <path id="m26cbabd48b" d="M 0 3 
C 0.795609 3 1.55874 2.683901 2.12132 2.12132 
C 2.683901 1.55874 3 0.795609 3 0 
C 3 -0.795609 2.683901 -1.55874 2.12132 -2.12132 
C 1.55874 -2.683901 0.795609 -3 0 -3 
C -0.795609 -3 -1.55874 -2.683901 -2.12132 -2.12132 
C -2.683901 -1.55874 -3 -0.795609 -3 0 
C -3 0.795609 -2.683901 1.55874 -2.12132 2.12132 
C -1.55874 2.683901 -0.795609 3 0 3 
z
" style="stroke: #808080"/>
    </defs>
    <g clip-path="url(#pc3a286c9ad)">
     <use xlink:href="#m26cbabd48b" x="84.069111" y="72.108723" style="fill: #808080; stroke: #808080"/>
     <use xlink:href="#m26cbabd48b" x="108.444127" y="93.038508" style="fill: #808080; stroke: #808080"/>
     <use xlink:href="#m26cbabd48b" x="132.819143" y="72.515986" style="fill: #808080; stroke: #808080"/>
     <use xlink:href="#m26cbabd48b" x="157.19416" y="73.641722" style="fill: #808080; stroke: #808080"/>
     <use xlink:href="#m26cbabd48b" x="181.569176" y="77.635374" style="fill: #808080; stroke: #808080"/>
     <use xlink:href="#m26cbabd48b" x="206.226649" y="71.709435" style="fill: #808080; stroke: #808080"/>
     <use xlink:href="#m26cbabd48b" x="230.601666" y="75.229701" style="fill: #808080; stroke: #808080"/>
     <use xlink:href="#m26cbabd48b" x="254.750535" y="86.518284" style="fill: #808080; stroke: #808080"/>
     <use xlink:href="#m26cbabd48b" x="279.125552" y="72.728299" style="fill: #808080; stroke: #808080"/>
     <use xlink:href="#m26cbabd48b" x="303.500568" y="72.540054" style="fill: #808080; stroke: #808080"/>
     <use xlink:href="#m26cbabd48b" x="326.985266" y="82.182997" style="fill: #808080; stroke: #808080"/>
     <use xlink:href="#m26cbabd48b" x="351.360282" y="83.187091" style="fill: #808080; stroke: #808080"/>
     <use xlink:href="#m26cbabd48b" x="375.735298" y="118.143151" style="fill: #808080; stroke: #808080"/>
     <use xlink:href="#m26cbabd48b" x="401.545849" y="254.274568" style="fill: #808080; stroke: #808080"/>
     <use xlink:href="#m26cbabd48b" x="432.332334" y="128.856926" style="fill: #808080; stroke: #808080"/>
    </g>
   </g>
   <g id="line2d_25">
    <path d="M 84.069111 81.358829 
L 108.444127 106.319715 
L 132.819143 85.136742 
L 157.19416 88.344814 
L 181.569176 89.488227 
L 206.226649 80.164378 
L 230.601666 98.738728 
L 254.750535 118.533153 
L 279.125552 89.48282 
L 303.500568 80.070018 
L 326.985266 88.62735 
L 351.360282 90.60168 
L 375.735298 194.06909 
L 401.545849 264.541247 
L 432.332334 202.178429 
" clip-path="url(#pc3a286c9ad)" style="fill: none; stroke-dasharray: 1.5,2.475; stroke-dashoffset: 0; stroke: #808080; stroke-width: 1.5"/>
    <g clip-path="url(#pc3a286c9ad)">
     <use xlink:href="#m26cbabd48b" x="84.069111" y="81.358829" style="fill: #808080; stroke: #808080"/>
     <use xlink:href="#m26cbabd48b" x="108.444127" y="106.319715" style="fill: #808080; stroke: #808080"/>
     <use xlink:href="#m26cbabd48b" x="132.819143" y="85.136742" style="fill: #808080; stroke: #808080"/>
     <use xlink:href="#m26cbabd48b" x="157.19416" y="88.344814" style="fill: #808080; stroke: #808080"/>
     <use xlink:href="#m26cbabd48b" x="181.569176" y="89.488227" style="fill: #808080; stroke: #808080"/>
     <use xlink:href="#m26cbabd48b" x="206.226649" y="80.164378" style="fill: #808080; stroke: #808080"/>
     <use xlink:href="#m26cbabd48b" x="230.601666" y="98.738728" style="fill: #808080; stroke: #808080"/>
     <use xlink:href="#m26cbabd48b" x="254.750535" y="118.533153" style="fill: #808080; stroke: #808080"/>
     <use xlink:href="#m26cbabd48b" x="279.125552" y="89.48282" style="fill: #808080; stroke: #808080"/>
     <use xlink:href="#m26cbabd48b" x="303.500568" y="80.070018" style="fill: #808080; stroke: #808080"/>
     <use xlink:href="#m26cbabd48b" x="326.985266" y="88.62735" style="fill: #808080; stroke: #808080"/>
     <use xlink:href="#m26cbabd48b" x="351.360282" y="90.60168" style="fill: #808080; stroke: #808080"/>
     <use xlink:href="#m26cbabd48b" x="375.735298" y="194.06909" style="fill: #808080; stroke: #808080"/>
     <use xlink:href="#m26cbabd48b" x="401.545849" y="264.541247" style="fill: #808080; stroke: #808080"/>
     <use xlink:href="#m26cbabd48b" x="432.332334" y="202.178429" style="fill: #808080; stroke: #808080"/>
    </g>
   </g>
   <g id="patch_3">
    <path d="M 66.655949 295.206895 
L 66.655949 29.612625 
" style="fill: none; stroke: #000000; stroke-width: 0.8; stroke-linejoin: miter; stroke-linecap: square"/>
   </g>
   <g id="patch_4">
    <path d="M 449.745495 295.206895 
L 449.745495 29.612625 
" style="fill: none; stroke: #000000; stroke-width: 0.8; stroke-linejoin: miter; stroke-linecap: square"/>
   </g>
   <g id="patch_5">
    <path d="M 66.655949 295.206895 
L 449.745495 295.206895 
" style="fill: none; stroke: #000000; stroke-width: 0.8; stroke-linejoin: miter; stroke-linecap: square"/>
   </g>
   <g id="patch_6">
    <path d="M 66.655949 29.612625 
L 449.745495 29.612625 
" style="fill: none; stroke: #000000; stroke-width: 0.8; stroke-linejoin: miter; stroke-linecap: square"/>
   </g>
   <g id="text_14">
    <text style="font: 21.6px 'DejaVu Sans', 'Bitstream Vera Sans', 'Computer Modern Sans Serif', 'Lucida Grande', 'Verdana', 'Geneva', 'Lucid', 'Arial', 'Helvetica', 'Avant Garde', sans-serif; text-anchor: middle" x="258.200722" y="23.612625" transform="rotate(-0 258.200722 23.612625)">Merging correlation coefficient, thermolysin</text>
   </g>
   <g id="legend_1">
    <g id="patch_7">
     <path d="M 79.255949 286.206895 
L 229.015949 286.206895 
Q 232.615949 286.206895 232.615949 282.606895 
L 232.615949 201.075332 
Q 232.615949 197.475332 229.015949 197.475332 
L 79.255949 197.475332 
Q 75.655949 197.475332 75.655949 201.075332 
L 75.655949 282.606895 
Q 75.655949 286.206895 79.255949 286.206895 
z
" style="fill: #ffffff; opacity: 0.8; stroke: #cccccc; stroke-linejoin: miter"/>
    </g>
    <g id="line2d_26">
     <path d="M 82.855949 212.05252 
L 100.855949 212.05252 
L 118.855949 212.05252 
" style="fill: none; stroke: #000000; stroke-width: 1.5; stroke-linecap: square"/>
     <g>
      <use xlink:href="#m4bb4b03a05" x="100.855949" y="212.05252" style="stroke: #000000"/>
     </g>
    </g>
    <g id="text_15">
     <!-- CC$_\text{1/2}$ -->
     <g transform="translate(133.255949 218.35252)">
      <text>
       <tspan style="font: 18px 'DejaVu Sans'" x="0 12.568359" y="-0.640625">CC</tspan>
       <tspan style="font: 12.6px 'DejaVu Sans'" x="25.308984 33.325488 37.133105" y="2.3125">1/2</tspan>
      </text>
     </g>
    </g>
    <g id="line2d_27">
     <path d="M 82.855949 238.869707 
L 100.855949 238.869707 
L 118.855949 238.869707 
" style="fill: none; stroke-dasharray: 5.55,2.4; stroke-dashoffset: 0; stroke: #808080; stroke-width: 1.5"/>
     <g>
      <use xlink:href="#m26cbabd48b" x="100.855949" y="238.869707" style="fill: #808080; stroke: #808080"/>
     </g>
    </g>
    <g id="text_16">
     <!-- CC$_\text{pred, train}$ -->
     <g transform="translate(133.255949 245.169707)">
      <text>
       <tspan style="font: 18px 'DejaVu Sans'" x="0 12.568359" y="-0.640625">CC</tspan>
       <tspan style="font: 12.6px 'DejaVu Sans'" x="25.308984 33.307031 38.487305 46.239258 54.237305 58.24248 62.247656 67.187988 72.368262 80.089453 83.590137" y="2.3125">pred, train</tspan>
      </text>
     </g>
    </g>
    <g id="line2d_28">
     <path d="M 82.855949 267.126895 
L 100.855949 267.126895 
L 118.855949 267.126895 
" style="fill: none; stroke-dasharray: 1.5,2.475; stroke-dashoffset: 0; stroke: #808080; stroke-width: 1.5"/>
     <g>
      <use xlink:href="#m26cbabd48b" x="100.855949" y="267.126895" style="fill: #808080; stroke: #808080"/>
     </g>
    </g>
    <g id="text_17">
     <!-- CC$_\text{pred, test}$ -->
     <g transform="translate(133.255949 273.426895)">
      <text>
       <tspan style="font: 18px 'DejaVu Sans'" x="0 12.568359" y="-0.640625">CC</tspan>
       <tspan style="font: 12.6px 'DejaVu Sans'" x="25.308984 33.307031 38.487305 46.239258 54.237305 58.24248 62.247656 67.187988 74.939941 81.504492" y="2.3125">pred, test</tspan>
      </text>
     </g>
    </g>
   </g>
  </g>
 </g>
 <defs>
  <clipPath id="pc3a286c9ad">
   <rect x="66.655949" y="29.612625" width="383.089545" height="265.59427"/>
  </clipPath>
 </defs>
</svg>
