<?xml version="1.0" encoding="utf-8" standalone="no"?>
<!DOCTYPE svg PUBLIC "-//W3C//DTD SVG 1.1//EN"
  "http://www.w3.org/Graphics/SVG/1.1/DTD/svg11.dtd">
<svg xmlns:xlink="http://www.w3.org/1999/xlink" width="501.231776pt" height="407.600754pt" viewBox="0 0 501.231776 407.600754" xmlns="http://www.w3.org/2000/svg" version="1.1">
 <metadata>
  <rdf:RDF xmlns:dc="http://purl.org/dc/elements/1.1/" xmlns:cc="http://creativecommons.org/ns#" xmlns:rdf="http://www.w3.org/1999/02/22-rdf-syntax-ns#">
   <cc:Work>
    <dc:type rdf:resource="http://purl.org/dc/dcmitype/StillImage"/>
    <dc:date>2024-02-15T11:41:17.578659</dc:date>
    <dc:format>image/svg+xml</dc:format>
    <dc:creator>
     <cc:Agent>
      <dc:title>Matplotlib v3.8.2, https://matplotlib.org/</dc:title>
     </cc:Agent>
    </dc:creator>
   </cc:Work>
  </rdf:RDF>
 </metadata>
 <defs>
  <style type="text/css">*{stroke-linejoin: round; stroke-linecap: butt}</style>
 </defs>
 <g id="figure_1">
  <g id="patch_1">
   <path d="M 0 407.600754 
L 501.231776 407.600754 
L 501.231776 0 
L 0 0 
z
" style="fill: #ffffff"/>
  </g>
  <g id="axes_1">
   <g id="patch_2">
    <path d="M 66.660003 295.270534 
L 449.659548 295.270534 
L 449.659548 29.612625 
L 66.660003 29.612625 
z
" style="fill: #ffffff"/>
   </g>
   <g id="matplotlib.axis_1">
    <g id="xtick_1">
     <g id="line2d_1">
      <path d="M 432.250478 295.270534 
L 432.250478 29.612625 
" clip-path="url(#p6628c8bc47)" style="fill: none; stroke-dasharray: 2.96,1.28; stroke-dashoffset: 0; stroke: #b0b0b0; stroke-width: 0.8"/>
     </g>
     <g id="line2d_2">
      <defs>
       <path id="ma0e6d64aa3" d="M 0 0 
L 0 3.5 
" style="stroke: #000000; stroke-width: 0.8"/>
      </defs>
      <g>
       <use xlink:href="#ma0e6d64aa3" x="432.250478" y="295.270534" style="stroke: #000000; stroke-width: 0.8"/>
      </g>
     </g>
     <g id="text_1">
      <text style="font: 18px 'DejaVu Sans', 'Bitstream Vera Sans', 'Computer Modern Sans Serif', 'Lucida Grande', 'Verdana', 'Geneva', 'Lucid', 'Arial', 'Helvetica', 'Avant Garde', sans-serif; text-anchor: middle" x="432.250478" y="315.947722" transform="rotate(-0 432.250478 315.947722)">0.9999</text>
     </g>
    </g>
    <g id="xtick_2">
     <g id="line2d_3">
      <path d="M 351.297449 295.270534 
L 351.297449 29.612625 
" clip-path="url(#p6628c8bc47)" style="fill: none; stroke-dasharray: 2.96,1.28; stroke-dashoffset: 0; stroke: #b0b0b0; stroke-width: 0.8"/>
     </g>
     <g id="line2d_4">
      <g>
       <use xlink:href="#ma0e6d64aa3" x="351.297449" y="295.270534" style="stroke: #000000; stroke-width: 0.8"/>
      </g>
     </g>
     <g id="text_2">
      <text style="font: 18px 'DejaVu Sans', 'Bitstream Vera Sans', 'Computer Modern Sans Serif', 'Lucida Grande', 'Verdana', 'Geneva', 'Lucid', 'Arial', 'Helvetica', 'Avant Garde', sans-serif; text-anchor: middle" x="351.297449" y="315.947722" transform="rotate(-0 351.297449 315.947722)">0.999</text>
     </g>
    </g>
    <g id="xtick_3">
     <g id="line2d_5">
      <path d="M 270.344421 295.270534 
L 270.344421 29.612625 
" clip-path="url(#p6628c8bc47)" style="fill: none; stroke-dasharray: 2.96,1.28; stroke-dashoffset: 0; stroke: #b0b0b0; stroke-width: 0.8"/>
     </g>
     <g id="line2d_6">
      <g>
       <use xlink:href="#ma0e6d64aa3" x="270.344421" y="295.270534" style="stroke: #000000; stroke-width: 0.8"/>
      </g>
     </g>
     <g id="text_3">
      <text style="font: 18px 'DejaVu Sans', 'Bitstream Vera Sans', 'Computer Modern Sans Serif', 'Lucida Grande', 'Verdana', 'Geneva', 'Lucid', 'Arial', 'Helvetica', 'Avant Garde', sans-serif; text-anchor: middle" x="270.344421" y="315.947722" transform="rotate(-0 270.344421 315.947722)">0.99</text>
     </g>
    </g>
    <g id="xtick_4">
     <g id="line2d_7">
      <path d="M 189.391392 295.270534 
L 189.391392 29.612625 
" clip-path="url(#p6628c8bc47)" style="fill: none; stroke-dasharray: 2.96,1.28; stroke-dashoffset: 0; stroke: #b0b0b0; stroke-width: 0.8"/>
     </g>
     <g id="line2d_8">
      <g>
       <use xlink:href="#ma0e6d64aa3" x="189.391392" y="295.270534" style="stroke: #000000; stroke-width: 0.8"/>
      </g>
     </g>
     <g id="text_4">
      <text style="font: 18px 'DejaVu Sans', 'Bitstream Vera Sans', 'Computer Modern Sans Serif', 'Lucida Grande', 'Verdana', 'Geneva', 'Lucid', 'Arial', 'Helvetica', 'Avant Garde', sans-serif; text-anchor: middle" x="189.391392" y="315.947722" transform="rotate(-0 189.391392 315.947722)">0.9</text>
     </g>
    </g>
    <g id="xtick_5">
     <g id="line2d_9">
      <path d="M 108.438363 295.270534 
L 108.438363 29.612625 
" clip-path="url(#p6628c8bc47)" style="fill: none; stroke-dasharray: 2.96,1.28; stroke-dashoffset: 0; stroke: #b0b0b0; stroke-width: 0.8"/>
     </g>
     <g id="line2d_10">
      <g>
       <use xlink:href="#ma0e6d64aa3" x="108.438363" y="295.270534" style="stroke: #000000; stroke-width: 0.8"/>
      </g>
     </g>
     <g id="text_5">
      <text style="font: 18px 'DejaVu Sans', 'Bitstream Vera Sans', 'Computer Modern Sans Serif', 'Lucida Grande', 'Verdana', 'Geneva', 'Lucid', 'Arial', 'Helvetica', 'Avant Garde', sans-serif; text-anchor: middle" x="108.438363" y="315.947722" transform="rotate(-0 108.438363 315.947722)">0</text>
     </g>
    </g>
    <g id="xtick_6">
     <g id="line2d_11">
      <path d="M 83.909595 295.270534 
L 83.909595 29.612625 
" clip-path="url(#p6628c8bc47)" style="fill: none; stroke-dasharray: 2.96,1.28; stroke-dashoffset: 0; stroke: #b0b0b0; stroke-width: 0.8"/>
     </g>
     <g id="line2d_12">
      <g>
       <use xlink:href="#ma0e6d64aa3" x="83.909595" y="295.270534" style="stroke: #000000; stroke-width: 0.8"/>
      </g>
     </g>
     <g id="text_6">
      <text style="font: 18px 'DejaVu Sans', 'Bitstream Vera Sans', 'Computer Modern Sans Serif', 'Lucida Grande', 'Verdana', 'Geneva', 'Lucid', 'Arial', 'Helvetica', 'Avant Garde', sans-serif" transform="translate(16.871232 376.333119) rotate(-45)">univariate</text>
     </g>
    </g>
    <g id="text_7">
     <!-- double-Wilson $r$ -->
     <g transform="translate(187.869776 396.657317)">
      <text>
       <tspan style="font: 18px 'DejaVu Sans'" x="0 11.425781 22.438477 33.84668 45.272461 50.273438 61.347656 67.842773 85.640625 90.641602 95.642578 105.020508 116.033203 127.441406" y="-0.328125">double-Wilson </tspan>
       <tspan style="font: oblique 18px 'DejaVu Sans'" x="133.163086" y="-0.328125">r</tspan>
      </text>
     </g>
    </g>
   </g>
   <g id="matplotlib.axis_2">
    <g id="ytick_1">
     <g id="line2d_13">
      <path d="M 66.660003 256.393767 
L 449.659548 256.393767 
" clip-path="url(#p6628c8bc47)" style="fill: none; stroke-dasharray: 2.96,1.28; stroke-dashoffset: 0; stroke: #b0b0b0; stroke-width: 0.8"/>
     </g>
     <g id="line2d_14">
      <defs>
       <path id="me053f28f88" d="M 0 0 
L -3.5 0 
" style="stroke: #000000; stroke-width: 0.8"/>
      </defs>
      <g>
       <use xlink:href="#me053f28f88" x="66.660003" y="256.393767" style="stroke: #000000; stroke-width: 0.8"/>
      </g>
     </g>
     <g id="text_8">
      <text style="font: 18px 'DejaVu Sans', 'Bitstream Vera Sans', 'Computer Modern Sans Serif', 'Lucida Grande', 'Verdana', 'Geneva', 'Lucid', 'Arial', 'Helvetica', 'Avant Garde', sans-serif; text-anchor: end" x="59.660003" y="263.232361" transform="rotate(-0 59.660003 263.232361)">0.6</text>
     </g>
    </g>
    <g id="ytick_2">
     <g id="line2d_15">
      <path d="M 66.660003 191.599155 
L 449.659548 191.599155 
" clip-path="url(#p6628c8bc47)" style="fill: none; stroke-dasharray: 2.96,1.28; stroke-dashoffset: 0; stroke: #b0b0b0; stroke-width: 0.8"/>
     </g>
     <g id="line2d_16">
      <g>
       <use xlink:href="#me053f28f88" x="66.660003" y="191.599155" style="stroke: #000000; stroke-width: 0.8"/>
      </g>
     </g>
     <g id="text_9">
      <text style="font: 18px 'DejaVu Sans', 'Bitstream Vera Sans', 'Computer Modern Sans Serif', 'Lucida Grande', 'Verdana', 'Geneva', 'Lucid', 'Arial', 'Helvetica', 'Avant Garde', sans-serif; text-anchor: end" x="59.660003" y="198.437749" transform="rotate(-0 59.660003 198.437749)">0.7</text>
     </g>
    </g>
    <g id="ytick_3">
     <g id="line2d_17">
      <path d="M 66.660003 126.804543 
L 449.659548 126.804543 
" clip-path="url(#p6628c8bc47)" style="fill: none; stroke-dasharray: 2.96,1.28; stroke-dashoffset: 0; stroke: #b0b0b0; stroke-width: 0.8"/>
     </g>
     <g id="line2d_18">
      <g>
       <use xlink:href="#me053f28f88" x="66.660003" y="126.804543" style="stroke: #000000; stroke-width: 0.8"/>
      </g>
     </g>
     <g id="text_10">
      <text style="font: 18px 'DejaVu Sans', 'Bitstream Vera Sans', 'Computer Modern Sans Serif', 'Lucida Grande', 'Verdana', 'Geneva', 'Lucid', 'Arial', 'Helvetica', 'Avant Garde', sans-serif; text-anchor: end" x="59.660003" y="133.643137" transform="rotate(-0 59.660003 133.643137)">0.8</text>
     </g>
    </g>
    <g id="ytick_4">
     <g id="line2d_19">
      <path d="M 66.660003 62.009931 
L 449.659548 62.009931 
" clip-path="url(#p6628c8bc47)" style="fill: none; stroke-dasharray: 2.96,1.28; stroke-dashoffset: 0; stroke: #b0b0b0; stroke-width: 0.8"/>
     </g>
     <g id="line2d_20">
      <g>
       <use xlink:href="#me053f28f88" x="66.660003" y="62.009931" style="stroke: #000000; stroke-width: 0.8"/>
      </g>
     </g>
     <g id="text_11">
      <text style="font: 18px 'DejaVu Sans', 'Bitstream Vera Sans', 'Computer Modern Sans Serif', 'Lucida Grande', 'Verdana', 'Geneva', 'Lucid', 'Arial', 'Helvetica', 'Avant Garde', sans-serif; text-anchor: end" x="59.660003" y="68.848525" transform="rotate(-0 59.660003 68.848525)">0.9</text>
     </g>
    </g>
    <g id="text_12">
     <text style="font: 18px 'DejaVu Sans', 'Bitstream Vera Sans', 'Computer Modern Sans Serif', 'Lucida Grande', 'Verdana', 'Geneva', 'Lucid', 'Arial', 'Helvetica', 'Avant Garde', sans-serif; text-anchor: middle" x="23.29094" y="162.44158" transform="rotate(-90 23.29094 162.44158)">Correlation coefficient</text>
    </g>
   </g>
   <g id="line2d_21">
    <path d="M 84.069073 80.809664 
L 108.438363 81.721673 
L 132.807653 72.783775 
L 157.176943 66.671787 
L 181.546233 60.878329 
L 206.197913 55.816214 
L 230.567203 49.959643 
L 254.710399 47.527996 
L 279.079689 49.867934 
L 303.448979 47.30425 
L 326.928159 47.562635 
L 351.297449 45.496966 
L 375.666739 47.378774 
L 401.471226 44.56562 
L 432.250478 41.678932 
" clip-path="url(#p6628c8bc47)" style="fill: none; stroke: #000000; stroke-width: 1.5; stroke-linecap: square"/>
    <defs>
     <path id="m7b8e29194d" d="M 0 3 
C 0.795609 3 1.55874 2.683901 2.12132 2.12132 
C 2.683901 1.55874 3 0.795609 3 0 
C 3 -0.795609 2.683901 -1.55874 2.12132 -2.12132 
C 1.55874 -2.683901 0.795609 -3 0 -3 
C -0.795609 -3 -1.55874 -2.683901 -2.12132 -2.12132 
C -2.683901 -1.55874 -3 -0.795609 -3 0 
C -3 0.795609 -2.683901 1.55874 -2.12132 2.12132 
C -1.55874 2.683901 -0.795609 3 0 3 
z
" style="stroke: #000000"/>
    </defs>
    <g clip-path="url(#p6628c8bc47)">
     <use xlink:href="#m7b8e29194d" x="84.069073" y="80.809664" style="stroke: #000000"/>
     <use xlink:href="#m7b8e29194d" x="108.438363" y="81.721673" style="stroke: #000000"/>
     <use xlink:href="#m7b8e29194d" x="132.807653" y="72.783775" style="stroke: #000000"/>
     <use xlink:href="#m7b8e29194d" x="157.176943" y="66.671787" style="stroke: #000000"/>
     <use xlink:href="#m7b8e29194d" x="181.546233" y="60.878329" style="stroke: #000000"/>
     <use xlink:href="#m7b8e29194d" x="206.197913" y="55.816214" style="stroke: #000000"/>
     <use xlink:href="#m7b8e29194d" x="230.567203" y="49.959643" style="stroke: #000000"/>
     <use xlink:href="#m7b8e29194d" x="254.710399" y="47.527996" style="stroke: #000000"/>
     <use xlink:href="#m7b8e29194d" x="279.079689" y="49.867934" style="stroke: #000000"/>
     <use xlink:href="#m7b8e29194d" x="303.448979" y="47.30425" style="stroke: #000000"/>
     <use xlink:href="#m7b8e29194d" x="326.928159" y="47.562635" style="stroke: #000000"/>
     <use xlink:href="#m7b8e29194d" x="351.297449" y="45.496966" style="stroke: #000000"/>
     <use xlink:href="#m7b8e29194d" x="375.666739" y="47.378774" style="stroke: #000000"/>
     <use xlink:href="#m7b8e29194d" x="401.471226" y="44.56562" style="stroke: #000000"/>
     <use xlink:href="#m7b8e29194d" x="432.250478" y="41.678932" style="stroke: #000000"/>
    </g>
   </g>
   <g id="line2d_22">
    <path d="M 84.069073 76.26586 
L 108.438363 99.243079 
L 132.807653 76.712962 
L 157.176943 77.948822 
L 181.546233 82.33315 
L 206.197913 75.827512 
L 230.567203 79.692144 
L 254.710399 92.085021 
L 279.079689 76.946045 
L 303.448979 76.739386 
L 326.928159 87.325639 
L 351.297449 88.427958 
L 375.666739 126.803558 
L 401.471226 276.25189 
L 432.250478 138.565397 
" clip-path="url(#p6628c8bc47)" style="fill: none; stroke-dasharray: 5.55,2.4; stroke-dashoffset: 0; stroke: #808080; stroke-width: 1.5"/>
    <defs>
     <path id="m6a81c83986" d="M 0 3 
C 0.795609 3 1.55874 2.683901 2.12132 2.12132 
C 2.683901 1.55874 3 0.795609 3 0 
C 3 -0.795609 2.683901 -1.55874 2.12132 -2.12132 
C 1.55874 -2.683901 0.795609 -3 0 -3 
C -0.795609 -3 -1.55874 -2.683901 -2.12132 -2.12132 
C -2.683901 -1.55874 -3 -0.795609 -3 0 
C -3 0.795609 -2.683901 1.55874 -2.12132 2.12132 
C -1.55874 2.683901 -0.795609 3 0 3 
z
" style="stroke: #808080"/>
    </defs>
    <g clip-path="url(#p6628c8bc47)">
     <use xlink:href="#m6a81c83986" x="84.069073" y="76.26586" style="fill: #808080; stroke: #808080"/>
     <use xlink:href="#m6a81c83986" x="108.438363" y="99.243079" style="fill: #808080; stroke: #808080"/>
     <use xlink:href="#m6a81c83986" x="132.807653" y="76.712962" style="fill: #808080; stroke: #808080"/>
     <use xlink:href="#m6a81c83986" x="157.176943" y="77.948822" style="fill: #808080; stroke: #808080"/>
     <use xlink:href="#m6a81c83986" x="181.546233" y="82.33315" style="fill: #808080; stroke: #808080"/>
     <use xlink:href="#m6a81c83986" x="206.197913" y="75.827512" style="fill: #808080; stroke: #808080"/>
     <use xlink:href="#m6a81c83986" x="230.567203" y="79.692144" style="fill: #808080; stroke: #808080"/>
     <use xlink:href="#m6a81c83986" x="254.710399" y="92.085021" style="fill: #808080; stroke: #808080"/>
     <use xlink:href="#m6a81c83986" x="279.079689" y="76.946045" style="fill: #808080; stroke: #808080"/>
     <use xlink:href="#m6a81c83986" x="303.448979" y="76.739386" style="fill: #808080; stroke: #808080"/>
     <use xlink:href="#m6a81c83986" x="326.928159" y="87.325639" style="fill: #808080; stroke: #808080"/>
     <use xlink:href="#m6a81c83986" x="351.297449" y="88.427958" style="fill: #808080; stroke: #808080"/>
     <use xlink:href="#m6a81c83986" x="375.666739" y="126.803558" style="fill: #808080; stroke: #808080"/>
     <use xlink:href="#m6a81c83986" x="401.471226" y="276.25189" style="fill: #808080; stroke: #808080"/>
     <use xlink:href="#m6a81c83986" x="432.250478" y="138.565397" style="fill: #808080; stroke: #808080"/>
    </g>
   </g>
   <g id="line2d_23">
    <path d="M 84.069073 86.420848 
L 108.438363 113.823506 
L 132.807653 90.568331 
L 157.176943 94.090229 
L 181.546233 95.345495 
L 206.197913 85.10955 
L 230.567203 105.500917 
L 254.710399 127.231711 
L 279.079689 95.33956 
L 303.448979 85.00596 
L 326.928159 94.400404 
L 351.297449 96.567872 
L 375.666739 210.156873 
L 401.471226 287.522897 
L 432.250478 219.0595 
" clip-path="url(#p6628c8bc47)" style="fill: none; stroke-dasharray: 1.5,2.475; stroke-dashoffset: 0; stroke: #808080; stroke-width: 1.5"/>
    <g clip-path="url(#p6628c8bc47)">
     <use xlink:href="#m6a81c83986" x="84.069073" y="86.420848" style="fill: #808080; stroke: #808080"/>
     <use xlink:href="#m6a81c83986" x="108.438363" y="113.823506" style="fill: #808080; stroke: #808080"/>
     <use xlink:href="#m6a81c83986" x="132.807653" y="90.568331" style="fill: #808080; stroke: #808080"/>
     <use xlink:href="#m6a81c83986" x="157.176943" y="94.090229" style="fill: #808080; stroke: #808080"/>
     <use xlink:href="#m6a81c83986" x="181.546233" y="95.345495" style="fill: #808080; stroke: #808080"/>
     <use xlink:href="#m6a81c83986" x="206.197913" y="85.10955" style="fill: #808080; stroke: #808080"/>
     <use xlink:href="#m6a81c83986" x="230.567203" y="105.500917" style="fill: #808080; stroke: #808080"/>
     <use xlink:href="#m6a81c83986" x="254.710399" y="127.231711" style="fill: #808080; stroke: #808080"/>
     <use xlink:href="#m6a81c83986" x="279.079689" y="95.33956" style="fill: #808080; stroke: #808080"/>
     <use xlink:href="#m6a81c83986" x="303.448979" y="85.00596" style="fill: #808080; stroke: #808080"/>
     <use xlink:href="#m6a81c83986" x="326.928159" y="94.400404" style="fill: #808080; stroke: #808080"/>
     <use xlink:href="#m6a81c83986" x="351.297449" y="96.567872" style="fill: #808080; stroke: #808080"/>
     <use xlink:href="#m6a81c83986" x="375.666739" y="210.156873" style="fill: #808080; stroke: #808080"/>
     <use xlink:href="#m6a81c83986" x="401.471226" y="287.522897" style="fill: #808080; stroke: #808080"/>
     <use xlink:href="#m6a81c83986" x="432.250478" y="219.0595" style="fill: #808080; stroke: #808080"/>
    </g>
   </g>
   <g id="patch_3">
    <path d="M 66.660003 295.270534 
L 66.660003 29.612625 
" style="fill: none; stroke: #000000; stroke-width: 0.8; stroke-linejoin: miter; stroke-linecap: square"/>
   </g>
   <g id="patch_4">
    <path d="M 449.659548 295.270534 
L 449.659548 29.612625 
" style="fill: none; stroke: #000000; stroke-width: 0.8; stroke-linejoin: miter; stroke-linecap: square"/>
   </g>
   <g id="patch_5">
    <path d="M 66.660003 295.270534 
L 449.659548 295.270534 
" style="fill: none; stroke: #000000; stroke-width: 0.8; stroke-linejoin: miter; stroke-linecap: square"/>
   </g>
   <g id="patch_6">
    <path d="M 66.660003 29.612625 
L 449.659548 29.612625 
" style="fill: none; stroke: #000000; stroke-width: 0.8; stroke-linejoin: miter; stroke-linecap: square"/>
   </g>
   <g id="text_13">
    <text style="font: 21.6px 'DejaVu Sans', 'Bitstream Vera Sans', 'Computer Modern Sans Serif', 'Lucida Grande', 'Verdana', 'Geneva', 'Lucid', 'Arial', 'Helvetica', 'Avant Garde', sans-serif; text-anchor: middle" x="258.159776" y="23.612625" transform="rotate(-0 258.159776 23.612625)">Merging correlation coefficient, thermolysin</text>
   </g>
   <g id="legend_1">
    <g id="patch_7">
     <path d="M 79.260003 286.270534 
L 229.020003 286.270534 
Q 232.620003 286.270534 232.620003 282.670534 
L 232.620003 201.138972 
Q 232.620003 197.538972 229.020003 197.538972 
L 79.260003 197.538972 
Q 75.660003 197.538972 75.660003 201.138972 
L 75.660003 282.670534 
Q 75.660003 286.270534 79.260003 286.270534 
z
" style="fill: #ffffff; opacity: 0.8; stroke: #cccccc; stroke-linejoin: miter"/>
    </g>
    <g id="line2d_24">
     <path d="M 82.860003 212.116159 
L 100.860003 212.116159 
L 118.860003 212.116159 
" style="fill: none; stroke: #000000; stroke-width: 1.5; stroke-linecap: square"/>
     <g>
      <use xlink:href="#m7b8e29194d" x="100.860003" y="212.116159" style="stroke: #000000"/>
     </g>
    </g>
    <g id="text_14">
     <!-- CC$_\text{1/2}$ -->
     <g transform="translate(133.260003 218.416159)">
      <text>
       <tspan style="font: 18px 'DejaVu Sans'" x="0 12.568359" y="-0.640625">CC</tspan>
       <tspan style="font: 12.6px 'DejaVu Sans'" x="25.308984 33.325488 37.133105" y="2.3125">1/2</tspan>
      </text>
     </g>
    </g>
    <g id="line2d_25">
     <path d="M 82.860003 238.933347 
L 100.860003 238.933347 
L 118.860003 238.933347 
" style="fill: none; stroke-dasharray: 5.55,2.4; stroke-dashoffset: 0; stroke: #808080; stroke-width: 1.5"/>
     <g>
      <use xlink:href="#m6a81c83986" x="100.860003" y="238.933347" style="fill: #808080; stroke: #808080"/>
     </g>
    </g>
    <g id="text_15">
     <!-- CC$_\text{pred, train}$ -->
     <g transform="translate(133.260003 245.233347)">
      <text>
       <tspan style="font: 18px 'DejaVu Sans'" x="0 12.568359" y="-0.640625">CC</tspan>
       <tspan style="font: 12.6px 'DejaVu Sans'" x="25.308984 33.307031 38.487305 46.239258 54.237305 58.24248 62.247656 67.187988 72.368262 80.089453 83.590137" y="2.3125">pred, train</tspan>
      </text>
     </g>
    </g>
    <g id="line2d_26">
     <path d="M 82.860003 267.190534 
L 100.860003 267.190534 
L 118.860003 267.190534 
" style="fill: none; stroke-dasharray: 1.5,2.475; stroke-dashoffset: 0; stroke: #808080; stroke-width: 1.5"/>
     <g>
      <use xlink:href="#m6a81c83986" x="100.860003" y="267.190534" style="fill: #808080; stroke: #808080"/>
     </g>
    </g>
    <g id="text_16">
     <!-- CC$_\text{pred, test}$ -->
     <g transform="translate(133.260003 273.490534)">
      <text>
       <tspan style="font: 18px 'DejaVu Sans'" x="0 12.568359" y="-0.640625">CC</tspan>
       <tspan style="font: 12.6px 'DejaVu Sans'" x="25.308984 33.307031 38.487305 46.239258 54.237305 58.24248 62.247656 67.187988 74.939941 81.504492" y="2.3125">pred, test</tspan>
      </text>
     </g>
    </g>
   </g>
  </g>
 </g>
 <defs>
  <clipPath id="p6628c8bc47">
   <rect x="66.660003" y="29.612625" width="382.999545" height="265.657909"/>
  </clipPath>
 </defs>
</svg>
