<?xml version="1.0" encoding="utf-8" standalone="no"?>
<!DOCTYPE svg PUBLIC "-//W3C//DTD SVG 1.1//EN"
  "http://www.w3.org/Graphics/SVG/1.1/DTD/svg11.dtd">
<svg xmlns:xlink="http://www.w3.org/1999/xlink" width="551.7pt" height="385.937115pt" viewBox="0 0 551.7 385.937115" xmlns="http://www.w3.org/2000/svg" version="1.1">
 <metadata>
  <rdf:RDF xmlns:dc="http://purl.org/dc/elements/1.1/" xmlns:cc="http://creativecommons.org/ns#" xmlns:rdf="http://www.w3.org/1999/02/22-rdf-syntax-ns#">
   <cc:Work>
    <dc:type rdf:resource="http://purl.org/dc/dcmitype/StillImage"/>
    <dc:date>2024-10-15T15:42:04.482738</dc:date>
    <dc:format>image/svg+xml</dc:format>
    <dc:creator>
     <cc:Agent>
      <dc:title>Matplotlib v3.8.2, https://matplotlib.org/</dc:title>
     </cc:Agent>
    </dc:creator>
   </cc:Work>
  </rdf:RDF>
 </metadata>
 <defs>
  <style type="text/css">*{stroke-linejoin: round; stroke-linecap: butt}</style>
 </defs>
 <g id="figure_1">
  <g id="patch_1">
   <path d="M 0 385.937115 
L 551.7 385.937115 
L 551.7 0 
L 0 0 
z
" style="fill: #ffffff"/>
  </g>
  <g id="axes_1">
   <g id="patch_2">
    <path d="M 58.525625 273.606895 
L 404.825625 273.606895 
L 404.825625 29.612625 
L 58.525625 29.612625 
z
" style="fill: #ffffff"/>
   </g>
   <g id="matplotlib.axis_1">
    <g id="xtick_1">
     <g id="line2d_1">
      <path d="M 389.084716 273.606895 
L 389.084716 29.612625 
" clip-path="url(#p98de007b77)" style="fill: none; stroke-dasharray: 2.96,1.28; stroke-dashoffset: 0; stroke: #b0b0b0; stroke-width: 0.8"/>
     </g>
     <g id="line2d_2">
      <defs>
       <path id="m7d0efec088" d="M 0 0 
L 0 3.5 
" style="stroke: #000000; stroke-width: 0.8"/>
      </defs>
      <g>
       <use xlink:href="#m7d0efec088" x="389.084716" y="273.606895" style="stroke: #000000; stroke-width: 0.8"/>
      </g>
     </g>
     <g id="text_1">
      <text style="font: 18px 'DejaVu Sans', 'Bitstream Vera Sans', 'Computer Modern Sans Serif', 'Lucida Grande', 'Verdana', 'Geneva', 'Lucid', 'Arial', 'Helvetica', 'Avant Garde', sans-serif; text-anchor: middle" x="389.084716" y="294.284082" transform="rotate(-0 389.084716 294.284082)">0.9999</text>
     </g>
    </g>
    <g id="xtick_2">
     <g id="line2d_3">
      <path d="M 320.676616 273.606895 
L 320.676616 29.612625 
" clip-path="url(#p98de007b77)" style="fill: none; stroke-dasharray: 2.96,1.28; stroke-dashoffset: 0; stroke: #b0b0b0; stroke-width: 0.8"/>
     </g>
     <g id="line2d_4">
      <g>
       <use xlink:href="#m7d0efec088" x="320.676616" y="273.606895" style="stroke: #000000; stroke-width: 0.8"/>
      </g>
     </g>
     <g id="text_2">
      <text style="font: 18px 'DejaVu Sans', 'Bitstream Vera Sans', 'Computer Modern Sans Serif', 'Lucida Grande', 'Verdana', 'Geneva', 'Lucid', 'Arial', 'Helvetica', 'Avant Garde', sans-serif; text-anchor: middle" x="320.676616" y="294.284082" transform="rotate(-0 320.676616 294.284082)">0.999</text>
     </g>
    </g>
    <g id="xtick_3">
     <g id="line2d_5">
      <path d="M 252.268515 273.606895 
L 252.268515 29.612625 
" clip-path="url(#p98de007b77)" style="fill: none; stroke-dasharray: 2.96,1.28; stroke-dashoffset: 0; stroke: #b0b0b0; stroke-width: 0.8"/>
     </g>
     <g id="line2d_6">
      <g>
       <use xlink:href="#m7d0efec088" x="252.268515" y="273.606895" style="stroke: #000000; stroke-width: 0.8"/>
      </g>
     </g>
     <g id="text_3">
      <text style="font: 18px 'DejaVu Sans', 'Bitstream Vera Sans', 'Computer Modern Sans Serif', 'Lucida Grande', 'Verdana', 'Geneva', 'Lucid', 'Arial', 'Helvetica', 'Avant Garde', sans-serif; text-anchor: middle" x="252.268515" y="294.284082" transform="rotate(-0 252.268515 294.284082)">0.99</text>
     </g>
    </g>
    <g id="xtick_4">
     <g id="line2d_7">
      <path d="M 183.860415 273.606895 
L 183.860415 29.612625 
" clip-path="url(#p98de007b77)" style="fill: none; stroke-dasharray: 2.96,1.28; stroke-dashoffset: 0; stroke: #b0b0b0; stroke-width: 0.8"/>
     </g>
     <g id="line2d_8">
      <g>
       <use xlink:href="#m7d0efec088" x="183.860415" y="273.606895" style="stroke: #000000; stroke-width: 0.8"/>
      </g>
     </g>
     <g id="text_4">
      <text style="font: 18px 'DejaVu Sans', 'Bitstream Vera Sans', 'Computer Modern Sans Serif', 'Lucida Grande', 'Verdana', 'Geneva', 'Lucid', 'Arial', 'Helvetica', 'Avant Garde', sans-serif; text-anchor: middle" x="183.860415" y="294.284082" transform="rotate(-0 183.860415 294.284082)">0.9</text>
     </g>
    </g>
    <g id="xtick_5">
     <g id="line2d_9">
      <path d="M 115.452314 273.606895 
L 115.452314 29.612625 
" clip-path="url(#p98de007b77)" style="fill: none; stroke-dasharray: 2.96,1.28; stroke-dashoffset: 0; stroke: #b0b0b0; stroke-width: 0.8"/>
     </g>
     <g id="line2d_10">
      <g>
       <use xlink:href="#m7d0efec088" x="115.452314" y="273.606895" style="stroke: #000000; stroke-width: 0.8"/>
      </g>
     </g>
     <g id="text_5">
      <text style="font: 18px 'DejaVu Sans', 'Bitstream Vera Sans', 'Computer Modern Sans Serif', 'Lucida Grande', 'Verdana', 'Geneva', 'Lucid', 'Arial', 'Helvetica', 'Avant Garde', sans-serif; text-anchor: middle" x="115.452314" y="294.284082" transform="rotate(-0 115.452314 294.284082)">0</text>
     </g>
    </g>
    <g id="xtick_6">
     <g id="line2d_11">
      <path d="M 94.72466 273.606895 
L 94.72466 29.612625 
" clip-path="url(#p98de007b77)" style="fill: none; stroke-dasharray: 2.96,1.28; stroke-dashoffset: 0; stroke: #b0b0b0; stroke-width: 0.8"/>
     </g>
     <g id="line2d_12">
      <g>
       <use xlink:href="#m7d0efec088" x="94.72466" y="273.606895" style="stroke: #000000; stroke-width: 0.8"/>
      </g>
     </g>
     <g id="text_6">
      <text style="font: 18px 'DejaVu Sans', 'Bitstream Vera Sans', 'Computer Modern Sans Serif', 'Lucida Grande', 'Verdana', 'Geneva', 'Lucid', 'Arial', 'Helvetica', 'Avant Garde', sans-serif" transform="translate(27.686297 354.66948) rotate(-45)">univariate</text>
     </g>
    </g>
    <g id="xtick_7">
     <g id="line2d_13">
      <path d="M 73.997006 273.606895 
L 73.997006 29.612625 
" clip-path="url(#p98de007b77)" style="fill: none; stroke-dasharray: 2.96,1.28; stroke-dashoffset: 0; stroke: #b0b0b0; stroke-width: 0.8"/>
     </g>
     <g id="line2d_14">
      <g>
       <use xlink:href="#m7d0efec088" x="73.997006" y="273.606895" style="stroke: #000000; stroke-width: 0.8"/>
      </g>
     </g>
     <g id="text_7">
      <text style="font: 18px 'DejaVu Sans', 'Bitstream Vera Sans', 'Computer Modern Sans Serif', 'Lucida Grande', 'Verdana', 'Geneva', 'Lucid', 'Arial', 'Helvetica', 'Avant Garde', sans-serif" transform="translate(28.349506 333.278616) rotate(-45)">CCTBX</text>
     </g>
    </g>
    <g id="text_8">
     <!-- double-Wilson $r$ -->
     <g transform="translate(161.385625 374.993677)">
      <text>
       <tspan style="font: 18px 'DejaVu Sans'" x="0 11.425781 22.438477 33.84668 45.272461 50.273438 61.347656 67.842773 85.640625 90.641602 95.642578 105.020508 116.033203 127.441406" y="-0.328125">double-Wilson </tspan>
       <tspan style="font: oblique 18px 'DejaVu Sans'" x="133.163086" y="-0.328125">r</tspan>
      </text>
     </g>
    </g>
   </g>
   <g id="matplotlib.axis_2">
    <g id="ytick_1">
     <g id="line2d_15">
      <path d="M 58.525625 241.074325 
L 404.825625 241.074325 
" clip-path="url(#p98de007b77)" style="fill: none; stroke-dasharray: 2.96,1.28; stroke-dashoffset: 0; stroke: #b0b0b0; stroke-width: 0.8"/>
     </g>
     <g id="line2d_16">
      <defs>
       <path id="mf4d17e1c5e" d="M 0 0 
L -3.5 0 
" style="stroke: #000000; stroke-width: 0.8"/>
      </defs>
      <g>
       <use xlink:href="#mf4d17e1c5e" x="58.525625" y="241.074325" style="stroke: #000000; stroke-width: 0.8"/>
      </g>
     </g>
     <g id="text_9">
      <text style="font: 18px 'DejaVu Sans', 'Bitstream Vera Sans', 'Computer Modern Sans Serif', 'Lucida Grande', 'Verdana', 'Geneva', 'Lucid', 'Arial', 'Helvetica', 'Avant Garde', sans-serif; text-anchor: end" x="51.525625" y="247.912919" transform="rotate(-0 51.525625 247.912919)">5</text>
     </g>
    </g>
    <g id="ytick_2">
     <g id="line2d_17">
      <path d="M 58.525625 200.408614 
L 404.825625 200.408614 
" clip-path="url(#p98de007b77)" style="fill: none; stroke-dasharray: 2.96,1.28; stroke-dashoffset: 0; stroke: #b0b0b0; stroke-width: 0.8"/>
     </g>
     <g id="line2d_18">
      <g>
       <use xlink:href="#mf4d17e1c5e" x="58.525625" y="200.408614" style="stroke: #000000; stroke-width: 0.8"/>
      </g>
     </g>
     <g id="text_10">
      <text style="font: 18px 'DejaVu Sans', 'Bitstream Vera Sans', 'Computer Modern Sans Serif', 'Lucida Grande', 'Verdana', 'Geneva', 'Lucid', 'Arial', 'Helvetica', 'Avant Garde', sans-serif; text-anchor: end" x="51.525625" y="207.247207" transform="rotate(-0 51.525625 207.247207)">10</text>
     </g>
    </g>
    <g id="ytick_3">
     <g id="line2d_19">
      <path d="M 58.525625 159.742902 
L 404.825625 159.742902 
" clip-path="url(#p98de007b77)" style="fill: none; stroke-dasharray: 2.96,1.28; stroke-dashoffset: 0; stroke: #b0b0b0; stroke-width: 0.8"/>
     </g>
     <g id="line2d_20">
      <g>
       <use xlink:href="#mf4d17e1c5e" x="58.525625" y="159.742902" style="stroke: #000000; stroke-width: 0.8"/>
      </g>
     </g>
     <g id="text_11">
      <text style="font: 18px 'DejaVu Sans', 'Bitstream Vera Sans', 'Computer Modern Sans Serif', 'Lucida Grande', 'Verdana', 'Geneva', 'Lucid', 'Arial', 'Helvetica', 'Avant Garde', sans-serif; text-anchor: end" x="51.525625" y="166.581496" transform="rotate(-0 51.525625 166.581496)">15</text>
     </g>
    </g>
    <g id="ytick_4">
     <g id="line2d_21">
      <path d="M 58.525625 119.077191 
L 404.825625 119.077191 
" clip-path="url(#p98de007b77)" style="fill: none; stroke-dasharray: 2.96,1.28; stroke-dashoffset: 0; stroke: #b0b0b0; stroke-width: 0.8"/>
     </g>
     <g id="line2d_22">
      <g>
       <use xlink:href="#mf4d17e1c5e" x="58.525625" y="119.077191" style="stroke: #000000; stroke-width: 0.8"/>
      </g>
     </g>
     <g id="text_12">
      <text style="font: 18px 'DejaVu Sans', 'Bitstream Vera Sans', 'Computer Modern Sans Serif', 'Lucida Grande', 'Verdana', 'Geneva', 'Lucid', 'Arial', 'Helvetica', 'Avant Garde', sans-serif; text-anchor: end" x="51.525625" y="125.915784" transform="rotate(-0 51.525625 125.915784)">20</text>
     </g>
    </g>
    <g id="ytick_5">
     <g id="line2d_23">
      <path d="M 58.525625 78.411479 
L 404.825625 78.411479 
" clip-path="url(#p98de007b77)" style="fill: none; stroke-dasharray: 2.96,1.28; stroke-dashoffset: 0; stroke: #b0b0b0; stroke-width: 0.8"/>
     </g>
     <g id="line2d_24">
      <g>
       <use xlink:href="#mf4d17e1c5e" x="58.525625" y="78.411479" style="stroke: #000000; stroke-width: 0.8"/>
      </g>
     </g>
     <g id="text_13">
      <text style="font: 18px 'DejaVu Sans', 'Bitstream Vera Sans', 'Computer Modern Sans Serif', 'Lucida Grande', 'Verdana', 'Geneva', 'Lucid', 'Arial', 'Helvetica', 'Avant Garde', sans-serif; text-anchor: end" x="51.525625" y="85.250073" transform="rotate(-0 51.525625 85.250073)">25</text>
     </g>
    </g>
    <g id="ytick_6">
     <g id="line2d_25">
      <path d="M 58.525625 37.745767 
L 404.825625 37.745767 
" clip-path="url(#p98de007b77)" style="fill: none; stroke-dasharray: 2.96,1.28; stroke-dashoffset: 0; stroke: #b0b0b0; stroke-width: 0.8"/>
     </g>
     <g id="line2d_26">
      <g>
       <use xlink:href="#mf4d17e1c5e" x="58.525625" y="37.745767" style="stroke: #000000; stroke-width: 0.8"/>
      </g>
     </g>
     <g id="text_14">
      <text style="font: 18px 'DejaVu Sans', 'Bitstream Vera Sans', 'Computer Modern Sans Serif', 'Lucida Grande', 'Verdana', 'Geneva', 'Lucid', 'Arial', 'Helvetica', 'Avant Garde', sans-serif; text-anchor: end" x="51.525625" y="44.584361" transform="rotate(-0 51.525625 44.584361)">30</text>
     </g>
    </g>
    <g id="text_15">
     <text style="font: 18px 'DejaVu Sans', 'Bitstream Vera Sans', 'Computer Modern Sans Serif', 'Lucida Grande', 'Verdana', 'Geneva', 'Lucid', 'Arial', 'Helvetica', 'Avant Garde', sans-serif; text-anchor: middle" x="20.877188" y="151.60976" transform="rotate(-90 20.877188 151.60976)">anomalous peak height (σ)</text>
    </g>
   </g>
   <g id="line2d_27">
    <path d="M 74.266534 118.507871 
L 94.859424 168.61616 
L 115.452314 163.085624 
L 136.045205 158.148806 
L 156.638095 132.464343 
L 177.230985 123.770014 
L 198.062505 93.474058 
L 218.655395 84.389339 
L 239.057228 68.676108 
L 259.650118 57.167711 
L 280.243009 48.611645 
L 300.083725 60.34777 
L 320.676616 79.070263 
L 341.269506 106.332556 
L 363.075187 162.337375 
L 389.084716 195.219669 
" clip-path="url(#p98de007b77)" style="fill: none; stroke: #000000; stroke-width: 1.5; stroke-linecap: square"/>
    <defs>
     <path id="mb3fd3a7562" d="M 0 3 
C 0.795609 3 1.55874 2.683901 2.12132 2.12132 
C 2.683901 1.55874 3 0.795609 3 0 
C 3 -0.795609 2.683901 -1.55874 2.12132 -2.12132 
C 1.55874 -2.683901 0.795609 -3 0 -3 
C -0.795609 -3 -1.55874 -2.683901 -2.12132 -2.12132 
C -2.683901 -1.55874 -3 -0.795609 -3 0 
C -3 0.795609 -2.683901 1.55874 -2.12132 2.12132 
C -1.55874 2.683901 -0.795609 3 0 3 
z
" style="stroke: #000000"/>
    </defs>
    <g clip-path="url(#p98de007b77)">
     <use xlink:href="#mb3fd3a7562" x="74.266534" y="118.507871" style="stroke: #000000"/>
     <use xlink:href="#mb3fd3a7562" x="94.859424" y="168.61616" style="stroke: #000000"/>
     <use xlink:href="#mb3fd3a7562" x="115.452314" y="163.085624" style="stroke: #000000"/>
     <use xlink:href="#mb3fd3a7562" x="136.045205" y="158.148806" style="stroke: #000000"/>
     <use xlink:href="#mb3fd3a7562" x="156.638095" y="132.464343" style="stroke: #000000"/>
     <use xlink:href="#mb3fd3a7562" x="177.230985" y="123.770014" style="stroke: #000000"/>
     <use xlink:href="#mb3fd3a7562" x="198.062505" y="93.474058" style="stroke: #000000"/>
     <use xlink:href="#mb3fd3a7562" x="218.655395" y="84.389339" style="stroke: #000000"/>
     <use xlink:href="#mb3fd3a7562" x="239.057228" y="68.676108" style="stroke: #000000"/>
     <use xlink:href="#mb3fd3a7562" x="259.650118" y="57.167711" style="stroke: #000000"/>
     <use xlink:href="#mb3fd3a7562" x="280.243009" y="48.611645" style="stroke: #000000"/>
     <use xlink:href="#mb3fd3a7562" x="300.083725" y="60.34777" style="stroke: #000000"/>
     <use xlink:href="#mb3fd3a7562" x="320.676616" y="79.070263" style="stroke: #000000"/>
     <use xlink:href="#mb3fd3a7562" x="341.269506" y="106.332556" style="stroke: #000000"/>
     <use xlink:href="#mb3fd3a7562" x="363.075187" y="162.337375" style="stroke: #000000"/>
     <use xlink:href="#mb3fd3a7562" x="389.084716" y="195.219669" style="stroke: #000000"/>
    </g>
   </g>
   <g id="line2d_28">
    <path d="M 74.266534 231.558549 
L 94.859424 239.838088 
L 115.452314 245.271027 
L 136.045205 244.29505 
L 156.638095 232.331197 
L 177.230985 226.450935 
L 198.062505 227.247983 
L 218.655395 221.392121 
L 239.057228 223.531137 
L 259.650118 224.214321 
L 280.243009 218.260861 
L 300.083725 228.630618 
L 320.676616 229.793657 
L 341.269506 244.652908 
L 363.075187 244.913168 
L 389.084716 263.692594 
" clip-path="url(#p98de007b77)" style="fill: none; stroke: #355f8d; stroke-width: 1.5; stroke-linecap: square"/>
    <defs>
     <path id="mccfed02a2a" d="M 0 3 
C 0.795609 3 1.55874 2.683901 2.12132 2.12132 
C 2.683901 1.55874 3 0.795609 3 0 
C 3 -0.795609 2.683901 -1.55874 2.12132 -2.12132 
C 1.55874 -2.683901 0.795609 -3 0 -3 
C -0.795609 -3 -1.55874 -2.683901 -2.12132 -2.12132 
C -2.683901 -1.55874 -3 -0.795609 -3 0 
C -3 0.795609 -2.683901 1.55874 -2.12132 2.12132 
C -1.55874 2.683901 -0.795609 3 0 3 
z
" style="stroke: #355f8d"/>
    </defs>
    <g clip-path="url(#p98de007b77)">
     <use xlink:href="#mccfed02a2a" x="74.266534" y="231.558549" style="fill: #355f8d; stroke: #355f8d"/>
     <use xlink:href="#mccfed02a2a" x="94.859424" y="239.838088" style="fill: #355f8d; stroke: #355f8d"/>
     <use xlink:href="#mccfed02a2a" x="115.452314" y="245.271027" style="fill: #355f8d; stroke: #355f8d"/>
     <use xlink:href="#mccfed02a2a" x="136.045205" y="244.29505" style="fill: #355f8d; stroke: #355f8d"/>
     <use xlink:href="#mccfed02a2a" x="156.638095" y="232.331197" style="fill: #355f8d; stroke: #355f8d"/>
     <use xlink:href="#mccfed02a2a" x="177.230985" y="226.450935" style="fill: #355f8d; stroke: #355f8d"/>
     <use xlink:href="#mccfed02a2a" x="198.062505" y="227.247983" style="fill: #355f8d; stroke: #355f8d"/>
     <use xlink:href="#mccfed02a2a" x="218.655395" y="221.392121" style="fill: #355f8d; stroke: #355f8d"/>
     <use xlink:href="#mccfed02a2a" x="239.057228" y="223.531137" style="fill: #355f8d; stroke: #355f8d"/>
     <use xlink:href="#mccfed02a2a" x="259.650118" y="224.214321" style="fill: #355f8d; stroke: #355f8d"/>
     <use xlink:href="#mccfed02a2a" x="280.243009" y="218.260861" style="fill: #355f8d; stroke: #355f8d"/>
     <use xlink:href="#mccfed02a2a" x="300.083725" y="228.630618" style="fill: #355f8d; stroke: #355f8d"/>
     <use xlink:href="#mccfed02a2a" x="320.676616" y="229.793657" style="fill: #355f8d; stroke: #355f8d"/>
     <use xlink:href="#mccfed02a2a" x="341.269506" y="244.652908" style="fill: #355f8d; stroke: #355f8d"/>
     <use xlink:href="#mccfed02a2a" x="363.075187" y="244.913168" style="fill: #355f8d; stroke: #355f8d"/>
     <use xlink:href="#mccfed02a2a" x="389.084716" y="263.692594" style="fill: #355f8d; stroke: #355f8d"/>
    </g>
   </g>
   <g id="line2d_29">
    <path d="M 74.266534 250.752765 
L 94.859424 262.659685 
L 115.452314 265.221625 
L 136.045205 253.778294 
L 156.638095 256.877021 
L 177.230985 253.851492 
L 198.062505 249.215601 
L 218.655395 249.296932 
L 239.057228 245.271027 
L 259.650118 243.229608 
L 280.243009 239.805555 
L 300.083725 243.538667 
L 320.676616 251.135022 
L 341.269506 246.865123 
L 363.075187 246.271403 
L 389.084716 264.888166 
" clip-path="url(#p98de007b77)" style="fill: none; stroke: #23888e; stroke-width: 1.5; stroke-linecap: square"/>
    <defs>
     <path id="m29fe99e1df" d="M 0 3 
C 0.795609 3 1.55874 2.683901 2.12132 2.12132 
C 2.683901 1.55874 3 0.795609 3 0 
C 3 -0.795609 2.683901 -1.55874 2.12132 -2.12132 
C 1.55874 -2.683901 0.795609 -3 0 -3 
C -0.795609 -3 -1.55874 -2.683901 -2.12132 -2.12132 
C -2.683901 -1.55874 -3 -0.795609 -3 0 
C -3 0.795609 -2.683901 1.55874 -2.12132 2.12132 
C -1.55874 2.683901 -0.795609 3 0 3 
z
" style="stroke: #23888e"/>
    </defs>
    <g clip-path="url(#p98de007b77)">
     <use xlink:href="#m29fe99e1df" x="74.266534" y="250.752765" style="fill: #23888e; stroke: #23888e"/>
     <use xlink:href="#m29fe99e1df" x="94.859424" y="262.659685" style="fill: #23888e; stroke: #23888e"/>
     <use xlink:href="#m29fe99e1df" x="115.452314" y="265.221625" style="fill: #23888e; stroke: #23888e"/>
     <use xlink:href="#m29fe99e1df" x="136.045205" y="253.778294" style="fill: #23888e; stroke: #23888e"/>
     <use xlink:href="#m29fe99e1df" x="156.638095" y="256.877021" style="fill: #23888e; stroke: #23888e"/>
     <use xlink:href="#m29fe99e1df" x="177.230985" y="253.851492" style="fill: #23888e; stroke: #23888e"/>
     <use xlink:href="#m29fe99e1df" x="198.062505" y="249.215601" style="fill: #23888e; stroke: #23888e"/>
     <use xlink:href="#m29fe99e1df" x="218.655395" y="249.296932" style="fill: #23888e; stroke: #23888e"/>
     <use xlink:href="#m29fe99e1df" x="239.057228" y="245.271027" style="fill: #23888e; stroke: #23888e"/>
     <use xlink:href="#m29fe99e1df" x="259.650118" y="243.229608" style="fill: #23888e; stroke: #23888e"/>
     <use xlink:href="#m29fe99e1df" x="280.243009" y="239.805555" style="fill: #23888e; stroke: #23888e"/>
     <use xlink:href="#m29fe99e1df" x="300.083725" y="243.538667" style="fill: #23888e; stroke: #23888e"/>
     <use xlink:href="#m29fe99e1df" x="320.676616" y="251.135022" style="fill: #23888e; stroke: #23888e"/>
     <use xlink:href="#m29fe99e1df" x="341.269506" y="246.865123" style="fill: #23888e; stroke: #23888e"/>
     <use xlink:href="#m29fe99e1df" x="363.075187" y="246.271403" style="fill: #23888e; stroke: #23888e"/>
     <use xlink:href="#m29fe99e1df" x="389.084716" y="264.888166" style="fill: #23888e; stroke: #23888e"/>
    </g>
   </g>
   <g id="line2d_30">
    <path d="M 74.266534 224.401384 
L 94.859424 245.075831 
L 115.452314 234.014758 
L 136.045205 235.153398 
L 156.638095 238.683181 
L 177.230985 239.211836 
L 198.062505 218.358459 
L 218.655395 223.775132 
L 239.057228 218.390991 
L 259.650118 212.217936 
L 280.243009 212.177271 
L 300.083725 206.557269 
L 320.676616 221.904509 
L 341.269506 231.566682 
L 363.075187 224.629112 
L 389.084716 261.260785 
" clip-path="url(#p98de007b77)" style="fill: none; stroke: #2ab07f; stroke-width: 1.5; stroke-linecap: square"/>
    <defs>
     <path id="md0d9d99bd5" d="M 0 3 
C 0.795609 3 1.55874 2.683901 2.12132 2.12132 
C 2.683901 1.55874 3 0.795609 3 0 
C 3 -0.795609 2.683901 -1.55874 2.12132 -2.12132 
C 1.55874 -2.683901 0.795609 -3 0 -3 
C -0.795609 -3 -1.55874 -2.683901 -2.12132 -2.12132 
C -2.683901 -1.55874 -3 -0.795609 -3 0 
C -3 0.795609 -2.683901 1.55874 -2.12132 2.12132 
C -1.55874 2.683901 -0.795609 3 0 3 
z
" style="stroke: #2ab07f"/>
    </defs>
    <g clip-path="url(#p98de007b77)">
     <use xlink:href="#md0d9d99bd5" x="74.266534" y="224.401384" style="fill: #2ab07f; stroke: #2ab07f"/>
     <use xlink:href="#md0d9d99bd5" x="94.859424" y="245.075831" style="fill: #2ab07f; stroke: #2ab07f"/>
     <use xlink:href="#md0d9d99bd5" x="115.452314" y="234.014758" style="fill: #2ab07f; stroke: #2ab07f"/>
     <use xlink:href="#md0d9d99bd5" x="136.045205" y="235.153398" style="fill: #2ab07f; stroke: #2ab07f"/>
     <use xlink:href="#md0d9d99bd5" x="156.638095" y="238.683181" style="fill: #2ab07f; stroke: #2ab07f"/>
     <use xlink:href="#md0d9d99bd5" x="177.230985" y="239.211836" style="fill: #2ab07f; stroke: #2ab07f"/>
     <use xlink:href="#md0d9d99bd5" x="198.062505" y="218.358459" style="fill: #2ab07f; stroke: #2ab07f"/>
     <use xlink:href="#md0d9d99bd5" x="218.655395" y="223.775132" style="fill: #2ab07f; stroke: #2ab07f"/>
     <use xlink:href="#md0d9d99bd5" x="239.057228" y="218.390991" style="fill: #2ab07f; stroke: #2ab07f"/>
     <use xlink:href="#md0d9d99bd5" x="259.650118" y="212.217936" style="fill: #2ab07f; stroke: #2ab07f"/>
     <use xlink:href="#md0d9d99bd5" x="280.243009" y="212.177271" style="fill: #2ab07f; stroke: #2ab07f"/>
     <use xlink:href="#md0d9d99bd5" x="300.083725" y="206.557269" style="fill: #2ab07f; stroke: #2ab07f"/>
     <use xlink:href="#md0d9d99bd5" x="320.676616" y="221.904509" style="fill: #2ab07f; stroke: #2ab07f"/>
     <use xlink:href="#md0d9d99bd5" x="341.269506" y="231.566682" style="fill: #2ab07f; stroke: #2ab07f"/>
     <use xlink:href="#md0d9d99bd5" x="363.075187" y="224.629112" style="fill: #2ab07f; stroke: #2ab07f"/>
     <use xlink:href="#md0d9d99bd5" x="389.084716" y="261.260785" style="fill: #2ab07f; stroke: #2ab07f"/>
    </g>
   </g>
   <g id="line2d_31">
    <path d="M 74.266534 222.774755 
L 94.859424 265.075228 
L 115.452314 258.804576 
L 136.045205 257.820465 
L 156.638095 256.120639 
L 177.230985 257.560205 
L 198.062505 245.506888 
L 218.655395 249.500261 
L 239.057228 232.64839 
L 259.650118 233.860228 
L 280.243009 226.467202 
L 300.083725 227.23985 
L 320.676616 231.786277 
L 341.269506 236.723094 
L 363.075187 252.533923 
L 389.084716 255.689582 
" clip-path="url(#p98de007b77)" style="fill: none; stroke: #7ad151; stroke-width: 1.5; stroke-linecap: square"/>
    <defs>
     <path id="m8d606c2125" d="M 0 3 
C 0.795609 3 1.55874 2.683901 2.12132 2.12132 
C 2.683901 1.55874 3 0.795609 3 0 
C 3 -0.795609 2.683901 -1.55874 2.12132 -2.12132 
C 1.55874 -2.683901 0.795609 -3 0 -3 
C -0.795609 -3 -1.55874 -2.683901 -2.12132 -2.12132 
C -2.683901 -1.55874 -3 -0.795609 -3 0 
C -3 0.795609 -2.683901 1.55874 -2.12132 2.12132 
C -1.55874 2.683901 -0.795609 3 0 3 
z
" style="stroke: #7ad151"/>
    </defs>
    <g clip-path="url(#p98de007b77)">
     <use xlink:href="#m8d606c2125" x="74.266534" y="222.774755" style="fill: #7ad151; stroke: #7ad151"/>
     <use xlink:href="#m8d606c2125" x="94.859424" y="265.075228" style="fill: #7ad151; stroke: #7ad151"/>
     <use xlink:href="#m8d606c2125" x="115.452314" y="258.804576" style="fill: #7ad151; stroke: #7ad151"/>
     <use xlink:href="#m8d606c2125" x="136.045205" y="257.820465" style="fill: #7ad151; stroke: #7ad151"/>
     <use xlink:href="#m8d606c2125" x="156.638095" y="256.120639" style="fill: #7ad151; stroke: #7ad151"/>
     <use xlink:href="#m8d606c2125" x="177.230985" y="257.560205" style="fill: #7ad151; stroke: #7ad151"/>
     <use xlink:href="#m8d606c2125" x="198.062505" y="245.506888" style="fill: #7ad151; stroke: #7ad151"/>
     <use xlink:href="#m8d606c2125" x="218.655395" y="249.500261" style="fill: #7ad151; stroke: #7ad151"/>
     <use xlink:href="#m8d606c2125" x="239.057228" y="232.64839" style="fill: #7ad151; stroke: #7ad151"/>
     <use xlink:href="#m8d606c2125" x="259.650118" y="233.860228" style="fill: #7ad151; stroke: #7ad151"/>
     <use xlink:href="#m8d606c2125" x="280.243009" y="226.467202" style="fill: #7ad151; stroke: #7ad151"/>
     <use xlink:href="#m8d606c2125" x="300.083725" y="227.23985" style="fill: #7ad151; stroke: #7ad151"/>
     <use xlink:href="#m8d606c2125" x="320.676616" y="231.786277" style="fill: #7ad151; stroke: #7ad151"/>
     <use xlink:href="#m8d606c2125" x="341.269506" y="236.723094" style="fill: #7ad151; stroke: #7ad151"/>
     <use xlink:href="#m8d606c2125" x="363.075187" y="252.533923" style="fill: #7ad151; stroke: #7ad151"/>
     <use xlink:href="#m8d606c2125" x="389.084716" y="255.689582" style="fill: #7ad151; stroke: #7ad151"/>
    </g>
   </g>
   <g id="patch_3">
    <path d="M 58.525625 273.606895 
L 58.525625 29.612625 
" style="fill: none; stroke: #000000; stroke-width: 0.8; stroke-linejoin: miter; stroke-linecap: square"/>
   </g>
   <g id="patch_4">
    <path d="M 404.825625 273.606895 
L 404.825625 29.612625 
" style="fill: none; stroke: #000000; stroke-width: 0.8; stroke-linejoin: miter; stroke-linecap: square"/>
   </g>
   <g id="patch_5">
    <path d="M 58.525625 273.606895 
L 404.825625 273.606895 
" style="fill: none; stroke: #000000; stroke-width: 0.8; stroke-linejoin: miter; stroke-linecap: square"/>
   </g>
   <g id="patch_6">
    <path d="M 58.525625 29.612625 
L 404.825625 29.612625 
" style="fill: none; stroke: #000000; stroke-width: 0.8; stroke-linejoin: miter; stroke-linecap: square"/>
   </g>
   <g id="text_16">
    <text style="font: 21.6px 'DejaVu Sans', 'Bitstream Vera Sans', 'Computer Modern Sans Serif', 'Lucida Grande', 'Verdana', 'Geneva', 'Lucid', 'Arial', 'Helvetica', 'Avant Garde', sans-serif; text-anchor: middle" x="231.675625" y="23.612625" transform="rotate(-0 231.675625 23.612625)">Anomalous peak heights, thermolysin</text>
   </g>
   <g id="legend_1">
    <g id="patch_7">
     <path d="M 417.425625 220.361322 
L 540.9 220.361322 
Q 544.5 220.361322 544.5 216.761322 
L 544.5 86.458197 
Q 544.5 82.858197 540.9 82.858197 
L 417.425625 82.858197 
Q 413.825625 82.858197 413.825625 86.458197 
L 413.825625 216.761322 
Q 413.825625 220.361322 417.425625 220.361322 
z
" style="fill: #ffffff; opacity: 0.8; stroke: #cccccc; stroke-linejoin: miter"/>
    </g>
    <g id="line2d_32">
     <path d="M 421.025625 97.435385 
L 439.025625 97.435385 
L 457.025625 97.435385 
" style="fill: none; stroke: #000000; stroke-width: 1.5; stroke-linecap: square"/>
     <g>
      <use xlink:href="#mb3fd3a7562" x="439.025625" y="97.435385" style="stroke: #000000"/>
     </g>
    </g>
    <g id="text_17">
     <text style="font: 18px 'DejaVu Sans', 'Bitstream Vera Sans', 'Computer Modern Sans Serif', 'Lucida Grande', 'Verdana', 'Geneva', 'Lucid', 'Arial', 'Helvetica', 'Avant Garde', sans-serif; text-anchor: start" x="471.425625" y="103.735385" transform="rotate(-0 471.425625 103.735385)">ZN 317</text>
    </g>
    <g id="line2d_33">
     <path d="M 421.025625 123.85601 
L 439.025625 123.85601 
L 457.025625 123.85601 
" style="fill: none; stroke: #355f8d; stroke-width: 1.5; stroke-linecap: square"/>
     <g>
      <use xlink:href="#mccfed02a2a" x="439.025625" y="123.85601" style="fill: #355f8d; stroke: #355f8d"/>
     </g>
    </g>
    <g id="text_18">
     <text style="font: 18px 'DejaVu Sans', 'Bitstream Vera Sans', 'Computer Modern Sans Serif', 'Lucida Grande', 'Verdana', 'Geneva', 'Lucid', 'Arial', 'Helvetica', 'Avant Garde', sans-serif; text-anchor: start" x="471.425625" y="130.15601" transform="rotate(-0 471.425625 130.15601)">CA 318</text>
    </g>
    <g id="line2d_34">
     <path d="M 421.025625 150.276635 
L 439.025625 150.276635 
L 457.025625 150.276635 
" style="fill: none; stroke: #23888e; stroke-width: 1.5; stroke-linecap: square"/>
     <g>
      <use xlink:href="#m29fe99e1df" x="439.025625" y="150.276635" style="fill: #23888e; stroke: #23888e"/>
     </g>
    </g>
    <g id="text_19">
     <text style="font: 18px 'DejaVu Sans', 'Bitstream Vera Sans', 'Computer Modern Sans Serif', 'Lucida Grande', 'Verdana', 'Geneva', 'Lucid', 'Arial', 'Helvetica', 'Avant Garde', sans-serif; text-anchor: start" x="471.425625" y="156.576635" transform="rotate(-0 471.425625 156.576635)">CA 319</text>
    </g>
    <g id="line2d_35">
     <path d="M 421.025625 176.69726 
L 439.025625 176.69726 
L 457.025625 176.69726 
" style="fill: none; stroke: #2ab07f; stroke-width: 1.5; stroke-linecap: square"/>
     <g>
      <use xlink:href="#md0d9d99bd5" x="439.025625" y="176.69726" style="fill: #2ab07f; stroke: #2ab07f"/>
     </g>
    </g>
    <g id="text_20">
     <text style="font: 18px 'DejaVu Sans', 'Bitstream Vera Sans', 'Computer Modern Sans Serif', 'Lucida Grande', 'Verdana', 'Geneva', 'Lucid', 'Arial', 'Helvetica', 'Avant Garde', sans-serif; text-anchor: start" x="471.425625" y="182.99726" transform="rotate(-0 471.425625 182.99726)">CA 320</text>
    </g>
    <g id="line2d_36">
     <path d="M 421.025625 203.117885 
L 439.025625 203.117885 
L 457.025625 203.117885 
" style="fill: none; stroke: #7ad151; stroke-width: 1.5; stroke-linecap: square"/>
     <g>
      <use xlink:href="#m8d606c2125" x="439.025625" y="203.117885" style="fill: #7ad151; stroke: #7ad151"/>
     </g>
    </g>
    <g id="text_21">
     <text style="font: 18px 'DejaVu Sans', 'Bitstream Vera Sans', 'Computer Modern Sans Serif', 'Lucida Grande', 'Verdana', 'Geneva', 'Lucid', 'Arial', 'Helvetica', 'Avant Garde', sans-serif; text-anchor: start" x="471.425625" y="209.417885" transform="rotate(-0 471.425625 209.417885)">CA 321</text>
    </g>
   </g>
  </g>
 </g>
 <defs>
  <clipPath id="p98de007b77">
   <rect x="58.525625" y="29.612625" width="346.3" height="243.99427"/>
  </clipPath>
 </defs>
</svg>
