<?xml version="1.0" encoding="utf-8" standalone="no"?>
<!DOCTYPE svg PUBLIC "-//W3C//DTD SVG 1.1//EN"
  "http://www.w3.org/Graphics/SVG/1.1/DTD/svg11.dtd">
<svg xmlns:xlink="http://www.w3.org/1999/xlink" width="430.713pt" height="335.39649pt" viewBox="0 0 430.713 335.39649" xmlns="http://www.w3.org/2000/svg" version="1.1">
 <metadata>
  <rdf:RDF xmlns:dc="http://purl.org/dc/elements/1.1/" xmlns:cc="http://creativecommons.org/ns#" xmlns:rdf="http://www.w3.org/1999/02/22-rdf-syntax-ns#">
   <cc:Work>
    <dc:type rdf:resource="http://purl.org/dc/dcmitype/StillImage"/>
    <dc:date>2024-02-26T15:42:09.252786</dc:date>
    <dc:format>image/svg+xml</dc:format>
    <dc:creator>
     <cc:Agent>
      <dc:title>Matplotlib v3.8.2, https://matplotlib.org/</dc:title>
     </cc:Agent>
    </dc:creator>
   </cc:Work>
  </rdf:RDF>
 </metadata>
 <defs>
  <style type="text/css">*{stroke-linejoin: round; stroke-linecap: butt}</style>
 </defs>
 <g id="figure_1">
  <g id="patch_1">
   <path d="M 0 335.39649 
L 430.713 335.39649 
L 430.713 0 
L 0 0 
z
" style="fill: #ffffff"/>
  </g>
  <g id="axes_1">
   <g id="patch_2">
    <path d="M 76.980761 244.486895 
L 353.732239 244.486895 
L 353.732239 29.612625 
L 76.980761 29.612625 
z
" style="fill: #ffffff"/>
   </g>
   <g id="matplotlib.axis_1">
    <g id="xtick_1">
     <g id="line2d_1">
      <defs>
       <path id="m293992e58d" d="M 0 0 
L 0 3.5 
" style="stroke: #000000; stroke-width: 0.8"/>
      </defs>
      <g>
       <use xlink:href="#m293992e58d" x="341.152627" y="244.486895" style="stroke: #000000; stroke-width: 0.8"/>
      </g>
     </g>
     <g id="text_1">
      <text style="font: 18px 'DejaVu Sans', 'Bitstream Vera Sans', 'Computer Modern Sans Serif', 'Lucida Grande', 'Verdana', 'Geneva', 'Lucid', 'Arial', 'Helvetica', 'Avant Garde', sans-serif; text-anchor: middle" x="341.152627" y="265.164082" transform="rotate(-0 341.152627 265.164082)">0.9999</text>
     </g>
    </g>
    <g id="xtick_2">
     <g id="line2d_2">
      <g>
       <use xlink:href="#m293992e58d" x="282.656812" y="244.486895" style="stroke: #000000; stroke-width: 0.8"/>
      </g>
     </g>
     <g id="text_2">
      <text style="font: 18px 'DejaVu Sans', 'Bitstream Vera Sans', 'Computer Modern Sans Serif', 'Lucida Grande', 'Verdana', 'Geneva', 'Lucid', 'Arial', 'Helvetica', 'Avant Garde', sans-serif; text-anchor: middle" x="282.656812" y="265.164082" transform="rotate(-0 282.656812 265.164082)">0.999</text>
     </g>
    </g>
    <g id="xtick_3">
     <g id="line2d_3">
      <g>
       <use xlink:href="#m293992e58d" x="224.160997" y="244.486895" style="stroke: #000000; stroke-width: 0.8"/>
      </g>
     </g>
     <g id="text_3">
      <text style="font: 18px 'DejaVu Sans', 'Bitstream Vera Sans', 'Computer Modern Sans Serif', 'Lucida Grande', 'Verdana', 'Geneva', 'Lucid', 'Arial', 'Helvetica', 'Avant Garde', sans-serif; text-anchor: middle" x="224.160997" y="265.164082" transform="rotate(-0 224.160997 265.164082)">0.99</text>
     </g>
    </g>
    <g id="xtick_4">
     <g id="line2d_4">
      <g>
       <use xlink:href="#m293992e58d" x="165.665183" y="244.486895" style="stroke: #000000; stroke-width: 0.8"/>
      </g>
     </g>
     <g id="text_4">
      <text style="font: 18px 'DejaVu Sans', 'Bitstream Vera Sans', 'Computer Modern Sans Serif', 'Lucida Grande', 'Verdana', 'Geneva', 'Lucid', 'Arial', 'Helvetica', 'Avant Garde', sans-serif; text-anchor: middle" x="165.665183" y="265.164082" transform="rotate(-0 165.665183 265.164082)">0.9</text>
     </g>
    </g>
    <g id="xtick_5">
     <g id="line2d_5">
      <g>
       <use xlink:href="#m293992e58d" x="107.169368" y="244.486895" style="stroke: #000000; stroke-width: 0.8"/>
      </g>
     </g>
     <g id="text_5">
      <text style="font: 18px 'DejaVu Sans', 'Bitstream Vera Sans', 'Computer Modern Sans Serif', 'Lucida Grande', 'Verdana', 'Geneva', 'Lucid', 'Arial', 'Helvetica', 'Avant Garde', sans-serif; text-anchor: middle" x="107.169368" y="265.164082" transform="rotate(-0 107.169368 265.164082)">0</text>
     </g>
    </g>
    <g id="xtick_6">
     <g id="line2d_6">
      <g>
       <use xlink:href="#m293992e58d" x="89.445136" y="244.486895" style="stroke: #000000; stroke-width: 0.8"/>
      </g>
     </g>
     <g id="text_6">
      <text style="font: 18px 'DejaVu Sans', 'Bitstream Vera Sans', 'Computer Modern Sans Serif', 'Lucida Grande', 'Verdana', 'Geneva', 'Lucid', 'Arial', 'Helvetica', 'Avant Garde', sans-serif" transform="translate(22.406773 325.54948) rotate(-45)">univariate</text>
     </g>
    </g>
   </g>
   <g id="matplotlib.axis_2">
    <g id="ytick_1">
     <g id="line2d_7">
      <defs>
       <path id="mf71760a2ff" d="M 0 0 
L -3.5 0 
" style="stroke: #000000; stroke-width: 0.8"/>
      </defs>
      <g>
       <use xlink:href="#mf71760a2ff" x="76.980761" y="241.070774" style="stroke: #000000; stroke-width: 0.8"/>
      </g>
     </g>
     <g id="text_7">
      <text style="font: 18px 'DejaVu Sans', 'Bitstream Vera Sans', 'Computer Modern Sans Serif', 'Lucida Grande', 'Verdana', 'Geneva', 'Lucid', 'Arial', 'Helvetica', 'Avant Garde', sans-serif; text-anchor: end" x="69.980761" y="247.909368" transform="rotate(-0 69.980761 247.909368)">4</text>
     </g>
    </g>
    <g id="ytick_2">
     <g id="line2d_8">
      <g>
       <use xlink:href="#mf71760a2ff" x="76.980761" y="192.572172" style="stroke: #000000; stroke-width: 0.8"/>
      </g>
     </g>
     <g id="text_8">
      <text style="font: 18px 'DejaVu Sans', 'Bitstream Vera Sans', 'Computer Modern Sans Serif', 'Lucida Grande', 'Verdana', 'Geneva', 'Lucid', 'Arial', 'Helvetica', 'Avant Garde', sans-serif; text-anchor: end" x="69.980761" y="199.410766" transform="rotate(-0 69.980761 199.410766)">6</text>
     </g>
    </g>
    <g id="ytick_3">
     <g id="line2d_9">
      <g>
       <use xlink:href="#mf71760a2ff" x="76.980761" y="144.07357" style="stroke: #000000; stroke-width: 0.8"/>
      </g>
     </g>
     <g id="text_9">
      <text style="font: 18px 'DejaVu Sans', 'Bitstream Vera Sans', 'Computer Modern Sans Serif', 'Lucida Grande', 'Verdana', 'Geneva', 'Lucid', 'Arial', 'Helvetica', 'Avant Garde', sans-serif; text-anchor: end" x="69.980761" y="150.912164" transform="rotate(-0 69.980761 150.912164)">8</text>
     </g>
    </g>
    <g id="ytick_4">
     <g id="line2d_10">
      <g>
       <use xlink:href="#mf71760a2ff" x="76.980761" y="95.574968" style="stroke: #000000; stroke-width: 0.8"/>
      </g>
     </g>
     <g id="text_10">
      <text style="font: 18px 'DejaVu Sans', 'Bitstream Vera Sans', 'Computer Modern Sans Serif', 'Lucida Grande', 'Verdana', 'Geneva', 'Lucid', 'Arial', 'Helvetica', 'Avant Garde', sans-serif; text-anchor: end" x="69.980761" y="102.413561" transform="rotate(-0 69.980761 102.413561)">10</text>
     </g>
    </g>
    <g id="ytick_5">
     <g id="line2d_11">
      <g>
       <use xlink:href="#mf71760a2ff" x="76.980761" y="47.076365" style="stroke: #000000; stroke-width: 0.8"/>
      </g>
     </g>
     <g id="text_11">
      <text style="font: 18px 'DejaVu Sans', 'Bitstream Vera Sans', 'Computer Modern Sans Serif', 'Lucida Grande', 'Verdana', 'Geneva', 'Lucid', 'Arial', 'Helvetica', 'Avant Garde', sans-serif; text-anchor: end" x="69.980761" y="53.914959" transform="rotate(-0 69.980761 53.914959)">12</text>
     </g>
    </g>
    <g id="text_12">
     <text style="font: 18px 'DejaVu Sans', 'Bitstream Vera Sans', 'Computer Modern Sans Serif', 'Lucida Grande', 'Verdana', 'Geneva', 'Lucid', 'Arial', 'Helvetica', 'Avant Garde', sans-serif; text-anchor: middle" x="39.332323" y="137.04976" transform="rotate(-90 39.332323 137.04976)">peak height (σ)</text>
    </g>
   </g>
   <g id="line2d_12">
    <path d="M 89.560373 203.39221 
L 107.169368 234.719882 
L 124.778363 205.438851 
L 142.387358 193.183254 
L 159.996353 200.909082 
L 177.605347 197.072842 
L 195.214342 185.937563 
L 212.831468 179.487249 
L 230.440463 167.430497 
L 248.01695 148.2299 
L 265.691001 150.031623 
L 283.17005 144.325763 
L 300.779045 147.70854 
L 318.91186 143.161796 
L 341.152627 144.139043 
" clip-path="url(#p7806a005c7)" style="fill: none; stroke: #e6c640; stroke-width: 1.5; stroke-linecap: square"/>
    <defs>
     <path id="m366fcca899" d="M 0 3 
C 0.795609 3 1.55874 2.683901 2.12132 2.12132 
C 2.683901 1.55874 3 0.795609 3 0 
C 3 -0.795609 2.683901 -1.55874 2.12132 -2.12132 
C 1.55874 -2.683901 0.795609 -3 0 -3 
C -0.795609 -3 -1.55874 -2.683901 -2.12132 -2.12132 
C -2.683901 -1.55874 -3 -0.795609 -3 0 
C -3 0.795609 -2.683901 1.55874 -2.12132 2.12132 
C -1.55874 2.683901 -0.795609 3 0 3 
z
" style="stroke: #e6c640"/>
    </defs>
    <g clip-path="url(#p7806a005c7)">
     <use xlink:href="#m366fcca899" x="89.560373" y="203.39221" style="fill: #e6c640; stroke: #e6c640"/>
     <use xlink:href="#m366fcca899" x="107.169368" y="234.719882" style="fill: #e6c640; stroke: #e6c640"/>
     <use xlink:href="#m366fcca899" x="124.778363" y="205.438851" style="fill: #e6c640; stroke: #e6c640"/>
     <use xlink:href="#m366fcca899" x="142.387358" y="193.183254" style="fill: #e6c640; stroke: #e6c640"/>
     <use xlink:href="#m366fcca899" x="159.996353" y="200.909082" style="fill: #e6c640; stroke: #e6c640"/>
     <use xlink:href="#m366fcca899" x="177.605347" y="197.072842" style="fill: #e6c640; stroke: #e6c640"/>
     <use xlink:href="#m366fcca899" x="195.214342" y="185.937563" style="fill: #e6c640; stroke: #e6c640"/>
     <use xlink:href="#m366fcca899" x="212.831468" y="179.487249" style="fill: #e6c640; stroke: #e6c640"/>
     <use xlink:href="#m366fcca899" x="230.440463" y="167.430497" style="fill: #e6c640; stroke: #e6c640"/>
     <use xlink:href="#m366fcca899" x="248.01695" y="148.2299" style="fill: #e6c640; stroke: #e6c640"/>
     <use xlink:href="#m366fcca899" x="265.691001" y="150.031623" style="fill: #e6c640; stroke: #e6c640"/>
     <use xlink:href="#m366fcca899" x="283.17005" y="144.325763" style="fill: #e6c640; stroke: #e6c640"/>
     <use xlink:href="#m366fcca899" x="300.779045" y="147.70854" style="fill: #e6c640; stroke: #e6c640"/>
     <use xlink:href="#m366fcca899" x="318.91186" y="143.161796" style="fill: #e6c640; stroke: #e6c640"/>
     <use xlink:href="#m366fcca899" x="341.152627" y="144.139043" style="fill: #e6c640; stroke: #e6c640"/>
    </g>
   </g>
   <g id="line2d_13">
    <path d="M 89.560373 152.686922 
L 107.169368 194.672162 
L 124.778363 142.080277 
L 142.387358 123.24342 
L 159.996353 138.564129 
L 177.605347 134.509645 
L 195.214342 116.337219 
L 212.831468 101.06016 
L 230.440463 80.666497 
L 248.01695 63.352496 
L 265.691001 57.493865 
L 283.17005 39.379637 
L 300.779045 46.101544 
L 318.91186 51.276344 
L 341.152627 71.296567 
" clip-path="url(#p7806a005c7)" style="fill: none; stroke: #940094; stroke-width: 1.5; stroke-linecap: square"/>
    <defs>
     <path id="mccd443bd5a" d="M 0 3 
C 0.795609 3 1.55874 2.683901 2.12132 2.12132 
C 2.683901 1.55874 3 0.795609 3 0 
C 3 -0.795609 2.683901 -1.55874 2.12132 -2.12132 
C 1.55874 -2.683901 0.795609 -3 0 -3 
C -0.795609 -3 -1.55874 -2.683901 -2.12132 -2.12132 
C -2.683901 -1.55874 -3 -0.795609 -3 0 
C -3 0.795609 -2.683901 1.55874 -2.12132 2.12132 
C -1.55874 2.683901 -0.795609 3 0 3 
z
" style="stroke: #940094"/>
    </defs>
    <g clip-path="url(#p7806a005c7)">
     <use xlink:href="#mccd443bd5a" x="89.560373" y="152.686922" style="fill: #940094; stroke: #940094"/>
     <use xlink:href="#mccd443bd5a" x="107.169368" y="194.672162" style="fill: #940094; stroke: #940094"/>
     <use xlink:href="#mccd443bd5a" x="124.778363" y="142.080277" style="fill: #940094; stroke: #940094"/>
     <use xlink:href="#mccd443bd5a" x="142.387358" y="123.24342" style="fill: #940094; stroke: #940094"/>
     <use xlink:href="#mccd443bd5a" x="159.996353" y="138.564129" style="fill: #940094; stroke: #940094"/>
     <use xlink:href="#mccd443bd5a" x="177.605347" y="134.509645" style="fill: #940094; stroke: #940094"/>
     <use xlink:href="#mccd443bd5a" x="195.214342" y="116.337219" style="fill: #940094; stroke: #940094"/>
     <use xlink:href="#mccd443bd5a" x="212.831468" y="101.06016" style="fill: #940094; stroke: #940094"/>
     <use xlink:href="#mccd443bd5a" x="230.440463" y="80.666497" style="fill: #940094; stroke: #940094"/>
     <use xlink:href="#mccd443bd5a" x="248.01695" y="63.352496" style="fill: #940094; stroke: #940094"/>
     <use xlink:href="#mccd443bd5a" x="265.691001" y="57.493865" style="fill: #940094; stroke: #940094"/>
     <use xlink:href="#mccd443bd5a" x="283.17005" y="39.379637" style="fill: #940094; stroke: #940094"/>
     <use xlink:href="#mccd443bd5a" x="300.779045" y="46.101544" style="fill: #940094; stroke: #940094"/>
     <use xlink:href="#mccd443bd5a" x="318.91186" y="51.276344" style="fill: #940094; stroke: #940094"/>
     <use xlink:href="#mccd443bd5a" x="341.152627" y="71.296567" style="fill: #940094; stroke: #940094"/>
    </g>
   </g>
   <g id="patch_3">
    <path d="M 76.980761 244.486895 
L 76.980761 29.612625 
" style="fill: none; stroke: #000000; stroke-width: 0.8; stroke-linejoin: miter; stroke-linecap: square"/>
   </g>
   <g id="patch_4">
    <path d="M 353.732239 244.486895 
L 353.732239 29.612625 
" style="fill: none; stroke: #000000; stroke-width: 0.8; stroke-linejoin: miter; stroke-linecap: square"/>
   </g>
   <g id="patch_5">
    <path d="M 76.980761 244.486895 
L 353.732239 244.486895 
" style="fill: none; stroke: #000000; stroke-width: 0.8; stroke-linejoin: miter; stroke-linecap: square"/>
   </g>
   <g id="patch_6">
    <path d="M 76.980761 29.612625 
L 353.732239 29.612625 
" style="fill: none; stroke: #000000; stroke-width: 0.8; stroke-linejoin: miter; stroke-linecap: square"/>
   </g>
   <g id="text_13">
    <text style="font: 21.6px 'DejaVu Sans', 'Bitstream Vera Sans', 'Computer Modern Sans Serif', 'Lucida Grande', 'Verdana', 'Geneva', 'Lucid', 'Arial', 'Helvetica', 'Avant Garde', sans-serif; text-anchor: middle" x="215.3565" y="23.612625" transform="rotate(-0 215.3565 23.612625)">Average anomalous omit peak heights</text>
   </g>
   <g id="legend_1">
    <g id="patch_7">
     <path d="M 219.230052 235.486895 
L 341.132239 235.486895 
Q 344.732239 235.486895 344.732239 231.886895 
L 344.732239 180.845645 
Q 344.732239 177.245645 341.132239 177.245645 
L 219.230052 177.245645 
Q 215.630052 177.245645 215.630052 180.845645 
L 215.630052 231.886895 
Q 215.630052 235.486895 219.230052 235.486895 
z
" style="fill: #ffffff; opacity: 0.8; stroke: #cccccc; stroke-linejoin: miter"/>
    </g>
    <g id="line2d_14">
     <path d="M 222.830052 191.822832 
L 240.830052 191.822832 
L 258.830052 191.822832 
" style="fill: none; stroke: #e6c640; stroke-width: 1.5; stroke-linecap: square"/>
     <g>
      <use xlink:href="#m366fcca899" x="240.830052" y="191.822832" style="fill: #e6c640; stroke: #e6c640"/>
     </g>
    </g>
    <g id="text_14">
     <text style="font: 18px 'DejaVu Sans', 'Bitstream Vera Sans', 'Computer Modern Sans Serif', 'Lucida Grande', 'Verdana', 'Geneva', 'Lucid', 'Arial', 'Helvetica', 'Avant Garde', sans-serif; text-anchor: start" x="273.230052" y="198.122832" transform="rotate(-0 273.230052 198.122832)">sulfurs</text>
    </g>
    <g id="line2d_15">
     <path d="M 222.830052 218.243457 
L 240.830052 218.243457 
L 258.830052 218.243457 
" style="fill: none; stroke: #940094; stroke-width: 1.5; stroke-linecap: square"/>
     <g>
      <use xlink:href="#mccd443bd5a" x="240.830052" y="218.243457" style="fill: #940094; stroke: #940094"/>
     </g>
    </g>
    <g id="text_15">
     <text style="font: 18px 'DejaVu Sans', 'Bitstream Vera Sans', 'Computer Modern Sans Serif', 'Lucida Grande', 'Verdana', 'Geneva', 'Lucid', 'Arial', 'Helvetica', 'Avant Garde', sans-serif; text-anchor: start" x="273.230052" y="224.543457" transform="rotate(-0 273.230052 224.543457)">iodines</text>
    </g>
   </g>
  </g>
 </g>
 <defs>
  <clipPath id="p7806a005c7">
   <rect x="76.980761" y="29.612625" width="276.751479" height="214.87427"/>
  </clipPath>
 </defs>
</svg>
