<?xml version="1.0" encoding="utf-8" standalone="no"?>
<!DOCTYPE svg PUBLIC "-//W3C//DTD SVG 1.1//EN"
  "http://www.w3.org/Graphics/SVG/1.1/DTD/svg11.dtd">
<svg xmlns:xlink="http://www.w3.org/1999/xlink" width="481.533555pt" height="407.39649pt" viewBox="0 0 481.533555 407.39649" xmlns="http://www.w3.org/2000/svg" version="1.1">
 <metadata>
  <rdf:RDF xmlns:dc="http://purl.org/dc/elements/1.1/" xmlns:cc="http://creativecommons.org/ns#" xmlns:rdf="http://www.w3.org/1999/02/22-rdf-syntax-ns#">
   <cc:Work>
    <dc:type rdf:resource="http://purl.org/dc/dcmitype/StillImage"/>
    <dc:date>2024-11-13T13:27:11.622943</dc:date>
    <dc:format>image/svg+xml</dc:format>
    <dc:creator>
     <cc:Agent>
      <dc:title>Matplotlib v3.8.2, https://matplotlib.org/</dc:title>
     </cc:Agent>
    </dc:creator>
   </cc:Work>
  </rdf:RDF>
 </metadata>
 <defs>
  <style type="text/css">*{stroke-linejoin: round; stroke-linecap: butt}</style>
 </defs>
 <g id="figure_1">
  <g id="patch_1">
   <path d="M 0 407.39649 
L 481.533555 407.39649 
L 481.533555 0 
L 0 0 
z
" style="fill: #ffffff"/>
  </g>
  <g id="axes_1">
   <g id="patch_2">
    <path d="M 68.256757 316.486895 
L 415.80293 316.486895 
L 415.80293 29.612625 
L 68.256757 29.612625 
z
" style="fill: #ffffff"/>
   </g>
   <g id="PolyCollection_1">
    <defs>
     <path id="m1f83977d5a" d="M 84.054311 -303.670446 
L 84.054311 -298.227968 
L 106.167792 -295.255717 
L 128.281274 -298.601327 
L 150.394756 -303.480349 
L 172.508237 -310.372169 
L 194.621719 -314.572558 
L 216.735201 -321.589214 
L 238.858893 -316.300454 
L 260.972375 -320.311728 
L 283.045033 -328.825139 
L 305.240213 -321.641862 
L 327.190508 -326.168491 
L 349.303989 -329.171934 
L 372.075288 -329.211912 
L 400.005376 -325.344423 
L 400.005376 -343.251876 
L 400.005376 -343.251876 
L 372.075288 -331.551834 
L 349.303989 -336.584605 
L 327.190508 -329.951774 
L 305.240213 -334.641094 
L 283.045033 -339.835452 
L 260.972375 -332.047219 
L 238.858893 -327.959784 
L 216.735201 -326.249114 
L 194.621719 -323.297858 
L 172.508237 -313.62116 
L 150.394756 -309.577299 
L 128.281274 -306.55098 
L 106.167792 -300.928383 
L 84.054311 -303.670446 
z
" style="stroke: #000000; stroke-opacity: 0.2"/>
    </defs>
    <g clip-path="url(#pc2759b5044)">
     <use xlink:href="#m1f83977d5a" x="0" y="407.39649" style="fill-opacity: 0.2; stroke: #000000; stroke-opacity: 0.2"/>
    </g>
   </g>
   <g id="matplotlib.axis_1">
    <g id="xtick_1">
     <g id="line2d_1">
      <defs>
       <path id="mf1cf2385c3" d="M 0 0 
L 0 3.5 
" style="stroke: #000000; stroke-width: 0.8"/>
      </defs>
      <g>
       <use xlink:href="#mf1cf2385c3" x="400.005376" y="316.486895" style="stroke: #000000; stroke-width: 0.8"/>
      </g>
     </g>
     <g id="text_1">
      <text style="font: 18px 'DejaVu Sans', 'Bitstream Vera Sans', 'Computer Modern Sans Serif', 'Lucida Grande', 'Verdana', 'Geneva', 'Lucid', 'Arial', 'Helvetica', 'Avant Garde', sans-serif; text-anchor: middle" x="400.005376" y="337.164082" transform="rotate(-0 400.005376 337.164082)">0.9999</text>
     </g>
    </g>
    <g id="xtick_2">
     <g id="line2d_2">
      <g>
       <use xlink:href="#mf1cf2385c3" x="326.54598" y="316.486895" style="stroke: #000000; stroke-width: 0.8"/>
      </g>
     </g>
     <g id="text_2">
      <text style="font: 18px 'DejaVu Sans', 'Bitstream Vera Sans', 'Computer Modern Sans Serif', 'Lucida Grande', 'Verdana', 'Geneva', 'Lucid', 'Arial', 'Helvetica', 'Avant Garde', sans-serif; text-anchor: middle" x="326.54598" y="337.164082" transform="rotate(-0 326.54598 337.164082)">0.999</text>
     </g>
    </g>
    <g id="xtick_3">
     <g id="line2d_3">
      <g>
       <use xlink:href="#mf1cf2385c3" x="253.086584" y="316.486895" style="stroke: #000000; stroke-width: 0.8"/>
      </g>
     </g>
     <g id="text_3">
      <text style="font: 18px 'DejaVu Sans', 'Bitstream Vera Sans', 'Computer Modern Sans Serif', 'Lucida Grande', 'Verdana', 'Geneva', 'Lucid', 'Arial', 'Helvetica', 'Avant Garde', sans-serif; text-anchor: middle" x="253.086584" y="337.164082" transform="rotate(-0 253.086584 337.164082)">0.99</text>
     </g>
    </g>
    <g id="xtick_4">
     <g id="line2d_4">
      <g>
       <use xlink:href="#mf1cf2385c3" x="179.627188" y="316.486895" style="stroke: #000000; stroke-width: 0.8"/>
      </g>
     </g>
     <g id="text_4">
      <text style="font: 18px 'DejaVu Sans', 'Bitstream Vera Sans', 'Computer Modern Sans Serif', 'Lucida Grande', 'Verdana', 'Geneva', 'Lucid', 'Arial', 'Helvetica', 'Avant Garde', sans-serif; text-anchor: middle" x="179.627188" y="337.164082" transform="rotate(-0 179.627188 337.164082)">0.9</text>
     </g>
    </g>
    <g id="xtick_5">
     <g id="line2d_5">
      <g>
       <use xlink:href="#mf1cf2385c3" x="106.167792" y="316.486895" style="stroke: #000000; stroke-width: 0.8"/>
      </g>
     </g>
     <g id="text_5">
      <text style="font: 18px 'DejaVu Sans', 'Bitstream Vera Sans', 'Computer Modern Sans Serif', 'Lucida Grande', 'Verdana', 'Geneva', 'Lucid', 'Arial', 'Helvetica', 'Avant Garde', sans-serif; text-anchor: middle" x="106.167792" y="337.164082" transform="rotate(-0 106.167792 337.164082)">0</text>
     </g>
    </g>
    <g id="xtick_6">
     <g id="line2d_6">
      <g>
       <use xlink:href="#mf1cf2385c3" x="83.909595" y="316.486895" style="stroke: #000000; stroke-width: 0.8"/>
      </g>
     </g>
     <g id="text_6">
      <text style="font: 18px 'DejaVu Sans', 'Bitstream Vera Sans', 'Computer Modern Sans Serif', 'Lucida Grande', 'Verdana', 'Geneva', 'Lucid', 'Arial', 'Helvetica', 'Avant Garde', sans-serif" transform="translate(16.871232 397.54948) rotate(-45)">univariate</text>
     </g>
    </g>
   </g>
   <g id="matplotlib.axis_2">
    <g id="ytick_1">
     <g id="line2d_7">
      <defs>
       <path id="m184a266d32" d="M 0 0 
L -3.5 0 
" style="stroke: #000000; stroke-width: 0.8"/>
      </defs>
      <g>
       <use xlink:href="#m184a266d32" x="68.256757" y="316.486895" style="stroke: #000000; stroke-width: 0.8"/>
      </g>
     </g>
     <g id="text_7">
      <text style="font: 18px 'DejaVu Sans', 'Bitstream Vera Sans', 'Computer Modern Sans Serif', 'Lucida Grande', 'Verdana', 'Geneva', 'Lucid', 'Arial', 'Helvetica', 'Avant Garde', sans-serif; text-anchor: end" x="61.256757" y="323.325488" transform="rotate(-0 61.256757 323.325488)">0.975</text>
     </g>
    </g>
    <g id="ytick_2">
     <g id="line2d_8">
      <g>
       <use xlink:href="#m184a266d32" x="68.256757" y="254.122923" style="stroke: #000000; stroke-width: 0.8"/>
      </g>
     </g>
     <g id="text_8">
      <text style="font: 18px 'DejaVu Sans', 'Bitstream Vera Sans', 'Computer Modern Sans Serif', 'Lucida Grande', 'Verdana', 'Geneva', 'Lucid', 'Arial', 'Helvetica', 'Avant Garde', sans-serif; text-anchor: end" x="61.256757" y="260.961517" transform="rotate(-0 61.256757 260.961517)">0.980</text>
     </g>
    </g>
    <g id="ytick_3">
     <g id="line2d_9">
      <g>
       <use xlink:href="#m184a266d32" x="68.256757" y="191.758951" style="stroke: #000000; stroke-width: 0.8"/>
      </g>
     </g>
     <g id="text_9">
      <text style="font: 18px 'DejaVu Sans', 'Bitstream Vera Sans', 'Computer Modern Sans Serif', 'Lucida Grande', 'Verdana', 'Geneva', 'Lucid', 'Arial', 'Helvetica', 'Avant Garde', sans-serif; text-anchor: end" x="61.256757" y="198.597545" transform="rotate(-0 61.256757 198.597545)">0.985</text>
     </g>
    </g>
    <g id="ytick_4">
     <g id="line2d_10">
      <g>
       <use xlink:href="#m184a266d32" x="68.256757" y="129.39498" style="stroke: #000000; stroke-width: 0.8"/>
      </g>
     </g>
     <g id="text_10">
      <text style="font: 18px 'DejaVu Sans', 'Bitstream Vera Sans', 'Computer Modern Sans Serif', 'Lucida Grande', 'Verdana', 'Geneva', 'Lucid', 'Arial', 'Helvetica', 'Avant Garde', sans-serif; text-anchor: end" x="61.256757" y="136.233573" transform="rotate(-0 61.256757 136.233573)">0.990</text>
     </g>
    </g>
    <g id="ytick_5">
     <g id="line2d_11">
      <g>
       <use xlink:href="#m184a266d32" x="68.256757" y="67.031008" style="stroke: #000000; stroke-width: 0.8"/>
      </g>
     </g>
     <g id="text_11">
      <text style="font: 18px 'DejaVu Sans', 'Bitstream Vera Sans', 'Computer Modern Sans Serif', 'Lucida Grande', 'Verdana', 'Geneva', 'Lucid', 'Arial', 'Helvetica', 'Avant Garde', sans-serif; text-anchor: end" x="61.256757" y="73.869602" transform="rotate(-0 61.256757 73.869602)">0.995</text>
     </g>
    </g>
   </g>
   <g id="line2d_12">
    <path d="M 84.054311 106.447283 
L 106.167792 109.30444 
L 128.281274 104.820336 
L 150.394756 100.867666 
L 172.508237 95.399825 
L 194.621719 88.461282 
L 216.735201 83.477326 
L 238.858893 85.266371 
L 260.972375 81.217017 
L 283.045033 73.066194 
L 305.240213 79.255012 
L 327.190508 79.336357 
L 349.303989 74.51822 
L 372.075288 77.014617 
L 400.005376 73.09834 
" clip-path="url(#pc2759b5044)" style="fill: none; stroke: #000000; stroke-width: 1.5; stroke-linecap: square"/>
    <defs>
     <path id="mb45b9ce32d" d="M 0 3 
C 0.795609 3 1.55874 2.683901 2.12132 2.12132 
C 2.683901 1.55874 3 0.795609 3 0 
C 3 -0.795609 2.683901 -1.55874 2.12132 -2.12132 
C 1.55874 -2.683901 0.795609 -3 0 -3 
C -0.795609 -3 -1.55874 -2.683901 -2.12132 -2.12132 
C -2.683901 -1.55874 -3 -0.795609 -3 0 
C -3 0.795609 -2.683901 1.55874 -2.12132 2.12132 
C -1.55874 2.683901 -0.795609 3 0 3 
z
" style="stroke: #000000"/>
    </defs>
    <g clip-path="url(#pc2759b5044)">
     <use xlink:href="#mb45b9ce32d" x="84.054311" y="106.447283" style="stroke: #000000"/>
     <use xlink:href="#mb45b9ce32d" x="106.167792" y="109.30444" style="stroke: #000000"/>
     <use xlink:href="#mb45b9ce32d" x="128.281274" y="104.820336" style="stroke: #000000"/>
     <use xlink:href="#mb45b9ce32d" x="150.394756" y="100.867666" style="stroke: #000000"/>
     <use xlink:href="#mb45b9ce32d" x="172.508237" y="95.399825" style="stroke: #000000"/>
     <use xlink:href="#mb45b9ce32d" x="194.621719" y="88.461282" style="stroke: #000000"/>
     <use xlink:href="#mb45b9ce32d" x="216.735201" y="83.477326" style="stroke: #000000"/>
     <use xlink:href="#mb45b9ce32d" x="238.858893" y="85.266371" style="stroke: #000000"/>
     <use xlink:href="#mb45b9ce32d" x="260.972375" y="81.217017" style="stroke: #000000"/>
     <use xlink:href="#mb45b9ce32d" x="283.045033" y="73.066194" style="stroke: #000000"/>
     <use xlink:href="#mb45b9ce32d" x="305.240213" y="79.255012" style="stroke: #000000"/>
     <use xlink:href="#mb45b9ce32d" x="327.190508" y="79.336357" style="stroke: #000000"/>
     <use xlink:href="#mb45b9ce32d" x="349.303989" y="74.51822" style="stroke: #000000"/>
     <use xlink:href="#mb45b9ce32d" x="372.075288" y="77.014617" style="stroke: #000000"/>
     <use xlink:href="#mb45b9ce32d" x="400.005376" y="73.09834" style="stroke: #000000"/>
    </g>
   </g>
   <g id="patch_3">
    <path d="M 68.256757 316.486895 
L 68.256757 29.612625 
" style="fill: none; stroke: #000000; stroke-width: 0.8; stroke-linejoin: miter; stroke-linecap: square"/>
   </g>
   <g id="patch_4">
    <path d="M 415.80293 316.486895 
L 415.80293 29.612625 
" style="fill: none; stroke: #000000; stroke-width: 0.8; stroke-linejoin: miter; stroke-linecap: square"/>
   </g>
   <g id="patch_5">
    <path d="M 68.256757 316.486895 
L 415.80293 316.486895 
" style="fill: none; stroke: #000000; stroke-width: 0.8; stroke-linejoin: miter; stroke-linecap: square"/>
   </g>
   <g id="patch_6">
    <path d="M 68.256757 29.612625 
L 415.80293 29.612625 
" style="fill: none; stroke: #000000; stroke-width: 0.8; stroke-linejoin: miter; stroke-linecap: square"/>
   </g>
  </g>
  <g id="axes_2">
   <g id="PolyCollection_2">
    <defs>
     <path id="m17f5f2a371" d="M 84.054311 -290.945926 
L 84.054311 -280.874801 
L 106.167792 -282.288454 
L 128.281274 -284.288696 
L 150.394756 -289.431271 
L 172.508237 -289.407792 
L 194.621719 -287.263064 
L 216.735201 -284.246481 
L 238.858893 -285.038561 
L 260.972375 -285.161064 
L 283.045033 -277.624854 
L 305.240213 -274.895331 
L 327.190508 -263.256711 
L 349.303989 -269.492613 
L 372.075288 -263.293121 
L 400.005376 -263.994291 
L 400.005376 -269.508829 
L 400.005376 -269.508829 
L 372.075288 -278.971561 
L 349.303989 -276.365895 
L 327.190508 -281.624269 
L 305.240213 -283.48465 
L 283.045033 -287.037561 
L 260.972375 -292.04283 
L 238.858893 -293.275748 
L 216.735201 -292.419928 
L 194.621719 -297.839942 
L 172.508237 -298.973298 
L 150.394756 -296.391247 
L 128.281274 -289.645614 
L 106.167792 -289.462216 
L 84.054311 -290.945926 
z
" style="stroke: #808080; stroke-opacity: 0.2"/>
    </defs>
    <g clip-path="url(#pc2759b5044)">
     <use xlink:href="#m17f5f2a371" x="0" y="407.39649" style="fill: #808080; fill-opacity: 0.2; stroke: #808080; stroke-opacity: 0.2"/>
    </g>
   </g>
   <g id="PolyCollection_3">
    <defs>
     <path id="mc2e04b7134" d="M 84.054311 -279.359055 
L 84.054311 -236.112253 
L 106.167792 -236.812347 
L 128.281274 -255.324116 
L 150.394756 -250.336121 
L 172.508237 -240.914761 
L 194.621719 -253.457224 
L 216.735201 -252.095842 
L 238.858893 -227.633842 
L 260.972375 -241.385404 
L 283.045033 -233.322297 
L 305.240213 -232.856324 
L 327.190508 -228.111337 
L 349.303989 -252.151095 
L 372.075288 -227.045889 
L 400.005376 -260.304502 
L 400.005376 -273.885954 
L 400.005376 -273.885954 
L 372.075288 -265.135028 
L 349.303989 -287.09112 
L 327.190508 -284.610257 
L 305.240213 -275.709476 
L 283.045033 -268.174011 
L 260.972375 -295.052432 
L 238.858893 -273.801018 
L 216.735201 -295.877576 
L 194.621719 -296.414307 
L 172.508237 -301.905288 
L 150.394756 -293.119664 
L 128.281274 -285.339208 
L 106.167792 -278.359801 
L 84.054311 -279.359055 
z
" style="stroke: #808080; stroke-opacity: 0.2"/>
    </defs>
    <g clip-path="url(#pc2759b5044)">
     <use xlink:href="#mc2e04b7134" x="0" y="407.39649" style="fill: #808080; fill-opacity: 0.2; stroke: #808080; stroke-opacity: 0.2"/>
    </g>
   </g>
   <g id="matplotlib.axis_3">
    <g id="ytick_6">
     <g id="line2d_13">
      <defs>
       <path id="mb99c3b4eae" d="M 0 0 
L 3.5 0 
" style="stroke: #808080; stroke-width: 0.8"/>
      </defs>
      <g>
       <use xlink:href="#mb99c3b4eae" x="415.80293" y="316.486895" style="fill: #808080; stroke: #808080; stroke-width: 0.8"/>
      </g>
     </g>
     <g id="text_12">
      <text style="fill: #808080; font: 18px 'DejaVu Sans', 'Bitstream Vera Sans', 'Computer Modern Sans Serif', 'Lucida Grande', 'Verdana', 'Geneva', 'Lucid', 'Arial', 'Helvetica', 'Avant Garde', sans-serif; text-anchor: start" x="422.80293" y="323.325488" transform="rotate(-0 422.80293 323.325488)">0.930</text>
     </g>
    </g>
    <g id="ytick_7">
     <g id="line2d_14">
      <g>
       <use xlink:href="#mb99c3b4eae" x="415.80293" y="270.587011" style="fill: #808080; stroke: #808080; stroke-width: 0.8"/>
      </g>
     </g>
     <g id="text_13">
      <text style="fill: #808080; font: 18px 'DejaVu Sans', 'Bitstream Vera Sans', 'Computer Modern Sans Serif', 'Lucida Grande', 'Verdana', 'Geneva', 'Lucid', 'Arial', 'Helvetica', 'Avant Garde', sans-serif; text-anchor: start" x="422.80293" y="277.425605" transform="rotate(-0 422.80293 277.425605)">0.932</text>
     </g>
    </g>
    <g id="ytick_8">
     <g id="line2d_15">
      <g>
       <use xlink:href="#mb99c3b4eae" x="415.80293" y="224.687128" style="fill: #808080; stroke: #808080; stroke-width: 0.8"/>
      </g>
     </g>
     <g id="text_14">
      <text style="fill: #808080; font: 18px 'DejaVu Sans', 'Bitstream Vera Sans', 'Computer Modern Sans Serif', 'Lucida Grande', 'Verdana', 'Geneva', 'Lucid', 'Arial', 'Helvetica', 'Avant Garde', sans-serif; text-anchor: start" x="422.80293" y="231.525722" transform="rotate(-0 422.80293 231.525722)">0.934</text>
     </g>
    </g>
    <g id="ytick_9">
     <g id="line2d_16">
      <g>
       <use xlink:href="#mb99c3b4eae" x="415.80293" y="178.787245" style="fill: #808080; stroke: #808080; stroke-width: 0.8"/>
      </g>
     </g>
     <g id="text_15">
      <text style="fill: #808080; font: 18px 'DejaVu Sans', 'Bitstream Vera Sans', 'Computer Modern Sans Serif', 'Lucida Grande', 'Verdana', 'Geneva', 'Lucid', 'Arial', 'Helvetica', 'Avant Garde', sans-serif; text-anchor: start" x="422.80293" y="185.625839" transform="rotate(-0 422.80293 185.625839)">0.936</text>
     </g>
    </g>
    <g id="ytick_10">
     <g id="line2d_17">
      <g>
       <use xlink:href="#mb99c3b4eae" x="415.80293" y="132.887362" style="fill: #808080; stroke: #808080; stroke-width: 0.8"/>
      </g>
     </g>
     <g id="text_16">
      <text style="fill: #808080; font: 18px 'DejaVu Sans', 'Bitstream Vera Sans', 'Computer Modern Sans Serif', 'Lucida Grande', 'Verdana', 'Geneva', 'Lucid', 'Arial', 'Helvetica', 'Avant Garde', sans-serif; text-anchor: start" x="422.80293" y="139.725956" transform="rotate(-0 422.80293 139.725956)">0.938</text>
     </g>
    </g>
    <g id="ytick_11">
     <g id="line2d_18">
      <g>
       <use xlink:href="#mb99c3b4eae" x="415.80293" y="86.987479" style="fill: #808080; stroke: #808080; stroke-width: 0.8"/>
      </g>
     </g>
     <g id="text_17">
      <text style="fill: #808080; font: 18px 'DejaVu Sans', 'Bitstream Vera Sans', 'Computer Modern Sans Serif', 'Lucida Grande', 'Verdana', 'Geneva', 'Lucid', 'Arial', 'Helvetica', 'Avant Garde', sans-serif; text-anchor: start" x="422.80293" y="93.826073" transform="rotate(-0 422.80293 93.826073)">0.940</text>
     </g>
    </g>
    <g id="ytick_12">
     <g id="line2d_19">
      <g>
       <use xlink:href="#mb99c3b4eae" x="415.80293" y="41.087596" style="fill: #808080; stroke: #808080; stroke-width: 0.8"/>
      </g>
     </g>
     <g id="text_18">
      <text style="fill: #808080; font: 18px 'DejaVu Sans', 'Bitstream Vera Sans', 'Computer Modern Sans Serif', 'Lucida Grande', 'Verdana', 'Geneva', 'Lucid', 'Arial', 'Helvetica', 'Avant Garde', sans-serif; text-anchor: start" x="422.80293" y="47.92619" transform="rotate(-0 422.80293 47.92619)">0.942</text>
     </g>
    </g>
   </g>
   <g id="line2d_20">
    <path d="M 84.054311 121.486126 
L 106.167792 121.521155 
L 128.281274 120.429335 
L 150.394756 114.485231 
L 172.508237 113.205945 
L 194.621719 114.844987 
L 216.735201 119.063285 
L 238.858893 118.239335 
L 260.972375 118.794543 
L 283.045033 125.065282 
L 305.240213 128.206499 
L 327.190508 134.956 
L 349.303989 134.467236 
L 372.075288 136.264149 
L 400.005376 140.64493 
" clip-path="url(#pc2759b5044)" style="fill: none; stroke-dasharray: 5.55,2.4; stroke-dashoffset: 0; stroke: #808080; stroke-width: 1.5"/>
    <defs>
     <path id="m62c3d77b7f" d="M 0 3 
C 0.795609 3 1.55874 2.683901 2.12132 2.12132 
C 2.683901 1.55874 3 0.795609 3 0 
C 3 -0.795609 2.683901 -1.55874 2.12132 -2.12132 
C 1.55874 -2.683901 0.795609 -3 0 -3 
C -0.795609 -3 -1.55874 -2.683901 -2.12132 -2.12132 
C -2.683901 -1.55874 -3 -0.795609 -3 0 
C -3 0.795609 -2.683901 1.55874 -2.12132 2.12132 
C -1.55874 2.683901 -0.795609 3 0 3 
z
" style="stroke: #808080"/>
    </defs>
    <g clip-path="url(#pc2759b5044)">
     <use xlink:href="#m62c3d77b7f" x="84.054311" y="121.486126" style="fill: #808080; stroke: #808080"/>
     <use xlink:href="#m62c3d77b7f" x="106.167792" y="121.521155" style="fill: #808080; stroke: #808080"/>
     <use xlink:href="#m62c3d77b7f" x="128.281274" y="120.429335" style="fill: #808080; stroke: #808080"/>
     <use xlink:href="#m62c3d77b7f" x="150.394756" y="114.485231" style="fill: #808080; stroke: #808080"/>
     <use xlink:href="#m62c3d77b7f" x="172.508237" y="113.205945" style="fill: #808080; stroke: #808080"/>
     <use xlink:href="#m62c3d77b7f" x="194.621719" y="114.844987" style="fill: #808080; stroke: #808080"/>
     <use xlink:href="#m62c3d77b7f" x="216.735201" y="119.063285" style="fill: #808080; stroke: #808080"/>
     <use xlink:href="#m62c3d77b7f" x="238.858893" y="118.239335" style="fill: #808080; stroke: #808080"/>
     <use xlink:href="#m62c3d77b7f" x="260.972375" y="118.794543" style="fill: #808080; stroke: #808080"/>
     <use xlink:href="#m62c3d77b7f" x="283.045033" y="125.065282" style="fill: #808080; stroke: #808080"/>
     <use xlink:href="#m62c3d77b7f" x="305.240213" y="128.206499" style="fill: #808080; stroke: #808080"/>
     <use xlink:href="#m62c3d77b7f" x="327.190508" y="134.956" style="fill: #808080; stroke: #808080"/>
     <use xlink:href="#m62c3d77b7f" x="349.303989" y="134.467236" style="fill: #808080; stroke: #808080"/>
     <use xlink:href="#m62c3d77b7f" x="372.075288" y="136.264149" style="fill: #808080; stroke: #808080"/>
     <use xlink:href="#m62c3d77b7f" x="400.005376" y="140.64493" style="fill: #808080; stroke: #808080"/>
    </g>
   </g>
   <g id="line2d_21">
    <path d="M 84.054311 149.660836 
L 106.167792 149.810416 
L 128.281274 137.064828 
L 150.394756 135.668598 
L 172.508237 135.986465 
L 194.621719 132.460725 
L 216.735201 133.409781 
L 238.858893 156.67906 
L 260.972375 139.177572 
L 283.045033 156.648336 
L 305.240213 153.113589 
L 327.190508 151.035693 
L 349.303989 137.775382 
L 372.075288 161.306031 
L 400.005376 140.301262 
" clip-path="url(#pc2759b5044)" style="fill: none; stroke-dasharray: 1.5,2.475; stroke-dashoffset: 0; stroke: #808080; stroke-width: 1.5"/>
    <g clip-path="url(#pc2759b5044)">
     <use xlink:href="#m62c3d77b7f" x="84.054311" y="149.660836" style="fill: #808080; stroke: #808080"/>
     <use xlink:href="#m62c3d77b7f" x="106.167792" y="149.810416" style="fill: #808080; stroke: #808080"/>
     <use xlink:href="#m62c3d77b7f" x="128.281274" y="137.064828" style="fill: #808080; stroke: #808080"/>
     <use xlink:href="#m62c3d77b7f" x="150.394756" y="135.668598" style="fill: #808080; stroke: #808080"/>
     <use xlink:href="#m62c3d77b7f" x="172.508237" y="135.986465" style="fill: #808080; stroke: #808080"/>
     <use xlink:href="#m62c3d77b7f" x="194.621719" y="132.460725" style="fill: #808080; stroke: #808080"/>
     <use xlink:href="#m62c3d77b7f" x="216.735201" y="133.409781" style="fill: #808080; stroke: #808080"/>
     <use xlink:href="#m62c3d77b7f" x="238.858893" y="156.67906" style="fill: #808080; stroke: #808080"/>
     <use xlink:href="#m62c3d77b7f" x="260.972375" y="139.177572" style="fill: #808080; stroke: #808080"/>
     <use xlink:href="#m62c3d77b7f" x="283.045033" y="156.648336" style="fill: #808080; stroke: #808080"/>
     <use xlink:href="#m62c3d77b7f" x="305.240213" y="153.113589" style="fill: #808080; stroke: #808080"/>
     <use xlink:href="#m62c3d77b7f" x="327.190508" y="151.035693" style="fill: #808080; stroke: #808080"/>
     <use xlink:href="#m62c3d77b7f" x="349.303989" y="137.775382" style="fill: #808080; stroke: #808080"/>
     <use xlink:href="#m62c3d77b7f" x="372.075288" y="161.306031" style="fill: #808080; stroke: #808080"/>
     <use xlink:href="#m62c3d77b7f" x="400.005376" y="140.301262" style="fill: #808080; stroke: #808080"/>
    </g>
   </g>
   <g id="patch_7">
    <path d="M 68.256757 316.486895 
L 68.256757 29.612625 
" style="fill: none; stroke: #000000; stroke-width: 0.8; stroke-linejoin: miter; stroke-linecap: square"/>
   </g>
   <g id="patch_8">
    <path d="M 415.80293 316.486895 
L 415.80293 29.612625 
" style="fill: none; stroke: #000000; stroke-width: 0.8; stroke-linejoin: miter; stroke-linecap: square"/>
   </g>
   <g id="patch_9">
    <path d="M 68.256757 316.486895 
L 415.80293 316.486895 
" style="fill: none; stroke: #000000; stroke-width: 0.8; stroke-linejoin: miter; stroke-linecap: square"/>
   </g>
   <g id="patch_10">
    <path d="M 68.256757 29.612625 
L 415.80293 29.612625 
" style="fill: none; stroke: #000000; stroke-width: 0.8; stroke-linejoin: miter; stroke-linecap: square"/>
   </g>
   <g id="text_19">
    <text style="font: 21.6px 'DejaVu Sans', 'Bitstream Vera Sans', 'Computer Modern Sans Serif', 'Lucida Grande', 'Verdana', 'Geneva', 'Lucid', 'Arial', 'Helvetica', 'Avant Garde', sans-serif; text-anchor: middle" x="242.029844" y="23.612625" transform="rotate(-0 242.029844 23.612625)">Merging correlation coefficients, lysozyme</text>
   </g>
   <g id="legend_1">
    <g id="patch_11">
     <path d="M 80.856757 307.486895 
L 230.616757 307.486895 
Q 234.216757 307.486895 234.216757 303.886895 
L 234.216757 222.355332 
Q 234.216757 218.755332 230.616757 218.755332 
L 80.856757 218.755332 
Q 77.256757 218.755332 77.256757 222.355332 
L 77.256757 303.886895 
Q 77.256757 307.486895 80.856757 307.486895 
z
" style="fill: #ffffff; opacity: 0.01; stroke: #cccccc; stroke-linejoin: miter"/>
    </g>
    <g id="line2d_22">
     <path d="M 84.456757 233.33252 
L 102.456757 233.33252 
L 120.456757 233.33252 
" style="fill: none; stroke: #000000; stroke-width: 1.5; stroke-linecap: square"/>
     <g>
      <use xlink:href="#mb45b9ce32d" x="102.456757" y="233.33252" style="stroke: #000000"/>
     </g>
    </g>
    <g id="text_20">
     <!-- CC$_\text{1/2}$ -->
     <g transform="translate(134.856757 239.63252)">
      <text>
       <tspan style="font: 18px 'DejaVu Sans'" x="0 12.568359" y="-0.640625">CC</tspan>
       <tspan style="font: 12.6px 'DejaVu Sans'" x="25.308984 33.325488 37.133105" y="2.3125">1/2</tspan>
      </text>
     </g>
    </g>
    <g id="line2d_23">
     <path d="M 84.456757 260.149707 
L 102.456757 260.149707 
L 120.456757 260.149707 
" style="fill: none; stroke-dasharray: 5.55,2.4; stroke-dashoffset: 0; stroke: #808080; stroke-width: 1.5"/>
     <g>
      <use xlink:href="#m62c3d77b7f" x="102.456757" y="260.149707" style="fill: #808080; stroke: #808080"/>
     </g>
    </g>
    <g id="text_21">
     <!-- CC$_\text{pred, train}$ -->
     <g transform="translate(134.856757 266.449707)">
      <text>
       <tspan style="font: 18px 'DejaVu Sans'" x="0 12.568359" y="-0.640625">CC</tspan>
       <tspan style="font: 12.6px 'DejaVu Sans'" x="25.308984 33.307031 38.487305 46.239258 54.237305 58.24248 62.247656 67.187988 72.368262 80.089453 83.590137" y="2.3125">pred, train</tspan>
      </text>
     </g>
    </g>
    <g id="line2d_24">
     <path d="M 84.456757 288.406895 
L 102.456757 288.406895 
L 120.456757 288.406895 
" style="fill: none; stroke-dasharray: 1.5,2.475; stroke-dashoffset: 0; stroke: #808080; stroke-width: 1.5"/>
     <g>
      <use xlink:href="#m62c3d77b7f" x="102.456757" y="288.406895" style="fill: #808080; stroke: #808080"/>
     </g>
    </g>
    <g id="text_22">
     <!-- CC$_\text{pred, test}$ -->
     <g transform="translate(134.856757 294.706895)">
      <text>
       <tspan style="font: 18px 'DejaVu Sans'" x="0 12.568359" y="-0.640625">CC</tspan>
       <tspan style="font: 12.6px 'DejaVu Sans'" x="25.308984 33.307031 38.487305 46.239258 54.237305 58.24248 62.247656 67.187988 74.939941 81.504492" y="2.3125">pred, test</tspan>
      </text>
     </g>
    </g>
   </g>
  </g>
 </g>
 <defs>
  <clipPath id="pc2759b5044">
   <rect x="68.256757" y="29.612625" width="347.546172" height="286.87427"/>
  </clipPath>
 </defs>
</svg>
