<?xml version="1.0" encoding="utf-8" standalone="no"?>
<!DOCTYPE svg PUBLIC "-//W3C//DTD SVG 1.1//EN"
  "http://www.w3.org/Graphics/SVG/1.1/DTD/svg11.dtd">
<svg xmlns:xlink="http://www.w3.org/1999/xlink" width="472.529674pt" height="407.460129pt" viewBox="0 0 472.529674 407.460129" xmlns="http://www.w3.org/2000/svg" version="1.1">
 <metadata>
  <rdf:RDF xmlns:dc="http://purl.org/dc/elements/1.1/" xmlns:cc="http://creativecommons.org/ns#" xmlns:rdf="http://www.w3.org/1999/02/22-rdf-syntax-ns#">
   <cc:Work>
    <dc:type rdf:resource="http://purl.org/dc/dcmitype/StillImage"/>
    <dc:date>2024-04-03T19:33:07.193090</dc:date>
    <dc:format>image/svg+xml</dc:format>
    <dc:creator>
     <cc:Agent>
      <dc:title>Matplotlib v3.8.2, https://matplotlib.org/</dc:title>
     </cc:Agent>
    </dc:creator>
   </cc:Work>
  </rdf:RDF>
 </metadata>
 <defs>
  <style type="text/css">*{stroke-linejoin: round; stroke-linecap: butt}</style>
 </defs>
 <g id="figure_1">
  <g id="patch_1">
   <path d="M 0 407.460129 
L 472.529674 407.460129 
L 472.529674 0 
L 0 0 
z
" style="fill: #ffffff"/>
  </g>
  <g id="axes_1">
   <g id="patch_2">
    <path d="M 68.760111 316.550534 
L 405.130111 316.550534 
L 405.130111 29.612625 
L 68.760111 29.612625 
z
" style="fill: #ffffff"/>
   </g>
   <g id="PolyCollection_1">
    <defs>
     <path id="m076f78937c" d="M 84.049657 -354.092955 
L 84.049657 -324.586552 
L 105.452027 -341.682393 
L 126.854397 -351.620885 
L 148.256767 -338.962598 
L 169.659138 -357.403473 
L 191.061508 -352.890208 
L 212.463878 -358.439349 
L 233.87613 -348.839162 
L 255.2785 -351.013869 
L 276.641361 -357.537946 
L 298.122801 -358.237775 
L 319.367232 -352.573511 
L 340.769602 -345.081613 
L 362.808636 -347.351302 
L 389.840566 -345.150655 
L 389.840566 -363.139569 
L 389.840566 -363.139569 
L 362.808636 -360.487383 
L 340.769602 -356.576611 
L 319.367232 -359.199957 
L 298.122801 -361.519581 
L 276.641361 -360.645169 
L 255.2785 -362.8496 
L 233.87613 -362.858428 
L 212.463878 -362.219721 
L 191.061508 -361.72176 
L 169.659138 -358.09609 
L 148.256767 -364.330534 
L 126.854397 -358.602026 
L 105.452027 -348.530744 
L 84.049657 -354.092955 
z
" style="stroke: #000000; stroke-opacity: 0.2"/>
    </defs>
    <g clip-path="url(#pb208b1160a)">
     <use xlink:href="#m076f78937c" x="0" y="407.460129" style="fill-opacity: 0.2; stroke: #000000; stroke-opacity: 0.2"/>
    </g>
   </g>
   <g id="matplotlib.axis_1">
    <g id="xtick_1">
     <g id="line2d_1">
      <defs>
       <path id="m4b44bdcc88" d="M 0 0 
L 0 3.5 
" style="stroke: #000000; stroke-width: 0.8"/>
      </defs>
      <g>
       <use xlink:href="#m4b44bdcc88" x="389.840566" y="316.550534" style="stroke: #000000; stroke-width: 0.8"/>
      </g>
     </g>
     <g id="text_1">
      <text style="font: 18px 'DejaVu Sans', 'Bitstream Vera Sans', 'Computer Modern Sans Serif', 'Lucida Grande', 'Verdana', 'Geneva', 'Lucid', 'Arial', 'Helvetica', 'Avant Garde', sans-serif; text-anchor: middle" x="389.840566" y="337.227722" transform="rotate(-0 389.840566 337.227722)">0.9999</text>
     </g>
    </g>
    <g id="xtick_2">
     <g id="line2d_2">
      <g>
       <use xlink:href="#m4b44bdcc88" x="318.743431" y="316.550534" style="stroke: #000000; stroke-width: 0.8"/>
      </g>
     </g>
     <g id="text_2">
      <text style="font: 18px 'DejaVu Sans', 'Bitstream Vera Sans', 'Computer Modern Sans Serif', 'Lucida Grande', 'Verdana', 'Geneva', 'Lucid', 'Arial', 'Helvetica', 'Avant Garde', sans-serif; text-anchor: middle" x="318.743431" y="337.227722" transform="rotate(-0 318.743431 337.227722)">0.999</text>
     </g>
    </g>
    <g id="xtick_3">
     <g id="line2d_3">
      <g>
       <use xlink:href="#m4b44bdcc88" x="247.646297" y="316.550534" style="stroke: #000000; stroke-width: 0.8"/>
      </g>
     </g>
     <g id="text_3">
      <text style="font: 18px 'DejaVu Sans', 'Bitstream Vera Sans', 'Computer Modern Sans Serif', 'Lucida Grande', 'Verdana', 'Geneva', 'Lucid', 'Arial', 'Helvetica', 'Avant Garde', sans-serif; text-anchor: middle" x="247.646297" y="337.227722" transform="rotate(-0 247.646297 337.227722)">0.99</text>
     </g>
    </g>
    <g id="xtick_4">
     <g id="line2d_4">
      <g>
       <use xlink:href="#m4b44bdcc88" x="176.549162" y="316.550534" style="stroke: #000000; stroke-width: 0.8"/>
      </g>
     </g>
     <g id="text_4">
      <text style="font: 18px 'DejaVu Sans', 'Bitstream Vera Sans', 'Computer Modern Sans Serif', 'Lucida Grande', 'Verdana', 'Geneva', 'Lucid', 'Arial', 'Helvetica', 'Avant Garde', sans-serif; text-anchor: middle" x="176.549162" y="337.227722" transform="rotate(-0 176.549162 337.227722)">0.9</text>
     </g>
    </g>
    <g id="xtick_5">
     <g id="line2d_5">
      <g>
       <use xlink:href="#m4b44bdcc88" x="105.452027" y="316.550534" style="stroke: #000000; stroke-width: 0.8"/>
      </g>
     </g>
     <g id="text_5">
      <text style="font: 18px 'DejaVu Sans', 'Bitstream Vera Sans', 'Computer Modern Sans Serif', 'Lucida Grande', 'Verdana', 'Geneva', 'Lucid', 'Arial', 'Helvetica', 'Avant Garde', sans-serif; text-anchor: middle" x="105.452027" y="337.227722" transform="rotate(-0 105.452027 337.227722)">0</text>
     </g>
    </g>
    <g id="xtick_6">
     <g id="line2d_6">
      <g>
       <use xlink:href="#m4b44bdcc88" x="83.909595" y="316.550534" style="stroke: #000000; stroke-width: 0.8"/>
      </g>
     </g>
     <g id="text_6">
      <text style="font: 18px 'DejaVu Sans', 'Bitstream Vera Sans', 'Computer Modern Sans Serif', 'Lucida Grande', 'Verdana', 'Geneva', 'Lucid', 'Arial', 'Helvetica', 'Avant Garde', sans-serif" transform="translate(16.871232 397.613119) rotate(-45)">univariate</text>
     </g>
    </g>
   </g>
   <g id="matplotlib.axis_2">
    <g id="ytick_1">
     <g id="line2d_7">
      <defs>
       <path id="m39ab30eade" d="M 0 0 
L -3.5 0 
" style="stroke: #000000; stroke-width: 0.8"/>
      </defs>
      <g>
       <use xlink:href="#m39ab30eade" x="68.760111" y="316.550534" style="stroke: #000000; stroke-width: 0.8"/>
      </g>
     </g>
     <g id="text_7">
      <text style="font: 18px 'DejaVu Sans', 'Bitstream Vera Sans', 'Computer Modern Sans Serif', 'Lucida Grande', 'Verdana', 'Geneva', 'Lucid', 'Arial', 'Helvetica', 'Avant Garde', sans-serif; text-anchor: end" x="61.760111" y="323.389128" transform="rotate(-0 61.760111 323.389128)">0.980</text>
     </g>
    </g>
    <g id="ytick_2">
     <g id="line2d_8">
      <g>
       <use xlink:href="#m39ab30eade" x="68.760111" y="248.231984" style="stroke: #000000; stroke-width: 0.8"/>
      </g>
     </g>
     <g id="text_8">
      <text style="font: 18px 'DejaVu Sans', 'Bitstream Vera Sans', 'Computer Modern Sans Serif', 'Lucida Grande', 'Verdana', 'Geneva', 'Lucid', 'Arial', 'Helvetica', 'Avant Garde', sans-serif; text-anchor: end" x="61.760111" y="255.070578" transform="rotate(-0 61.760111 255.070578)">0.985</text>
     </g>
    </g>
    <g id="ytick_3">
     <g id="line2d_9">
      <g>
       <use xlink:href="#m39ab30eade" x="68.760111" y="179.913435" style="stroke: #000000; stroke-width: 0.8"/>
      </g>
     </g>
     <g id="text_9">
      <text style="font: 18px 'DejaVu Sans', 'Bitstream Vera Sans', 'Computer Modern Sans Serif', 'Lucida Grande', 'Verdana', 'Geneva', 'Lucid', 'Arial', 'Helvetica', 'Avant Garde', sans-serif; text-anchor: end" x="61.760111" y="186.752028" transform="rotate(-0 61.760111 186.752028)">0.990</text>
     </g>
    </g>
    <g id="ytick_4">
     <g id="line2d_10">
      <g>
       <use xlink:href="#m39ab30eade" x="68.760111" y="111.594885" style="stroke: #000000; stroke-width: 0.8"/>
      </g>
     </g>
     <g id="text_10">
      <text style="font: 18px 'DejaVu Sans', 'Bitstream Vera Sans', 'Computer Modern Sans Serif', 'Lucida Grande', 'Verdana', 'Geneva', 'Lucid', 'Arial', 'Helvetica', 'Avant Garde', sans-serif; text-anchor: end" x="61.760111" y="118.433479" transform="rotate(-0 61.760111 118.433479)">0.995</text>
     </g>
    </g>
    <g id="ytick_5">
     <g id="line2d_11">
      <g>
       <use xlink:href="#m39ab30eade" x="68.760111" y="43.276335" style="stroke: #000000; stroke-width: 0.8"/>
      </g>
     </g>
     <g id="text_11">
      <text style="font: 18px 'DejaVu Sans', 'Bitstream Vera Sans', 'Computer Modern Sans Serif', 'Lucida Grande', 'Verdana', 'Geneva', 'Lucid', 'Arial', 'Helvetica', 'Avant Garde', sans-serif; text-anchor: end" x="61.760111" y="50.114929" transform="rotate(-0 61.760111 50.114929)">1.000</text>
     </g>
    </g>
   </g>
   <g id="line2d_12">
    <path d="M 84.049657 68.120376 
L 105.452027 62.353561 
L 126.854397 52.348674 
L 148.256767 55.813563 
L 169.659138 49.710348 
L 191.061508 50.154146 
L 212.463878 47.130594 
L 233.87613 51.611335 
L 255.2785 50.528395 
L 276.641361 48.368572 
L 298.122801 47.581451 
L 319.367232 51.573395 
L 340.769602 56.631017 
L 362.808636 53.540787 
L 389.840566 53.315017 
" clip-path="url(#pb208b1160a)" style="fill: none; stroke: #000000; stroke-width: 1.5; stroke-linecap: square"/>
    <defs>
     <path id="mad74e3d241" d="M 0 3 
C 0.795609 3 1.55874 2.683901 2.12132 2.12132 
C 2.683901 1.55874 3 0.795609 3 0 
C 3 -0.795609 2.683901 -1.55874 2.12132 -2.12132 
C 1.55874 -2.683901 0.795609 -3 0 -3 
C -0.795609 -3 -1.55874 -2.683901 -2.12132 -2.12132 
C -2.683901 -1.55874 -3 -0.795609 -3 0 
C -3 0.795609 -2.683901 1.55874 -2.12132 2.12132 
C -1.55874 2.683901 -0.795609 3 0 3 
z
" style="stroke: #000000"/>
    </defs>
    <g clip-path="url(#pb208b1160a)">
     <use xlink:href="#mad74e3d241" x="84.049657" y="68.120376" style="stroke: #000000"/>
     <use xlink:href="#mad74e3d241" x="105.452027" y="62.353561" style="stroke: #000000"/>
     <use xlink:href="#mad74e3d241" x="126.854397" y="52.348674" style="stroke: #000000"/>
     <use xlink:href="#mad74e3d241" x="148.256767" y="55.813563" style="stroke: #000000"/>
     <use xlink:href="#mad74e3d241" x="169.659138" y="49.710348" style="stroke: #000000"/>
     <use xlink:href="#mad74e3d241" x="191.061508" y="50.154146" style="stroke: #000000"/>
     <use xlink:href="#mad74e3d241" x="212.463878" y="47.130594" style="stroke: #000000"/>
     <use xlink:href="#mad74e3d241" x="233.87613" y="51.611335" style="stroke: #000000"/>
     <use xlink:href="#mad74e3d241" x="255.2785" y="50.528395" style="stroke: #000000"/>
     <use xlink:href="#mad74e3d241" x="276.641361" y="48.368572" style="stroke: #000000"/>
     <use xlink:href="#mad74e3d241" x="298.122801" y="47.581451" style="stroke: #000000"/>
     <use xlink:href="#mad74e3d241" x="319.367232" y="51.573395" style="stroke: #000000"/>
     <use xlink:href="#mad74e3d241" x="340.769602" y="56.631017" style="stroke: #000000"/>
     <use xlink:href="#mad74e3d241" x="362.808636" y="53.540787" style="stroke: #000000"/>
     <use xlink:href="#mad74e3d241" x="389.840566" y="53.315017" style="stroke: #000000"/>
    </g>
   </g>
   <g id="patch_3">
    <path d="M 68.760111 316.550534 
L 68.760111 29.612625 
" style="fill: none; stroke: #000000; stroke-width: 0.8; stroke-linejoin: miter; stroke-linecap: square"/>
   </g>
   <g id="patch_4">
    <path d="M 405.130111 316.550534 
L 405.130111 29.612625 
" style="fill: none; stroke: #000000; stroke-width: 0.8; stroke-linejoin: miter; stroke-linecap: square"/>
   </g>
   <g id="patch_5">
    <path d="M 68.760111 316.550534 
L 405.130111 316.550534 
" style="fill: none; stroke: #000000; stroke-width: 0.8; stroke-linejoin: miter; stroke-linecap: square"/>
   </g>
   <g id="patch_6">
    <path d="M 68.760111 29.612625 
L 405.130111 29.612625 
" style="fill: none; stroke: #000000; stroke-width: 0.8; stroke-linejoin: miter; stroke-linecap: square"/>
   </g>
  </g>
  <g id="axes_2">
   <g id="PolyCollection_2">
    <defs>
     <path id="mad70ce8d5f" d="M 84.049657 -207.019022 
L 84.049657 -195.794794 
L 105.452027 -202.603063 
L 126.854397 -189.68403 
L 148.256767 -204.905098 
L 169.659138 -204.634961 
L 191.061508 -205.057295 
L 212.463878 -200.567509 
L 233.87613 -189.389454 
L 255.2785 -183.026549 
L 276.641361 -196.986761 
L 298.122801 -194.994421 
L 319.367232 -178.207539 
L 340.769602 -170.3866 
L 362.808636 -174.045596 
L 389.840566 -185.105864 
L 389.840566 -199.8924 
L 389.840566 -199.8924 
L 362.808636 -196.379117 
L 340.769602 -195.903061 
L 319.367232 -204.043133 
L 298.122801 -205.148494 
L 276.641361 -215.171705 
L 255.2785 -214.774414 
L 233.87613 -236.452453 
L 212.463878 -222.932428 
L 191.061508 -240.900746 
L 169.659138 -234.564759 
L 148.256767 -217.683376 
L 126.854397 -220.246386 
L 105.452027 -215.835329 
L 84.049657 -207.019022 
z
" style="stroke: #808080; stroke-opacity: 0.2"/>
    </defs>
    <g clip-path="url(#pb208b1160a)">
     <use xlink:href="#mad70ce8d5f" x="0" y="407.460129" style="fill: #808080; fill-opacity: 0.2; stroke: #808080; stroke-opacity: 0.2"/>
    </g>
   </g>
   <g id="PolyCollection_3">
    <defs>
     <path id="m286dc9b73a" d="M 84.049657 -192.985367 
L 84.049657 -128.948425 
L 105.452027 -112.501562 
L 126.854397 -148.10916 
L 148.256767 -160.340773 
L 169.659138 -124.763201 
L 191.061508 -138.203966 
L 212.463878 -151.094035 
L 233.87613 -126.252766 
L 255.2785 -129.172104 
L 276.641361 -150.096297 
L 298.122801 -141.490327 
L 319.367232 -143.419966 
L 340.769602 -147.734257 
L 362.808636 -132.100223 
L 389.840566 -154.783096 
L 389.840566 -201.220001 
L 389.840566 -201.220001 
L 362.808636 -197.021118 
L 340.769602 -182.602929 
L 319.367232 -201.794833 
L 298.122801 -207.367968 
L 276.641361 -186.775754 
L 255.2785 -200.090811 
L 233.87613 -180.289826 
L 212.463878 -209.806016 
L 191.061508 -226.370932 
L 169.659138 -226.110219 
L 148.256767 -208.497447 
L 126.854397 -218.769716 
L 105.452027 -223.756175 
L 84.049657 -192.985367 
z
" style="stroke: #808080; stroke-opacity: 0.2"/>
    </defs>
    <g clip-path="url(#pb208b1160a)">
     <use xlink:href="#m286dc9b73a" x="0" y="407.460129" style="fill: #808080; fill-opacity: 0.2; stroke: #808080; stroke-opacity: 0.2"/>
    </g>
   </g>
   <g id="matplotlib.axis_3">
    <g id="ytick_6">
     <g id="line2d_13">
      <defs>
       <path id="me12e879f43" d="M 0 0 
L 3.5 0 
" style="stroke: #808080; stroke-width: 0.8"/>
      </defs>
      <g>
       <use xlink:href="#me12e879f43" x="405.130111" y="316.550534" style="fill: #808080; stroke: #808080; stroke-width: 0.8"/>
      </g>
     </g>
     <g id="text_12">
      <text style="fill: #808080; font: 18px 'DejaVu Sans', 'Bitstream Vera Sans', 'Computer Modern Sans Serif', 'Lucida Grande', 'Verdana', 'Geneva', 'Lucid', 'Arial', 'Helvetica', 'Avant Garde', sans-serif; text-anchor: start" x="412.130111" y="323.389128" transform="rotate(-0 412.130111 323.389128)">0.864</text>
     </g>
    </g>
    <g id="ytick_7">
     <g id="line2d_14">
      <g>
       <use xlink:href="#me12e879f43" x="405.130111" y="259.162952" style="fill: #808080; stroke: #808080; stroke-width: 0.8"/>
      </g>
     </g>
     <g id="text_13">
      <text style="fill: #808080; font: 18px 'DejaVu Sans', 'Bitstream Vera Sans', 'Computer Modern Sans Serif', 'Lucida Grande', 'Verdana', 'Geneva', 'Lucid', 'Arial', 'Helvetica', 'Avant Garde', sans-serif; text-anchor: start" x="412.130111" y="266.001546" transform="rotate(-0 412.130111 266.001546)">0.866</text>
     </g>
    </g>
    <g id="ytick_8">
     <g id="line2d_15">
      <g>
       <use xlink:href="#me12e879f43" x="405.130111" y="201.775371" style="fill: #808080; stroke: #808080; stroke-width: 0.8"/>
      </g>
     </g>
     <g id="text_14">
      <text style="fill: #808080; font: 18px 'DejaVu Sans', 'Bitstream Vera Sans', 'Computer Modern Sans Serif', 'Lucida Grande', 'Verdana', 'Geneva', 'Lucid', 'Arial', 'Helvetica', 'Avant Garde', sans-serif; text-anchor: start" x="412.130111" y="208.613964" transform="rotate(-0 412.130111 208.613964)">0.868</text>
     </g>
    </g>
    <g id="ytick_9">
     <g id="line2d_16">
      <g>
       <use xlink:href="#me12e879f43" x="405.130111" y="144.387789" style="fill: #808080; stroke: #808080; stroke-width: 0.8"/>
      </g>
     </g>
     <g id="text_15">
      <text style="fill: #808080; font: 18px 'DejaVu Sans', 'Bitstream Vera Sans', 'Computer Modern Sans Serif', 'Lucida Grande', 'Verdana', 'Geneva', 'Lucid', 'Arial', 'Helvetica', 'Avant Garde', sans-serif; text-anchor: start" x="412.130111" y="151.226382" transform="rotate(-0 412.130111 151.226382)">0.870</text>
     </g>
    </g>
    <g id="ytick_10">
     <g id="line2d_17">
      <g>
       <use xlink:href="#me12e879f43" x="405.130111" y="87.000207" style="fill: #808080; stroke: #808080; stroke-width: 0.8"/>
      </g>
     </g>
     <g id="text_16">
      <text style="fill: #808080; font: 18px 'DejaVu Sans', 'Bitstream Vera Sans', 'Computer Modern Sans Serif', 'Lucida Grande', 'Verdana', 'Geneva', 'Lucid', 'Arial', 'Helvetica', 'Avant Garde', sans-serif; text-anchor: start" x="412.130111" y="93.838801" transform="rotate(-0 412.130111 93.838801)">0.872</text>
     </g>
    </g>
    <g id="ytick_11">
     <g id="line2d_18">
      <g>
       <use xlink:href="#me12e879f43" x="405.130111" y="29.612625" style="fill: #808080; stroke: #808080; stroke-width: 0.8"/>
      </g>
     </g>
     <g id="text_17">
      <text style="fill: #808080; font: 18px 'DejaVu Sans', 'Bitstream Vera Sans', 'Computer Modern Sans Serif', 'Lucida Grande', 'Verdana', 'Geneva', 'Lucid', 'Arial', 'Helvetica', 'Avant Garde', sans-serif; text-anchor: start" x="412.130111" y="36.451219" transform="rotate(-0 412.130111 36.451219)">0.874</text>
     </g>
    </g>
   </g>
   <g id="line2d_19">
    <path d="M 84.049657 206.053221 
L 105.452027 198.240934 
L 126.854397 202.494921 
L 148.256767 196.165892 
L 169.659138 187.86027 
L 191.061508 184.481109 
L 212.463878 195.710161 
L 233.87613 194.539176 
L 255.2785 208.559648 
L 276.641361 201.380897 
L 298.122801 207.388672 
L 319.367232 216.334794 
L 340.769602 224.315299 
L 362.808636 222.247773 
L 389.840566 214.960997 
" clip-path="url(#pb208b1160a)" style="fill: none; stroke-dasharray: 5.55,2.4; stroke-dashoffset: 0; stroke: #808080; stroke-width: 1.5"/>
    <defs>
     <path id="m5a98262c98" d="M 0 3 
C 0.795609 3 1.55874 2.683901 2.12132 2.12132 
C 2.683901 1.55874 3 0.795609 3 0 
C 3 -0.795609 2.683901 -1.55874 2.12132 -2.12132 
C 1.55874 -2.683901 0.795609 -3 0 -3 
C -0.795609 -3 -1.55874 -2.683901 -2.12132 -2.12132 
C -2.683901 -1.55874 -3 -0.795609 -3 0 
C -3 0.795609 -2.683901 1.55874 -2.12132 2.12132 
C -1.55874 2.683901 -0.795609 3 0 3 
z
" style="stroke: #808080"/>
    </defs>
    <g clip-path="url(#pb208b1160a)">
     <use xlink:href="#m5a98262c98" x="84.049657" y="206.053221" style="fill: #808080; stroke: #808080"/>
     <use xlink:href="#m5a98262c98" x="105.452027" y="198.240934" style="fill: #808080; stroke: #808080"/>
     <use xlink:href="#m5a98262c98" x="126.854397" y="202.494921" style="fill: #808080; stroke: #808080"/>
     <use xlink:href="#m5a98262c98" x="148.256767" y="196.165892" style="fill: #808080; stroke: #808080"/>
     <use xlink:href="#m5a98262c98" x="169.659138" y="187.86027" style="fill: #808080; stroke: #808080"/>
     <use xlink:href="#m5a98262c98" x="191.061508" y="184.481109" style="fill: #808080; stroke: #808080"/>
     <use xlink:href="#m5a98262c98" x="212.463878" y="195.710161" style="fill: #808080; stroke: #808080"/>
     <use xlink:href="#m5a98262c98" x="233.87613" y="194.539176" style="fill: #808080; stroke: #808080"/>
     <use xlink:href="#m5a98262c98" x="255.2785" y="208.559648" style="fill: #808080; stroke: #808080"/>
     <use xlink:href="#m5a98262c98" x="276.641361" y="201.380897" style="fill: #808080; stroke: #808080"/>
     <use xlink:href="#m5a98262c98" x="298.122801" y="207.388672" style="fill: #808080; stroke: #808080"/>
     <use xlink:href="#m5a98262c98" x="319.367232" y="216.334794" style="fill: #808080; stroke: #808080"/>
     <use xlink:href="#m5a98262c98" x="340.769602" y="224.315299" style="fill: #808080; stroke: #808080"/>
     <use xlink:href="#m5a98262c98" x="362.808636" y="222.247773" style="fill: #808080; stroke: #808080"/>
     <use xlink:href="#m5a98262c98" x="389.840566" y="214.960997" style="fill: #808080; stroke: #808080"/>
    </g>
   </g>
   <g id="line2d_20">
    <path d="M 84.049657 246.493234 
L 105.452027 239.331261 
L 126.854397 224.020692 
L 148.256767 223.04102 
L 169.659138 232.02342 
L 191.061508 225.17268 
L 212.463878 227.010104 
L 233.87613 254.188833 
L 255.2785 242.828672 
L 276.641361 239.024104 
L 298.122801 233.030982 
L 319.367232 234.85273 
L 340.769602 242.291536 
L 362.808636 242.899459 
L 389.840566 229.458581 
" clip-path="url(#pb208b1160a)" style="fill: none; stroke-dasharray: 1.5,2.475; stroke-dashoffset: 0; stroke: #808080; stroke-width: 1.5"/>
    <g clip-path="url(#pb208b1160a)">
     <use xlink:href="#m5a98262c98" x="84.049657" y="246.493234" style="fill: #808080; stroke: #808080"/>
     <use xlink:href="#m5a98262c98" x="105.452027" y="239.331261" style="fill: #808080; stroke: #808080"/>
     <use xlink:href="#m5a98262c98" x="126.854397" y="224.020692" style="fill: #808080; stroke: #808080"/>
     <use xlink:href="#m5a98262c98" x="148.256767" y="223.04102" style="fill: #808080; stroke: #808080"/>
     <use xlink:href="#m5a98262c98" x="169.659138" y="232.02342" style="fill: #808080; stroke: #808080"/>
     <use xlink:href="#m5a98262c98" x="191.061508" y="225.17268" style="fill: #808080; stroke: #808080"/>
     <use xlink:href="#m5a98262c98" x="212.463878" y="227.010104" style="fill: #808080; stroke: #808080"/>
     <use xlink:href="#m5a98262c98" x="233.87613" y="254.188833" style="fill: #808080; stroke: #808080"/>
     <use xlink:href="#m5a98262c98" x="255.2785" y="242.828672" style="fill: #808080; stroke: #808080"/>
     <use xlink:href="#m5a98262c98" x="276.641361" y="239.024104" style="fill: #808080; stroke: #808080"/>
     <use xlink:href="#m5a98262c98" x="298.122801" y="233.030982" style="fill: #808080; stroke: #808080"/>
     <use xlink:href="#m5a98262c98" x="319.367232" y="234.85273" style="fill: #808080; stroke: #808080"/>
     <use xlink:href="#m5a98262c98" x="340.769602" y="242.291536" style="fill: #808080; stroke: #808080"/>
     <use xlink:href="#m5a98262c98" x="362.808636" y="242.899459" style="fill: #808080; stroke: #808080"/>
     <use xlink:href="#m5a98262c98" x="389.840566" y="229.458581" style="fill: #808080; stroke: #808080"/>
    </g>
   </g>
   <g id="patch_7">
    <path d="M 68.760111 316.550534 
L 68.760111 29.612625 
" style="fill: none; stroke: #000000; stroke-width: 0.8; stroke-linejoin: miter; stroke-linecap: square"/>
   </g>
   <g id="patch_8">
    <path d="M 405.130111 316.550534 
L 405.130111 29.612625 
" style="fill: none; stroke: #000000; stroke-width: 0.8; stroke-linejoin: miter; stroke-linecap: square"/>
   </g>
   <g id="patch_9">
    <path d="M 68.760111 316.550534 
L 405.130111 316.550534 
" style="fill: none; stroke: #000000; stroke-width: 0.8; stroke-linejoin: miter; stroke-linecap: square"/>
   </g>
   <g id="patch_10">
    <path d="M 68.760111 29.612625 
L 405.130111 29.612625 
" style="fill: none; stroke: #000000; stroke-width: 0.8; stroke-linejoin: miter; stroke-linecap: square"/>
   </g>
   <g id="text_18">
    <text style="font: 21.6px 'DejaVu Sans', 'Bitstream Vera Sans', 'Computer Modern Sans Serif', 'Lucida Grande', 'Verdana', 'Geneva', 'Lucid', 'Arial', 'Helvetica', 'Avant Garde', sans-serif; text-anchor: middle" x="236.945111" y="23.612625" transform="rotate(-0 236.945111 23.612625)">Merging correlation coefficients, lysozyme</text>
   </g>
   <g id="legend_1">
    <g id="patch_11">
     <path d="M 81.360111 127.344187 
L 231.120111 127.344187 
Q 234.720111 127.344187 234.720111 123.744187 
L 234.720111 42.212625 
Q 234.720111 38.612625 231.120111 38.612625 
L 81.360111 38.612625 
Q 77.760111 38.612625 77.760111 42.212625 
L 77.760111 123.744187 
Q 77.760111 127.344187 81.360111 127.344187 
z
" style="fill: #ffffff; opacity: 0.01; stroke: #cccccc; stroke-linejoin: miter"/>
    </g>
    <g id="line2d_21">
     <path d="M 84.960111 53.189812 
L 102.960111 53.189812 
L 120.960111 53.189812 
" style="fill: none; stroke: #000000; stroke-width: 1.5; stroke-linecap: square"/>
     <g>
      <use xlink:href="#mad74e3d241" x="102.960111" y="53.189812" style="stroke: #000000"/>
     </g>
    </g>
    <g id="text_19">
     <!-- CC$_\text{1/2}$ -->
     <g transform="translate(135.360111 59.489812)">
      <text>
       <tspan style="font: 18px 'DejaVu Sans'" x="0 12.568359" y="-0.640625">CC</tspan>
       <tspan style="font: 12.6px 'DejaVu Sans'" x="25.308984 33.325488 37.133105" y="2.3125">1/2</tspan>
      </text>
     </g>
    </g>
    <g id="line2d_22">
     <path d="M 84.960111 80.007 
L 102.960111 80.007 
L 120.960111 80.007 
" style="fill: none; stroke-dasharray: 5.55,2.4; stroke-dashoffset: 0; stroke: #808080; stroke-width: 1.5"/>
     <g>
      <use xlink:href="#m5a98262c98" x="102.960111" y="80.007" style="fill: #808080; stroke: #808080"/>
     </g>
    </g>
    <g id="text_20">
     <!-- CC$_\text{pred, train}$ -->
     <g transform="translate(135.360111 86.307)">
      <text>
       <tspan style="font: 18px 'DejaVu Sans'" x="0 12.568359" y="-0.640625">CC</tspan>
       <tspan style="font: 12.6px 'DejaVu Sans'" x="25.308984 33.307031 38.487305 46.239258 54.237305 58.24248 62.247656 67.187988 72.368262 80.089453 83.590137" y="2.3125">pred, train</tspan>
      </text>
     </g>
    </g>
    <g id="line2d_23">
     <path d="M 84.960111 108.264188 
L 102.960111 108.264188 
L 120.960111 108.264188 
" style="fill: none; stroke-dasharray: 1.5,2.475; stroke-dashoffset: 0; stroke: #808080; stroke-width: 1.5"/>
     <g>
      <use xlink:href="#m5a98262c98" x="102.960111" y="108.264188" style="fill: #808080; stroke: #808080"/>
     </g>
    </g>
    <g id="text_21">
     <!-- CC$_\text{pred, test}$ -->
     <g transform="translate(135.360111 114.564188)">
      <text>
       <tspan style="font: 18px 'DejaVu Sans'" x="0 12.568359" y="-0.640625">CC</tspan>
       <tspan style="font: 12.6px 'DejaVu Sans'" x="25.308984 33.307031 38.487305 46.239258 54.237305 58.24248 62.247656 67.187988 74.939941 81.504492" y="2.3125">pred, test</tspan>
      </text>
     </g>
    </g>
   </g>
  </g>
 </g>
 <defs>
  <clipPath id="pb208b1160a">
   <rect x="68.760111" y="29.612625" width="336.37" height="286.937909"/>
  </clipPath>
 </defs>
</svg>
