<?xml version="1.0" encoding="utf-8" standalone="no"?>
<!DOCTYPE svg PUBLIC "-//W3C//DTD SVG 1.1//EN"
  "http://www.w3.org/Graphics/SVG/1.1/DTD/svg11.dtd">
<svg xmlns:xlink="http://www.w3.org/1999/xlink" width="472.69346pt" height="407.39649pt" viewBox="0 0 472.69346 407.39649" xmlns="http://www.w3.org/2000/svg" version="1.1">
 <metadata>
  <rdf:RDF xmlns:dc="http://purl.org/dc/elements/1.1/" xmlns:cc="http://creativecommons.org/ns#" xmlns:rdf="http://www.w3.org/1999/02/22-rdf-syntax-ns#">
   <cc:Work>
    <dc:type rdf:resource="http://purl.org/dc/dcmitype/StillImage"/>
    <dc:date>2024-10-31T17:41:47.289434</dc:date>
    <dc:format>image/svg+xml</dc:format>
    <dc:creator>
     <cc:Agent>
      <dc:title>Matplotlib v3.8.2, https://matplotlib.org/</dc:title>
     </cc:Agent>
    </dc:creator>
   </cc:Work>
  </rdf:RDF>
 </metadata>
 <defs>
  <style type="text/css">*{stroke-linejoin: round; stroke-linecap: butt}</style>
 </defs>
 <g id="figure_1">
  <g id="patch_1">
   <path d="M 0 407.39649 
L 472.69346 407.39649 
L 472.69346 0 
L 0 0 
z
" style="fill: #ffffff"/>
  </g>
  <g id="axes_1">
   <g id="patch_2">
    <path d="M 68.743898 316.486895 
L 405.473898 316.486895 
L 405.473898 29.612625 
L 68.743898 29.612625 
z
" style="fill: #ffffff"/>
   </g>
   <g id="PolyCollection_1">
    <defs>
     <path id="m99ed275b16" d="M 84.049807 -354.034584 
L 84.049807 -324.534725 
L 105.475083 -341.626774 
L 126.900359 -351.563062 
L 148.325635 -338.907583 
L 169.750911 -357.344367 
L 191.176187 -352.832104 
L 212.601463 -358.380014 
L 234.036632 -348.781956 
L 255.461908 -350.956181 
L 276.847632 -357.478811 
L 298.352063 -358.178485 
L 319.619231 -352.515477 
L 341.044507 -345.025241 
L 363.107128 -347.294426 
L 390.167989 -345.094267 
L 390.167989 -363.079192 
L 390.167989 -363.079192 
L 363.107128 -360.427594 
L 341.044507 -356.517689 
L 319.619231 -359.140454 
L 298.352063 -361.459563 
L 276.847632 -360.585345 
L 255.461908 -362.789287 
L 234.036632 -362.798113 
L 212.601463 -362.159548 
L 191.176187 -361.661697 
L 169.750911 -358.036831 
L 148.325635 -364.269893 
L 126.900359 -358.542655 
L 105.475083 -348.473606 
L 84.049807 -354.034584 
z
" style="stroke: #000000; stroke-opacity: 0.2"/>
    </defs>
    <g clip-path="url(#p7a5fb9491b)">
     <use xlink:href="#m99ed275b16" x="0" y="407.39649" style="fill-opacity: 0.2; stroke: #000000; stroke-opacity: 0.2"/>
    </g>
   </g>
   <g id="matplotlib.axis_1">
    <g id="xtick_1">
     <g id="line2d_1">
      <defs>
       <path id="m2dfdbb55cd" d="M 0 0 
L 0 3.5 
" style="stroke: #000000; stroke-width: 0.8"/>
      </defs>
      <g>
       <use xlink:href="#m2dfdbb55cd" x="390.167989" y="316.486895" style="stroke: #000000; stroke-width: 0.8"/>
      </g>
     </g>
     <g id="text_1">
      <text style="font: 18px 'DejaVu Sans', 'Bitstream Vera Sans', 'Computer Modern Sans Serif', 'Lucida Grande', 'Verdana', 'Geneva', 'Lucid', 'Arial', 'Helvetica', 'Avant Garde', sans-serif; text-anchor: middle" x="390.167989" y="337.164082" transform="rotate(-0 390.167989 337.164082)">0.9999</text>
     </g>
    </g>
    <g id="xtick_2">
     <g id="line2d_2">
      <g>
       <use xlink:href="#m2dfdbb55cd" x="318.994762" y="316.486895" style="stroke: #000000; stroke-width: 0.8"/>
      </g>
     </g>
     <g id="text_2">
      <text style="font: 18px 'DejaVu Sans', 'Bitstream Vera Sans', 'Computer Modern Sans Serif', 'Lucida Grande', 'Verdana', 'Geneva', 'Lucid', 'Arial', 'Helvetica', 'Avant Garde', sans-serif; text-anchor: middle" x="318.994762" y="337.164082" transform="rotate(-0 318.994762 337.164082)">0.999</text>
     </g>
    </g>
    <g id="xtick_3">
     <g id="line2d_3">
      <g>
       <use xlink:href="#m2dfdbb55cd" x="247.821536" y="316.486895" style="stroke: #000000; stroke-width: 0.8"/>
      </g>
     </g>
     <g id="text_3">
      <text style="font: 18px 'DejaVu Sans', 'Bitstream Vera Sans', 'Computer Modern Sans Serif', 'Lucida Grande', 'Verdana', 'Geneva', 'Lucid', 'Arial', 'Helvetica', 'Avant Garde', sans-serif; text-anchor: middle" x="247.821536" y="337.164082" transform="rotate(-0 247.821536 337.164082)">0.99</text>
     </g>
    </g>
    <g id="xtick_4">
     <g id="line2d_4">
      <g>
       <use xlink:href="#m2dfdbb55cd" x="176.648309" y="316.486895" style="stroke: #000000; stroke-width: 0.8"/>
      </g>
     </g>
     <g id="text_4">
      <text style="font: 18px 'DejaVu Sans', 'Bitstream Vera Sans', 'Computer Modern Sans Serif', 'Lucida Grande', 'Verdana', 'Geneva', 'Lucid', 'Arial', 'Helvetica', 'Avant Garde', sans-serif; text-anchor: middle" x="176.648309" y="337.164082" transform="rotate(-0 176.648309 337.164082)">0.9</text>
     </g>
    </g>
    <g id="xtick_5">
     <g id="line2d_5">
      <g>
       <use xlink:href="#m2dfdbb55cd" x="105.475083" y="316.486895" style="stroke: #000000; stroke-width: 0.8"/>
      </g>
     </g>
     <g id="text_5">
      <text style="font: 18px 'DejaVu Sans', 'Bitstream Vera Sans', 'Computer Modern Sans Serif', 'Lucida Grande', 'Verdana', 'Geneva', 'Lucid', 'Arial', 'Helvetica', 'Avant Garde', sans-serif; text-anchor: middle" x="105.475083" y="337.164082" transform="rotate(-0 105.475083 337.164082)">0</text>
     </g>
    </g>
    <g id="xtick_6">
     <g id="line2d_6">
      <g>
       <use xlink:href="#m2dfdbb55cd" x="83.909595" y="316.486895" style="stroke: #000000; stroke-width: 0.8"/>
      </g>
     </g>
     <g id="text_6">
      <text style="font: 18px 'DejaVu Sans', 'Bitstream Vera Sans', 'Computer Modern Sans Serif', 'Lucida Grande', 'Verdana', 'Geneva', 'Lucid', 'Arial', 'Helvetica', 'Avant Garde', sans-serif" transform="translate(16.871232 397.54948) rotate(-45)">univariate</text>
     </g>
    </g>
   </g>
   <g id="matplotlib.axis_2">
    <g id="ytick_1">
     <g id="line2d_7">
      <defs>
       <path id="md2b6efbd58" d="M 0 0 
L -3.5 0 
" style="stroke: #000000; stroke-width: 0.8"/>
      </defs>
      <g>
       <use xlink:href="#md2b6efbd58" x="68.743898" y="316.486895" style="stroke: #000000; stroke-width: 0.8"/>
      </g>
     </g>
     <g id="text_7">
      <text style="font: 18px 'DejaVu Sans', 'Bitstream Vera Sans', 'Computer Modern Sans Serif', 'Lucida Grande', 'Verdana', 'Geneva', 'Lucid', 'Arial', 'Helvetica', 'Avant Garde', sans-serif; text-anchor: end" x="61.743898" y="323.325488" transform="rotate(-0 61.743898 323.325488)">0.980</text>
     </g>
    </g>
    <g id="ytick_2">
     <g id="line2d_8">
      <g>
       <use xlink:href="#md2b6efbd58" x="68.743898" y="248.183497" style="stroke: #000000; stroke-width: 0.8"/>
      </g>
     </g>
     <g id="text_8">
      <text style="font: 18px 'DejaVu Sans', 'Bitstream Vera Sans', 'Computer Modern Sans Serif', 'Lucida Grande', 'Verdana', 'Geneva', 'Lucid', 'Arial', 'Helvetica', 'Avant Garde', sans-serif; text-anchor: end" x="61.743898" y="255.022091" transform="rotate(-0 61.743898 255.022091)">0.985</text>
     </g>
    </g>
    <g id="ytick_3">
     <g id="line2d_9">
      <g>
       <use xlink:href="#md2b6efbd58" x="68.743898" y="179.8801" style="stroke: #000000; stroke-width: 0.8"/>
      </g>
     </g>
     <g id="text_9">
      <text style="font: 18px 'DejaVu Sans', 'Bitstream Vera Sans', 'Computer Modern Sans Serif', 'Lucida Grande', 'Verdana', 'Geneva', 'Lucid', 'Arial', 'Helvetica', 'Avant Garde', sans-serif; text-anchor: end" x="61.743898" y="186.718693" transform="rotate(-0 61.743898 186.718693)">0.990</text>
     </g>
    </g>
    <g id="ytick_4">
     <g id="line2d_10">
      <g>
       <use xlink:href="#md2b6efbd58" x="68.743898" y="111.576702" style="stroke: #000000; stroke-width: 0.8"/>
      </g>
     </g>
     <g id="text_10">
      <text style="font: 18px 'DejaVu Sans', 'Bitstream Vera Sans', 'Computer Modern Sans Serif', 'Lucida Grande', 'Verdana', 'Geneva', 'Lucid', 'Arial', 'Helvetica', 'Avant Garde', sans-serif; text-anchor: end" x="61.743898" y="118.415296" transform="rotate(-0 61.743898 118.415296)">0.995</text>
     </g>
    </g>
    <g id="ytick_5">
     <g id="line2d_11">
      <g>
       <use xlink:href="#md2b6efbd58" x="68.743898" y="43.273305" style="stroke: #000000; stroke-width: 0.8"/>
      </g>
     </g>
     <g id="text_11">
      <text style="font: 18px 'DejaVu Sans', 'Bitstream Vera Sans', 'Computer Modern Sans Serif', 'Lucida Grande', 'Verdana', 'Geneva', 'Lucid', 'Arial', 'Helvetica', 'Avant Garde', sans-serif; text-anchor: end" x="61.743898" y="50.111898" transform="rotate(-0 61.743898 50.111898)">1.000</text>
     </g>
    </g>
   </g>
   <g id="line2d_12">
    <path d="M 84.049807 68.111835 
L 105.475083 62.3463 
L 126.900359 52.343631 
L 148.325635 55.807752 
L 169.750911 49.705891 
L 191.176187 50.14959 
L 212.601463 47.126709 
L 234.036632 51.606456 
L 255.461908 50.523756 
L 276.847632 48.364412 
L 298.352063 47.577466 
L 319.619231 51.568524 
L 341.044507 56.625025 
L 363.107128 53.53548 
L 390.167989 53.30976 
" clip-path="url(#p7a5fb9491b)" style="fill: none; stroke: #000000; stroke-width: 1.5; stroke-linecap: square"/>
    <defs>
     <path id="mea5b2b4ce3" d="M 0 3 
C 0.795609 3 1.55874 2.683901 2.12132 2.12132 
C 2.683901 1.55874 3 0.795609 3 0 
C 3 -0.795609 2.683901 -1.55874 2.12132 -2.12132 
C 1.55874 -2.683901 0.795609 -3 0 -3 
C -0.795609 -3 -1.55874 -2.683901 -2.12132 -2.12132 
C -2.683901 -1.55874 -3 -0.795609 -3 0 
C -3 0.795609 -2.683901 1.55874 -2.12132 2.12132 
C -1.55874 2.683901 -0.795609 3 0 3 
z
" style="stroke: #000000"/>
    </defs>
    <g clip-path="url(#p7a5fb9491b)">
     <use xlink:href="#mea5b2b4ce3" x="84.049807" y="68.111835" style="stroke: #000000"/>
     <use xlink:href="#mea5b2b4ce3" x="105.475083" y="62.3463" style="stroke: #000000"/>
     <use xlink:href="#mea5b2b4ce3" x="126.900359" y="52.343631" style="stroke: #000000"/>
     <use xlink:href="#mea5b2b4ce3" x="148.325635" y="55.807752" style="stroke: #000000"/>
     <use xlink:href="#mea5b2b4ce3" x="169.750911" y="49.705891" style="stroke: #000000"/>
     <use xlink:href="#mea5b2b4ce3" x="191.176187" y="50.14959" style="stroke: #000000"/>
     <use xlink:href="#mea5b2b4ce3" x="212.601463" y="47.126709" style="stroke: #000000"/>
     <use xlink:href="#mea5b2b4ce3" x="234.036632" y="51.606456" style="stroke: #000000"/>
     <use xlink:href="#mea5b2b4ce3" x="255.461908" y="50.523756" style="stroke: #000000"/>
     <use xlink:href="#mea5b2b4ce3" x="276.847632" y="48.364412" style="stroke: #000000"/>
     <use xlink:href="#mea5b2b4ce3" x="298.352063" y="47.577466" style="stroke: #000000"/>
     <use xlink:href="#mea5b2b4ce3" x="319.619231" y="51.568524" style="stroke: #000000"/>
     <use xlink:href="#mea5b2b4ce3" x="341.044507" y="56.625025" style="stroke: #000000"/>
     <use xlink:href="#mea5b2b4ce3" x="363.107128" y="53.53548" style="stroke: #000000"/>
     <use xlink:href="#mea5b2b4ce3" x="390.167989" y="53.30976" style="stroke: #000000"/>
    </g>
   </g>
   <g id="patch_3">
    <path d="M 68.743898 316.486895 
L 68.743898 29.612625 
" style="fill: none; stroke: #000000; stroke-width: 0.8; stroke-linejoin: miter; stroke-linecap: square"/>
   </g>
   <g id="patch_4">
    <path d="M 405.473898 316.486895 
L 405.473898 29.612625 
" style="fill: none; stroke: #000000; stroke-width: 0.8; stroke-linejoin: miter; stroke-linecap: square"/>
   </g>
   <g id="patch_5">
    <path d="M 68.743898 316.486895 
L 405.473898 316.486895 
" style="fill: none; stroke: #000000; stroke-width: 0.8; stroke-linejoin: miter; stroke-linecap: square"/>
   </g>
   <g id="patch_6">
    <path d="M 68.743898 29.612625 
L 405.473898 29.612625 
" style="fill: none; stroke: #000000; stroke-width: 0.8; stroke-linejoin: miter; stroke-linecap: square"/>
   </g>
  </g>
  <g id="axes_2">
   <g id="PolyCollection_2">
    <defs>
     <path id="m8cb3dc9dc1" d="M 84.049807 -206.993271 
L 84.049807 -195.771532 
L 105.475083 -202.57829 
L 126.900359 -189.662123 
L 148.325635 -204.879815 
L 169.750911 -204.609738 
L 191.176187 -205.031979 
L 212.601463 -200.543188 
L 234.036632 -189.367612 
L 255.461908 -183.006118 
L 276.847632 -196.963234 
L 298.352063 -194.971336 
L 319.619231 -178.188177 
L 341.044507 -170.368973 
L 363.107128 -174.027158 
L 390.167989 -185.084973 
L 390.167989 -199.868228 
L 390.167989 -199.868228 
L 363.107128 -196.355725 
L 341.044507 -195.879775 
L 319.619231 -204.018041 
L 298.352063 -205.123157 
L 276.847632 -215.144145 
L 255.461908 -214.746942 
L 234.036632 -236.420173 
L 212.601463 -222.903147 
L 191.176187 -240.867479 
L 169.750911 -234.532898 
L 148.325635 -217.655259 
L 126.900359 -220.217701 
L 105.475083 -215.807622 
L 84.049807 -206.993271 
z
" style="stroke: #808080; stroke-opacity: 0.2"/>
    </defs>
    <g clip-path="url(#p7a5fb9491b)">
     <use xlink:href="#m8cb3dc9dc1" x="0" y="407.39649" style="fill: #808080; fill-opacity: 0.2; stroke: #808080; stroke-opacity: 0.2"/>
    </g>
   </g>
   <g id="PolyCollection_3">
    <defs>
     <path id="maa2ecdebd4" d="M 84.049807 -192.962727 
L 84.049807 -128.939988 
L 105.475083 -112.496773 
L 126.900359 -148.096474 
L 148.325635 -160.325374 
L 169.750911 -124.755693 
L 191.176187 -138.193477 
L 212.601463 -151.080686 
L 234.036632 -126.244928 
L 255.461908 -129.163618 
L 276.847632 -150.08317 
L 298.352063 -141.479109 
L 319.619231 -143.40832 
L 341.044507 -147.721654 
L 363.107128 -132.091088 
L 390.167989 -154.768929 
L 390.167989 -201.195535 
L 390.167989 -201.195535 
L 363.107128 -196.997584 
L 341.044507 -182.582593 
L 319.619231 -201.770239 
L 298.352063 -207.342139 
L 276.847632 -186.754492 
L 255.461908 -200.066595 
L 234.036632 -180.270003 
L 212.601463 -209.779646 
L 191.176187 -226.340888 
L 169.750911 -226.080233 
L 148.325635 -208.471367 
L 126.900359 -218.741358 
L 105.475083 -223.726711 
L 84.049807 -192.962727 
z
" style="stroke: #808080; stroke-opacity: 0.2"/>
    </defs>
    <g clip-path="url(#p7a5fb9491b)">
     <use xlink:href="#maa2ecdebd4" x="0" y="407.39649" style="fill: #808080; fill-opacity: 0.2; stroke: #808080; stroke-opacity: 0.2"/>
    </g>
   </g>
   <g id="matplotlib.axis_3">
    <g id="ytick_6">
     <g id="line2d_13">
      <defs>
       <path id="mf99981dc3b" d="M 0 0 
L 3.5 0 
" style="stroke: #808080; stroke-width: 0.8"/>
      </defs>
      <g>
       <use xlink:href="#mf99981dc3b" x="405.473898" y="316.486895" style="fill: #808080; stroke: #808080; stroke-width: 0.8"/>
      </g>
     </g>
     <g id="text_12">
      <text style="fill: #808080; font: 18px 'DejaVu Sans', 'Bitstream Vera Sans', 'Computer Modern Sans Serif', 'Lucida Grande', 'Verdana', 'Geneva', 'Lucid', 'Arial', 'Helvetica', 'Avant Garde', sans-serif; text-anchor: start" x="412.473898" y="323.325488" transform="rotate(-0 412.473898 323.325488)">0.864</text>
     </g>
    </g>
    <g id="ytick_7">
     <g id="line2d_14">
      <g>
       <use xlink:href="#mf99981dc3b" x="405.473898" y="259.112041" style="fill: #808080; stroke: #808080; stroke-width: 0.8"/>
      </g>
     </g>
     <g id="text_13">
      <text style="fill: #808080; font: 18px 'DejaVu Sans', 'Bitstream Vera Sans', 'Computer Modern Sans Serif', 'Lucida Grande', 'Verdana', 'Geneva', 'Lucid', 'Arial', 'Helvetica', 'Avant Garde', sans-serif; text-anchor: start" x="412.473898" y="265.950634" transform="rotate(-0 412.473898 265.950634)">0.866</text>
     </g>
    </g>
    <g id="ytick_8">
     <g id="line2d_15">
      <g>
       <use xlink:href="#mf99981dc3b" x="405.473898" y="201.737187" style="fill: #808080; stroke: #808080; stroke-width: 0.8"/>
      </g>
     </g>
     <g id="text_14">
      <text style="fill: #808080; font: 18px 'DejaVu Sans', 'Bitstream Vera Sans', 'Computer Modern Sans Serif', 'Lucida Grande', 'Verdana', 'Geneva', 'Lucid', 'Arial', 'Helvetica', 'Avant Garde', sans-serif; text-anchor: start" x="412.473898" y="208.57578" transform="rotate(-0 412.473898 208.57578)">0.868</text>
     </g>
    </g>
    <g id="ytick_9">
     <g id="line2d_16">
      <g>
       <use xlink:href="#mf99981dc3b" x="405.473898" y="144.362333" style="fill: #808080; stroke: #808080; stroke-width: 0.8"/>
      </g>
     </g>
     <g id="text_15">
      <text style="fill: #808080; font: 18px 'DejaVu Sans', 'Bitstream Vera Sans', 'Computer Modern Sans Serif', 'Lucida Grande', 'Verdana', 'Geneva', 'Lucid', 'Arial', 'Helvetica', 'Avant Garde', sans-serif; text-anchor: start" x="412.473898" y="151.200927" transform="rotate(-0 412.473898 151.200927)">0.870</text>
     </g>
    </g>
    <g id="ytick_10">
     <g id="line2d_17">
      <g>
       <use xlink:href="#mf99981dc3b" x="405.473898" y="86.987479" style="fill: #808080; stroke: #808080; stroke-width: 0.8"/>
      </g>
     </g>
     <g id="text_16">
      <text style="fill: #808080; font: 18px 'DejaVu Sans', 'Bitstream Vera Sans', 'Computer Modern Sans Serif', 'Lucida Grande', 'Verdana', 'Geneva', 'Lucid', 'Arial', 'Helvetica', 'Avant Garde', sans-serif; text-anchor: start" x="412.473898" y="93.826073" transform="rotate(-0 412.473898 93.826073)">0.872</text>
     </g>
    </g>
    <g id="ytick_11">
     <g id="line2d_18">
      <g>
       <use xlink:href="#mf99981dc3b" x="405.473898" y="29.612625" style="fill: #808080; stroke: #808080; stroke-width: 0.8"/>
      </g>
     </g>
     <g id="text_17">
      <text style="fill: #808080; font: 18px 'DejaVu Sans', 'Bitstream Vera Sans', 'Computer Modern Sans Serif', 'Lucida Grande', 'Verdana', 'Geneva', 'Lucid', 'Arial', 'Helvetica', 'Avant Garde', sans-serif; text-anchor: start" x="412.473898" y="36.451219" transform="rotate(-0 412.473898 36.451219)">0.874</text>
     </g>
    </g>
   </g>
   <g id="line2d_19">
    <path d="M 84.049807 206.014089 
L 105.475083 198.203534 
L 126.900359 202.456578 
L 148.325635 196.128953 
L 169.750911 187.825172 
L 191.176187 184.446761 
L 212.601463 195.673322 
L 234.036632 194.502597 
L 255.461908 208.51996 
L 276.847632 201.3428 
L 298.352063 207.349243 
L 319.619231 216.293381 
L 341.044507 224.272116 
L 363.107128 222.205048 
L 390.167989 214.919889 
" clip-path="url(#p7a5fb9491b)" style="fill: none; stroke-dasharray: 5.55,2.4; stroke-dashoffset: 0; stroke: #808080; stroke-width: 1.5"/>
    <defs>
     <path id="m79c87c47c7" d="M 0 3 
C 0.795609 3 1.55874 2.683901 2.12132 2.12132 
C 2.683901 1.55874 3 0.795609 3 0 
C 3 -0.795609 2.683901 -1.55874 2.12132 -2.12132 
C 1.55874 -2.683901 0.795609 -3 0 -3 
C -0.795609 -3 -1.55874 -2.683901 -2.12132 -2.12132 
C -2.683901 -1.55874 -3 -0.795609 -3 0 
C -3 0.795609 -2.683901 1.55874 -2.12132 2.12132 
C -1.55874 2.683901 -0.795609 3 0 3 
z
" style="stroke: #808080"/>
    </defs>
    <g clip-path="url(#p7a5fb9491b)">
     <use xlink:href="#m79c87c47c7" x="84.049807" y="206.014089" style="fill: #808080; stroke: #808080"/>
     <use xlink:href="#m79c87c47c7" x="105.475083" y="198.203534" style="fill: #808080; stroke: #808080"/>
     <use xlink:href="#m79c87c47c7" x="126.900359" y="202.456578" style="fill: #808080; stroke: #808080"/>
     <use xlink:href="#m79c87c47c7" x="148.325635" y="196.128953" style="fill: #808080; stroke: #808080"/>
     <use xlink:href="#m79c87c47c7" x="169.750911" y="187.825172" style="fill: #808080; stroke: #808080"/>
     <use xlink:href="#m79c87c47c7" x="191.176187" y="184.446761" style="fill: #808080; stroke: #808080"/>
     <use xlink:href="#m79c87c47c7" x="212.601463" y="195.673322" style="fill: #808080; stroke: #808080"/>
     <use xlink:href="#m79c87c47c7" x="234.036632" y="194.502597" style="fill: #808080; stroke: #808080"/>
     <use xlink:href="#m79c87c47c7" x="255.461908" y="208.51996" style="fill: #808080; stroke: #808080"/>
     <use xlink:href="#m79c87c47c7" x="276.847632" y="201.3428" style="fill: #808080; stroke: #808080"/>
     <use xlink:href="#m79c87c47c7" x="298.352063" y="207.349243" style="fill: #808080; stroke: #808080"/>
     <use xlink:href="#m79c87c47c7" x="319.619231" y="216.293381" style="fill: #808080; stroke: #808080"/>
     <use xlink:href="#m79c87c47c7" x="341.044507" y="224.272116" style="fill: #808080; stroke: #808080"/>
     <use xlink:href="#m79c87c47c7" x="363.107128" y="222.205048" style="fill: #808080; stroke: #808080"/>
     <use xlink:href="#m79c87c47c7" x="390.167989" y="214.919889" style="fill: #808080; stroke: #808080"/>
    </g>
   </g>
   <g id="line2d_20">
    <path d="M 84.049807 246.445132 
L 105.475083 239.284748 
L 126.900359 223.977574 
L 148.325635 222.998119 
L 169.750911 231.978527 
L 191.176187 225.129307 
L 212.601463 226.966323 
L 234.036632 254.139025 
L 255.461908 242.781383 
L 276.847632 238.977659 
L 298.352063 232.985866 
L 319.619231 234.80721 
L 341.044507 242.244367 
L 363.107128 242.852154 
L 390.167989 229.414258 
" clip-path="url(#p7a5fb9491b)" style="fill: none; stroke-dasharray: 1.5,2.475; stroke-dashoffset: 0; stroke: #808080; stroke-width: 1.5"/>
    <g clip-path="url(#p7a5fb9491b)">
     <use xlink:href="#m79c87c47c7" x="84.049807" y="246.445132" style="fill: #808080; stroke: #808080"/>
     <use xlink:href="#m79c87c47c7" x="105.475083" y="239.284748" style="fill: #808080; stroke: #808080"/>
     <use xlink:href="#m79c87c47c7" x="126.900359" y="223.977574" style="fill: #808080; stroke: #808080"/>
     <use xlink:href="#m79c87c47c7" x="148.325635" y="222.998119" style="fill: #808080; stroke: #808080"/>
     <use xlink:href="#m79c87c47c7" x="169.750911" y="231.978527" style="fill: #808080; stroke: #808080"/>
     <use xlink:href="#m79c87c47c7" x="191.176187" y="225.129307" style="fill: #808080; stroke: #808080"/>
     <use xlink:href="#m79c87c47c7" x="212.601463" y="226.966323" style="fill: #808080; stroke: #808080"/>
     <use xlink:href="#m79c87c47c7" x="234.036632" y="254.139025" style="fill: #808080; stroke: #808080"/>
     <use xlink:href="#m79c87c47c7" x="255.461908" y="242.781383" style="fill: #808080; stroke: #808080"/>
     <use xlink:href="#m79c87c47c7" x="276.847632" y="238.977659" style="fill: #808080; stroke: #808080"/>
     <use xlink:href="#m79c87c47c7" x="298.352063" y="232.985866" style="fill: #808080; stroke: #808080"/>
     <use xlink:href="#m79c87c47c7" x="319.619231" y="234.80721" style="fill: #808080; stroke: #808080"/>
     <use xlink:href="#m79c87c47c7" x="341.044507" y="242.244367" style="fill: #808080; stroke: #808080"/>
     <use xlink:href="#m79c87c47c7" x="363.107128" y="242.852154" style="fill: #808080; stroke: #808080"/>
     <use xlink:href="#m79c87c47c7" x="390.167989" y="229.414258" style="fill: #808080; stroke: #808080"/>
    </g>
   </g>
   <g id="patch_7">
    <path d="M 68.743898 316.486895 
L 68.743898 29.612625 
" style="fill: none; stroke: #000000; stroke-width: 0.8; stroke-linejoin: miter; stroke-linecap: square"/>
   </g>
   <g id="patch_8">
    <path d="M 405.473898 316.486895 
L 405.473898 29.612625 
" style="fill: none; stroke: #000000; stroke-width: 0.8; stroke-linejoin: miter; stroke-linecap: square"/>
   </g>
   <g id="patch_9">
    <path d="M 68.743898 316.486895 
L 405.473898 316.486895 
" style="fill: none; stroke: #000000; stroke-width: 0.8; stroke-linejoin: miter; stroke-linecap: square"/>
   </g>
   <g id="patch_10">
    <path d="M 68.743898 29.612625 
L 405.473898 29.612625 
" style="fill: none; stroke: #000000; stroke-width: 0.8; stroke-linejoin: miter; stroke-linecap: square"/>
   </g>
   <g id="text_18">
    <text style="font: 21.6px 'DejaVu Sans', 'Bitstream Vera Sans', 'Computer Modern Sans Serif', 'Lucida Grande', 'Verdana', 'Geneva', 'Lucid', 'Arial', 'Helvetica', 'Avant Garde', sans-serif; text-anchor: middle" x="237.108898" y="23.612625" transform="rotate(-0 237.108898 23.612625)">Merging correlation coefficients, lysozyme</text>
   </g>
   <g id="legend_1">
    <g id="patch_11">
     <path d="M 81.343898 127.344187 
L 231.103898 127.344187 
Q 234.703898 127.344187 234.703898 123.744187 
L 234.703898 42.212625 
Q 234.703898 38.612625 231.103898 38.612625 
L 81.343898 38.612625 
Q 77.743898 38.612625 77.743898 42.212625 
L 77.743898 123.744187 
Q 77.743898 127.344187 81.343898 127.344187 
z
" style="fill: #ffffff; opacity: 0.01; stroke: #cccccc; stroke-linejoin: miter"/>
    </g>
    <g id="line2d_21">
     <path d="M 84.943898 53.189812 
L 102.943898 53.189812 
L 120.943898 53.189812 
" style="fill: none; stroke: #000000; stroke-width: 1.5; stroke-linecap: square"/>
     <g>
      <use xlink:href="#mea5b2b4ce3" x="102.943898" y="53.189812" style="stroke: #000000"/>
     </g>
    </g>
    <g id="text_19">
     <!-- CC$_\text{1/2}$ -->
     <g transform="translate(135.343898 59.489812)">
      <text>
       <tspan style="font: 18px 'DejaVu Sans'" x="0 12.568359" y="-0.640625">CC</tspan>
       <tspan style="font: 12.6px 'DejaVu Sans'" x="25.308984 33.325488 37.133105" y="2.3125">1/2</tspan>
      </text>
     </g>
    </g>
    <g id="line2d_22">
     <path d="M 84.943898 80.007 
L 102.943898 80.007 
L 120.943898 80.007 
" style="fill: none; stroke-dasharray: 5.55,2.4; stroke-dashoffset: 0; stroke: #808080; stroke-width: 1.5"/>
     <g>
      <use xlink:href="#m79c87c47c7" x="102.943898" y="80.007" style="fill: #808080; stroke: #808080"/>
     </g>
    </g>
    <g id="text_20">
     <!-- CC$_\text{pred, train}$ -->
     <g transform="translate(135.343898 86.307)">
      <text>
       <tspan style="font: 18px 'DejaVu Sans'" x="0 12.568359" y="-0.640625">CC</tspan>
       <tspan style="font: 12.6px 'DejaVu Sans'" x="25.308984 33.307031 38.487305 46.239258 54.237305 58.24248 62.247656 67.187988 72.368262 80.089453 83.590137" y="2.3125">pred, train</tspan>
      </text>
     </g>
    </g>
    <g id="line2d_23">
     <path d="M 84.943898 108.264187 
L 102.943898 108.264187 
L 120.943898 108.264187 
" style="fill: none; stroke-dasharray: 1.5,2.475; stroke-dashoffset: 0; stroke: #808080; stroke-width: 1.5"/>
     <g>
      <use xlink:href="#m79c87c47c7" x="102.943898" y="108.264187" style="fill: #808080; stroke: #808080"/>
     </g>
    </g>
    <g id="text_21">
     <!-- CC$_\text{pred, test}$ -->
     <g transform="translate(135.343898 114.564187)">
      <text>
       <tspan style="font: 18px 'DejaVu Sans'" x="0 12.568359" y="-0.640625">CC</tspan>
       <tspan style="font: 12.6px 'DejaVu Sans'" x="25.308984 33.307031 38.487305 46.239258 54.237305 58.24248 62.247656 67.187988 74.939941 81.504492" y="2.3125">pred, test</tspan>
      </text>
     </g>
    </g>
   </g>
  </g>
 </g>
 <defs>
  <clipPath id="p7a5fb9491b">
   <rect x="68.743898" y="29.612625" width="336.73" height="286.87427"/>
  </clipPath>
 </defs>
</svg>
